<svg width="24" height="25" viewBox="0 0 24 25" fill="none" xmlns="http://www.w3.org/2000/svg">
<path d="M11.99 2.80859C6.47 2.80859 2 7.28859 2 12.8086C2 18.3286 6.47 22.8086 11.99 22.8086C17.52 22.8086 22 18.3286 22 12.8086C22 7.28859 17.52 2.80859 11.99 2.80859ZM12 20.8086C7.58 20.8086 4 17.2286 4 12.8086C4 8.38859 7.58 4.80859 12 4.80859C16.42 4.80859 20 8.38859 20 12.8086C20 17.2286 16.42 20.8086 12 20.8086ZM12.5 7.80859H11V13.8086L16.25 16.9586L17 15.7286L12.5 13.0586V7.80859Z" fill="#969696"/>
</svg>
