<svg width="41" height="41" viewBox="0 0 41 41" fill="none" xmlns="http://www.w3.org/2000/svg">
<path d="M23.8382 10.0703H35.4994C36.3542 10.0703 37.0586 10.7137 37.1549 11.5426L37.1661 11.737V23.4036C37.1661 24.3241 36.4199 25.0703 35.4994 25.0703C34.6447 25.0703 33.9403 24.4269 33.844 23.598L33.8328 23.4036L33.8314 15.7603L21.678 27.9155C21.0775 28.5159 20.1328 28.5625 19.479 28.0549L19.322 27.9165L15.4953 24.0965L6.68179 32.9128C6.03102 33.5638 4.97575 33.5639 4.32477 32.9132C3.72387 32.3124 3.6775 31.3671 4.18577 30.7132L4.32439 30.5561L14.3154 20.562C14.9158 19.9614 15.8606 19.9147 16.5145 20.4223L16.6716 20.5608L20.4984 24.381L31.4731 13.4036H23.8382C22.9835 13.4036 22.279 12.7602 22.1828 11.9313L22.1715 11.737C22.1715 10.8823 22.8149 10.1778 23.6438 10.0815L23.8382 10.0703H35.4994H23.8382Z" fill="#21C1F3"/>
</svg>
