<svg width="62" height="61" viewBox="0 0 62 61" fill="none" xmlns="http://www.w3.org/2000/svg">
<path d="M24.3351 46.8872C14.0021 46.8872 5.59375 38.4789 5.59375 28.1437C5.59375 17.8086 14.0021 9.40234 24.3351 9.40234C34.6703 9.40234 43.0765 17.8107 43.0765 28.1437C43.0786 38.4789 34.6703 46.8872 24.3351 46.8872ZM24.3351 11.0223C14.8945 11.0223 7.21427 18.7031 7.21427 28.1431C7.21427 37.5838 14.895 45.264 24.3351 45.264C33.7757 45.264 41.456 37.5832 41.456 28.1431C41.4581 18.7025 33.7774 11.0223 24.3351 11.0223Z" fill="#9747FF"/>
<path d="M24.3352 41.2778C17.0936 41.2778 11.2041 35.3867 11.2041 28.1468C11.2041 20.9051 17.0952 15.0156 24.3352 15.0156C31.5767 15.0156 37.4663 20.9068 37.4663 28.1468C37.4684 35.3862 31.5773 41.2778 24.3352 41.2778ZM24.3352 16.6346C17.9882 16.6346 12.8246 21.7979 12.8246 28.1451C12.8246 34.4924 17.9879 39.6557 24.3352 39.6557C30.6824 39.6557 35.8457 34.4924 35.8457 28.1451C35.8479 21.7981 30.6824 16.6346 24.3352 16.6346Z" fill="#9747FF"/>
<path d="M24.3345 34.3349C20.9204 34.3349 18.1436 31.5582 18.1436 28.144C18.1436 24.73 20.9204 21.9531 24.3345 21.9531C27.7486 21.9531 30.5255 24.7299 30.5255 28.144C30.5255 31.5581 27.7487 34.3349 24.3345 34.3349ZM24.3345 23.5757C21.8151 23.5757 19.7642 25.6268 19.7642 28.1461C19.7642 30.6656 21.8151 32.7165 24.3345 32.7165C26.8539 32.7165 28.9049 30.6655 28.9049 28.1461C28.9049 25.6246 26.8539 23.5757 24.3345 23.5757Z" fill="#9747FF"/>
<path d="M24.335 27.332H53.823V28.9526H24.335V27.332Z" fill="#9747FF"/>
<path d="M51.8732 28.7155L50.7275 27.5697L53.0633 25.2338H49.643L46.1613 28.7155L45.0156 27.5697L48.7356 23.8496L49.3074 23.6133H55.0193L55.5932 24.9954L51.8732 28.7155Z" fill="#9747FF"/>
<path d="M55.0193 32.6724H49.3074L48.7356 32.434L45.0156 28.7161L46.1613 27.5703L49.643 31.0519H53.0633L50.7275 28.7161L51.8732 27.5703L55.5933 31.2882L55.0193 32.6724Z" fill="#9747FF"/>
<path d="M9.06934 51.0863L13.4182 42.5234L14.8636 43.2578L10.5147 51.8206L9.06934 51.0863Z" fill="#9747FF"/>
<path d="M33.8105 43.2578L35.2559 42.5234L39.6026 51.0863L38.1572 51.8206L33.8105 43.2578Z" fill="#9747FF"/>
</svg>
