<svg width="61" height="61" viewBox="0 0 61 61" fill="none" xmlns="http://www.w3.org/2000/svg">
<path d="M28.5781 34.1132C27.5703 34.1132 26.5851 33.8144 25.7471 33.2545C24.9091 32.6945 24.256 31.8987 23.8703 30.9676C23.4846 30.0365 23.3837 29.012 23.5804 28.0235C23.7769 27.035 24.2623 26.127 24.9749 25.4144C25.6876 24.7017 26.5955 24.2164 27.584 24.0198C28.5724 23.8232 29.597 23.9241 30.5281 24.3098C31.4593 24.6955 32.2551 25.3486 32.815 26.1866C33.3749 27.0245 33.6738 28.0097 33.6738 29.0176C33.6724 30.3686 33.135 31.6638 32.1797 32.6192C31.2244 33.5744 29.9291 34.1118 28.5781 34.1132ZM28.5781 25.7098C27.9239 25.7098 27.2844 25.9038 26.7404 26.2673C26.1964 26.6307 25.7725 27.1473 25.5221 27.7517C25.2718 28.3562 25.2062 29.0213 25.3339 29.6629C25.4615 30.3045 25.7765 30.8939 26.2391 31.3565C26.7017 31.8191 27.2911 32.1342 27.9328 32.2618C28.5744 32.3894 29.2395 32.324 29.8439 32.0736C30.4483 31.8233 30.9649 31.3993 31.3284 30.8553C31.6918 30.3113 31.8859 29.6718 31.8859 29.0176C31.8849 28.1406 31.5361 27.2999 30.916 26.6798C30.2959 26.0596 29.4551 25.7108 28.5781 25.7098Z" fill="#9747FF"/>
<path d="M36.4073 42.8527H20.7474C20.6301 42.8527 20.5138 42.8296 20.4053 42.7847C20.2968 42.7398 20.1983 42.6739 20.1153 42.591C20.0322 42.5079 19.9664 42.4094 19.9215 42.3009C19.8765 42.1924 19.8534 42.0762 19.8535 41.9587V40.0731C19.8549 38.7871 20.3664 37.5542 21.2757 36.6449C22.185 35.7356 23.4179 35.2241 24.7038 35.2227H32.4508C33.7368 35.2241 34.9697 35.7356 35.8791 36.6449C36.7884 37.5542 37.2999 38.7871 37.3012 40.0731V41.9587C37.3013 42.0762 37.2782 42.1924 37.2333 42.3009C37.1883 42.4094 37.1225 42.5079 37.0395 42.591C36.9564 42.6739 36.8579 42.7398 36.7494 42.7847C36.641 42.8296 36.5247 42.8527 36.4073 42.8527ZM21.6414 41.0648H35.5134V40.0731C35.5124 39.2611 35.1894 38.4828 34.6153 37.9086C34.0412 37.3345 33.2628 37.0116 32.4509 37.0106H24.7039C23.892 37.0115 23.1135 37.3344 22.5394 37.9086C21.9653 38.4827 21.6423 39.2611 21.6414 40.0731L21.6414 41.0648Z" fill="#9747FF"/>
<path d="M55.6582 17.9234C55.6582 13.5008 50.8934 9.90234 45.0369 9.90234C39.1804 9.90234 34.4156 13.5008 34.4156 17.9234C34.4204 18.791 34.6042 19.6481 34.9556 20.4412H10.3056C9.75281 20.4616 9.23058 20.7001 8.85318 21.1045C8.47571 21.5089 8.27381 22.0463 8.29158 22.5992V43.9711H7.59798C7.09724 43.9586 6.61196 44.1451 6.24839 44.4897C5.88483 44.8343 5.67261 45.3089 5.6582 45.8096C5.71982 47.1895 6.32503 48.489 7.34164 49.4241C8.35826 50.3593 9.70361 50.8541 11.0839 50.8005H45.9422C47.3224 50.854 48.6677 50.3591 49.6842 49.424C50.7007 48.4889 51.3058 47.1894 51.3674 45.8096C51.353 45.3087 51.1407 44.834 50.7769 44.4894C50.4132 44.1448 49.9277 43.9584 49.4268 43.9711L48.7344 43.9723V25.433C52.7706 24.2955 55.6582 21.3631 55.6582 17.9234ZM45.0369 11.6903C49.9078 11.6903 53.8703 14.4865 53.8703 17.9234C53.8703 21.3605 49.9078 24.1567 45.0369 24.1567C44.0167 24.159 43.0005 24.0317 42.0124 23.7778C41.8099 23.7439 41.6023 23.7575 41.406 23.8175C41.2097 23.8775 41.03 23.9822 40.881 24.1235C39.9597 24.7705 38.9279 25.2436 37.8364 25.5194C38.5575 24.1139 38.9111 22.4779 38.1612 21.8214C37.5708 21.3533 37.0898 20.762 36.7516 20.0888C36.4135 19.4155 36.2264 18.6765 36.2035 17.9234C36.2035 14.4865 40.166 11.6903 45.0369 11.6903ZM49.428 45.7589C49.4829 45.7575 49.5366 45.7754 49.5795 45.8096C49.5174 46.715 49.1004 47.5592 48.4194 48.1589C47.7384 48.7586 46.8481 49.0655 45.9422 49.0126H11.0839C10.1795 49.0655 9.29066 48.7604 8.60951 48.1631C7.92836 47.5658 7.50963 46.7245 7.44392 45.821C7.46303 45.7994 7.48691 45.7826 7.51368 45.7718C7.54038 45.761 7.56926 45.7566 7.59798 45.7589L21.4782 45.752C22.1862 46.2412 23.0114 46.5334 23.8694 46.5988H33.1602C34.0551 46.6346 34.9326 46.3449 35.6304 45.7834L49.428 45.7589ZM46.9466 43.9753L35.6334 43.9946C35.2146 43.991 34.809 44.1417 34.4942 44.418C34.1075 44.6977 33.6367 44.8363 33.1602 44.8109H23.8693C23.352 44.7398 22.8597 44.5442 22.4346 44.2408C22.1585 44.0651 21.8382 43.9715 21.5109 43.9711H10.0795V22.5992C10.0795 22.3731 10.2135 22.2291 10.3056 22.2291H36.074C36.2998 22.502 36.5426 22.7603 36.801 23.0026C36.6391 24.044 36.1926 25.0204 35.5107 25.8241C35.3674 25.988 35.2776 26.1919 35.2536 26.4083C35.2294 26.6248 35.2722 26.8434 35.3759 27.0349C35.4684 27.2085 35.6066 27.3536 35.7755 27.4545C35.9445 27.5555 36.1377 27.6083 36.3345 27.6076C36.3828 27.6077 36.4313 27.6048 36.4794 27.5989C38.419 27.3958 40.2768 26.71 41.8832 25.604L41.9016 25.5918C43.5557 25.9727 45.2659 26.0459 46.9466 25.8077V43.9753Z" fill="#9747FF"/>
<path d="M44.4406 17.0535H39.9525C39.7154 17.0535 39.488 16.9593 39.3204 16.7917C39.1528 16.624 39.0586 16.3967 39.0586 16.1596C39.0586 15.9225 39.1528 15.6952 39.3204 15.5275C39.488 15.3598 39.7154 15.2656 39.9525 15.2656H44.4406C44.6777 15.2656 44.9051 15.3598 45.0727 15.5275C45.2404 15.6952 45.3346 15.9225 45.3346 16.1596C45.3346 16.3967 45.2404 16.624 45.0727 16.7917C44.9051 16.9593 44.6777 17.0535 44.4406 17.0535Z" fill="#9747FF"/>
<path d="M49.8265 20.4168H39.9525C39.7154 20.4168 39.488 20.3226 39.3204 20.1549C39.1528 19.9873 39.0586 19.7599 39.0586 19.5228C39.0586 19.2858 39.1528 19.0584 39.3204 18.8907C39.488 18.7231 39.7154 18.6289 39.9525 18.6289H49.8265C50.0636 18.6289 50.291 18.7231 50.4586 18.8907C50.6263 19.0584 50.7205 19.2858 50.7205 19.5228C50.7205 19.7599 50.6263 19.9873 50.4586 20.1549C50.291 20.3226 50.0636 20.4168 49.8265 20.4168Z" fill="#9747FF"/>
</svg>
