<svg width="317" height="273" viewBox="0 0 317 273" fill="none" xmlns="http://www.w3.org/2000/svg">
<path opacity="0.6" d="M270.247 429.357C293.24 391.61 308.291 349.035 314.137 305.209C317.753 278.096 316.484 247 296.553 228.295C281.616 214.273 259.597 210.785 239.137 211.539C218.677 212.293 198.333 216.599 177.895 215.396C157.458 214.191 135.816 206.112 125.447 188.433C115.635 171.705 118.078 150.865 119.281 131.5C120.481 112.135 119.037 90.1512 104.443 77.3915C83.7733 59.3218 50.0955 70.4873 25.7305 57.8534C2.62081 45.8714 -6.7637 15.3012 -30.5751 4.78903C-50.4783 -4.0001 -73.3875 4.16718 -93.5166 12.4184C-114.502 21.0218 -135.443 29.73 -156.34 38.5446M246.233 454.334C268.737 417.467 283.471 375.887 289.194 333.083C292.733 306.601 291.491 276.23 271.981 257.96C257.361 244.267 235.808 240.859 215.781 241.597C195.756 242.332 175.841 246.539 155.835 245.363C135.829 244.186 114.646 236.295 104.497 219.031C94.8913 202.69 97.2832 182.337 98.4605 163.424C99.6363 144.51 98.2239 123.041 83.9364 110.578C63.7043 92.929 30.7394 103.834 6.89006 91.4953C-15.7296 79.7923 -24.9156 49.9363 -48.2242 39.667C-67.7045 31.0858 -90.1294 39.0608 -109.834 47.1197C-130.374 55.5228 -150.872 64.0277 -171.326 72.6358M223.467 479.311C245.487 443.214 259.901 402.503 265.498 360.592C268.963 334.664 267.747 304.928 248.66 287.04C234.354 273.634 213.267 270.298 193.674 271.019C174.08 271.741 154.597 275.858 135.024 274.706C115.451 273.555 94.7261 265.829 84.7956 248.925C75.3974 232.926 77.7395 212.998 78.8895 194.479C80.0411 175.962 78.6586 154.941 64.6798 142.738C44.8848 125.458 12.6344 136.136 -10.7007 124.053C-32.8317 112.594 -41.8191 83.3634 -64.6218 73.3094C-83.6821 64.906 -105.621 72.7156 -124.9 80.6062C-144.995 88.8341 -165.051 97.161 -185.064 105.59M199.571 504.288C221.045 469.072 235.099 429.353 240.559 388.466C243.937 363.17 242.752 334.159 224.139 316.708C210.188 303.628 189.626 300.372 170.521 301.076C151.414 301.78 132.415 305.798 113.329 304.673C94.2424 303.55 74.0322 296.013 64.3492 279.521C55.1842 263.912 57.4668 244.471 58.5894 226.404C59.7121 208.337 58.3634 187.829 44.7348 175.925C25.4317 159.067 -6.01972 169.483 -28.773 157.697C-50.3543 146.517 -59.1153 117.999 -81.3537 108.189C-99.9398 99.9906 -121.335 107.609 -140.133 115.308C-159.729 123.334 -179.285 131.459 -198.801 139.683M176.806 530.514C197.792 496.067 211.529 457.219 216.865 417.224C220.166 392.483 219.008 364.107 200.816 347.036C187.183 334.243 167.086 331.06 148.414 331.748C129.74 332.436 111.17 336.365 92.517 335.267C73.8638 334.167 54.1107 326.794 44.6477 310.663C35.6912 295.396 37.921 276.38 39.0194 258.708C40.1163 241.036 38.7976 220.978 25.4775 209.332C6.61154 192.844 -24.1255 203.033 -46.3646 191.504C-67.4559 180.569 -76.0198 152.674 -97.7539 143.08C-115.919 135.061 -136.829 142.513 -155.202 150.042C-174.354 157.893 -193.467 165.841 -212.538 173.884M152.912 555.491C173.35 521.926 186.728 484.068 191.926 445.098C195.14 420.987 194.013 393.337 176.297 376.704C163.017 364.237 143.446 361.135 125.261 361.805C107.072 362.475 88.9895 366.305 70.8217 365.234C52.6555 364.162 33.4168 356.979 24.2013 341.259C15.4779 326.383 17.6513 307.851 18.7193 290.632C19.7873 273.412 18.5054 253.866 5.53104 242.519C-12.8416 226.452 -42.7766 236.38 -64.4355 225.145C-84.977 214.49 -93.3175 187.309 -114.486 177.959C-132.176 170.145 -152.54 177.406 -170.434 184.744C-189.086 192.395 -207.7 200.138 -226.276 207.976M128.897 580.468C148.848 547.783 161.909 510.919 166.983 472.971C170.12 449.492 169.019 422.568 151.723 406.37C138.763 394.231 119.656 391.21 101.903 391.862C84.1506 392.516 66.4967 396.244 48.7619 395.201C31.0286 394.158 12.2485 387.162 3.25158 371.855C-5.26316 357.369 -3.14273 339.325 -2.10047 322.557C-1.05672 305.788 -2.30858 286.754 -14.9744 275.705C-32.9098 260.059 -62.1319 269.727 -83.275 258.787C-103.328 248.411 -111.47 221.943 -132.132 212.839C-149.403 205.23 -169.28 212.3 -186.749 219.445C-204.957 226.894 -223.127 234.436 -241.262 242.068M106.132 605.445C125.596 573.531 138.339 537.535 143.288 500.481C146.35 477.557 145.275 451.266 128.403 435.451C115.756 423.598 97.1169 420.647 79.7969 421.285C62.4769 421.921 45.2544 425.563 27.9509 424.544C10.649 423.526 -7.67105 416.696 -16.4495 401.749C-24.7571 387.605 -22.6881 369.986 -21.6701 353.612C-20.6535 337.24 -21.8754 318.654 -34.2312 307.865C-51.7296 292.587 -80.2389 302.028 -100.865 291.346C-120.429 281.215 -128.373 255.369 -148.531 246.481C-165.38 239.051 -184.775 245.954 -201.817 252.931C-219.581 260.205 -237.308 267.569 -254.999 275.021" stroke="#00B5CE"/>
</svg>
