<svg width="57" height="57" viewBox="0 0 57 57" fill="none" xmlns="http://www.w3.org/2000/svg">
<path d="M0.5 12.0086C0.5 5.82301 5.51441 0.808594 11.7 0.808594H45.3C51.4856 0.808594 56.5 5.82301 56.5 12.0086V45.6086C56.5 51.7942 51.4856 56.8086 45.3 56.8086H11.7C5.51442 56.8086 0.5 51.7942 0.5 45.6086V12.0086Z" fill="black"/>
<path d="M36.4193 41.213C36.6382 41.3359 36.8865 41.4006 37.1392 41.4006C37.392 41.4006 37.6403 41.3359 37.8591 41.213C38.0768 41.0908 38.2577 40.9154 38.384 40.7042C38.5103 40.493 38.5776 40.2533 38.5791 40.009L37.6949 40.0035C37.6949 40.0042 37.6949 40.0049 37.6949 40.0056M36.4193 41.213L37.6949 40.0056M36.4193 41.213L28.2551 36.719L36.4193 41.213ZM37.6949 40.0056V19.471V19.4607L37.6951 19.4505C37.709 18.8516 37.4799 18.2667 37.0497 17.8236C36.6217 17.3829 36.0285 17.1182 35.3952 17.0932H21.6046C20.9714 17.1182 20.3781 17.3829 19.9502 17.8236C19.5199 18.2667 19.2908 18.8516 19.3047 19.4505L19.305 19.4607V19.471V40.008C19.3052 40.0943 19.3289 40.1805 19.3757 40.258C19.4227 40.336 19.4921 40.4035 19.5792 40.4511L19.5818 40.4526C19.6625 40.497 19.7548 40.5222 19.8502 40.5246C19.9486 40.5198 20.0427 40.4908 20.1237 40.442L20.1348 40.4353L20.1348 40.4354L27.8094 35.9554L28.2423 35.7026L28.6815 35.9444L36.8457 40.4384L36.8521 40.4419L36.8521 40.442C36.9378 40.4901 37.0369 40.5163 37.1392 40.5163C37.2415 40.5163 37.3406 40.4901 37.4263 40.442L37.4263 40.4419C37.5114 40.3942 37.5791 40.3273 37.6251 40.2504C37.6706 40.1743 37.694 40.09 37.6949 40.0056ZM19.1551 41.227C18.9327 41.1054 18.7475 40.9286 18.6185 40.7146C18.4894 40.5006 18.4212 40.2571 18.4208 40.009L19.1551 41.227Z" fill="white" stroke="#24304C" stroke-width="1.76842"/>
</svg>
