<svg width="14" height="18" viewBox="0 0 14 18" fill="none" xmlns="http://www.w3.org/2000/svg">
<path d="M1.45827 16.5435L1.45633 16.5424C1.41485 16.5189 1.37943 16.4841 1.35439 16.4409C1.32938 16.3977 1.31585 16.3481 1.3157 16.2971V2.91468H1.31585L1.31554 2.9006C1.307 2.5174 1.44823 2.14751 1.70657 1.87086C1.96235 1.59693 2.31224 1.4363 2.68107 1.42064H11.3177C11.6865 1.4363 12.0364 1.59693 12.2922 1.87085L12.7538 1.43981L12.2922 1.87086C12.5505 2.14751 12.6918 2.5174 12.6832 2.9006L12.6831 2.9006V2.91468V16.2954C12.6825 16.3453 12.6692 16.3938 12.6449 16.4361C12.6204 16.4787 12.5858 16.5133 12.5451 16.537L12.5451 16.537C12.5043 16.5608 12.4586 16.573 12.4125 16.573C12.3663 16.573 12.3206 16.5608 12.2798 16.537L12.2798 16.5369L12.2752 16.5343L7.1598 13.6059L6.8366 13.4208L6.51826 13.6141L1.70963 16.5334L1.70959 16.5333L1.70163 16.5383C1.66397 16.562 1.62169 16.5755 1.57852 16.5783C1.53669 16.5766 1.49547 16.5649 1.45827 16.5435Z" stroke="#24304C" stroke-width="1.26316"/>
</svg>
