<svg width="40" height="41" viewBox="0 0 40 41" fill="none" xmlns="http://www.w3.org/2000/svg">
<path opacity="0.4" fill-rule="evenodd" clip-rule="evenodd" d="M14.918 9.09854H25.1558V6.71484H14.918V9.09854ZM12.5906 6.8125V6.82437C11.7914 6.89705 11.0008 7.05576 10.2316 7.29458V7.28568C10.2088 7.2953 10.1872 7.3027 10.1666 7.3098C10.1394 7.31912 10.1138 7.32793 10.0887 7.34056C10.0272 7.3554 9.96714 7.37765 9.90996 7.40583C9.74126 7.46071 9.57256 7.52598 9.41387 7.59273C9.37169 7.60904 9.32952 7.62795 9.28735 7.64686L9.28734 7.64687C9.24517 7.66578 9.20299 7.68469 9.16082 7.70101C9.10291 7.72845 9.04251 7.75849 8.98211 7.78852C8.92171 7.81856 8.8613 7.8486 8.8034 7.87604L8.51747 8.04069C8.4646 8.06765 8.41566 8.09927 8.36573 8.13154C8.336 8.15076 8.30591 8.1702 8.27443 8.18902C7.8441 8.4664 7.44522 8.79125 7.08495 9.1606L7.06351 9.18285C7.01619 9.23801 6.96907 9.29153 6.92259 9.34432C6.84408 9.43349 6.76739 9.5206 6.69465 9.61004L6.67321 9.63081C5.50375 11.2447 4.91759 13.2338 5.01909 15.2496V15.8889H7.32799V15.2437C7.32799 12.4343 8.22296 10.6854 10.2145 9.78952C10.9751 9.46764 11.7785 9.26888 12.5963 9.1962H12.6177V6.82288L12.5906 6.8125ZM33.3373 9.60302L33.3473 9.62379C34.5154 11.2391 35.0987 13.2297 34.9957 15.2456V15.8908H32.6883V15.2293C32.7369 14.0396 32.4981 12.8559 31.992 11.7865C31.5059 10.8713 30.7282 10.1608 29.7889 9.77509C29.0412 9.45321 28.2492 9.25296 27.4414 9.18176V6.82031C28.2406 6.89448 29.0312 7.05171 29.8018 7.29053V7.27866C29.8451 7.29831 29.8781 7.30999 29.9348 7.33003L29.9447 7.33354C29.971 7.34285 29.9956 7.35215 30.0199 7.36135C30.0536 7.37414 30.0869 7.38673 30.1234 7.39881C30.2815 7.45066 30.4293 7.51179 30.5814 7.57468L30.6081 7.58571C30.6783 7.61036 30.7444 7.64093 30.804 7.66848C30.8233 7.6774 30.8419 7.68601 30.8597 7.69399C30.9855 7.74887 31.1142 7.81414 31.2171 7.86902C31.2858 7.90464 31.3527 7.94277 31.4154 7.97852C31.4493 7.99785 31.482 8.01649 31.5131 8.03367C31.5643 8.06196 31.6088 8.09222 31.6517 8.12133C31.6829 8.14258 31.7133 8.16322 31.7447 8.182C32.1764 8.46087 32.5796 8.7872 32.9442 9.15358L32.957 9.17583C33.0914 9.31081 33.2187 9.45321 33.3373 9.60302Z" fill="#24304C"/>
<path d="M27.5055 5.15582V10.4084C27.5055 11.0702 26.9685 11.6062 26.3055 11.6062C25.6425 11.6062 25.1055 11.0702 25.1055 10.4084V5.1678C25.0995 4.50599 25.6335 3.96546 26.2965 3.96097C26.9595 3.95647 27.501 4.48802 27.5055 5.14983V5.15582Z" fill="#24304C"/>
<path d="M14.9078 5.17476V10.4143C14.9078 11.079 14.3702 11.6179 13.7071 11.6179C13.044 11.6179 12.5078 11.079 12.5078 10.4143V5.17476C12.5078 4.51009 13.044 3.97266 13.7071 3.97266C14.3702 3.97266 14.9078 4.51009 14.9078 5.17476Z" fill="#24304C"/>
<path fill-rule="evenodd" clip-rule="evenodd" d="M5.00781 28.8105V15.8867H35.0078V28.8105C35.0078 34.4461 31.8605 37.2935 25.623 37.2935H14.3783C8.15517 37.2935 5.00781 34.4461 5.00781 28.8105ZM11.7734 23.0717C11.7734 23.8536 12.3886 24.488 13.1468 24.488C13.9194 24.488 14.5345 23.8388 14.5202 23.0569C14.5202 22.275 13.9051 21.6406 13.1611 21.6406H13.1468C12.3886 21.6406 11.7734 22.2898 11.7734 23.0717ZM18.6289 23.0717C18.6289 23.8536 19.2584 24.488 20.0166 24.488C20.7748 24.488 21.39 23.8536 21.39 23.0569C21.39 22.2898 20.7748 21.6554 20.0166 21.6406H20.0023C19.2441 21.6554 18.6289 22.2898 18.6289 23.0717ZM26.8656 24.4888C26.1074 24.4888 25.4922 23.8545 25.4922 23.0725C25.4922 22.2906 26.093 21.6562 26.8656 21.6562C27.6238 21.6562 28.239 22.2906 28.239 23.0725C28.239 23.8545 27.6238 24.4888 26.8656 24.4888ZM26.8643 30.5357C26.106 30.5357 25.4909 29.9013 25.4766 29.1194C25.4766 28.3375 26.0917 27.7031 26.85 27.7031H26.8643C27.6225 27.7031 28.2376 28.3375 28.2376 29.1194C28.2376 29.9013 27.6225 30.5357 26.8643 30.5357ZM20.0166 30.5349C19.2584 30.5349 18.6289 29.9005 18.6289 29.1186C18.6289 28.3366 19.2441 27.7023 20.0023 27.6875H20.0166C20.7748 27.7023 21.3757 28.3366 21.39 29.1038C21.39 29.9005 20.7748 30.5349 20.0166 30.5349ZM13.1471 30.5349C12.3888 30.5349 11.7737 29.9005 11.7737 29.1186C11.7594 28.3366 12.3745 27.6875 13.1471 27.6875C13.9053 27.6875 14.5205 28.3219 14.5205 29.1038C14.5205 29.8857 13.9053 30.5349 13.1471 30.5349Z" fill="#24304C"/>
</svg>
