<svg width="47" height="20" viewBox="0 0 47 20" fill="none" xmlns="http://www.w3.org/2000/svg">
<path d="M25.2796 12.1014L18.8244 15.3892V14.1062L23.7761 11.7205L23.736 11.8007V11.6002L23.7761 11.6804L18.8244 9.29478V8.01175L25.2796 11.2995V12.1014Z" fill="#363636"/>
<path d="M0.292928 11.6851C0.292928 13.1578 1.48684 14.3517 2.95959 14.3517C4.43235 14.3517 5.62626 13.1578 5.62626 11.6851C5.62626 10.2123 4.43235 9.01839 2.95959 9.01839C1.48684 9.01839 0.292928 10.2123 0.292928 11.6851ZM41.2929 11.6851C41.2929 13.1578 42.4868 14.3517 43.9596 14.3517C45.4324 14.3517 46.6263 13.1578 46.6263 11.6851C46.6263 10.2123 45.4324 9.01839 43.9596 9.01839C42.4868 9.01839 41.2929 10.2123 41.2929 11.6851ZM2.95959 12.1851H43.9596V11.1851H2.95959V12.1851Z" fill="#363636"/>
</svg>
