<svg width="20" height="21" viewBox="0 0 20 21" fill="none" xmlns="http://www.w3.org/2000/svg">
<path d="M8.73271 5.01163C9.03263 4.72594 9.50737 4.73748 9.79306 5.0374L14.7944 10.2879C15.0703 10.5775 15.0703 11.0328 14.7944 11.3224L9.79306 16.5729C9.50737 16.8728 9.03263 16.8844 8.73271 16.5987C8.43279 16.313 8.42125 15.8383 8.70694 15.5383L13.2155 10.8052L8.70694 6.07198C8.42125 5.77206 8.43279 5.29732 8.73271 5.01163ZM4.73271 5.01163C5.03263 4.72594 5.50737 4.73748 5.79306 5.0374L10.7944 10.2879C11.0703 10.5775 11.0703 11.0328 10.7944 11.3224L5.79306 16.5729C5.50737 16.8728 5.03263 16.8844 4.73271 16.5987C4.43279 16.313 4.42125 15.8383 4.70694 15.5383L9.21553 10.8052L4.70694 6.07198C4.42125 5.77206 4.43279 5.29732 4.73271 5.01163Z" fill="#111111"/>
</svg>
