<svg width="12" height="13" viewBox="0 0 12 13" fill="none" xmlns="http://www.w3.org/2000/svg">
<path d="M6 0.5C9.31371 0.5 12 3.18629 12 6.5C12 9.81371 9.31371 12.5 6 12.5C2.68629 12.5 0 9.81371 0 6.5C0 3.18629 2.68629 0.5 6 0.5ZM6 1.5C3.23858 1.5 1 3.73858 1 6.5C1 9.26142 3.23858 11.5 6 11.5C8.76142 11.5 11 9.26142 11 6.5C11 3.73858 8.76142 1.5 6 1.5ZM5.50153 3.5C5.74699 3.5 5.95114 3.67688 5.99347 3.91012L6.00153 4V6.5H7.5C7.77614 6.5 8 6.72386 8 7C8 7.24546 7.82312 7.44961 7.58988 7.49194L7.5 7.5H5.50153C5.25607 7.5 5.05192 7.32312 5.00958 7.08988L5.00153 7V4C5.00153 3.72386 5.22538 3.5 5.50153 3.5Z" fill="#111111"/>
</svg>
