<svg width="41" height="40" viewBox="0 0 41 40" fill="none" xmlns="http://www.w3.org/2000/svg">
<rect x="0.5" width="40" height="40" rx="12" fill="#EFE9E9"/>
<path d="M18.4232 26.8736C16.2755 26.8736 14.5273 25.1255 14.5273 22.9778V13.582H12.9232C11.5326 13.582 10.4023 14.7121 10.4023 16.1028V28.4778C10.4023 29.8684 11.5326 30.9986 12.9232 30.9986H24.3815C25.7721 30.9986 26.9023 29.8684 26.9023 28.4778V26.8736H18.4232Z" fill="#7D7E93"/>
<path d="M30.569 11.5209C30.569 10.1284 29.4405 9 28.0482 9H18.4232C17.0308 9 15.9023 10.1284 15.9023 11.5209V22.9791C15.9023 24.3716 17.0308 25.5 18.4232 25.5H28.0482C29.4405 25.5 30.569 24.3716 30.569 22.9791V11.5209Z" fill="#9B9CA8"/>
</svg>
