<svg width="413" height="365" viewBox="0 0 413 365" fill="none" xmlns="http://www.w3.org/2000/svg">
<path d="M0 0H411.714V249.08L0 355.577V0Z" fill="url(#paint0_radial_447_2800)"/>
<g style="mix-blend-mode:overlay" opacity="0.5">
<mask id="mask0_447_2800" style="mask-type:alpha" maskUnits="userSpaceOnUse" x="0" y="-1" width="413" height="367">
<path d="M0.571533 0L9.3221 8.103L18.0758 0L26.8295 8.103L35.5832 0L44.3337 8.103L53.0874 0L61.8411 8.103L70.5948 0L79.3485 8.103L88.1022 0L96.8528 8.103L105.606 0L114.36 8.103L123.117 0L131.871 8.103L140.624 0L149.378 8.103L158.132 0L166.885 8.103M166.885 8.103L175.642 0L184.396 8.103L193.15 0L201.903 8.103L210.657 0L219.414 8.103L228.167 0L236.924 8.103L245.681 0L254.438 8.103M166.885 8.103L158.133 0M166.885 8.103L175.638 0L184.391 8.103L193.145 0L201.896 8.103L210.649 0L219.403 8.103L228.157 0L236.91 8.103L245.664 0L254.415 8.103L263.168 0L271.922 8.103L280.679 0L289.432 8.103L298.186 0L306.94 8.103L315.694 0L324.447 8.103L333.204 0L341.958 8.103L350.711 0L359.465 8.103L368.219 0L376.976 8.103L385.729 0L394.486 8.103L403.243 0L412 8.103M0.571533 64.897L9.3221 73L18.0758 64.897L26.8295 73L35.5832 64.897L44.3337 73L53.0874 64.897L61.8411 73L70.5948 64.897L79.3485 73L88.1022 64.897L96.8528 73L105.606 64.897L114.36 73L123.117 64.897L131.871 73L140.624 64.897L149.378 73L158.132 64.897L166.885 73M166.885 73L175.642 64.897L184.396 73L193.15 64.897L201.903 73L210.657 64.897L219.414 73L228.167 64.897L236.924 73L245.681 64.897L254.438 73M166.885 73L158.133 64.897M166.885 73L175.638 64.897L184.391 73L193.145 64.897L201.896 73L210.649 64.897L219.403 73L228.157 64.897L236.91 73L245.664 64.897L254.415 73L263.168 64.897L271.922 73L280.679 64.897L289.432 73L298.186 64.897L306.94 73L315.694 64.897L324.447 73L333.204 64.897L341.958 73L350.711 64.897L359.465 73L368.219 64.897L376.976 73L385.729 64.897L394.486 73L403.243 64.897L412 73M0.571533 202.794L9.3221 210.897L18.0758 202.794L26.8295 210.897L35.5832 202.794L44.3337 210.897L53.0874 202.794L61.8411 210.897L70.5948 202.794L79.3485 210.897L88.1022 202.794L96.8528 210.897L105.606 202.794L114.36 210.897L123.117 202.794L131.871 210.897L140.624 202.794L149.378 210.897L158.132 202.794L166.885 210.897M166.885 210.897L175.642 202.794L184.396 210.897L193.15 202.794L201.903 210.897L210.657 202.794L219.414 210.897L228.167 202.794L236.924 210.897L245.681 202.794L254.438 210.897M166.885 210.897L158.133 202.794M166.885 210.897L175.638 202.794L184.391 210.897L193.145 202.794L201.896 210.897L210.649 202.794L219.403 210.897L228.157 202.794L236.91 210.897L245.664 202.794L254.415 210.897L263.168 202.794L271.922 210.897L280.679 202.794L289.432 210.897L298.186 202.794L306.94 210.897L315.694 202.794L324.447 210.897L333.204 202.794L341.958 210.897L350.711 202.794L359.465 210.897L368.219 202.794L376.976 210.897L385.729 202.794L394.486 210.897L403.243 202.794L412 210.897M0.571533 129.794L9.3221 137.897L18.0758 129.794L26.8295 137.897L35.5832 129.794L44.3337 137.897L53.0874 129.794L61.8411 137.897L70.5948 129.794L79.3485 137.897L88.1022 129.794L96.8528 137.897L105.606 129.794L114.36 137.897L123.117 129.794L131.871 137.897L140.624 129.794L149.378 137.897L158.132 129.794L166.885 137.897M166.885 137.897L175.642 129.794L184.396 137.897L193.15 129.794L201.903 137.897L210.657 129.794L219.414 137.897L228.167 129.794L236.924 137.897L245.681 129.794L254.438 137.897M166.885 137.897L158.133 129.794M166.885 137.897L175.638 129.794L184.391 137.897L193.145 129.794L201.896 137.897L210.649 129.794L219.403 137.897L228.157 129.794L236.91 137.897L245.664 129.794L254.415 137.897L263.168 129.794L271.922 137.897L280.679 129.794L289.432 137.897L298.186 129.794L306.94 137.897L315.694 129.794L324.447 137.897L333.204 129.794L341.958 137.897L350.711 129.794L359.465 137.897L368.219 129.794L376.976 137.897L385.729 129.794L394.486 137.897L403.243 129.794L412 137.897M0.571533 267.655L9.3221 275.794L18.0758 267.655L26.8295 275.794L35.5832 267.655L44.3337 275.794L53.0874 267.655L61.8411 275.794L70.5948 267.655L79.3485 275.794L88.1022 267.655L96.8528 275.794L105.606 267.655L114.36 275.794L123.117 267.655L131.871 275.794L140.624 267.655L149.378 275.794L158.132 267.655L166.885 275.794M166.885 275.794L175.642 267.655L184.396 275.794L193.15 267.655L201.903 275.794L210.657 267.655L219.414 275.794L228.167 267.655L236.924 275.794L245.681 267.655L254.438 275.794M166.885 275.794L158.133 267.655M166.885 275.794L175.638 267.655L184.391 275.794L193.145 267.655L201.896 275.794L210.649 267.655L219.403 275.794L228.157 267.655L236.91 275.794L245.664 267.655L254.415 275.794L263.168 267.655L271.922 275.794L280.679 267.655L289.432 275.794L298.186 267.655L306.94 275.794L315.694 267.655L324.447 275.794L333.204 267.655L341.958 275.794L350.711 267.655L359.465 275.794L368.219 267.655L376.976 275.794L385.729 267.655L394.486 275.794L403.243 267.655L412 275.794M0.571533 32.4486L9.3221 40.5516L18.0758 32.4486L26.8295 40.5516L35.5832 32.4486L44.3337 40.5516L53.0874 32.4486L61.8411 40.5516L70.5948 32.4486L79.3485 40.5516L88.1022 32.4486L96.8528 40.5516L105.606 32.4486L114.36 40.5516L123.117 32.4486L131.871 40.5516L140.624 32.4486L149.378 40.5516L158.132 32.4486L166.885 40.5516M166.885 40.5516L175.642 32.4486L184.396 40.5516L193.15 32.4486L201.903 40.5516L210.657 32.4486L219.414 40.5516L228.167 32.4486L236.924 40.5516L245.681 32.4486L254.438 40.5516M166.885 40.5516L158.133 32.4486M166.885 40.5516L175.638 32.4486L184.391 40.5516L193.145 32.4486L201.896 40.5516L210.649 32.4486L219.403 40.5516L228.157 32.4486L236.91 40.5516L245.664 32.4486L254.415 40.5516L263.168 32.4486L271.922 40.5516L280.679 32.4486L289.432 40.5516L298.186 32.4486L306.94 40.5516L315.694 32.4486L324.447 40.5516L333.204 32.4486L341.958 40.5516L350.711 32.4486L359.465 40.5516L368.219 32.4486L376.976 40.5516L385.729 32.4486L394.486 40.5516L403.243 32.4486L412 40.5516M0.571533 97.3458L9.3221 105.449L18.0758 97.3458L26.8295 105.449L35.5832 97.3458L44.3337 105.449L53.0874 97.3458L61.8411 105.449L70.5948 97.3458L79.3485 105.449L88.1022 97.3458L96.8528 105.449L105.606 97.3458L114.36 105.449L123.117 97.3458L131.871 105.449L140.624 97.3458L149.378 105.449L158.132 97.3458L166.885 105.449M166.885 105.449L175.642 97.3458L184.396 105.449L193.15 97.3458L201.903 105.449L210.657 97.3458L219.414 105.449L228.167 97.3458L236.924 105.449L245.681 97.3458L254.438 105.449M166.885 105.449L158.133 97.3458M166.885 105.449L175.638 97.3458L184.391 105.449L193.145 97.3458L201.896 105.449L210.649 97.3458L219.403 105.449L228.157 97.3458L236.91 105.449L245.664 97.3458L254.415 105.449L263.168 97.3458L271.922 105.449L280.679 97.3458L289.432 105.449L298.186 97.3458L306.94 105.449L315.694 97.3458L324.447 105.449L333.204 97.3458L341.958 105.449L350.711 97.3458L359.465 105.449L368.219 97.3458L376.976 105.449L385.729 97.3458L394.486 105.449L403.243 97.3458L412 105.449M0.571533 235.206L9.3221 243.346L18.0758 235.206L26.8295 243.346L35.5832 235.206L44.3337 243.346L53.0874 235.206L61.8411 243.346L70.5948 235.206L79.3485 243.346L88.1022 235.206L96.8528 243.346L105.606 235.206L114.36 243.346L123.117 235.206L131.871 243.346L140.624 235.206L149.378 243.346L158.132 235.206L166.885 243.346M166.885 243.346L175.642 235.206L184.396 243.346L193.15 235.206L201.903 243.346L210.657 235.206L219.414 243.346L228.167 235.206L236.924 243.346L245.681 235.206L254.438 243.346M166.885 243.346L158.133 235.206M166.885 243.346L175.638 235.206L184.391 243.346L193.145 235.206L201.896 243.346L210.649 235.206L219.403 243.346L228.157 235.206L236.91 243.346L245.664 235.206L254.415 243.346L263.168 235.206L271.922 243.346L280.679 235.206L289.432 243.346L298.186 235.206L306.94 243.346L315.694 235.206L324.447 243.346L333.204 235.206L341.958 243.346L350.711 235.206L359.465 243.346L368.219 235.206L376.976 243.346L385.729 235.206L394.486 243.346L403.243 235.206L412 243.346M0.571533 162.206L9.3221 170.346L18.0758 162.206L26.8295 170.346L35.5832 162.206L44.3337 170.346L53.0874 162.206L61.8411 170.346L70.5948 162.206L79.3485 170.346L88.1022 162.206L96.8528 170.346L105.606 162.206L114.36 170.346L123.117 162.206L131.871 170.346L140.624 162.206L149.378 170.346L158.132 162.206L166.885 170.346M166.885 170.346L175.642 162.206L184.396 170.346L193.15 162.206L201.903 170.346L210.657 162.206L219.414 170.346L228.167 162.206L236.924 170.346L245.681 162.206L254.438 170.346M166.885 170.346L158.133 162.206M166.885 170.346L175.638 162.206L184.391 170.346L193.145 162.206L201.896 170.346L210.649 162.206L219.403 170.346L228.157 162.206L236.91 170.346L245.664 162.206L254.415 170.346L263.168 162.206L271.922 170.346L280.679 162.206L289.432 170.346L298.186 162.206L306.94 170.346L315.694 162.206L324.447 170.346L333.204 162.206L341.958 170.346L350.711 162.206L359.465 170.346L368.219 162.206L376.976 170.346L385.729 162.206L394.486 170.346L403.243 162.206L412 170.346M0.571533 300.103L9.3221 308.206L18.0758 300.103L26.8295 308.206L35.5832 300.103L44.3337 308.206L53.0874 300.103L61.8411 308.206L70.5948 300.103L79.3485 308.206L88.1022 300.103L96.8528 308.206L105.606 300.103L114.36 308.206L123.117 300.103L131.871 308.206L140.624 300.103L149.378 308.206L158.132 300.103L166.885 308.206M166.885 308.206L175.642 300.103L184.396 308.206L193.15 300.103L201.903 308.206L210.657 300.103L219.414 308.206L228.167 300.103L236.924 308.206L245.681 300.103L254.438 308.206M166.885 308.206L158.133 300.103M166.885 308.206L175.638 300.103L184.391 308.206L193.145 300.103L201.896 308.206L210.649 300.103L219.403 308.206L228.157 300.103L236.91 308.206L245.664 300.103L254.415 308.206L263.168 300.103L271.922 308.206L280.679 300.103L289.432 308.206L298.186 300.103L306.94 308.206L315.694 300.103L324.447 308.206L333.204 300.103L341.958 308.206L350.711 300.103L359.465 308.206L368.219 300.103L376.976 308.206L385.729 300.103L394.486 308.206L403.243 300.103L412 308.206M0.571533 332.552L9.3221 340.655L18.0758 332.552L26.8295 340.655L35.5832 332.552L44.3337 340.655L53.0874 332.552L61.8411 340.655L70.5948 332.552L79.3485 340.655L88.1022 332.552L96.8528 340.655L105.606 332.552L114.36 340.655L123.117 332.552L131.871 340.655L140.624 332.552L149.378 340.655L158.132 332.552L166.885 340.655M166.885 340.655L175.642 332.552L184.396 340.655L193.15 332.552L201.903 340.655L210.657 332.552L219.414 340.655L228.167 332.552L236.924 340.655L245.681 332.552L254.438 340.655M166.885 340.655L158.133 332.552M166.885 340.655L175.638 332.552L184.391 340.655L193.145 332.552L201.896 340.655L210.649 332.552L219.403 340.655L228.157 332.552L236.91 340.655L245.664 332.552L254.415 340.655L263.168 332.552L271.922 340.655L280.679 332.552L289.432 340.655L298.186 332.552L306.94 340.655L315.694 332.552L324.447 340.655L333.204 332.552L341.958 340.655L350.711 332.552L359.465 340.655L368.219 332.552L376.976 340.655L385.729 332.552L394.486 340.655L403.243 332.552L412 340.655M0.571533 16.2061L9.3221 24.3456L18.0758 16.2061L26.8295 24.3456L35.5832 16.2061L44.3337 24.3456L53.0874 16.2061L61.8411 24.3456L70.5948 16.2061L79.3485 24.3456L88.1022 16.2061L96.8528 24.3456L105.606 16.2061L114.36 24.3456L123.117 16.2061L131.871 24.3456L140.624 16.2061L149.378 24.3456L158.132 16.2061L166.885 24.3456M166.885 24.3456L175.642 16.2061L184.396 24.3456L193.15 16.2061L201.903 24.3456L210.657 16.2061L219.414 24.3456L228.167 16.2061L236.924 24.3456L245.681 16.2061L254.438 24.3456M166.885 24.3456L158.133 16.2061M166.885 24.3456L175.638 16.2061L184.391 24.3456L193.145 16.2061L201.896 24.3456L210.649 16.2061L219.403 24.3456L228.157 16.2061L236.91 24.3456L245.664 16.2061L254.415 24.3456L263.168 16.2061L271.922 24.3456L280.679 16.2061L289.432 24.3456L298.186 16.2061L306.94 24.3456L315.694 16.2061L324.447 24.3456L333.204 16.2061L341.958 24.3456L350.711 16.2061L359.465 24.3456L368.219 16.2061L376.976 24.3456L385.729 16.2061L394.486 24.3456L403.243 16.2061L412 24.3456M0.571533 81.103L9.3221 89.206L18.0758 81.103L26.8295 89.206L35.5832 81.103L44.3337 89.206L53.0874 81.103L61.8411 89.206L70.5948 81.103L79.3485 89.206L88.1022 81.103L96.8528 89.206L105.606 81.103L114.36 89.206L123.117 81.103L131.871 89.206L140.624 81.103L149.378 89.206L158.132 81.103L166.885 89.206M166.885 89.206L175.642 81.103L184.396 89.206L193.15 81.103L201.903 89.206L210.657 81.103L219.414 89.206L228.167 81.103L236.924 89.206L245.681 81.103L254.438 89.206M166.885 89.206L158.133 81.103M166.885 89.206L175.638 81.103L184.391 89.206L193.145 81.103L201.896 89.206L210.649 81.103L219.403 89.206L228.157 81.103L236.91 89.206L245.664 81.103L254.415 89.206L263.168 81.103L271.922 89.206L280.679 81.103L289.432 89.206L298.186 81.103L306.94 89.206L315.694 81.103L324.447 89.206L333.204 81.103L341.958 89.206L350.711 81.103L359.465 89.206L368.219 81.103L376.976 89.206L385.729 81.103L394.486 89.206L403.243 81.103L412 89.206M0.571533 219L9.3221 227.103L18.0758 219L26.8295 227.103L35.5832 219L44.3337 227.103L53.0874 219L61.8411 227.103L70.5948 219L79.3485 227.103L88.1022 219L96.8528 227.103L105.606 219L114.36 227.103L123.117 219L131.871 227.103L140.624 219L149.378 227.103L158.132 219L166.885 227.103M166.885 227.103L175.642 219L184.396 227.103L193.15 219L201.903 227.103L210.657 219L219.414 227.103L228.167 219L236.924 227.103L245.681 219L254.438 227.103M166.885 227.103L158.133 219M166.885 227.103L175.638 219L184.391 227.103L193.145 219L201.896 227.103L210.649 219L219.403 227.103L228.157 219L236.91 227.103L245.664 219L254.415 227.103L263.168 219L271.922 227.103L280.679 219L289.432 227.103L298.186 219L306.94 227.103L315.694 219L324.447 227.103L333.204 219L341.958 227.103L350.711 219L359.465 227.103L368.219 219L376.976 227.103L385.729 219L394.486 227.103L403.243 219L412 227.103M0.571533 146L9.3221 154.103L18.0758 146L26.8295 154.103L35.5832 146L44.3337 154.103L53.0874 146L61.8411 154.103L70.5948 146L79.3485 154.103L88.1022 146L96.8528 154.103L105.606 146L114.36 154.103L123.117 146L131.871 154.103L140.624 146L149.378 154.103L158.132 146L166.885 154.103M166.885 154.103L175.642 146L184.396 154.103L193.15 146L201.903 154.103L210.657 146L219.414 154.103L228.167 146L236.924 154.103L245.681 146L254.438 154.103M166.885 154.103L158.133 146M166.885 154.103L175.638 146L184.391 154.103L193.145 146L201.896 154.103L210.649 146L219.403 154.103L228.157 146L236.91 154.103L245.664 146L254.415 154.103L263.168 146L271.922 154.103L280.679 146L289.432 154.103L298.186 146L306.94 154.103L315.694 146L324.447 154.103L333.204 146L341.958 154.103L350.711 146L359.465 154.103L368.219 146L376.976 154.103L385.729 146L394.486 154.103L403.243 146L412 154.103M0.571533 283.897L9.3221 292L18.0758 283.897L26.8295 292L35.5832 283.897L44.3337 292L53.0874 283.897L61.8411 292L70.5948 283.897L79.3485 292L88.1022 283.897L96.8528 292L105.606 283.897L114.36 292L123.117 283.897L131.871 292L140.624 283.897L149.378 292L158.132 283.897L166.885 292M166.885 292L175.642 283.897L184.396 292L193.15 283.897L201.903 292L210.657 283.897L219.414 292L228.167 283.897L236.924 292L245.681 283.897L254.438 292M166.885 292L158.133 283.897M166.885 292L175.638 283.897L184.391 292L193.145 283.897L201.896 292L210.649 283.897L219.403 292L228.157 283.897L236.91 292L245.664 283.897L254.415 292L263.168 283.897L271.922 292L280.679 283.897L289.432 292L298.186 283.897L306.94 292L315.694 283.897L324.447 292L333.204 283.897L341.958 292L350.711 283.897L359.465 292L368.219 283.897L376.976 292L385.729 283.897L394.486 292L403.243 283.897L412 292M0.571533 48.6546L9.3221 56.7941L18.0758 48.6546L26.8295 56.7941L35.5832 48.6546L44.3337 56.7941L53.0874 48.6546L61.8411 56.7941L70.5948 48.6546L79.3485 56.7941L88.1022 48.6546L96.8528 56.7941L105.606 48.6546L114.36 56.7941L123.117 48.6546L131.871 56.7941L140.624 48.6546L149.378 56.7941L158.132 48.6546L166.885 56.7941M166.885 56.7941L175.642 48.6546L184.396 56.7941L193.15 48.6546L201.903 56.7941L210.657 48.6546L219.414 56.7941L228.167 48.6546L236.924 56.7941L245.681 48.6546L254.438 56.7941M166.885 56.7941L158.133 48.6546M166.885 56.7941L175.638 48.6546L184.391 56.7941L193.145 48.6546L201.896 56.7941L210.649 48.6546L219.403 56.7941L228.157 48.6546L236.91 56.7941L245.664 48.6546L254.415 56.7941L263.168 48.6546L271.922 56.7941L280.679 48.6546L289.432 56.7941L298.186 48.6546L306.94 56.7941L315.694 48.6546L324.447 56.7941L333.204 48.6546L341.958 56.7941L350.711 48.6546L359.465 56.7941L368.219 48.6546L376.976 56.7941L385.729 48.6546L394.486 56.7941L403.243 48.6546L412 56.7941M0.571533 113.552L9.3221 121.655L18.0758 113.552L26.8295 121.655L35.5832 113.552L44.3337 121.655L53.0874 113.552L61.8411 121.655L70.5948 113.552L79.3485 121.655L88.1022 113.552L96.8528 121.655L105.606 113.552L114.36 121.655L123.117 113.552L131.871 121.655L140.624 113.552L149.378 121.655L158.132 113.552L166.885 121.655M166.885 121.655L175.642 113.552L184.396 121.655L193.15 113.552L201.903 121.655L210.657 113.552L219.414 121.655L228.167 113.552L236.924 121.655L245.681 113.552L254.438 121.655M166.885 121.655L158.133 113.552M166.885 121.655L175.638 113.552L184.391 121.655L193.145 113.552L201.896 121.655L210.649 113.552L219.403 121.655L228.157 113.552L236.91 121.655L245.664 113.552L254.415 121.655L263.168 113.552L271.922 121.655L280.679 113.552L289.432 121.655L298.186 113.552L306.94 121.655L315.694 113.552L324.447 121.655L333.204 113.552L341.958 121.655L350.711 113.552L359.465 121.655L368.219 113.552L376.976 121.655L385.729 113.552L394.486 121.655L403.243 113.552L412 121.655M0.571533 251.448L9.3221 259.552L18.0758 251.448L26.8295 259.552L35.5832 251.448L44.3337 259.552L53.0874 251.448L61.8411 259.552L70.5948 251.448L79.3485 259.552L88.1022 251.448L96.8528 259.552L105.606 251.448L114.36 259.552L123.117 251.448L131.871 259.552L140.624 251.448L149.378 259.552L158.132 251.448L166.885 259.552M166.885 259.552L175.642 251.448L184.396 259.552L193.15 251.448L201.903 259.552L210.657 251.448L219.414 259.552L228.167 251.448L236.924 259.552L245.681 251.448L254.438 259.552M166.885 259.552L158.133 251.448M166.885 259.552L175.638 251.448L184.391 259.552L193.145 251.448L201.896 259.552L210.649 251.448L219.403 259.552L228.157 251.448L236.91 259.552L245.664 251.448L254.415 259.552L263.168 251.448L271.922 259.552L280.679 251.448L289.432 259.552L298.186 251.448L306.94 259.552L315.694 251.448L324.447 259.552L333.204 251.448L341.958 259.552L350.711 251.448L359.465 259.552L368.219 251.448L376.976 259.552L385.729 251.448L394.486 259.552L403.243 251.448L412 259.552M0.571533 178.449L9.3221 186.552L18.0758 178.449L26.8295 186.552L35.5832 178.449L44.3337 186.552L53.0874 178.449L61.8411 186.552L70.5948 178.449L79.3485 186.552L88.1022 178.449L96.8528 186.552L105.606 178.449L114.36 186.552L123.117 178.449L131.871 186.552L140.624 178.449L149.378 186.552L158.132 178.449L166.885 186.552M166.885 186.552L175.642 178.449L184.396 186.552L193.15 178.449L201.903 186.552L210.657 178.449L219.414 186.552L228.167 178.449L236.924 186.552L245.681 178.449L254.438 186.552M166.885 186.552L158.133 178.449M166.885 186.552L175.638 178.449L184.391 186.552L193.145 178.449L201.896 186.552L210.649 178.449L219.403 186.552L228.157 178.449L236.91 186.552L245.664 178.449L254.415 186.552L263.168 178.449L271.922 186.552L280.679 178.449L289.432 186.552L298.186 178.449L306.94 186.552L315.694 178.449L324.447 186.552L333.204 178.449L341.958 186.552L350.711 178.449L359.465 186.552L368.219 178.449L376.976 186.552L385.729 178.449L394.486 186.552L403.243 178.449L412 186.552M0.571533 316.345L9.3221 324.448L18.0758 316.345L26.8295 324.448L35.5832 316.345L44.3337 324.448L53.0874 316.345L61.8411 324.448L70.5948 316.345L79.3485 324.448L88.1022 316.345L96.8528 324.448L105.606 316.345L114.36 324.448L123.117 316.345L131.871 324.448L140.624 316.345L149.378 324.448L158.132 316.345L166.885 324.448M166.885 324.448L175.642 316.345L184.396 324.448L193.15 316.345L201.903 324.448L210.657 316.345L219.414 324.448L228.167 316.345L236.924 324.448L245.681 316.345L254.438 324.448M166.885 324.448L158.133 316.345M166.885 324.448L175.638 316.345L184.391 324.448L193.145 316.345L201.896 324.448L210.649 316.345L219.403 324.448L228.157 316.345L236.91 324.448L245.664 316.345L254.415 324.448L263.168 316.345L271.922 324.448L280.679 316.345L289.432 324.448L298.186 316.345L306.94 324.448L315.694 316.345L324.447 324.448L333.204 316.345L341.958 324.448L350.711 316.345L359.465 324.448L368.219 316.345L376.976 324.448L385.729 316.345L394.486 324.448L403.243 316.345L412 324.448M0.571533 348.794L9.3221 356.897L18.0758 348.794L26.8295 356.897L35.5832 348.794L44.3337 356.897L53.0874 348.794L61.8411 356.897L70.5948 348.794L79.3485 356.897L88.1022 348.794L96.8528 356.897L105.606 348.794L114.36 356.897L123.117 348.794L131.871 356.897L140.624 348.794L149.378 356.897L158.132 348.794L166.885 356.897M166.885 356.897L175.642 348.794L184.396 356.897L193.15 348.794L201.903 356.897L210.657 348.794L219.414 356.897L228.167 348.794L236.924 356.897L245.681 348.794L254.438 356.897M166.885 356.897L158.133 348.794M166.885 356.897L175.638 348.794L184.391 356.897L193.145 348.794L201.896 356.897L210.649 348.794L219.403 356.897L228.157 348.794L236.91 356.897L245.664 348.794L254.415 356.897L263.168 348.794L271.922 356.897L280.679 348.794L289.432 356.897L298.186 348.794L306.94 356.897L315.694 348.794L324.447 356.897L333.204 348.794L341.958 356.897L350.711 348.794L359.465 356.897L368.219 348.794L376.976 356.897L385.729 348.794L394.486 356.897L403.243 348.794L412 356.897M0.571533 8.10314L9.3221 16.2061L18.0758 8.10314L26.8295 16.2061L35.5832 8.10314L44.3337 16.2061L53.0874 8.10314L61.8411 16.2061L70.5948 8.10314L79.3485 16.2061L88.1022 8.10314L96.8528 16.2061L105.606 8.10314L114.36 16.2061L123.117 8.10314L131.871 16.2061L140.624 8.10314L149.378 16.2061L158.132 8.10314L166.885 16.2061M166.885 16.2061L175.642 8.10314L184.396 16.2061L193.15 8.10314L201.903 16.2061L210.657 8.10314L219.414 16.2061L228.167 8.10314L236.924 16.2061L245.681 8.10314L254.438 16.2061M166.885 16.2061L158.133 8.10314M166.885 16.2061L175.638 8.10314L184.391 16.2061L193.145 8.10314L201.896 16.2061L210.649 8.10314L219.403 16.2061L228.157 8.10314L236.91 16.2061L245.664 8.10314L254.415 16.2061L263.168 8.10314L271.922 16.2061L280.679 8.10314L289.432 16.2061L298.186 8.10314L306.94 16.2061L315.694 8.10314L324.447 16.2061L333.204 8.10314L341.958 16.2061L350.711 8.10314L359.465 16.2061L368.219 8.10314L376.976 16.2061L385.729 8.10314L394.486 16.2061L403.243 8.10314L412 16.2061M0.571533 73L9.3221 81.103L18.0758 73L26.8295 81.103L35.5832 73L44.3337 81.103L53.0874 73L61.8411 81.103L70.5948 73L79.3485 81.103L88.1022 73L96.8528 81.103L105.606 73L114.36 81.103L123.117 73L131.871 81.103L140.624 73L149.378 81.103L158.132 73L166.885 81.103M166.885 81.103L175.642 73L184.396 81.103L193.15 73L201.903 81.103L210.657 73L219.414 81.103L228.167 73L236.924 81.103L245.681 73L254.438 81.103M166.885 81.103L158.133 73M166.885 81.103L175.638 73L184.391 81.103L193.145 73L201.896 81.103L210.649 73L219.403 81.103L228.157 73L236.91 81.103L245.664 73L254.415 81.103L263.168 73L271.922 81.103L280.679 73L289.432 81.103L298.186 73L306.94 81.103L315.694 73L324.447 81.103L333.204 73L341.958 81.103L350.711 73L359.465 81.103L368.219 73L376.976 81.103L385.729 73L394.486 81.103L403.243 73L412 81.103M0.571533 210.897L9.3221 219L18.0758 210.897L26.8295 219L35.5832 210.897L44.3337 219L53.0874 210.897L61.8411 219L70.5948 210.897L79.3485 219L88.1022 210.897L96.8528 219L105.606 210.897L114.36 219L123.117 210.897L131.871 219L140.624 210.897L149.378 219L158.132 210.897L166.885 219M166.885 219L175.642 210.897L184.396 219L193.15 210.897L201.903 219L210.657 210.897L219.414 219L228.167 210.897L236.924 219L245.681 210.897L254.438 219M166.885 219L158.133 210.897M166.885 219L175.638 210.897L184.391 219L193.145 210.897L201.896 219L210.649 210.897L219.403 219L228.157 210.897L236.91 219L245.664 210.897L254.415 219L263.168 210.897L271.922 219L280.679 210.897L289.432 219L298.186 210.897L306.94 219L315.694 210.897L324.447 219L333.204 210.897L341.958 219L350.711 210.897L359.465 219L368.219 210.897L376.976 219L385.729 210.897L394.486 219L403.243 210.897L412 219M0.571533 137.897L9.3221 146L18.0758 137.897L26.8295 146L35.5832 137.897L44.3337 146L53.0874 137.897L61.8411 146L70.5948 137.897L79.3485 146L88.1022 137.897L96.8528 146L105.606 137.897L114.36 146L123.117 137.897L131.871 146L140.624 137.897L149.378 146L158.132 137.897L166.885 146M166.885 146L175.642 137.897L184.396 146L193.15 137.897L201.903 146L210.657 137.897L219.414 146L228.167 137.897L236.924 146L245.681 137.897L254.438 146M166.885 146L158.133 137.897M166.885 146L175.638 137.897L184.391 146L193.145 137.897L201.896 146L210.649 137.897L219.403 146L228.157 137.897L236.91 146L245.664 137.897L254.415 146L263.168 137.897L271.922 146L280.679 137.897L289.432 146L298.186 137.897L306.94 146L315.694 137.897L324.447 146L333.204 137.897L341.958 146L350.711 137.897L359.465 146L368.219 137.897L376.976 146L385.729 137.897L394.486 146L403.243 137.897L412 146M0.571533 275.794L9.3221 283.897L18.0758 275.794L26.8295 283.897L35.5832 275.794L44.3337 283.897L53.0874 275.794L61.8411 283.897L70.5948 275.794L79.3485 283.897L88.1022 275.794L96.8528 283.897L105.606 275.794L114.36 283.897L123.117 275.794L131.871 283.897L140.624 275.794L149.378 283.897L158.132 275.794L166.885 283.897M166.885 283.897L175.642 275.794L184.396 283.897L193.15 275.794L201.903 283.897L210.657 275.794L219.414 283.897L228.167 275.794L236.924 283.897L245.681 275.794L254.438 283.897M166.885 283.897L158.133 275.794M166.885 283.897L175.638 275.794L184.391 283.897L193.145 275.794L201.896 283.897L210.649 275.794L219.403 283.897L228.157 275.794L236.91 283.897L245.664 275.794L254.415 283.897L263.168 275.794L271.922 283.897L280.679 275.794L289.432 283.897L298.186 275.794L306.94 283.897L315.694 275.794L324.447 283.897L333.204 275.794L341.958 283.897L350.711 275.794L359.465 283.897L368.219 275.794L376.976 283.897L385.729 275.794L394.486 283.897L403.243 275.794L412 283.897M0.571533 40.5516L9.3221 48.6546L18.0758 40.5516L26.8295 48.6546L35.5832 40.5516L44.3337 48.6546L53.0874 40.5516L61.8411 48.6546L70.5948 40.5516L79.3485 48.6546L88.1022 40.5516L96.8528 48.6546L105.606 40.5516L114.36 48.6546L123.117 40.5516L131.871 48.6546L140.624 40.5516L149.378 48.6546L158.132 40.5516L166.885 48.6546M166.885 48.6546L175.642 40.5516L184.396 48.6546L193.15 40.5516L201.903 48.6546L210.657 40.5516L219.414 48.6546L228.167 40.5516L236.924 48.6546L245.681 40.5516L254.438 48.6546M166.885 48.6546L158.133 40.5516M166.885 48.6546L175.638 40.5516L184.391 48.6546L193.145 40.5516L201.896 48.6546L210.649 40.5516L219.403 48.6546L228.157 40.5516L236.91 48.6546L245.664 40.5516L254.415 48.6546L263.168 40.5516L271.922 48.6546L280.679 40.5516L289.432 48.6546L298.186 40.5516L306.94 48.6546L315.694 40.5516L324.447 48.6546L333.204 40.5516L341.958 48.6546L350.711 40.5516L359.465 48.6546L368.219 40.5516L376.976 48.6546L385.729 40.5516L394.486 48.6546L403.243 40.5516L412 48.6546M0.571533 105.449L9.3221 113.552L18.0758 105.449L26.8295 113.552L35.5832 105.449L44.3337 113.552L53.0874 105.449L61.8411 113.552L70.5948 105.449L79.3485 113.552L88.1022 105.449L96.8528 113.552L105.606 105.449L114.36 113.552L123.117 105.449L131.871 113.552L140.624 105.449L149.378 113.552L158.132 105.449L166.885 113.552M166.885 113.552L175.642 105.449L184.396 113.552L193.15 105.449L201.903 113.552L210.657 105.449L219.414 113.552L228.167 105.449L236.924 113.552L245.681 105.449L254.438 113.552M166.885 113.552L158.133 105.449M166.885 113.552L175.638 105.449L184.391 113.552L193.145 105.449L201.896 113.552L210.649 105.449L219.403 113.552L228.157 105.449L236.91 113.552L245.664 105.449L254.415 113.552L263.168 105.449L271.922 113.552L280.679 105.449L289.432 113.552L298.186 105.449L306.94 113.552L315.694 105.449L324.447 113.552L333.204 105.449L341.958 113.552L350.711 105.449L359.465 113.552L368.219 105.449L376.976 113.552L385.729 105.449L394.486 113.552L403.243 105.449L412 113.552M0.571533 243.345L9.3221 251.448L18.0758 243.345L26.8295 251.448L35.5832 243.345L44.3337 251.448L53.0874 243.345L61.8411 251.448L70.5948 243.345L79.3485 251.448L88.1022 243.345L96.8528 251.448L105.606 243.345L114.36 251.448L123.117 243.345L131.871 251.448L140.624 243.345L149.378 251.448L158.132 243.345L166.885 251.448M166.885 251.448L175.642 243.345L184.396 251.448L193.15 243.345L201.903 251.448L210.657 243.345L219.414 251.448L228.167 243.345L236.924 251.448L245.681 243.345L254.438 251.448M166.885 251.448L158.133 243.345M166.885 251.448L175.638 243.345L184.391 251.448L193.145 243.345L201.896 251.448L210.649 243.345L219.403 251.448L228.157 243.345L236.91 251.448L245.664 243.345L254.415 251.448L263.168 243.345L271.922 251.448L280.679 243.345L289.432 251.448L298.186 243.345L306.94 251.448L315.694 243.345L324.447 251.448L333.204 243.345L341.958 251.448L350.711 243.345L359.465 251.448L368.219 243.345L376.976 251.448L385.729 243.345L394.486 251.448L403.243 243.345L412 251.448M0.571533 170.345L9.3221 178.448L18.0758 170.345L26.8295 178.448L35.5832 170.345L44.3337 178.448L53.0874 170.345L61.8411 178.448L70.5948 170.345L79.3485 178.448L88.1022 170.345L96.8528 178.448L105.606 170.345L114.36 178.448L123.117 170.345L131.871 178.448L140.624 170.345L149.378 178.448L158.132 170.345L166.885 178.448M166.885 178.448L175.642 170.345L184.396 178.448L193.15 170.345L201.903 178.448L210.657 170.345L219.414 178.448L228.167 170.345L236.924 178.448L245.681 170.345L254.438 178.448M166.885 178.448L158.133 170.345M166.885 178.448L175.638 170.345L184.391 178.448L193.145 170.345L201.896 178.448L210.649 170.345L219.403 178.448L228.157 170.345L236.91 178.448L245.664 170.345L254.415 178.448L263.168 170.345L271.922 178.448L280.679 170.345L289.432 178.448L298.186 170.345L306.94 178.448L315.694 170.345L324.447 178.448L333.204 170.345L341.958 178.448L350.711 170.345L359.465 178.448L368.219 170.345L376.976 178.448L385.729 170.345L394.486 178.448L403.243 170.345L412 178.448M0.571533 308.206L9.3221 316.345L18.0758 308.206L26.8295 316.345L35.5832 308.206L44.3337 316.345L53.0874 308.206L61.8411 316.345L70.5948 308.206L79.3485 316.345L88.1022 308.206L96.8528 316.345L105.606 308.206L114.36 316.345L123.117 308.206L131.871 316.345L140.624 308.206L149.378 316.345L158.132 308.206L166.885 316.345M166.885 316.345L175.642 308.206L184.396 316.345L193.15 308.206L201.903 316.345L210.657 308.206L219.414 316.345L228.167 308.206L236.924 316.345L245.681 308.206L254.438 316.345M166.885 316.345L158.133 308.206M166.885 316.345L175.638 308.206L184.391 316.345L193.145 308.206L201.896 316.345L210.649 308.206L219.403 316.345L228.157 308.206L236.91 316.345L245.664 308.206L254.415 316.345L263.168 308.206L271.922 316.345L280.679 308.206L289.432 316.345L298.186 308.206L306.94 316.345L315.694 308.206L324.447 316.345L333.204 308.206L341.958 316.345L350.711 308.206L359.465 316.345L368.219 308.206L376.976 316.345L385.729 308.206L394.486 316.345L403.243 308.206L412 316.345M0.571533 340.655L9.3221 348.794L18.0758 340.655L26.8295 348.794L35.5832 340.655L44.3337 348.794L53.0874 340.655L61.8411 348.794L70.5948 340.655L79.3485 348.794L88.1022 340.655L96.8528 348.794L105.606 340.655L114.36 348.794L123.117 340.655L131.871 348.794L140.624 340.655L149.378 348.794L158.132 340.655L166.885 348.794M166.885 348.794L175.642 340.655L184.396 348.794L193.15 340.655L201.903 348.794L210.657 340.655L219.414 348.794L228.167 340.655L236.924 348.794L245.681 340.655L254.438 348.794M166.885 348.794L158.133 340.655M166.885 348.794L175.638 340.655L184.391 348.794L193.145 340.655L201.896 348.794L210.649 340.655L219.403 348.794L228.157 340.655L236.91 348.794L245.664 340.655L254.415 348.794L263.168 340.655L271.922 348.794L280.679 340.655L289.432 348.794L298.186 340.655L306.94 348.794L315.694 340.655L324.447 348.794L333.204 340.655L341.958 348.794L350.711 340.655L359.465 348.794L368.219 340.655L376.976 348.794L385.729 340.655L394.486 348.794L403.243 340.655L412 348.794M0.571533 24.3456L9.3221 32.4486L18.0758 24.3456L26.8295 32.4486L35.5832 24.3456L44.3337 32.4486L53.0874 24.3456L61.8411 32.4486L70.5948 24.3456L79.3485 32.4486L88.1022 24.3456L96.8528 32.4486L105.606 24.3456L114.36 32.4486L123.117 24.3456L131.871 32.4486L140.624 24.3456L149.378 32.4486L158.132 24.3456L166.885 32.4486M166.885 32.4486L175.642 24.3456L184.396 32.4486L193.15 24.3456L201.903 32.4486L210.657 24.3456L219.414 32.4486L228.167 24.3456L236.924 32.4486L245.681 24.3456L254.438 32.4486M166.885 32.4486L158.133 24.3456M166.885 32.4486L175.638 24.3456L184.391 32.4486L193.145 24.3456L201.896 32.4486L210.649 24.3456L219.403 32.4486L228.157 24.3456L236.91 32.4486L245.664 24.3456L254.415 32.4486L263.168 24.3456L271.922 32.4486L280.679 24.3456L289.432 32.4486L298.186 24.3456L306.94 32.4486L315.694 24.3456L324.447 32.4486L333.204 24.3456L341.958 32.4486L350.711 24.3456L359.465 32.4486L368.219 24.3456L376.976 32.4486L385.729 24.3456L394.486 32.4486L403.243 24.3456L412 32.4486M0.571533 89.206L9.3221 97.3455L18.0758 89.206L26.8295 97.3455L35.5832 89.206L44.3337 97.3455L53.0874 89.206L61.8411 97.3455L70.5948 89.206L79.3485 97.3455L88.1022 89.206L96.8528 97.3455L105.606 89.206L114.36 97.3455L123.117 89.206L131.871 97.3455L140.624 89.206L149.378 97.3455L158.132 89.206L166.885 97.3455M166.885 97.3455L175.642 89.206L184.396 97.3455L193.15 89.206L201.903 97.3455L210.657 89.206L219.414 97.3455L228.167 89.206L236.924 97.3455L245.681 89.206L254.438 97.3455M166.885 97.3455L158.133 89.206M166.885 97.3455L175.638 89.206L184.391 97.3455L193.145 89.206L201.896 97.3455L210.649 89.206L219.403 97.3455L228.157 89.206L236.91 97.3455L245.664 89.206L254.415 97.3455L263.168 89.206L271.922 97.3455L280.679 89.206L289.432 97.3455L298.186 89.206L306.94 97.3455L315.694 89.206L324.447 97.3455L333.204 89.206L341.958 97.3455L350.711 89.206L359.465 97.3455L368.219 89.206L376.976 97.3455L385.729 89.206L394.486 97.3455L403.243 89.206L412 97.3455M0.571533 227.103L9.3221 235.206L18.0758 227.103L26.8295 235.206L35.5832 227.103L44.3337 235.206L53.0874 227.103L61.8411 235.206L70.5948 227.103L79.3485 235.206L88.1022 227.103L96.8528 235.206L105.606 227.103L114.36 235.206L123.117 227.103L131.871 235.206L140.624 227.103L149.378 235.206L158.132 227.103L166.885 235.206M166.885 235.206L175.642 227.103L184.396 235.206L193.15 227.103L201.903 235.206L210.657 227.103L219.414 235.206L228.167 227.103L236.924 235.206L245.681 227.103L254.438 235.206M166.885 235.206L158.133 227.103M166.885 235.206L175.638 227.103L184.391 235.206L193.145 227.103L201.896 235.206L210.649 227.103L219.403 235.206L228.157 227.103L236.91 235.206L245.664 227.103L254.415 235.206L263.168 227.103L271.922 235.206L280.679 227.103L289.432 235.206L298.186 227.103L306.94 235.206L315.694 227.103L324.447 235.206L333.204 227.103L341.958 235.206L350.711 227.103L359.465 235.206L368.219 227.103L376.976 235.206L385.729 227.103L394.486 235.206L403.243 227.103L412 235.206M0.571533 154.103L9.3221 162.206L18.0758 154.103L26.8295 162.206L35.5832 154.103L44.3337 162.206L53.0874 154.103L61.8411 162.206L70.5948 154.103L79.3485 162.206L88.1022 154.103L96.8528 162.206L105.606 154.103L114.36 162.206L123.117 154.103L131.871 162.206L140.624 154.103L149.378 162.206L158.132 154.103L166.885 162.206M166.885 162.206L175.642 154.103L184.396 162.206L193.15 154.103L201.903 162.206L210.657 154.103L219.414 162.206L228.167 154.103L236.924 162.206L245.681 154.103L254.438 162.206M166.885 162.206L158.133 154.103M166.885 162.206L175.638 154.103L184.391 162.206L193.145 154.103L201.896 162.206L210.649 154.103L219.403 162.206L228.157 154.103L236.91 162.206L245.664 154.103L254.415 162.206L263.168 154.103L271.922 162.206L280.679 154.103L289.432 162.206L298.186 154.103L306.94 162.206L315.694 154.103L324.447 162.206L333.204 154.103L341.958 162.206L350.711 154.103L359.465 162.206L368.219 154.103L376.976 162.206L385.729 154.103L394.486 162.206L403.243 154.103L412 162.206M0.571533 292L9.3221 300.103L18.0758 292L26.8295 300.103L35.5832 292L44.3337 300.103L53.0874 292L61.8411 300.103L70.5948 292L79.3485 300.103L88.1022 292L96.8528 300.103L105.606 292L114.36 300.103L123.117 292L131.871 300.103L140.624 292L149.378 300.103L158.132 292L166.885 300.103M166.885 300.103L175.642 292L184.396 300.103L193.15 292L201.903 300.103L210.657 292L219.414 300.103L228.167 292L236.924 300.103L245.681 292L254.438 300.103M166.885 300.103L158.133 292M166.885 300.103L175.638 292L184.391 300.103L193.145 292L201.896 300.103L210.649 292L219.403 300.103L228.157 292L236.91 300.103L245.664 292L254.415 300.103L263.168 292L271.922 300.103L280.679 292L289.432 300.103L298.186 292L306.94 300.103L315.694 292L324.447 300.103L333.204 292L341.958 300.103L350.711 292L359.465 300.103L368.219 292L376.976 300.103L385.729 292L394.486 300.103L403.243 292L412 300.103M0.571533 56.794L9.3221 64.897L18.0758 56.794L26.8295 64.897L35.5832 56.794L44.3337 64.897L53.0874 56.794L61.8411 64.897L70.5948 56.794L79.3485 64.897L88.1022 56.794L96.8528 64.897L105.606 56.794L114.36 64.897L123.117 56.794L131.871 64.897L140.624 56.794L149.378 64.897L158.132 56.794L166.885 64.897M166.885 64.897L175.642 56.794L184.396 64.897L193.15 56.794L201.903 64.897L210.657 56.794L219.414 64.897L228.167 56.794L236.924 64.897L245.681 56.794L254.438 64.897M166.885 64.897L158.133 56.794M166.885 64.897L175.638 56.794L184.391 64.897L193.145 56.794L201.896 64.897L210.649 56.794L219.403 64.897L228.157 56.794L236.91 64.897L245.664 56.794L254.415 64.897L263.168 56.794L271.922 64.897L280.679 56.794L289.432 64.897L298.186 56.794L306.94 64.897L315.694 56.794L324.447 64.897L333.204 56.794L341.958 64.897L350.711 56.794L359.465 64.897L368.219 56.794L376.976 64.897L385.729 56.794L394.486 64.897L403.243 56.794L412 64.897M0.571533 194.655L9.3221 202.794L18.0758 194.655L26.8295 202.794L35.5832 194.655L44.3337 202.794L53.0874 194.655L61.8411 202.794L70.5948 194.655L79.3485 202.794L88.1022 194.655L96.8528 202.794L105.606 194.655L114.36 202.794L123.117 194.655L131.871 202.794L140.624 194.655L149.378 202.794L158.132 194.655L166.885 202.794M166.885 202.794L175.642 194.655L184.396 202.794L193.15 194.655L201.903 202.794L210.657 194.655L219.414 202.794L228.167 194.655L236.924 202.794L245.681 194.655L254.438 202.794M166.885 202.794L158.133 194.655M166.885 202.794L175.638 194.655L184.391 202.794L193.145 194.655L201.896 202.794L210.649 194.655L219.403 202.794L228.157 194.655L236.91 202.794L245.664 194.655L254.415 202.794L263.168 194.655L271.922 202.794L280.679 194.655L289.432 202.794L298.186 194.655L306.94 202.794L315.694 194.655L324.447 202.794L333.204 194.655L341.958 202.794L350.711 194.655L359.465 202.794L368.219 194.655L376.976 202.794L385.729 194.655L394.486 202.794L403.243 194.655L412 202.794M0.571533 121.655L9.3221 129.794L18.0758 121.655L26.8295 129.794L35.5832 121.655L44.3337 129.794L53.0874 121.655L61.8411 129.794L70.5948 121.655L79.3485 129.794L88.1022 121.655L96.8528 129.794L105.606 121.655L114.36 129.794L123.117 121.655L131.871 129.794L140.624 121.655L149.378 129.794L158.132 121.655L166.885 129.794M166.885 129.794L175.642 121.655L184.396 129.794L193.15 121.655L201.903 129.794L210.657 121.655L219.414 129.794L228.167 121.655L236.924 129.794L245.681 121.655L254.438 129.794M166.885 129.794L158.133 121.655M166.885 129.794L175.638 121.655L184.391 129.794L193.145 121.655L201.896 129.794L210.649 121.655L219.403 129.794L228.157 121.655L236.91 129.794L245.664 121.655L254.415 129.794L263.168 121.655L271.922 129.794L280.679 121.655L289.432 129.794L298.186 121.655L306.94 129.794L315.694 121.655L324.447 129.794L333.204 121.655L341.958 129.794L350.711 121.655L359.465 129.794L368.219 121.655L376.976 129.794L385.729 121.655L394.486 129.794L403.243 121.655L412 129.794M0.571533 259.552L9.3221 267.655L18.0758 259.552L26.8295 267.655L35.5832 259.552L44.3337 267.655L53.0874 259.552L61.8411 267.655L70.5948 259.552L79.3485 267.655L88.1022 259.552L96.8528 267.655L105.606 259.552L114.36 267.655L123.117 259.552L131.871 267.655L140.624 259.552L149.378 267.655L158.132 259.552L166.885 267.655M166.885 267.655L175.642 259.552L184.396 267.655L193.15 259.552L201.903 267.655L210.657 259.552L219.414 267.655L228.167 259.552L236.924 267.655L245.681 259.552L254.438 267.655M166.885 267.655L158.133 259.552M166.885 267.655L175.638 259.552L184.391 267.655L193.145 259.552L201.896 267.655L210.649 259.552L219.403 267.655L228.157 259.552L236.91 267.655L245.664 259.552L254.415 267.655L263.168 259.552L271.922 267.655L280.679 259.552L289.432 267.655L298.186 259.552L306.94 267.655L315.694 259.552L324.447 267.655L333.204 259.552L341.958 267.655L350.711 259.552L359.465 267.655L368.219 259.552L376.976 267.655L385.729 259.552L394.486 267.655L403.243 259.552L412 267.655M0.571533 186.552L9.3221 194.655L18.0758 186.552L26.8295 194.655L35.5832 186.552L44.3337 194.655L53.0874 186.552L61.8411 194.655L70.5948 186.552L79.3485 194.655L88.1022 186.552L96.8528 194.655L105.606 186.552L114.36 194.655L123.117 186.552L131.871 194.655L140.624 186.552L149.378 194.655L158.132 186.552L166.885 194.655M166.885 194.655L175.642 186.552L184.396 194.655L193.15 186.552L201.903 194.655L210.657 186.552L219.414 194.655L228.167 186.552L236.924 194.655L245.681 186.552L254.438 194.655M166.885 194.655L158.133 186.552M166.885 194.655L175.638 186.552L184.391 194.655L193.145 186.552L201.896 194.655L210.649 186.552L219.403 194.655L228.157 186.552L236.91 194.655L245.664 186.552L254.415 194.655L263.168 186.552L271.922 194.655L280.679 186.552L289.432 194.655L298.186 186.552L306.94 194.655L315.694 186.552L324.447 194.655L333.204 186.552L341.958 194.655L350.711 186.552L359.465 194.655L368.219 186.552L376.976 194.655L385.729 186.552L394.486 194.655L403.243 186.552L412 194.655M0.571533 324.448L9.3221 332.552L18.0758 324.448L26.8295 332.552L35.5832 324.448L44.3337 332.552L53.0874 324.448L61.8411 332.552L70.5948 324.448L79.3485 332.552L88.1022 324.448L96.8528 332.552L105.606 324.448L114.36 332.552L123.117 324.448L131.871 332.552L140.624 324.448L149.378 332.552L158.132 324.448L166.885 332.552M166.885 332.552L175.642 324.448L184.396 332.552L193.15 324.448L201.903 332.552L210.657 324.448L219.414 332.552L228.167 324.448L236.924 332.552L245.681 324.448L254.438 332.552M166.885 332.552L158.133 324.448M166.885 332.552L175.638 324.448L184.391 332.552L193.145 324.448L201.896 332.552L210.649 324.448L219.403 332.552L228.157 324.448L236.91 332.552L245.664 324.448L254.415 332.552L263.168 324.448L271.922 332.552L280.679 324.448L289.432 332.552L298.186 324.448L306.94 332.552L315.694 324.448L324.447 332.552L333.204 324.448L341.958 332.552L350.711 324.448L359.465 332.552L368.219 324.448L376.976 332.552L385.729 324.448L394.486 332.552L403.243 324.448L412 332.552M0.571533 356.897L9.3221 365L18.0758 356.897L26.8295 365L35.5832 356.897L44.3337 365L53.0874 356.897L61.8411 365L70.5948 356.897L79.3485 365L88.1022 356.897L96.8528 365L105.606 356.897L114.36 365L123.117 356.897L131.871 365L140.624 356.897L149.378 365L158.132 356.897L166.885 365M166.885 365L175.642 356.897L184.396 365L193.15 356.897L201.903 365L210.657 356.897L219.414 365L228.167 356.897L236.924 365L245.681 356.897L254.438 365M166.885 365L158.133 356.897M166.885 365L175.638 356.897L184.391 365L193.145 356.897L201.896 365L210.649 356.897L219.403 365L228.157 356.897L236.91 365L245.664 356.897L254.415 365L263.168 356.897L271.922 365L280.679 356.897L289.432 365L298.186 356.897L306.94 365L315.694 356.897L324.447 365L333.204 356.897L341.958 365L350.711 356.897L359.465 365L368.219 356.897L376.976 365L385.729 356.897L394.486 365L403.243 356.897L412 365" stroke="black" stroke-width="0.943489" stroke-miterlimit="10" stroke-linecap="round"/>
</mask>
<g mask="url(#mask0_447_2800)">
<rect x="0.571533" width="411.854" height="365" fill="url(#paint1_linear_447_2800)"/>
</g>
</g>
<defs>
<radialGradient id="paint0_radial_447_2800" cx="0" cy="0" r="1" gradientUnits="userSpaceOnUse" gradientTransform="translate(206 -45.5) rotate(90.0226) scale(361.764 470.274)">
<stop stop-color="white"/>
<stop offset="1" stop-color="#21C1F3"/>
</radialGradient>
<linearGradient id="paint1_linear_447_2800" x1="206.499" y1="0" x2="206.203" y2="488.772" gradientUnits="userSpaceOnUse">
<stop offset="0.0279063" stop-color="#D9D9D9" stop-opacity="0"/>
<stop offset="1" stop-color="white"/>
</linearGradient>
</defs>
</svg>
