<svg width="51" height="14" viewBox="0 0 51 14" fill="none" xmlns="http://www.w3.org/2000/svg">
<g clip-path="url(#clip0_405_29490)">
<path d="M47.3417 11.9134C47.3417 10.9569 48.1031 10.3047 48.9733 10.3047C49.8435 10.3047 50.6049 10.9569 50.6049 11.9134C50.6049 12.8699 49.8435 13.5221 48.9733 13.5221C48.1249 13.5221 47.3417 12.8699 47.3417 11.9134ZM48.9951 11.7395C49.2779 11.7395 49.3431 11.5873 49.3431 11.4569C49.3431 11.3047 49.2561 11.1743 48.9951 11.1743H48.647V11.7395H48.9951ZM48.6252 11.9786V12.8699H48.3424V10.9351H49.0603C49.4737 10.9351 49.6695 11.109 49.6695 11.4786C49.6695 11.696 49.5172 11.8699 49.3214 11.8916C49.4954 11.9134 49.5389 12.0656 49.5824 12.3264C49.6042 12.5003 49.6477 12.8047 49.713 12.8699H49.3649C49.2779 12.696 49.2996 12.4351 49.2344 12.2177C49.1909 12.0438 49.1038 12.0003 48.908 12.0003L48.6252 11.9786ZM50.3004 11.9134C50.3004 11.1308 49.7565 10.5656 48.9951 10.5656C48.2336 10.5656 47.6898 11.1308 47.6898 11.9134C47.6898 12.696 48.2336 13.2612 48.9951 13.2612C49.7347 13.2612 50.3004 12.696 50.3004 11.9134Z" fill="#FF6200"/>
<path d="M41.7055 13.5205L39.8346 11.4119L37.9854 13.5205H34.0695L37.8984 9.2162L34.0695 4.93359H38.1159L40.0086 7.02055L41.8143 4.93359H45.7084L41.9013 9.2162L45.7737 13.5205H41.7055Z" fill="#FF6200"/>
<path d="M26.5636 13.5217V0H34.0691V3.02174H29.7398V4.93478H34.0691V7.82609H29.7398V10.5H34.0691V13.5217H26.5636Z" fill="#FF6200"/>
<path d="M21.4724 11.4565C20.2976 11.4565 19.5797 10.3696 19.5797 9.23913C19.5797 8.02174 20.2106 6.86957 21.4724 6.86957C22.7777 6.86957 23.2999 8.04348 23.2999 9.23913C23.2999 10.3913 22.756 11.4565 21.4724 11.4565ZM10.225 7.86957C10.4208 7.02174 11.0952 6.45652 11.9219 6.45652C12.8356 6.45652 13.4665 7 13.6406 7.86957H10.225ZM23.3869 0V5.52174H23.3434C22.6472 4.71739 21.7552 4.43478 20.7545 4.43478C18.666 4.43478 17.0996 5.84783 16.5558 7.71739C15.9249 5.65217 14.315 4.3913 11.9002 4.3913C9.94221 4.3913 8.41935 5.26087 7.61441 6.69565V4.93478H3.58972V3.02174H7.98425V0H0.00012207V13.5217H3.58972V7.82609H7.17931C7.07054 8.23913 7.00527 8.69565 7.00527 9.15217C7.00527 11.9783 9.15903 13.9565 11.9219 13.9565C14.228 13.9565 15.7508 12.8696 16.5775 10.8913H13.4883C13.0749 11.4783 12.7486 11.6522 11.9219 11.6522C10.9647 11.6522 10.1163 10.8043 10.1163 9.80435H16.3817C16.6428 12.0435 18.405 13.9783 20.798 13.9783C21.8205 13.9783 22.7777 13.4783 23.3651 12.6087H23.4086V13.4783H26.5849V0H23.3869Z" fill="#4D148C"/>
</g>
<defs>
<clipPath id="clip0_405_29490">
<rect width="50.6024" height="14" fill="white"/>
</clipPath>
</defs>
</svg>
