<svg width="56" height="84" viewBox="0 0 56 84" fill="none" xmlns="http://www.w3.org/2000/svg">
<g clip-path="url(#clip0_619_68021)">
<path d="M28 41.9894C28 34.2591 34.2667 27.9922 41.9972 27.9922C49.7275 27.9922 55.9944 34.2591 55.9944 41.9894C55.9944 49.7199 49.7275 55.9866 41.9972 55.9866C34.2667 55.9866 28 49.7199 28 41.9894Z" fill="#1ABCFE"/>
<path d="M0.00585938 69.9816C0.00585938 62.2513 6.27256 55.9844 14.0031 55.9844H28.0003V69.9816C28.0003 77.7121 21.7336 83.9788 14.0031 83.9788C6.27256 83.9788 0.00585938 77.7121 0.00585938 69.9816Z" fill="#0ACF83"/>
<path d="M28 0V27.9942H41.9972C49.7277 27.9942 55.9944 21.7275 55.9944 13.997C55.9944 6.2665 49.7277 0 41.9972 0H28Z" fill="#FF7262"/>
<path d="M0.00585938 13.9972C0.00585938 21.7277 6.27256 27.9944 14.0031 27.9944H28.0003V0H14.0031C6.27256 0 0.00585938 6.26689 0.00585938 13.9972Z" fill="#F24E1E"/>
<path d="M0.00585938 41.9894C0.00585938 49.7199 6.27256 55.9866 14.0031 55.9866H28.0003V27.9922H14.0031C6.27256 27.9922 0.00585938 34.2591 0.00585938 41.9894Z" fill="#A259FF"/>
</g>
<defs>
<clipPath id="clip0_619_68021">
<rect width="56" height="83.9832" fill="white"/>
</clipPath>
</defs>
</svg>
