<svg width="100" height="41" viewBox="0 0 100 41" fill="none" xmlns="http://www.w3.org/2000/svg">
<path d="M6 10L100 0L94 31L0 41L6 10Z" fill="#FFB05A"/>
<path d="M17.1895 23.6583L25.5254 22.8394L25.7835 25.4667L17.4477 26.2857L17.1895 23.6583ZM18.3393 32.661L15.2342 32.9661L13.5916 16.2466L25.7969 15.0475L26.0526 17.651L16.9525 18.545L18.3393 32.661ZM29.9224 31.5231L28.6693 18.7685L31.5116 18.4892L31.8566 22.0003L31.4213 21.0061C31.719 20.1087 32.252 19.3972 33.0202 18.8715C33.8045 18.3443 34.8096 18.0205 36.0357 17.9001L36.3149 20.7424C36.1844 20.723 36.0634 20.7189 35.952 20.7298C35.839 20.7248 35.7267 20.7278 35.6152 20.7388C34.4847 20.8498 33.6179 21.2726 33.0148 22.0071C32.4102 22.7257 32.172 23.7378 32.3003 25.0435L32.908 31.2297L29.9224 31.5231ZM45.4678 30.1646C44.1621 30.2929 42.9723 30.1284 41.8985 29.6712C40.8231 29.1981 39.9423 28.4969 39.2561 27.5675C38.57 26.6381 38.1651 25.5445 38.0415 24.2865C37.9163 23.0127 38.1006 21.8611 38.5944 20.8319C39.0865 19.7868 39.8148 18.9355 40.7791 18.2781C41.7435 17.6206 42.8785 17.2278 44.1842 17.0995C45.5059 16.9697 46.7036 17.1333 47.7775 17.5905C48.8672 18.0462 49.7464 18.7315 50.4151 19.6465C51.0997 20.5599 51.5054 21.6616 51.6321 22.9513C51.7557 24.2093 51.5714 25.3608 51.0792 26.406C50.6029 27.4495 49.8755 28.3088 48.8968 28.9837C47.9324 29.6411 46.7894 30.0348 45.4678 30.1646ZM45.2167 27.6089C45.9492 27.537 46.5864 27.3136 47.1284 26.9388C47.6703 26.564 48.0708 26.0584 48.3298 25.4221C48.6048 24.7841 48.7023 24.0591 48.6226 23.247C48.5412 22.419 48.3044 21.7268 47.9121 21.1705C47.5342 20.5967 47.043 20.1787 46.4385 19.9166C45.8339 19.6545 45.1734 19.5586 44.4568 19.629C43.7244 19.7009 43.0872 19.9243 42.5452 20.2991C42.0192 20.6723 41.6187 21.1779 41.3437 21.8158C41.0672 22.4378 40.9697 23.1629 41.051 23.9909C41.1308 24.803 41.3676 25.4951 41.7614 26.0674C42.1553 26.6396 42.6465 27.0576 43.2351 27.3213C43.8396 27.5834 44.5002 27.6793 45.2167 27.6089ZM69.945 14.5686C70.964 14.4685 71.8833 14.5792 72.7026 14.9006C73.5379 15.2205 74.2191 15.7725 74.7463 16.5567C75.272 17.325 75.5982 18.354 75.7249 19.6438L76.4429 26.9527L73.4573 27.246L72.7768 20.3193C72.6657 19.1888 72.336 18.3691 71.7876 17.8603C71.2392 17.3514 70.5033 17.1424 69.5797 17.2331C68.9269 17.2973 68.3597 17.4977 67.8784 17.8344C67.4129 18.1695 67.0642 18.6298 66.8324 19.2152C66.6164 19.7992 66.5507 20.521 66.6352 21.3809L67.2711 27.8537L64.2855 28.1471L63.6049 21.2204C63.4939 20.0899 63.1641 19.2702 62.6158 18.7613C62.0674 18.2525 61.3314 18.0435 60.4079 18.1342C59.755 18.1984 59.1879 18.3988 58.7065 18.7354C58.241 19.0706 57.8924 19.5309 57.6605 20.1163C57.4446 20.7002 57.3788 21.4221 57.4633 22.282L58.0992 28.7548L55.1136 29.0481L53.8605 16.2936L56.7029 16.0143L57.0361 19.406L56.4359 18.4521C56.7845 17.5818 57.3437 16.8919 58.1136 16.3821C58.8993 15.8709 59.8177 15.5636 60.8686 15.4603C62.0629 15.343 63.1269 15.5359 64.0605 16.039C65.0101 16.5406 65.6869 17.3744 66.0908 18.5405L64.8806 18.2495C65.2007 17.2534 65.8103 16.4218 66.7094 15.7547C67.6085 15.0876 68.687 14.6922 69.945 14.5686Z" fill="white"/>
</svg>
