<svg width="24" height="37" viewBox="0 0 24 37" fill="none" xmlns="http://www.w3.org/2000/svg">
<path d="M8.81958 36.0407C8.66766 36.4556 8.20817 36.6688 7.79329 36.5168L1.03229 34.0412C0.617399 33.8893 0.40422 33.4298 0.556138 33.0149C0.708057 32.6 1.16755 32.3868 1.58243 32.5387L7.59221 34.7393L9.7928 28.7296C9.94472 28.3147 10.4042 28.1015 10.8191 28.2534C11.234 28.4053 11.4472 28.8648 11.2952 29.2797L8.81958 36.0407ZM23.7413 2.45034C17.2876 4.07477 12.3491 9.70746 9.62038 16.3503C6.88818 23.0016 6.47232 30.4246 8.79406 35.4289L7.34266 36.1023C4.77083 30.559 5.30484 22.6452 8.14038 15.7424C10.9794 8.83099 16.2265 2.69197 23.3507 0.898735L23.7413 2.45034Z" fill="#008133"/>
</svg>
