<svg width="156" height="89" viewBox="0 0 156 89" fill="none" xmlns="http://www.w3.org/2000/svg">
<path d="M11.8196 87.0407C11.6677 87.4556 11.2082 87.6688 10.7933 87.5168L4.03229 85.0412C3.6174 84.8893 3.40422 84.4298 3.55614 84.0149C3.70806 83.6 4.16755 83.3868 4.58243 83.5387L10.5922 85.7393L12.7928 79.7296C12.9447 79.3147 13.4042 79.1015 13.8191 79.2534C14.234 79.4053 14.4472 79.8648 14.2952 80.2797L11.8196 87.0407ZM26.7413 53.4503C20.2876 55.0748 15.3491 60.7075 12.6204 67.3503C9.88818 74.0016 9.47232 81.4246 11.7941 86.4289L10.3427 87.1023C7.77083 81.559 8.30484 73.6452 11.1404 66.7424C13.9794 59.831 19.2265 53.692 26.3507 51.8987L26.7413 53.4503Z" fill="#008133"/>
<rect x="20.6367" y="26.0469" width="125.4" height="57.6" rx="28.8" transform="rotate(-11.5065 20.6367 26.0469)" fill="#008133" fill-opacity="0.1"/>
<rect x="20.6367" y="26.0469" width="125.4" height="57.6" rx="28.8" transform="rotate(-11.5065 20.6367 26.0469)" stroke="#008133" stroke-width="1.6" stroke-dasharray="7.2 7.2"/>
<path d="M51.819 37.9619C51.4997 38.0269 51.2814 38.0324 51.1643 37.9784C51.0472 37.9244 50.9769 37.8397 50.9534 37.7242C50.9354 37.6359 50.9691 37.5406 51.0544 37.4383C51.1451 37.3278 51.2719 37.2383 51.4349 37.1698C51.6304 37.0875 51.8633 36.9977 52.1335 36.9002C52.4092 36.7946 52.6964 36.6936 52.9952 36.5974C53.2995 36.493 53.5922 36.4016 53.8734 36.3231C54.1614 36.2433 54.4141 36.1812 54.6315 36.137C54.9522 36.0788 55.1922 36.0936 55.3516 36.1814C55.5178 36.2679 55.6106 36.3587 55.6299 36.4538C55.6438 36.5217 55.627 36.5959 55.5797 36.6763C55.531 36.7499 55.4285 36.8026 55.2723 36.8344C55.1704 36.8551 55.0298 36.8944 54.8505 36.9521C54.678 37.0084 54.4831 37.0764 54.2658 37.156C54.3033 37.3748 54.3383 37.6861 54.371 38.0898C54.4091 38.4853 54.4351 38.9435 54.4491 39.4642C54.4618 39.9782 54.4528 40.5248 54.4221 41.1042C54.3969 41.6754 54.3404 42.2494 54.2526 42.8262C54.1703 43.3949 54.047 43.9365 53.8829 44.451C53.7242 44.9574 53.5143 45.4034 53.2532 45.7891C52.9989 46.1734 52.6864 46.4635 52.3159 46.6592C52.2127 46.7085 52.1285 46.7468 52.0634 46.7743C51.9982 46.8017 51.9214 46.8244 51.8331 46.8423C51.7652 46.8562 51.6733 46.8218 51.5574 46.7393C51.4416 46.6567 51.3608 46.5034 51.3152 46.2792C51.282 46.1161 51.3292 46.0004 51.4567 45.9319C51.8952 45.7224 52.2552 45.4227 52.5367 45.0328C52.825 44.6416 53.0421 44.1269 53.1882 43.4886C53.3396 42.8422 53.4219 42.0472 53.4349 41.1035C53.4548 40.1584 53.4122 39.0279 53.307 37.712C53.3 37.6427 53.2998 37.572 53.3063 37.4999C53.0157 37.6015 52.7379 37.697 52.4731 37.7863C52.2069 37.8688 51.9888 37.9273 51.819 37.9619ZM60.7163 43.4526C60.6008 43.4761 60.4919 43.4452 60.3896 43.3599C60.2874 43.2746 60.2162 43.1334 60.1761 42.9364C60.129 42.7054 60.0959 42.369 60.0767 41.9271C60.0643 41.4839 60.0576 40.8945 60.0564 40.1589C59.9615 40.631 59.8413 41.0835 59.696 41.5164C59.5574 41.948 59.3907 42.3109 59.1959 42.6053C59.0011 42.8997 58.7746 43.0731 58.5165 43.1257C58.2651 43.1768 58.0208 43.124 57.7837 42.9671C57.5533 42.8088 57.3877 42.4816 57.2867 41.9857C57.23 41.7071 57.1902 41.3897 57.1672 41.0336C57.1428 40.6706 57.1328 40.3083 57.137 39.9466C57.1412 39.5848 57.153 39.2605 57.1724 38.9735C57.1904 38.6798 57.2169 38.4621 57.2517 38.3206C57.2772 38.2022 57.3102 38.1212 57.3508 38.0775C57.3901 38.0271 57.4505 37.9936 57.532 37.977C57.6271 37.9576 57.7373 37.9776 57.8626 38.037C57.9879 38.0964 58.0699 38.2212 58.1087 38.4115C58.1184 38.459 58.1174 38.576 58.1058 38.7623C58.0996 38.9404 58.0881 39.1621 58.0714 39.4273C58.06 39.6844 58.0494 39.9625 58.0396 40.2616C58.0297 40.5608 58.03 40.8579 58.0406 41.153C58.0579 41.4466 58.0908 41.7123 58.1392 41.9501C58.1654 42.0792 58.2005 42.1817 58.2442 42.2577C58.288 42.3337 58.3643 42.3607 58.473 42.3385C58.5681 42.3192 58.6676 42.1998 58.7716 41.9806C58.8823 41.7599 58.9908 41.476 59.097 41.1289C59.2087 40.7737 59.3168 40.3837 59.4214 39.9591C59.5328 39.5331 59.6353 39.0983 59.729 38.6547C59.8294 38.2098 59.917 37.7886 59.9918 37.3913C60.0213 37.258 60.0638 37.1715 60.1194 37.1318C60.1737 37.0854 60.2381 37.0546 60.3129 37.0394C60.4352 37.0145 60.5542 37.0433 60.6701 37.1259C60.7914 37.2003 60.8679 37.3156 60.8997 37.4718C60.9205 37.5737 60.9361 37.7545 60.9465 38.0142C60.9637 38.2725 60.9729 38.5784 60.9741 38.9319C60.9807 39.2773 60.9813 39.6451 60.9758 40.0354C60.9772 40.4243 60.9778 40.8097 60.9778 41.1918C60.9763 41.5671 60.9721 41.9112 60.965 42.2239C60.9647 42.5353 60.9628 42.7869 60.9594 42.9786C60.96 43.1554 60.9346 43.2737 60.8831 43.3338C60.8398 43.3992 60.7842 43.4388 60.7163 43.4526ZM64.6236 42.636C64.4742 42.6664 64.3497 42.6458 64.2502 42.574C64.1589 42.5077 64.1021 42.4202 64.08 42.3115C64.0606 42.2164 64.0834 42.1198 64.1483 42.0216C64.2187 41.9153 64.3217 41.813 64.4573 41.7146C64.7 41.5166 64.9258 41.3221 65.1345 41.131C65.35 40.9386 65.516 40.7456 65.6322 40.5521C65.7485 40.3586 65.788 40.1702 65.7506 39.9867C65.7188 39.8305 65.6437 39.7219 65.5252 39.6612C65.4053 39.5936 65.257 39.5778 65.0804 39.6137C64.9784 39.6345 64.8399 39.6839 64.6648 39.762C64.4883 39.8333 64.2961 39.9149 64.0884 40.0067C63.8861 40.0903 63.6872 40.1733 63.4917 40.2555C63.2947 40.331 63.125 40.3833 62.9823 40.4123C62.7241 40.4649 62.518 40.4431 62.3641 40.3471C62.2087 40.2443 62.1089 40.0842 62.0646 39.8668C62.0425 39.7581 62.0738 39.5819 62.1587 39.3382C62.2435 39.0945 62.3643 38.8188 62.5209 38.5109C62.683 38.1949 62.8655 37.8747 63.0683 37.5504C63.2712 37.2261 63.4816 36.9215 63.6995 36.6365C63.9243 36.3502 64.1376 36.1122 64.3395 35.9225C64.5483 35.7314 64.7308 35.62 64.8871 35.5882C65.0433 35.5564 65.1726 35.5831 65.2749 35.6684C65.3771 35.7538 65.4442 35.8745 65.476 36.0308C65.5009 36.1531 65.5019 36.2625 65.4792 36.3592C65.455 36.449 65.3832 36.5308 65.2638 36.6047C65.1512 36.6771 64.9665 36.743 64.7097 36.8024C64.4876 37.0669 64.2548 37.3655 64.0111 37.6981C63.7729 38.0226 63.5606 38.3523 63.3741 38.6875C63.193 39.0144 63.0744 39.3181 63.0182 39.5984C63.2272 39.478 63.4859 39.3581 63.7941 39.2388C64.1078 39.1112 64.4311 39.0136 64.764 38.9458C65.2871 38.8393 65.6986 38.8794 65.9983 39.066C66.3035 39.2444 66.4949 39.5239 66.5723 39.9044C66.6221 40.1489 66.5958 40.4196 66.4935 40.7164C66.3966 41.005 66.2487 41.2863 66.0497 41.5603C65.8508 41.8343 65.6259 42.0676 65.375 42.2601C65.1255 42.4595 64.875 42.5848 64.6236 42.636ZM66.5002 38.6242C66.314 38.648 66.2049 38.5464 66.1728 38.3194C66.1685 38.2637 66.1928 38.1915 66.2455 38.1029C66.2968 38.0076 66.366 37.9475 66.4529 37.9227C66.6594 37.8595 66.9113 37.7764 67.2088 37.6734C67.5116 37.5622 67.8436 37.438 68.2049 37.3008C68.205 36.954 68.2153 36.5876 68.2358 36.2013C68.2562 35.8151 68.2889 35.437 68.3338 35.0669C68.3774 34.6901 68.4347 34.3459 68.5057 34.0343C68.5767 33.7227 68.6669 33.4708 68.7764 33.2787C68.8359 33.1888 68.8935 33.124 68.9491 33.0844C69.0034 33.0379 69.0543 33.0099 69.1018 33.0002C69.1969 32.9809 69.28 33.0064 69.3509 33.0769C69.4286 33.146 69.4779 33.2314 69.4986 33.3334C69.5097 33.3877 69.5106 33.4441 69.5013 33.5026C69.4428 33.9108 69.3922 34.4093 69.3493 34.9982C69.3065 35.5871 69.2638 36.2291 69.2213 36.924C69.8256 36.6949 70.4285 36.4589 71.0301 36.2162C71.6316 35.9735 72.1469 35.7589 72.5759 35.5725C72.694 35.4919 72.7946 35.482 72.8777 35.5429C72.9677 35.6024 73.0202 35.6696 73.0355 35.7443C73.0548 35.8394 73.0422 35.9163 72.9975 35.9749C72.9596 36.0321 72.917 36.0833 72.8695 36.1283L72.8614 36.1406C72.7366 36.2226 72.5459 36.3286 72.2894 36.4587C72.0314 36.5819 71.7341 36.7203 71.3974 36.8737C71.0594 37.0204 70.6975 37.1719 70.3119 37.3282C69.933 37.4832 69.5562 37.6306 69.1814 37.7706C69.1468 38.4003 69.1124 39.0477 69.0779 39.7127C69.0489 40.3695 69.0178 41.0162 68.9846 41.6527C68.9665 41.9111 68.9195 42.0799 68.8436 42.159C68.7759 42.2435 68.6945 42.2955 68.5994 42.3148C68.4907 42.337 68.3873 42.3156 68.2891 42.2506C68.1978 42.1843 68.1537 42.02 68.1569 41.7575L68.1934 38.1309C67.7982 38.2751 67.4471 38.3925 67.1401 38.4833C66.8399 38.5727 66.6266 38.6197 66.5002 38.6242ZM78.142 39.9265C77.8839 39.979 77.6456 39.9037 77.4274 39.7005C77.2145 39.4891 77.0687 39.1898 76.9899 38.8025C76.9166 38.4425 76.9323 38.0678 77.037 37.6785C77.1485 37.2879 77.3205 36.8991 77.5531 36.5122C77.7856 36.1252 78.0509 35.7599 78.3489 35.4162C78.6455 35.0657 78.9496 34.7526 79.2614 34.4769C79.58 34.1997 79.877 33.973 80.1525 33.7967C80.4279 33.6203 80.6539 33.5142 80.8306 33.4782C80.9257 33.4588 81.008 33.4633 81.0774 33.4916C81.1455 33.5131 81.1892 33.5715 81.2085 33.6666C81.221 33.7277 81.209 33.7903 81.1725 33.8543C81.1793 33.853 81.1861 33.8516 81.1928 33.8502C81.3423 33.8198 81.435 33.8929 81.471 34.0695C81.4834 34.1307 81.4852 34.2612 81.4764 34.4611C81.4662 34.6542 81.4589 34.8963 81.4544 35.1873C81.45 35.4783 81.4586 35.7985 81.4802 36.1479C81.5004 36.4905 81.5457 36.835 81.6163 37.1815C81.6757 37.4736 81.8176 37.5969 82.0418 37.5512C82.2932 37.5001 82.5362 37.3905 82.7708 37.2224C83.0055 37.0543 83.2285 36.8639 83.4399 36.651C83.6499 36.4314 83.8402 36.2193 84.0109 36.0148C84.1801 35.8034 84.3243 35.6255 84.4435 35.4809C84.5626 35.3364 84.6528 35.2579 84.7139 35.2455C84.7683 35.2344 84.8193 35.2417 84.867 35.2674C84.9147 35.293 84.9461 35.3432 84.9613 35.418C84.9752 35.4859 84.9321 35.622 84.8322 35.8263C84.7323 36.0306 84.593 36.2677 84.4145 36.5376C84.2359 36.8074 84.0288 37.076 83.7931 37.3433C83.5574 37.6106 83.3073 37.842 83.0429 38.0373C82.7784 38.2327 82.5137 38.3573 82.2487 38.4112C82.0449 38.4527 81.8456 38.4296 81.6509 38.3419C81.4615 38.246 81.2848 38.0556 81.1206 37.7706C80.9633 37.4842 80.83 37.0727 80.7207 36.536L80.6688 36.2812C80.448 36.8993 80.2004 37.4732 79.9262 38.0031C79.6588 38.5316 79.3727 38.9684 79.0679 39.3135C78.77 39.6571 78.4613 39.8615 78.142 39.9265ZM80.7863 34.2514C80.7551 34.2719 80.7117 34.3019 80.6561 34.3415C80.3726 34.5478 80.0824 34.7909 79.7856 35.0706C79.4956 35.349 79.2172 35.6498 78.9504 35.973C78.6905 36.2948 78.4631 36.6205 78.2685 36.9503C78.0738 37.28 77.9308 37.6027 77.8394 37.9185C77.748 38.2343 77.73 38.528 77.7853 38.7998C77.8033 38.8881 77.8341 38.9526 77.8778 38.9933C77.9282 39.0325 78.001 39.0425 78.0961 39.0231C78.232 38.9954 78.3913 38.8746 78.5742 38.6604C78.7556 38.4395 78.9464 38.1601 79.1465 37.8222C79.3533 37.483 79.554 37.1131 79.7484 36.7127C79.9428 36.3122 80.123 35.9112 80.2889 35.5095C80.4615 35.1064 80.6058 34.7374 80.7215 34.4025C80.739 34.3494 80.7606 34.299 80.7863 34.2514ZM90.7353 37.3204C90.5858 37.3509 90.4613 37.3302 90.3618 37.2585C90.2705 37.1922 90.2138 37.1047 90.1916 36.996C90.1723 36.9008 90.1951 36.8042 90.26 36.7061C90.3303 36.5998 90.4333 36.4975 90.569 36.3991C90.8117 36.2011 91.0374 36.0066 91.2461 35.8155C91.4617 35.623 91.6276 35.43 91.7439 35.2366C91.8601 35.0431 91.8996 34.8546 91.8623 34.6712C91.8305 34.5149 91.7553 34.4064 91.6368 34.3456C91.5169 34.278 91.3686 34.2622 91.192 34.2982C91.0901 34.3189 90.9516 34.3684 90.7764 34.4465C90.5999 34.5178 90.4078 34.5993 90.2 34.6912C89.9977 34.7748 89.7988 34.8577 89.6033 34.94C89.4064 35.0155 89.2366 35.0677 89.0939 35.0968C88.8358 35.1493 88.6297 35.1276 88.4757 35.0316C88.3203 34.9288 88.2205 34.7687 88.1763 34.5512C88.1541 34.4425 88.1855 34.2663 88.2703 34.0227C88.3551 33.779 88.4759 33.5032 88.6326 33.1954C88.7946 32.8794 88.9771 32.5592 89.18 32.2349C89.3828 31.9106 89.5932 31.6059 89.8112 31.321C90.0359 31.0347 90.2492 30.7967 90.4512 30.607C90.6599 30.4159 90.8424 30.3045 90.9987 30.2726C91.155 30.2408 91.2842 30.2676 91.3865 30.3529C91.4888 30.4382 91.5558 30.559 91.5876 30.7153C91.6125 30.8375 91.6136 30.947 91.5908 31.0436C91.5666 31.1335 91.4948 31.2153 91.3754 31.2891C91.2628 31.3616 91.0781 31.4275 90.8213 31.4868C90.5992 31.7514 90.3664 32.05 90.1228 32.3826C89.8846 32.707 89.6722 33.0368 89.4857 33.3719C89.3046 33.6989 89.186 34.0025 89.1299 34.2828C89.3389 34.1625 89.5975 34.0426 89.9057 33.9232C90.2194 33.7957 90.5427 33.698 90.8756 33.6303C91.3987 33.5238 91.8102 33.5638 92.11 33.7505C92.4152 33.9289 92.6065 34.2084 92.6839 34.5888C92.7337 34.8334 92.7075 35.1041 92.6052 35.4009C92.5082 35.6895 92.3603 35.9707 92.1614 36.2447C91.9624 36.5187 91.7375 36.752 91.4866 36.9446C91.2371 37.144 90.9867 37.2693 90.7353 37.3204ZM101.824 34.5111C101.84 34.6212 101.814 34.7185 101.746 34.8031C101.678 34.8876 101.59 34.9409 101.481 34.9631C101.359 34.9879 101.249 34.9679 101.151 34.903C101.053 34.8381 100.986 34.7207 100.952 34.5508C100.862 34.1092 100.785 33.6261 100.72 33.1015C100.655 32.57 100.6 32.0433 100.558 31.5213C100.514 30.9925 100.478 30.5045 100.451 30.0572C100.292 30.4222 100.119 30.8253 99.9328 31.2665C99.7534 31.7063 99.5666 32.1441 99.3723 32.5799C99.178 33.0156 98.9843 33.4195 98.7911 33.7913C98.5965 34.1564 98.414 34.4589 98.2435 34.6988C98.0716 34.9319 97.9177 35.0623 97.7819 35.09C97.5305 35.1411 97.293 35.0869 97.0695 34.9272C96.8445 34.7607 96.701 34.5246 96.6387 34.2189C96.6138 34.0966 96.5935 33.9274 96.5778 33.7112C96.5607 33.4883 96.545 33.2545 96.5306 33.0098C96.5161 32.7651 96.5017 32.538 96.4874 32.3287C96.4717 32.1125 96.4535 31.9535 96.4328 31.8516C96.4134 31.7565 96.3866 31.677 96.3524 31.6132C96.3236 31.5413 96.282 31.5108 96.2277 31.5219C96.1461 31.5385 96.0527 31.653 95.9474 31.8655C95.8407 32.0712 95.7273 32.3313 95.6074 32.6458C95.4943 32.9589 95.3778 33.2904 95.258 33.6403C95.1449 33.9888 95.0386 34.3182 94.9391 34.6286C94.8381 34.9321 94.7492 35.1731 94.6723 35.3515C94.6144 35.519 94.555 35.6443 94.4941 35.7274C94.4332 35.8106 94.3484 35.8632 94.2397 35.8853C94.1106 35.9116 93.9779 35.8679 93.8415 35.7541C93.712 35.639 93.6271 35.4829 93.587 35.2859C93.5635 35.1704 93.5472 34.9862 93.5382 34.7333C93.5278 34.4736 93.5228 34.1881 93.523 33.8767C93.5301 33.564 93.5352 33.2587 93.5383 32.9609C93.5467 32.6549 93.554 32.3952 93.5601 32.1817C93.5674 31.9396 93.6035 31.7695 93.6685 31.6714C93.7334 31.5733 93.8134 31.5145 93.9085 31.4952C94.0376 31.4689 94.1492 31.4957 94.2433 31.5756C94.3428 31.6473 94.4119 31.7783 94.4506 31.9685C94.4576 32.0025 94.4559 32.0984 94.4455 32.2561C94.4338 32.4071 94.4188 32.5941 94.4005 32.8172C94.3877 33.0321 94.3701 33.2585 94.3478 33.4966C94.3323 33.7332 94.3235 33.9508 94.3215 34.1493C94.4198 33.8675 94.5207 33.564 94.6243 33.2386C94.7347 32.9119 94.8457 32.5886 94.9575 32.2687C95.0679 31.9419 95.1838 31.6424 95.3052 31.37C95.4253 31.0909 95.5523 30.8634 95.6863 30.6875C95.8204 30.5116 95.9621 30.4085 96.1116 30.3781C96.2882 30.3421 96.4623 30.3633 96.6339 30.4415C96.8123 30.5184 96.9677 30.6389 97.1002 30.803C97.2327 30.9671 97.3217 31.1612 97.3673 31.3854C97.3992 31.5417 97.4169 31.768 97.4207 32.0644C97.423 32.354 97.4268 32.6681 97.4321 33.0067C97.4441 33.3438 97.473 33.6599 97.5189 33.9548C97.5328 34.0227 97.5601 34.0526 97.6008 34.0443C97.6348 34.0373 97.6707 34.0053 97.7086 33.948C97.8614 33.6905 98.0255 33.3847 98.2011 33.0305C98.3752 32.6696 98.5494 32.291 98.7234 31.8947C98.9042 31.4971 99.0831 31.1069 99.2599 30.7242C99.4353 30.3347 99.6007 29.9826 99.756 29.668C99.9167 29.3452 100.062 29.0857 100.192 28.8894C100.328 28.6918 100.444 28.5833 100.539 28.5639C100.743 28.5224 100.911 28.5484 101.044 28.6417C101.176 28.7351 101.27 28.9177 101.325 29.1894C101.369 29.4068 101.41 29.6922 101.446 30.0457C101.489 30.3977 101.529 30.7824 101.564 31.1997C101.606 31.6156 101.643 32.0363 101.673 32.4618C101.708 32.8791 101.738 33.2693 101.762 33.6323C101.785 33.9884 101.806 34.2814 101.824 34.5111ZM104.204 34.621C103.946 34.6735 103.708 34.5982 103.49 34.395C103.277 34.1836 103.131 33.8843 103.052 33.497C102.979 33.1369 102.995 32.7623 103.099 32.373C103.211 31.9824 103.383 31.5936 103.616 31.2066C103.848 30.8197 104.113 30.4543 104.411 30.1107C104.708 29.7602 105.012 29.4471 105.324 29.1713C105.642 28.8942 105.939 28.6675 106.215 28.4911C106.49 28.3148 106.716 28.2086 106.893 28.1727C106.988 28.1533 107.07 28.1578 107.14 28.1861C107.208 28.2076 107.252 28.2659 107.271 28.3611C107.283 28.4222 107.271 28.4848 107.235 28.5488C107.242 28.5474 107.248 28.5461 107.255 28.5447C107.405 28.5142 107.497 28.5874 107.533 28.764C107.546 28.8251 107.548 28.9557 107.539 29.1556C107.529 29.3487 107.521 29.5908 107.517 29.8818C107.512 30.1728 107.521 30.493 107.543 30.8423C107.563 31.1849 107.608 31.5295 107.679 31.876C107.738 32.1681 107.88 32.2914 108.104 32.2457C108.356 32.1945 108.599 32.0849 108.833 31.9169C109.068 31.7488 109.291 31.5584 109.502 31.3455C109.712 31.1259 109.903 30.9138 110.073 30.7092C110.243 30.4979 110.387 30.32 110.506 30.1754C110.625 30.0309 110.715 29.9524 110.776 29.9399C110.831 29.9289 110.882 29.9362 110.929 29.9618C110.977 29.9875 111.009 30.0377 111.024 30.1125C111.038 30.1804 110.995 30.3165 110.895 30.5208C110.795 30.7251 110.655 30.9622 110.477 31.232C110.298 31.5019 110.091 31.7705 109.856 32.0378C109.62 32.3051 109.37 32.5364 109.105 32.7318C108.841 32.9271 108.576 33.0518 108.311 33.1057C108.107 33.1472 107.908 33.1241 107.713 33.0364C107.524 32.9405 107.347 32.7501 107.183 32.4651C107.026 32.1787 106.892 31.7672 106.783 31.2304L106.731 30.9757C106.51 31.5937 106.263 32.1677 105.989 32.6976C105.721 33.2261 105.435 33.6629 105.13 34.0079C104.832 34.3516 104.524 34.556 104.204 34.621ZM106.849 28.9458C106.818 28.9663 106.774 28.9964 106.719 29.036C106.435 29.2423 106.145 29.4853 105.848 29.7651C105.558 30.0435 105.28 30.3443 105.013 30.6675C104.753 30.9892 104.526 31.315 104.331 31.6447C104.136 31.9745 103.993 32.2972 103.902 32.613C103.81 32.9288 103.792 33.2225 103.848 33.4943C103.866 33.5826 103.897 33.6471 103.94 33.6877C103.991 33.727 104.063 33.7369 104.159 33.7176C104.294 33.6899 104.454 33.569 104.637 33.3549C104.818 33.134 105.009 32.8546 105.209 32.5167C105.416 32.1774 105.616 31.8076 105.811 31.4071C106.005 31.0067 106.185 30.6056 106.351 30.2039C106.524 29.8009 106.668 29.4319 106.784 29.097C106.801 29.0439 106.823 28.9935 106.849 28.9458ZM112.67 33.0461C112.147 33.1526 111.702 33.0665 111.334 32.7876C110.971 32.5006 110.727 32.0479 110.601 31.4297C110.523 31.0492 110.484 30.5939 110.482 30.0636C110.485 29.5251 110.511 28.9539 110.558 28.35C110.61 27.738 110.677 27.1299 110.759 26.5259C110.842 25.9219 110.925 25.36 111.011 24.8403C111.101 24.3124 111.185 23.8709 111.261 23.5157C111.305 23.3157 111.402 23.2005 111.551 23.1701C111.755 23.1286 111.883 23.2335 111.934 23.4849C111.951 23.5664 111.947 23.7405 111.924 24.0071C111.9 24.2737 111.865 24.6062 111.819 25.0048C111.771 25.3966 111.722 25.8312 111.67 26.3086C111.619 26.7861 111.567 27.2778 111.514 27.7838C111.467 28.2816 111.429 28.774 111.401 29.2609C111.371 29.741 111.36 30.189 111.367 30.6051C111.374 31.0212 111.406 31.3719 111.464 31.6572C111.502 31.8406 111.579 31.977 111.696 32.0664C111.819 32.1475 111.965 32.1708 112.135 32.1363C112.448 32.0726 112.748 31.9479 113.035 31.762C113.328 31.5679 113.602 31.3494 113.857 31.1065C114.11 30.8568 114.337 30.616 114.538 30.3841C114.744 30.1441 114.919 29.9457 115.064 29.7888C115.208 29.6251 115.313 29.5364 115.381 29.5226C115.531 29.4921 115.622 29.5585 115.655 29.7215C115.666 29.7759 115.633 29.8888 115.554 30.0604C115.475 30.2252 115.363 30.4248 115.22 30.6592C115.077 30.8936 114.904 31.1409 114.702 31.4013C114.506 31.6536 114.294 31.8984 114.066 32.1358C113.844 32.365 113.612 32.5609 113.369 32.7235C113.134 32.8916 112.901 32.9991 112.67 33.0461ZM117.168 32.1305C116.645 32.237 116.2 32.1508 115.831 31.872C115.469 31.585 115.224 31.1323 115.099 30.5141C115.021 30.1336 114.982 29.6782 114.98 29.1479C114.983 28.6095 115.009 28.0383 115.055 27.4344C115.108 26.8223 115.175 26.2143 115.257 25.6103C115.339 25.0063 115.423 24.4444 115.508 23.9247C115.599 23.3968 115.683 22.9553 115.759 22.6001C115.803 22.4001 115.9 22.2849 116.049 22.2544C116.253 22.2129 116.381 22.3179 116.432 22.5693C116.448 22.6508 116.445 22.8248 116.421 23.0914C116.398 23.358 116.363 23.6906 116.317 24.0892C116.269 24.4809 116.22 24.9156 116.168 25.393C116.117 25.8704 116.065 26.3622 116.012 26.8682C115.965 27.366 115.927 27.8584 115.899 28.3453C115.869 28.8253 115.858 29.2734 115.865 29.6895C115.872 30.1055 115.904 30.4562 115.962 30.7416C115.999 30.925 116.077 31.0614 116.194 31.1508C116.317 31.2319 116.463 31.2552 116.633 31.2206C116.945 31.157 117.245 31.0323 117.533 30.8463C117.826 30.6523 118.1 30.4338 118.355 30.1908C118.608 29.9411 118.835 29.7004 119.036 29.4685C119.241 29.2285 119.417 29.0301 119.562 28.8732C119.705 28.7095 119.811 28.6208 119.879 28.6069C120.029 28.5765 120.12 28.6428 120.153 28.8059C120.164 28.8602 120.131 28.9732 120.052 29.1448C119.973 29.3096 119.861 29.5092 119.718 29.7436C119.574 29.9779 119.402 30.2253 119.2 30.4857C119.004 30.738 118.792 30.9828 118.564 31.2201C118.342 31.4493 118.11 31.6453 117.867 31.8079C117.632 31.976 117.399 32.0835 117.168 32.1305ZM56.6006 60.5125C56.2677 60.5802 55.9638 60.5643 55.6888 60.4646C55.4192 60.3568 55.1949 60.1937 55.016 59.9754C54.8372 59.7571 54.7215 59.5188 54.6689 59.2607C54.5583 58.7171 54.5524 58.2018 54.6514 57.7147C54.7489 57.2208 54.9051 56.7715 55.1199 56.3669C55.3402 55.9542 55.5782 55.5944 55.8342 55.2876C56.0969 54.9794 56.3415 54.7385 56.568 54.5651C56.7999 54.3834 56.9702 54.2815 57.0789 54.2594C57.2963 54.2151 57.4271 54.3017 57.4714 54.5191C57.4921 54.621 57.4484 54.7538 57.3402 54.9173C57.2306 55.074 57.0885 55.2622 56.9138 55.4817C56.7391 55.7012 56.5557 55.9473 56.3636 56.2199C56.1701 56.4857 55.9963 56.7793 55.8424 57.1007C55.6871 57.4154 55.5761 57.7564 55.5094 58.1237C55.4413 58.4843 55.448 58.865 55.5296 59.2659C55.6126 59.6735 55.8206 59.8434 56.1535 59.7757C56.4592 59.7134 56.76 59.5921 57.0558 59.4116C57.3584 59.2297 57.6473 59.0152 57.9224 58.7681C58.203 58.5129 58.4687 58.2536 58.7193 57.9904C58.97 57.7271 59.1955 57.4795 59.396 57.2476C59.595 57.009 59.7643 56.8153 59.9039 56.6667C60.0434 56.518 60.1472 56.4367 60.2151 56.4229C60.351 56.3952 60.4341 56.4561 60.4646 56.6056C60.4881 56.7211 60.4411 56.8899 60.3235 57.1119C60.206 57.3339 60.0375 57.584 59.8182 57.8622C59.5989 58.1403 59.3497 58.4281 59.0706 58.7255C58.7901 59.016 58.5028 59.2903 58.2086 59.5483C57.9131 59.7995 57.6242 60.014 57.342 60.1917C57.0652 60.3613 56.818 60.4682 56.6006 60.5125ZM61.7116 59.4296C61.3107 59.5112 60.9637 59.4226 60.6704 59.1639C60.3772 58.9052 60.1808 58.5313 60.0812 58.0421C60.0453 57.8655 60.031 57.6738 60.0385 57.4671C60.0513 57.2522 60.0819 57.0549 60.1303 56.8753C60.073 56.8374 60.0225 56.7805 59.9787 56.7045C59.9336 56.6217 59.8979 56.5158 59.8716 56.3867C59.79 55.9858 59.7832 55.6051 59.8513 55.2445C59.9195 54.884 60.0407 54.5586 60.2151 54.2684C60.3882 53.9713 60.5967 53.7272 60.8408 53.536C61.0917 53.3434 61.3598 53.2181 61.6452 53.16C62.114 53.0646 62.529 53.157 62.8903 53.4372C63.2502 53.7107 63.5 54.1905 63.6397 54.8767C63.713 55.2367 63.7333 55.6147 63.7007 56.0105C63.6749 56.4049 63.6055 56.794 63.4926 57.1779C63.3865 57.5603 63.2422 57.9116 63.0597 58.2318C62.884 58.5506 62.6803 58.8185 62.4486 59.0355C62.2222 59.2443 61.9765 59.3756 61.7116 59.4296ZM60.7323 56.3919C60.7842 56.4379 60.8191 56.5051 60.837 56.5934C60.8578 56.6953 60.8581 56.8014 60.8381 56.9116C60.8249 57.0204 60.8159 57.1673 60.8111 57.3523C60.8063 57.5372 60.8371 57.7927 60.9035 58.1188C60.9698 58.445 61.1321 58.5817 61.3903 58.5292C61.6756 58.4711 61.9178 58.305 62.1167 58.0311C62.3143 57.7503 62.4715 57.4105 62.5885 57.0117C62.7054 56.6129 62.7733 56.1993 62.7922 55.7709C62.8166 55.3343 62.7914 54.9326 62.7167 54.5657C62.6683 54.3279 62.5903 54.1705 62.4826 54.0933C62.3735 54.0094 62.2035 53.991 61.9725 54.038C61.7347 54.0864 61.5033 54.2184 61.2783 54.434C61.0588 54.6414 60.8917 54.8983 60.7772 55.2047C60.6627 55.511 60.64 55.834 60.7091 56.1737C60.7244 56.2484 60.7321 56.3212 60.7323 56.3919ZM73.2821 56.6497C73.2974 56.7597 73.2712 56.8571 73.2035 56.9416C73.1358 57.0261 73.0476 57.0795 72.9389 57.1016C72.8166 57.1265 72.7064 57.1065 72.6083 57.0415C72.5102 56.9766 72.4438 56.8592 72.4092 56.6894C72.3193 56.2477 72.2422 55.7646 72.1779 55.24C72.1121 54.7085 72.058 54.1818 72.0154 53.6598C71.9714 53.131 71.9358 52.643 71.9084 52.1958C71.7492 52.5607 71.5765 52.9638 71.3904 53.405C71.2111 53.8448 71.0242 54.2826 70.8299 54.7184C70.6356 55.1542 70.4419 55.558 70.2487 55.9299C70.0542 56.295 69.8716 56.5974 69.7011 56.8373C69.5292 57.0704 69.3754 57.2008 69.2395 57.2285C68.9881 57.2797 68.7506 57.2254 68.5271 57.0657C68.3022 56.8993 68.1586 56.6631 68.0963 56.3574C68.0714 56.2351 68.0511 56.0659 68.0354 55.8498C68.0184 55.6268 68.0026 55.393 67.9882 55.1483C67.9737 54.9036 67.9594 54.6766 67.945 54.4672C67.9293 54.2511 67.9111 54.092 67.8904 53.9901C67.871 53.895 67.8442 53.8156 67.81 53.7518C67.7812 53.6798 67.7396 53.6493 67.6853 53.6604C67.6038 53.677 67.5103 53.7915 67.405 54.004C67.2983 54.2097 67.185 54.4698 67.065 54.7843C66.9519 55.0975 66.8354 55.429 66.7156 55.7788C66.6025 56.1273 66.4963 56.4567 66.3967 56.7671C66.2958 57.0707 66.2068 57.3116 66.1299 57.49C66.0721 57.6575 66.0127 57.7828 65.9518 57.8659C65.8908 57.9491 65.806 58.0017 65.6973 58.0239C65.5683 58.0501 65.4355 58.0064 65.2992 57.8926C65.1696 57.7775 65.0848 57.6214 65.0446 57.4244C65.0211 57.3089 65.0049 57.1247 64.9958 56.8718C64.9854 56.6122 64.9804 56.3266 64.9807 56.0153C64.9877 55.7025 64.9928 55.3972 64.9959 55.0994C65.0043 54.7934 65.0116 54.5337 65.0177 54.3202C65.025 54.0781 65.0611 53.908 65.1261 53.8099C65.191 53.7118 65.271 53.6531 65.3661 53.6337C65.4952 53.6074 65.6068 53.6342 65.7009 53.7141C65.8004 53.7859 65.8695 53.9168 65.9083 54.1071C65.9152 54.141 65.9135 54.2369 65.9031 54.3947C65.8914 54.5456 65.8764 54.7327 65.8581 54.9557C65.8453 55.1706 65.8277 55.3971 65.8054 55.6351C65.7899 55.8717 65.7811 56.0893 65.7791 56.2879C65.8774 56.0061 65.9783 55.7025 66.0819 55.3772C66.1923 55.0504 66.3034 54.7271 66.4151 54.4072C66.5255 54.0805 66.6414 53.7809 66.7629 53.5086C66.8829 53.2294 67.0099 53.0019 67.144 52.826C67.278 52.6502 67.4197 52.547 67.5692 52.5166C67.7458 52.4806 67.9199 52.5018 68.0915 52.5801C68.2699 52.657 68.4254 52.7774 68.5578 52.9415C68.6903 53.1056 68.7793 53.2997 68.825 53.5239C68.8568 53.6802 68.8745 53.9065 68.8783 54.2029C68.8806 54.4926 68.8844 54.8066 68.8897 55.1452C68.9017 55.4824 68.9307 55.7984 68.9765 56.0933C68.9904 56.1613 69.0177 56.1911 69.0584 56.1828C69.0924 56.1759 69.1283 56.1438 69.1662 56.0866C69.319 55.829 69.4831 55.5232 69.6587 55.1691C69.8329 54.8081 70.007 54.4295 70.181 54.0333C70.3619 53.6356 70.5407 53.2454 70.7175 52.8627C70.8929 52.4732 71.0583 52.1212 71.2136 51.8065C71.3743 51.4837 71.5196 51.2242 71.6494 51.0279C71.7861 50.8303 71.902 50.7218 71.9971 50.7024C72.2009 50.661 72.3689 50.6869 72.5011 50.7803C72.6334 50.8736 72.7271 51.0562 72.7824 51.328C72.8267 51.5454 72.8671 51.8308 72.9037 52.1842C72.947 52.5362 72.9864 52.9209 73.0219 53.3382C73.0641 53.7541 73.1002 54.1749 73.1302 54.6004C73.1656 55.0177 73.1955 55.4078 73.2199 55.7708C73.2429 56.127 73.2636 56.4199 73.2821 56.6497ZM83.0147 54.6684C83.03 54.7785 83.0038 54.8758 82.9361 54.9603C82.8684 55.0449 82.7802 55.0982 82.6715 55.1203C82.5493 55.1452 82.439 55.1252 82.3409 55.0603C82.2428 54.9953 82.1764 54.8779 82.1419 54.7081C82.052 54.2665 81.9748 53.7834 81.9105 53.2587C81.8448 52.7273 81.7906 52.2006 81.748 51.6786C81.7041 51.1498 81.6684 50.6617 81.641 50.2145C81.4818 50.5794 81.3092 50.9825 81.123 51.4237C80.9437 51.8635 80.7569 52.3013 80.5626 52.7371C80.3683 53.1729 80.1745 53.5767 79.9813 53.9486C79.7868 54.3137 79.6043 54.6162 79.4338 54.8561C79.2619 55.0892 79.108 55.2196 78.9721 55.2472C78.7207 55.2984 78.4833 55.2441 78.2597 55.0845C78.0348 54.918 77.8912 54.6819 77.829 54.3761C77.8041 54.2539 77.7838 54.0846 77.7681 53.8685C77.751 53.6455 77.7352 53.4117 77.7208 53.167C77.7064 52.9223 77.692 52.6953 77.6777 52.4859C77.662 52.2698 77.6438 52.1108 77.623 52.0089C77.6036 51.9137 77.5769 51.8343 77.5426 51.7705C77.5138 51.6985 77.4723 51.6681 77.4179 51.6791C77.3364 51.6957 77.243 51.8103 77.1376 52.0228C77.0309 52.2284 76.9176 52.4885 76.7976 52.8031C76.6845 53.1162 76.568 53.4477 76.4482 53.7976C76.3352 54.146 76.2289 54.4755 76.1293 54.7858C76.0284 55.0894 75.9395 55.3304 75.8626 55.5088C75.8047 55.6762 75.7453 55.8015 75.6844 55.8847C75.6235 55.9678 75.5387 56.0205 75.43 56.0426C75.3009 56.0689 75.1682 56.0251 75.0318 55.9114C74.9022 55.7962 74.8174 55.6402 74.7773 55.4431C74.7538 55.3276 74.7375 55.1434 74.7285 54.8906C74.7181 54.6309 74.713 54.3454 74.7133 54.034C74.7204 53.7212 74.7255 53.4159 74.7285 53.1181C74.737 52.8122 74.7442 52.5524 74.7503 52.3389C74.7576 52.0969 74.7938 51.9268 74.8587 51.8287C74.9236 51.7305 75.0037 51.6718 75.0988 51.6524C75.2279 51.6261 75.3395 51.653 75.4335 51.7329C75.5331 51.8046 75.6022 51.9356 75.6409 52.1258C75.6478 52.1598 75.6461 52.2556 75.6358 52.4134C75.624 52.5644 75.6091 52.7514 75.5908 52.9744C75.5779 53.1893 75.5603 53.4158 75.538 53.6538C75.5225 53.8905 75.5138 54.1081 75.5117 54.3066C75.61 54.0248 75.711 53.7212 75.8145 53.3959C75.9249 53.0692 76.036 52.7458 76.1478 52.4259C76.2581 52.0992 76.374 51.7997 76.4955 51.5273C76.6155 51.2481 76.7426 51.0206 76.8766 50.8448C77.0106 50.6689 77.1523 50.5657 77.3018 50.5353C77.4785 50.4994 77.6526 50.5205 77.8242 50.5988C78.0026 50.6757 78.158 50.7962 78.2904 50.9602C78.4229 51.1243 78.512 51.3185 78.5576 51.5427C78.5894 51.6989 78.6072 51.9253 78.6109 52.2217C78.6133 52.5113 78.6171 52.8254 78.6223 53.1639C78.6343 53.5011 78.6633 53.8171 78.7092 54.1121C78.723 54.18 78.7503 54.2098 78.7911 54.2015C78.825 54.1946 78.861 54.1625 78.8988 54.1053C79.0516 53.8478 79.2158 53.5419 79.3913 53.1878C79.5655 52.8269 79.7396 52.4483 79.9136 52.052C80.0945 51.6543 80.2733 51.2641 80.4501 50.8814C80.6256 50.492 80.7909 50.1399 80.9462 49.8253C81.1069 49.5024 81.2522 49.2429 81.3821 49.0467C81.5187 48.849 81.6346 48.7405 81.7297 48.7212C81.9335 48.6797 82.1016 48.7056 82.2338 48.799C82.366 48.8924 82.4598 49.0749 82.5151 49.3467C82.5593 49.5641 82.5998 49.8495 82.6363 50.2029C82.6797 50.5549 82.7191 50.9396 82.7545 51.3569C82.7967 51.7729 82.8328 52.1936 82.8628 52.6191C82.8983 53.0364 82.9282 53.4265 82.9525 53.7895C82.9755 54.1457 82.9962 54.4386 83.0147 54.6684ZM86.7382 54.4941C86.4325 54.5563 86.1421 54.52 85.8669 54.3849C85.5972 54.2417 85.3646 54.0202 85.1692 53.7204C84.9737 53.4205 84.8324 53.0566 84.7452 52.6286C84.654 52.1802 84.6129 51.718 84.6222 51.2421C84.6314 50.7661 84.6755 50.322 84.7543 49.9097C84.8331 49.4975 84.9312 49.1626 85.0486 48.9052C85.1646 48.641 85.2872 48.4958 85.4163 48.4695C85.5114 48.4502 85.5958 48.4648 85.6694 48.5135C85.7429 48.5622 85.7915 48.6443 85.815 48.7598C85.8205 48.787 85.8127 48.8876 85.7916 49.0618C85.769 49.2291 85.7426 49.4467 85.7122 49.7147C85.6805 49.9759 85.6543 50.2643 85.6336 50.5798C85.6129 50.8953 85.6072 51.2149 85.6165 51.5385C85.6258 51.8621 85.6588 52.1631 85.7155 52.4417C85.8123 52.9173 85.9249 53.2446 86.0533 53.4236C86.1872 53.5945 86.356 53.6592 86.5598 53.6177C87.0558 53.5167 87.4915 53.2936 87.867 52.9483C88.2478 52.5948 88.5781 52.1667 88.8579 51.664C89.143 51.1531 89.3886 50.6043 89.5947 50.0175C89.3638 50.0999 89.1383 50.1741 88.9183 50.2401C88.6968 50.2994 88.4849 50.3531 88.2825 50.4014C88.0868 50.4483 87.9529 50.4508 87.8807 50.4089C87.8085 50.367 87.7606 50.2883 87.7371 50.1728C87.7096 50.0723 87.7317 49.9723 87.8034 49.8728C87.8819 49.7719 87.9714 49.7077 88.0719 49.6801C88.3721 49.5907 88.6778 49.4931 88.9888 49.3873C89.2998 49.2816 89.606 49.1697 89.9075 49.0517C90.0069 48.706 90.0989 48.3583 90.1833 48.0085C90.2678 47.6588 90.3414 47.3254 90.4043 47.0084C90.457 46.5377 90.5228 46.0963 90.6016 45.684C90.6791 45.2649 90.7717 44.9206 90.8796 44.651C90.986 44.3746 91.1072 44.2226 91.2431 44.1949C91.4741 44.1479 91.6131 44.2399 91.6601 44.4709C91.6698 44.5184 91.6662 44.6571 91.6493 44.887C91.6324 45.1168 91.6049 45.4161 91.5667 45.7847C91.5354 46.1519 91.4967 46.5702 91.4507 47.0395C91.4033 47.5019 91.3574 47.9889 91.3129 48.5003C91.8995 48.2535 92.4324 48.0212 92.9116 47.8034C93.3963 47.5774 93.7941 47.3938 94.105 47.2527C94.4145 47.1048 94.5998 47.0246 94.661 47.0121C94.7493 46.9941 94.8296 47.0238 94.9019 47.101C94.9729 47.1715 95.016 47.2441 95.0312 47.3188C95.0436 47.38 94.9481 47.4843 94.7447 47.6319C94.548 47.778 94.2685 47.9517 93.9061 48.1528C93.5492 48.3458 93.1386 48.5532 92.6743 48.775C92.2154 48.9887 91.7348 49.1998 91.2324 49.4082C91.1801 50.0203 91.1333 50.6242 91.0918 51.2199C91.0503 51.8156 91.0229 52.3589 91.0097 52.8498C91.0094 53.1612 90.8903 53.3411 90.6526 53.3895C90.5303 53.4144 90.4323 53.4025 90.3587 53.3538C90.2919 53.3037 90.2433 53.2039 90.2129 53.0545C90.2087 53.0341 90.205 52.9287 90.2016 52.7384C90.2036 52.5398 90.2069 52.2951 90.2113 52.0041C90.2144 51.7063 90.2188 51.3976 90.2245 51.078C90.2288 50.7517 90.2345 50.4498 90.2418 50.1724C90.0117 50.8843 89.7325 51.5461 89.4042 52.1578C89.0758 52.7694 88.6887 53.2834 88.2428 53.6996C87.8037 54.1145 87.3021 54.3793 86.7382 54.4941ZM85.427 47.4272C85.2639 47.4604 85.1177 47.4371 84.9882 47.3574C84.8656 47.2762 84.789 47.1609 84.7586 47.0114C84.7213 46.828 84.7547 46.662 84.8589 46.5134C84.9685 46.3567 85.1116 46.2603 85.2883 46.2243C85.4853 46.1842 85.6465 46.2116 85.7719 46.3063C85.896 46.3943 85.976 46.5266 86.0119 46.7032C86.041 46.8459 86 46.9922 85.889 47.1422C85.778 47.2921 85.624 47.3871 85.427 47.4272ZM102.31 49.7199C102.326 49.8299 102.299 49.9273 102.232 50.0118C102.164 50.0963 102.076 50.1497 101.967 50.1718C101.845 50.1967 101.735 50.1767 101.637 50.1117C101.538 50.0468 101.472 49.9294 101.438 49.7596C101.348 49.318 101.27 48.8348 101.206 48.3102C101.14 47.7788 101.086 47.252 101.044 46.73C101 46.2012 100.964 45.7132 100.937 45.266C100.777 45.6309 100.605 46.034 100.419 46.4752C100.239 46.915 100.053 47.3528 99.8582 47.7886C99.6639 48.2244 99.4702 48.6282 99.277 49.0001C99.0824 49.3652 98.8999 49.6676 98.7294 49.9075C98.5575 50.1407 98.4036 50.271 98.2678 50.2987C98.0164 50.3499 97.7789 50.2956 97.5554 50.1359C97.3304 49.9695 97.1869 49.7334 97.1246 49.4276C97.0997 49.3053 97.0794 49.1361 97.0637 48.92C97.0466 48.697 97.0309 48.4632 97.0164 48.2185C97.002 47.9738 96.9876 47.7468 96.9733 47.5374C96.9576 47.3213 96.9394 47.1622 96.9187 47.0603C96.8993 46.9652 96.8725 46.8858 96.8383 46.822C96.8095 46.75 96.7679 46.7196 96.7136 46.7306C96.632 46.7472 96.5386 46.8618 96.4333 47.0742C96.3266 47.2799 96.2132 47.54 96.0933 47.8545C95.9801 48.1677 95.8637 48.4992 95.7438 48.849C95.6308 49.1975 95.5245 49.5269 95.425 49.8373C95.324 50.1409 95.2351 50.3818 95.1582 50.5602C95.1003 50.7277 95.0409 50.853 94.98 50.9361C94.9191 51.0193 94.8343 51.0719 94.7256 51.0941C94.5965 51.1203 94.4638 51.0766 94.3274 50.9629C94.1979 50.8477 94.113 50.6916 94.0729 50.4946C94.0494 50.3791 94.0331 50.1949 94.0241 49.942C94.0137 49.6824 94.0087 49.3968 94.0089 49.0855C94.016 48.7727 94.0211 48.4674 94.0242 48.1696C94.0326 47.8636 94.0399 47.6039 94.046 47.3904C94.0533 47.1483 94.0894 46.9783 94.1544 46.8801C94.2193 46.782 94.2993 46.7233 94.3944 46.7039C94.5235 46.6776 94.6351 46.7044 94.7292 46.7843C94.8287 46.8561 94.8978 46.987 94.9365 47.1773C94.9435 47.2112 94.9417 47.3071 94.9314 47.4649C94.9197 47.6158 94.9047 47.8029 94.8864 48.0259C94.8736 48.2408 94.856 48.4673 94.8337 48.7053C94.8182 48.9419 94.8094 49.1595 94.8074 49.3581C94.9057 49.0763 95.0066 48.7727 95.1102 48.4474C95.2206 48.1206 95.3316 47.7973 95.4434 47.4774C95.5538 47.1507 95.6697 46.8511 95.7911 46.5788C95.9112 46.2996 96.0382 46.0721 96.1722 45.8962C96.3063 45.7204 96.448 45.6172 96.5975 45.5868C96.7741 45.5508 96.9482 45.572 97.1198 45.6503C97.2982 45.7272 97.4536 45.8476 97.5861 46.0117C97.7185 46.1758 97.8076 46.3699 97.8532 46.5941C97.8851 46.7504 97.9028 46.9767 97.9066 47.2731C97.9089 47.5628 97.9127 47.8768 97.918 48.2154C97.93 48.5526 97.9589 48.8686 98.0048 49.1635C98.0187 49.2315 98.046 49.2613 98.0867 49.253C98.1207 49.2461 98.1566 49.214 98.1945 49.1568C98.3473 48.8992 98.5114 48.5934 98.687 48.2393C98.8611 47.8784 99.0352 47.4997 99.2093 47.1035C99.3901 46.7058 99.569 46.3156 99.7458 45.9329C99.9212 45.5434 100.087 45.1914 100.242 44.8767C100.403 44.5539 100.548 44.2944 100.678 44.0981C100.814 43.9005 100.93 43.792 101.025 43.7727C101.229 43.7312 101.397 43.7571 101.529 43.8505C101.662 43.9438 101.755 44.1264 101.811 44.3982C101.855 44.6156 101.895 44.901 101.932 45.2544C101.975 45.6064 102.015 45.9911 102.05 46.4084C102.092 46.8243 102.128 47.2451 102.158 47.6706C102.194 48.0879 102.224 48.478 102.248 48.841C102.271 49.1972 102.292 49.4901 102.31 49.7199ZM107.58 45.4117C107.624 45.6291 107.6 45.857 107.507 46.0952C107.412 46.3267 107.272 46.5604 107.087 46.7963C106.9 47.0253 106.687 47.2491 106.449 47.4674C106.21 47.6858 105.968 47.8838 105.721 48.0614C105.474 48.239 105.246 48.388 105.037 48.5084C105.037 48.7844 105.057 49.0244 105.099 49.2282C105.125 49.3573 105.174 49.4428 105.246 49.4847C105.319 49.5266 105.419 49.5344 105.548 49.5081C105.834 49.45 106.126 49.3375 106.424 49.1706C106.723 49.0037 107.022 48.8048 107.322 48.574C107.621 48.3432 107.905 48.1049 108.174 47.8592C108.442 47.6136 108.685 47.3836 108.904 47.1694C109.129 46.9538 109.316 46.7777 109.465 46.6412C109.614 46.5048 109.716 46.431 109.77 46.4199C109.851 46.4033 109.918 46.4181 109.97 46.4641C110.027 46.502 110.063 46.5549 110.076 46.6228C110.088 46.6772 110.024 46.7998 109.886 46.9906C109.755 47.1801 109.571 47.4085 109.336 47.6758C109.099 47.9363 108.829 48.2105 108.527 48.4985C108.224 48.7864 107.906 49.0635 107.571 49.3298C107.243 49.5948 106.917 49.8202 106.594 50.0063C106.278 50.1909 105.984 50.3109 105.712 50.3662C105.359 50.4381 105.057 50.3617 104.806 50.1368C104.555 49.912 104.373 49.521 104.259 48.9639C104.183 48.5902 104.154 48.2035 104.172 47.8036C104.196 47.4024 104.258 47.0113 104.357 46.6302C104.462 46.241 104.592 45.889 104.747 45.5744C104.908 45.2516 105.091 44.9878 105.297 44.7832C105.502 44.5717 105.716 44.4432 105.941 44.3975C106.369 44.3104 106.729 44.3608 107.022 44.5488C107.315 44.7368 107.501 45.0244 107.58 45.4117ZM105.091 47.6801C105.276 47.5082 105.465 47.328 105.66 47.1397C105.856 46.9514 106.033 46.7632 106.193 46.575C106.353 46.3868 106.474 46.1994 106.556 46.0128C106.644 45.8181 106.67 45.6324 106.634 45.4557C106.583 45.2044 106.421 45.1063 106.149 45.1617C105.979 45.1962 105.822 45.3416 105.676 45.5977C105.535 45.8457 105.414 46.1568 105.314 46.5311C105.213 46.9053 105.139 47.2884 105.091 47.6801ZM110.512 49.145C110.315 49.1851 110.116 49.109 109.914 48.9166C109.712 48.7242 109.575 48.4513 109.503 48.0981C109.424 47.7108 109.391 47.286 109.403 46.8236C109.422 46.3599 109.463 45.8845 109.526 45.3975C109.589 44.9037 109.651 44.4276 109.713 43.9691C109.729 43.8739 109.764 43.7997 109.817 43.7465C109.875 43.6851 109.972 43.6406 110.108 43.6129C110.352 43.5631 110.499 43.6571 110.547 43.8949C110.558 43.9492 110.556 44.0771 110.54 44.2784C110.525 44.4797 110.501 44.7286 110.47 45.0251C110.445 45.3203 110.421 45.6399 110.399 45.984C110.376 46.3213 110.364 46.6599 110.362 46.9998C110.361 47.3398 110.375 47.6518 110.404 47.9359C110.489 47.7982 110.576 47.5967 110.663 47.3313C110.757 47.0644 110.856 46.7649 110.958 46.4328C111.059 46.0939 111.166 45.7536 111.281 45.4119C111.394 45.0634 111.512 44.7421 111.636 44.448C111.766 44.1457 111.9 43.8991 112.038 43.7083C112.181 43.5092 112.327 43.3945 112.477 43.3641C112.694 43.3198 112.892 43.3504 113.069 43.4559C113.251 43.5532 113.417 43.76 113.567 44.0763C113.721 44.3844 113.859 44.8374 113.981 45.4353C114.046 45.7546 114.138 46.0473 114.255 46.3134C114.38 46.5781 114.531 46.7809 114.708 46.9217C114.891 47.0543 115.098 47.0971 115.329 47.0501C115.675 46.9796 115.972 46.8555 116.219 46.6779C116.464 46.4935 116.67 46.3031 116.835 46.1067C117.005 45.9022 117.146 45.7249 117.257 45.575C117.367 45.4182 117.459 45.3322 117.534 45.317C117.69 45.2852 117.785 45.3508 117.818 45.5139C117.832 45.5818 117.803 45.7009 117.731 45.8711C117.665 46.0332 117.563 46.2239 117.423 46.4433C117.29 46.6545 117.128 46.8678 116.938 47.0833C116.754 47.2906 116.547 47.4742 116.318 47.6341C116.095 47.7926 115.859 47.8974 115.607 47.9486C115.138 48.0441 114.736 48.0305 114.4 47.9079C114.07 47.7839 113.791 47.5259 113.563 47.1337C113.341 46.7401 113.158 46.19 113.015 45.4835C112.936 45.0962 112.855 44.8191 112.771 44.6521C112.693 44.477 112.59 44.3706 112.462 44.333C112.409 44.4922 112.346 44.7175 112.27 45.0087C112.194 45.2932 112.103 45.6124 111.998 45.9663C111.9 46.3188 111.793 46.6767 111.676 47.0402C111.564 47.3955 111.444 47.7277 111.316 48.0368C111.188 48.3459 111.056 48.6026 110.921 48.8071C110.784 49.0047 110.648 49.1173 110.512 49.145ZM116.046 44.8663C115.86 44.8901 115.751 44.7885 115.719 44.5615C115.714 44.5058 115.739 44.4336 115.791 44.345C115.843 44.2497 115.912 44.1896 115.999 44.1648C116.205 44.1016 116.457 44.0185 116.755 43.9155C117.058 43.8043 117.39 43.6801 117.751 43.5429C117.751 43.1961 117.761 42.8297 117.782 42.4434C117.802 42.0572 117.835 41.6791 117.88 41.309C117.923 40.9322 117.981 40.588 118.052 40.2764C118.123 39.9648 118.213 39.7129 118.322 39.5208C118.382 39.4309 118.439 39.3661 118.495 39.3265C118.549 39.28 118.6 39.252 118.648 39.2423C118.743 39.223 118.826 39.2485 118.897 39.319C118.975 39.3881 119.024 39.4735 119.045 39.5755C119.056 39.6298 119.057 39.6862 119.047 39.7447C118.989 40.1529 118.938 40.6514 118.895 41.2403C118.852 41.8292 118.81 42.4712 118.767 43.1661C119.372 42.937 119.974 42.701 120.576 42.4583C121.178 42.2156 121.693 42.001 122.122 41.8146C122.24 41.734 122.34 41.7241 122.424 41.785C122.514 41.8445 122.566 41.9117 122.581 41.9864C122.601 42.0815 122.588 42.1584 122.543 42.217C122.506 42.2742 122.463 42.3254 122.415 42.3704L122.407 42.3827C122.283 42.4647 122.092 42.5707 121.835 42.7008C121.577 42.824 121.28 42.9624 120.943 43.1158C120.605 43.2625 120.243 43.414 119.858 43.5703C119.479 43.7253 119.102 43.8727 118.727 44.0127C118.693 44.6424 118.658 45.2898 118.624 45.9548C118.595 46.6116 118.564 47.2583 118.531 47.8948C118.512 48.1532 118.465 48.322 118.39 48.4011C118.322 48.4856 118.24 48.5376 118.145 48.5569C118.037 48.5791 117.933 48.5577 117.835 48.4927C117.744 48.4264 117.7 48.2621 117.703 47.9996L117.739 44.373C117.344 44.5172 116.993 44.6346 116.686 44.7254C116.386 44.8148 116.173 44.8618 116.046 44.8663Z" fill="#008133"/>
</svg>
