<svg width="30" height="46" viewBox="0 0 30 46" fill="none" xmlns="http://www.w3.org/2000/svg">
<path d="M11.1812 1.39053C10.9913 0.871922 10.417 0.605449 9.89835 0.795347L1.4471 3.88992C0.928487 4.07982 0.662013 4.65418 0.851912 5.17279C1.04181 5.6914 1.61617 5.95788 2.13478 5.76798L9.647 3.01724L12.3977 10.5295C12.5876 11.0481 13.162 11.3145 13.6806 11.1247C14.1992 10.9348 14.4657 10.3604 14.2758 9.84178L11.1812 1.39053ZM29.8333 43.3785C21.7663 41.3479 15.5931 34.3071 12.1822 26.0035C8.76696 17.6894 8.24714 8.4106 11.1493 2.15523L9.33506 1.31352C6.12027 8.24271 6.78779 18.1349 10.3322 26.7635C13.881 35.4027 20.4398 43.0765 29.3452 45.318L29.8333 43.3785Z" fill="#008133"/>
</svg>
