<svg width="47" height="36" viewBox="0 0 47 36" fill="none" xmlns="http://www.w3.org/2000/svg">
<path d="M41.048 28.4023C40.2196 28.4023 39.548 29.0739 39.548 29.9023C39.548 30.7308 40.2196 31.4023 41.048 31.4023V28.4023ZM44.809 27.6405L45.9737 28.5858L45.9737 28.5858L44.809 27.6405ZM42.0308 21.7275L42.946 20.5391L42.9459 20.5391L42.0308 21.7275ZM37.6351 18.4084C36.8101 18.3338 36.0807 18.9422 36.0061 19.7672C35.9315 20.5923 36.5398 21.3216 37.3649 21.3962L37.6351 18.4084ZM35.5 14.4023C34.6716 14.4023 34 15.0739 34 15.9023C34 16.7308 34.6716 17.4023 35.5 17.4023V14.4023ZM35.5 4.40234C34.6716 4.40234 34 5.07392 34 5.90234C34 6.73077 34.6716 7.40234 35.5 7.40234V4.40234ZM5.95192 31.4023C6.78034 31.4023 7.45192 30.7308 7.45192 29.9023C7.45192 29.0739 6.78034 28.4023 5.95192 28.4023V31.4023ZM2.1911 27.6405L3.35582 26.6953L3.35576 26.6953L2.1911 27.6405ZM4.9693 21.7275L5.88443 22.916L5.8845 22.916L4.9693 21.7275ZM9.63511 21.3962C10.4602 21.3216 11.0685 20.5923 10.9939 19.7672C10.9193 18.9422 10.1899 18.3338 9.36488 18.4084L9.63511 21.3962ZM10.5 17.4023C11.3284 17.4023 12 16.7308 12 15.9023C12 15.0739 11.3284 14.4023 10.5 14.4023V17.4023ZM10.5 7.40234C11.3284 7.40234 12 6.73077 12 5.90234C12 5.07392 11.3284 4.40234 10.5 4.40234V7.40234ZM15.6676 24.1247L14.8787 22.8489H14.8787L15.6676 24.1247ZM11.5294 31.1971L12.5844 30.1308L12.5844 30.1308L11.5294 31.1971ZM35.4706 31.1971L34.4156 30.1308L35.4706 31.1971ZM31.3324 24.1247L30.5435 25.4005L30.5435 25.4006L31.3324 24.1247ZM41.048 31.4023C43.2462 31.4023 44.8238 30.0026 45.9737 28.5858L43.6443 26.6953C42.6534 27.9161 41.847 28.4023 41.048 28.4023V31.4023ZM45.9737 28.5858C46.7248 27.6603 47.0751 26.6451 46.9867 25.6C46.9024 24.6021 46.4339 23.7722 45.9329 23.1381C44.9837 21.9366 43.4788 20.9494 42.946 20.5391L41.1156 22.916C41.9546 23.5621 42.9342 24.1817 43.5788 24.9978C43.8748 25.3724 43.9806 25.654 43.9974 25.8528C44.0102 26.0044 43.9886 26.2711 43.6443 26.6953L45.9737 28.5858ZM42.9459 20.5391C41.3373 19.3004 39.5122 18.5782 37.6351 18.4084L37.3649 21.3962C38.6454 21.5121 39.9347 22.0067 41.1157 22.916L42.9459 20.5391ZM35.5 17.4023C39.0898 17.4023 42 14.4922 42 10.9023H39C39 12.8353 37.433 14.4023 35.5 14.4023V17.4023ZM42 10.9023C42 7.31249 39.0898 4.40234 35.5 4.40234V7.40234C37.433 7.40234 39 8.96935 39 10.9023H42ZM5.95192 28.4023C5.1529 28.4023 4.34654 27.9161 3.35582 26.6953L1.02637 28.5858C2.17613 30.0025 3.75373 31.4023 5.95192 31.4023V28.4023ZM3.35576 26.6953C3.01141 26.271 2.98982 26.0043 3.00263 25.8527C3.01943 25.6539 3.12519 25.3724 3.42114 24.9978C4.06577 24.1818 5.0454 23.5621 5.88443 22.916L4.05416 20.539C3.52124 20.9494 2.0163 21.9365 1.06708 23.1381C0.566116 23.7722 0.0976357 24.6021 0.0132915 25.6001C-0.0750403 26.6452 0.275316 27.6604 1.02643 28.5858L3.35576 26.6953ZM5.8845 22.916C7.0652 22.0067 8.35452 21.5121 9.63511 21.3962L9.36488 18.4084C7.4878 18.5782 5.66267 19.3003 4.05409 20.5391L5.8845 22.916ZM10.5 14.4023C8.567 14.4023 7 12.8353 7 10.9023H4C4 14.4922 6.91015 17.4023 10.5 17.4023V14.4023ZM7 10.9023C7 8.96935 8.567 7.40234 10.5 7.40234V4.40234C6.91015 4.40234 4 7.3125 4 10.9023H7ZM14.8787 22.8489C14.0192 23.3804 11.8941 24.4948 10.5391 25.8721C9.84206 26.5806 9.14686 27.5465 9.0201 28.7507C8.88449 30.039 9.4313 31.2315 10.4744 32.2635L12.5844 30.1308C11.9958 29.5485 11.9886 29.2078 12.0036 29.0647C12.0275 28.8376 12.1877 28.4741 12.6777 27.976C13.6967 26.9402 15.2725 26.1327 16.4565 25.4005L14.8787 22.8489ZM10.4744 32.2635C12.1977 33.9684 14.3323 35.4023 17.1313 35.4023V32.4023C15.4658 32.4023 14.0494 31.5803 12.5844 30.1308L10.4744 32.2635ZM17.1313 35.4023H29.8688V32.4023H17.1313V35.4023ZM29.8688 35.4023C32.6677 35.4023 34.8023 33.9683 36.5256 32.2635L34.4156 30.1308C32.9505 31.5803 31.5343 32.4023 29.8688 32.4023V35.4023ZM36.5256 32.2635C37.5687 31.2315 38.1155 30.039 37.9799 28.7507C37.8531 27.5465 37.158 26.5806 36.4609 25.8721C35.1059 24.4948 32.9809 23.3804 32.1213 22.8489L30.5435 25.4006C31.7275 26.1326 33.3033 26.9402 34.3223 27.976C34.8123 28.4741 34.9725 28.8376 34.9964 29.0647C35.0114 29.2078 35.0042 29.5485 34.4156 30.1308L36.5256 32.2635ZM32.1213 22.8489C26.8456 19.5868 20.1544 19.5868 14.8787 22.8489L16.4565 25.4005C20.7652 22.7363 26.2348 22.7363 30.5435 25.4005L32.1213 22.8489ZM29 8.90234C29 11.9399 26.5376 14.4023 23.5 14.4023V17.4023C28.1944 17.4023 32 13.5968 32 8.90234H29ZM23.5 14.4023C20.4624 14.4023 18 11.9399 18 8.90234H15C15 13.5968 18.8056 17.4023 23.5 17.4023V14.4023ZM18 8.90234C18 5.86477 20.4624 3.40234 23.5 3.40234V0.402344C18.8056 0.402344 15 4.20792 15 8.90234H18ZM23.5 3.40234C26.5376 3.40234 29 5.86477 29 8.90234H32C32 4.20792 28.1944 0.402344 23.5 0.402344V3.40234Z" fill="#21C1F3"/>
</svg>
