<svg width="96" height="16" viewBox="0 0 96 16" fill="none" xmlns="http://www.w3.org/2000/svg">
<path d="M6.95816 0.953212C7.27942 -0.0355113 8.6782 -0.0355108 8.99945 0.953213L10.1473 4.48587C10.291 4.92804 10.703 5.22742 11.1679 5.22742H14.8824C15.922 5.22742 16.3542 6.55774 15.5132 7.1688L12.5081 9.35211C12.132 9.62538 11.9746 10.1098 12.1183 10.5519L13.2661 14.0846C13.5874 15.0733 12.4557 15.8955 11.6147 15.2844L8.6096 13.1011C8.23347 12.8279 7.72415 12.8279 7.34801 13.1011L4.34295 15.2844C3.5019 15.8955 2.37026 15.0733 2.69151 14.0846L3.83935 10.5519C3.98302 10.1098 3.82563 9.62538 3.44949 9.35211L0.444434 7.1688C-0.396625 6.55774 0.0356224 5.22742 1.07523 5.22742H4.78969C5.25461 5.22742 5.66666 4.92804 5.81033 4.48587L6.95816 0.953212Z" fill="#F59E0B"/>
<path d="M26.9157 0.953212C27.2369 -0.0355113 28.6357 -0.0355108 28.957 0.953213L30.1048 4.48587C30.2485 4.92804 30.6605 5.22742 31.1255 5.22742H34.8399C35.8795 5.22742 36.3118 6.55774 35.4707 7.1688L32.4656 9.35211C32.0895 9.62538 31.9321 10.1098 32.0758 10.5519L33.2236 14.0846C33.5449 15.0733 32.4132 15.8955 31.5722 15.2844L28.5671 13.1011C28.191 12.8279 27.6817 12.8279 27.3055 13.1011L24.3005 15.2844C23.4594 15.8955 22.3278 15.0733 22.649 14.0846L23.7969 10.5519C23.9405 10.1098 23.7831 9.62538 23.407 9.35211L20.402 7.1688C19.5609 6.55774 19.9931 5.22742 21.0327 5.22742H24.7472C25.2121 5.22742 25.6242 4.92804 25.7679 4.48587L26.9157 0.953212Z" fill="#F59E0B"/>
<path d="M46.8732 0.953212C47.1945 -0.0355113 48.5932 -0.0355108 48.9145 0.953213L50.0623 4.48587C50.206 4.92804 50.618 5.22742 51.083 5.22742H54.7974C55.837 5.22742 56.2693 6.55774 55.4282 7.1688L52.4232 9.35211C52.047 9.62538 51.8896 10.1098 52.0333 10.5519L53.1811 14.0846C53.5024 15.0733 52.3708 15.8955 51.5297 15.2844L48.5246 13.1011C48.1485 12.8279 47.6392 12.8279 47.2631 13.1011L44.258 15.2844C43.4169 15.8955 42.2853 15.0733 42.6066 14.0846L43.7544 10.5519C43.8981 10.1098 43.7407 9.62538 43.3645 9.35211L40.3595 7.1688C39.5184 6.55774 39.9507 5.22742 40.9903 5.22742H44.7047C45.1697 5.22742 45.5817 4.92804 45.7254 4.48587L46.8732 0.953212Z" fill="#F59E0B"/>
<path d="M66.8307 0.953212C67.152 -0.0355113 68.5508 -0.0355108 68.872 0.953213L70.0198 4.48587C70.1635 4.92804 70.5756 5.22742 71.0405 5.22742H74.7549C75.7946 5.22742 76.2268 6.55774 75.3857 7.1688L72.3807 9.35211C72.0045 9.62538 71.8472 10.1098 71.9908 10.5519L73.1387 14.0846C73.4599 15.0733 72.3283 15.8955 71.4872 15.2844L68.4822 13.1011C68.106 12.8279 67.5967 12.8279 67.2206 13.1011L64.2155 15.2844C63.3745 15.8955 62.2428 15.0733 62.5641 14.0846L63.7119 10.5519C63.8556 10.1098 63.6982 9.62538 63.3221 9.35211L60.317 7.1688C59.4759 6.55774 59.9082 5.22742 60.9478 5.22742H64.6622C65.1272 5.22742 65.5392 4.92804 65.6829 4.48587L66.8307 0.953212Z" fill="#F59E0B"/>
<path d="M86.7882 0.953212C87.1095 -0.0355113 88.5083 -0.0355108 88.8295 0.953213L89.9774 4.48587C90.121 4.92804 90.5331 5.22742 90.998 5.22742H94.7125C95.7521 5.22742 96.1843 6.55774 95.3433 7.1688L92.3382 9.35211C91.9621 9.62538 91.8047 10.1098 91.9483 10.5519L93.0962 14.0846C93.4174 15.0733 92.2858 15.8955 91.4447 15.2844L88.4397 13.1011C88.0635 12.8279 87.5542 12.8279 87.1781 13.1011L84.173 15.2844C83.332 15.8955 82.2003 15.0733 82.5216 14.0846L83.6694 10.5519C83.8131 10.1098 83.6557 9.62538 83.2796 9.35211L80.2745 7.1688C79.4335 6.55774 79.8657 5.22742 80.9053 5.22742H84.6198C85.0847 5.22742 85.4967 4.92804 85.6404 4.48587L86.7882 0.953212Z" fill="#F59E0B"/>
</svg>
