<svg width="137" height="20" viewBox="0 0 137 20" fill="none" xmlns="http://www.w3.org/2000/svg">
<g clip-path="url(#clip0_405_29544)">
<path d="M20.9853 0.0859375C23.7131 0.0859375 25.9008 0.811745 27.4402 2.26336C29.0067 3.71497 29.8169 5.83862 29.8169 8.55368V19.4945C29.8169 19.7365 29.6009 19.9515 29.3578 19.9515H25.7387C25.4956 19.9515 25.2796 19.7365 25.2796 19.4945V8.15045C25.2796 6.88701 24.9015 5.91927 24.1452 5.24723C23.362 4.54831 22.3087 4.19884 20.9853 4.19884H17.0961C15.7727 4.19884 14.7194 4.54831 13.9362 5.24723C13.18 5.94615 12.8019 6.88701 12.8019 8.15045V19.4945C12.8019 19.7365 12.5858 19.9515 12.3427 19.9515H8.72363C8.48056 19.9515 8.26449 19.7365 8.26449 19.4945V8.55368C8.26449 5.83862 9.04774 3.71497 10.6412 2.26336C12.2077 0.811745 14.3683 0.0859375 17.0961 0.0859375H20.9853ZM63.1449 0.0859375H59.2557C56.5279 0.0859375 54.3402 0.811745 52.8008 2.26336C52.7738 2.29024 52.7197 2.344 52.6927 2.37088C52.6657 2.344 52.6117 2.29024 52.5847 2.26336C51.0183 0.811745 48.8576 0.0859375 46.1298 0.0859375H42.2406C39.5128 0.0859375 37.3252 0.811745 35.7857 2.26336C34.2192 3.71497 33.409 5.83862 33.409 8.55368V19.4945C33.409 19.7365 33.6251 19.9515 33.8681 19.9515H37.4872C37.7303 19.9515 37.9464 19.7365 37.9464 19.4945V8.15045C37.9464 6.88701 38.3245 5.91927 39.0807 5.24723C39.8639 4.54831 40.9172 4.19884 42.2406 4.19884H46.1298C47.4532 4.19884 48.5065 4.54831 49.2897 5.24723C50.046 5.91927 50.4241 6.91389 50.4241 8.15045V19.4945C50.4241 19.7365 50.6401 19.9515 50.8832 19.9515H54.5023C54.7454 19.9515 54.9614 19.7365 54.9614 19.4945V8.15045C54.9614 6.88701 55.3395 5.91927 56.0958 5.24723C56.879 4.54831 57.9323 4.19884 59.2557 4.19884H63.1449C64.4683 4.19884 65.5216 4.54831 66.3048 5.24723C67.061 5.91927 67.4391 6.91389 67.4391 8.15045V19.4945C67.4391 19.7365 67.6552 19.9515 67.8983 19.9515H71.5174C71.7604 19.9515 71.9765 19.7365 71.9765 19.4945V8.55368C71.9765 5.83862 71.1933 3.71497 69.5998 2.26336C68.0603 0.811745 65.8727 0.0859375 63.1449 0.0859375ZM126.317 9.27949C127.586 10.1128 128.234 11.6451 128.234 13.8494C128.234 15.9999 127.694 17.5859 126.641 18.5537C125.587 19.4945 123.967 19.9784 121.806 19.9784H106.682C106.439 19.9784 106.223 19.7634 106.223 19.5214V0.54293C106.223 0.300995 106.439 0.0859375 106.682 0.0859375H120.591C122.59 0.0859375 124.129 0.40852 125.182 1.05368C126.56 1.94078 127.262 3.39239 127.262 5.38164C127.289 6.21497 127.208 7.04831 127.019 7.85476C126.911 8.36551 126.668 8.84938 126.317 9.27949ZM120.672 7.50529C122.536 7.50529 122.806 6.75261 122.806 5.91927C122.806 5.03218 122.536 4.22573 120.645 4.22573H111.003C110.868 4.22573 110.787 4.33325 110.787 4.44078V7.29024C110.787 7.42465 110.895 7.50529 111.003 7.50529H120.672ZM110.76 15.5698C110.76 15.7042 110.868 15.7849 110.976 15.7849H121.401C123.076 15.7849 123.751 15.1666 123.751 13.6074C123.751 12.6397 123.454 11.6451 121.266 11.6451H111.003C110.868 11.6451 110.787 11.7526 110.787 11.8601L110.76 15.5698ZM135.905 0.112821H132.204C131.961 0.112821 131.745 0.327878 131.745 0.569813V19.5214C131.745 19.7634 131.961 19.9784 132.204 19.9784H135.878C136.121 19.9784 136.337 19.7634 136.337 19.5214V0.54293C136.364 0.300995 136.148 0.112821 135.905 0.112821ZM4.15928 0.0859375H0.459171C0.216098 0.0859375 3.05176e-05 0.300995 3.05176e-05 0.54293V19.5483C3.05176e-05 19.7902 0.216098 20.0053 0.459171 20.0053H4.15928C4.40235 20.0053 4.6184 19.7902 4.6184 19.5483V0.54293C4.6184 0.274113 4.40235 0.0859375 4.15928 0.0859375Z" fill="#1476FC"/>
<path d="M83.4817 3.66028H94.8791C96.2025 3.68716 97.2288 3.98286 97.931 4.5205C97.958 4.5205 97.958 4.5205 97.985 4.5205V4.49361C97.1478 2.93447 95.8784 1.61727 94.3389 0.730174C93.5287 0.273185 92.5834 0.03125 91.6652 0.03125H83.2116C80.6189 0.0850134 78.5933 0.891465 77.1888 2.36996C75.8114 3.82157 75.0822 5.8377 75.0012 8.3377C75.0012 8.36458 75.0282 8.36458 75.0282 8.36458C75.0282 8.36458 75.0552 8.36458 75.0552 8.3377C76.8647 5.43447 80.0517 3.66028 83.4817 3.66028Z" fill="url(#paint0_linear_405_29544)"/>
<path d="M101.01 2.39624C98.6874 -0.130638 94.8522 -0.0231108 94.15 0.0306526C94.123 0.0306526 94.123 0.0575344 94.123 0.0575344C94.123 0.0575344 94.123 0.0844161 94.15 0.0844161C97.0399 1.50915 99.0655 4.30485 99.4976 7.47689C99.6866 8.79409 99.5786 11.4285 99.5786 11.4285C99.5246 15.0038 97.553 18.2565 94.3931 19.9231C94.3661 19.9231 94.3661 19.95 94.3661 19.9769L94.3931 20.0038C95.0683 20.0307 98.7414 20.1113 101.037 17.6382C102.468 16.079 103.225 13.9285 103.225 11.2134V8.84786C103.198 6.10592 102.441 3.95538 101.01 2.39624Z" fill="url(#paint1_linear_405_29544)"/>
<path d="M94.501 19.3027C96.0675 18.4156 97.3369 17.0446 98.1201 15.4317C98.1201 15.4048 98.1201 15.4048 98.0931 15.3779H98.0661C97.3369 15.9962 96.3106 16.2919 94.9062 16.3188H83.3197C81.7262 16.2919 80.6189 15.8887 79.8897 15.1091C79.0794 14.2489 78.6743 12.9317 78.6743 11.1575V8.79192C78.6743 6.34568 79.4846 5.24353 79.8087 4.92095C79.8087 4.89407 79.8087 4.89407 79.8087 4.86719H79.7816C78.2152 5.53923 76.8648 6.64138 75.8925 8.01235C75.2983 8.87256 74.9742 9.92095 75.0012 10.9693C75.0012 12.6091 75.3253 15.5392 77.2429 17.5822C78.7824 19.222 81.105 19.9478 83.2657 19.9209H91.9623C92.8265 19.9747 93.7178 19.7597 94.501 19.3027Z" fill="url(#paint2_linear_405_29544)"/>
</g>
<defs>
<linearGradient id="paint0_linear_405_29544" x1="75.9866" y1="4.22073" x2="98.4912" y2="4.22073" gradientUnits="userSpaceOnUse">
<stop stop-color="#A5D270"/>
<stop offset="0.5" stop-color="#5DA4B6"/>
<stop offset="0.7739" stop-color="#2F87E2"/>
<stop offset="1" stop-color="#1476FC"/>
</linearGradient>
<linearGradient id="paint1_linear_405_29544" x1="97.5871" y1="0.503971" x2="104.518" y2="17.2133" gradientUnits="userSpaceOnUse">
<stop offset="0.017" stop-color="#FFD522"/>
<stop offset="0.1518" stop-color="#E0C437"/>
<stop offset="0.5612" stop-color="#7B8C7E"/>
<stop offset="0.9015" stop-color="#2379E9"/>
<stop offset="1" stop-color="#1476FC"/>
</linearGradient>
<linearGradient id="paint2_linear_405_29544" x1="75.2483" y1="10.2288" x2="89.1295" y2="23.713" gradientUnits="userSpaceOnUse">
<stop stop-color="#FC4B38"/>
<stop offset="0.0649911" stop-color="#FC4B38"/>
<stop offset="0.5" stop-color="#7E6985"/>
<stop offset="0.9526" stop-color="#1476FC"/>
</linearGradient>
<clipPath id="clip0_405_29544">
<rect width="136.364" height="20" fill="white"/>
</clipPath>
</defs>
</svg>
