<svg width="31" height="20" viewBox="0 0 31 20" fill="none" xmlns="http://www.w3.org/2000/svg">
<path d="M21.7468 18.997C23.401 19.39 25.1435 19.1097 26.5911 18.2179C28.0386 17.3261 29.0726 15.8957 29.4656 14.2415C29.8585 12.5873 29.5782 10.8448 28.6864 9.39725C27.7946 7.94971 26.3642 6.91573 24.71 6.52278C23.8597 6.24018 22.9584 6.14428 22.0676 6.2416C21.1769 6.33893 20.3175 6.62719 19.5483 7.08675V6.20733C19.5479 5.53501 19.7591 4.87961 20.1519 4.33403C20.5448 3.78844 21.0995 3.38036 21.7373 3.16763C22.1126 3.01412 22.4155 2.7235 22.5844 2.35478C22.7532 1.98607 22.7754 1.5669 22.6465 1.1824C22.5175 0.797908 22.247 0.476917 21.89 0.284618C21.5329 0.0923196 21.116 0.0431306 20.724 0.147041C19.4492 0.570732 18.3402 1.38512 17.5544 2.47466C16.7685 3.56419 16.3458 4.87353 16.3461 6.21689V12.3728C16.3033 13.9419 16.8247 15.4743 17.8158 16.6916C18.8068 17.9089 20.2016 18.7303 21.7468 19.0066V18.997ZM5.40122 18.997C6.98237 19.2316 8.59403 18.8655 9.91867 17.9708C11.2433 17.0762 12.1849 15.7179 12.5579 14.1636C12.9309 12.6093 12.7082 10.9716 11.9338 9.57329C11.1594 8.17496 9.88942 7.11734 8.37402 6.60881C7.52837 6.31196 6.62864 6.20099 5.7362 6.28347C4.84376 6.36595 3.97962 6.63994 3.20269 7.08675V6.20733C3.20227 5.53501 3.41347 4.87961 3.80635 4.33403C4.19924 3.78844 4.75388 3.38036 5.39166 3.16763C5.76704 3.01412 6.06992 2.7235 6.23879 2.35478C6.40766 1.98607 6.42986 1.5669 6.30088 1.1824C6.17191 0.797908 5.90143 0.476917 5.54437 0.284618C5.18731 0.0923196 4.77044 0.0431306 4.37843 0.147041C3.10518 0.570216 1.99729 1.38316 1.21159 2.47078C0.425897 3.5584 0.00220187 4.86561 0.000488115 6.20733V12.3632C-0.0423237 13.9323 0.479157 15.4647 1.47019 16.682C2.46121 17.8993 3.85603 18.7208 5.40122 18.997Z" fill="#111"/>
</svg>
