<svg width="1137" height="636" viewBox="0 0 1137 636" fill="none" xmlns="http://www.w3.org/2000/svg">
<g filter="url(#filter0_d_1488_67338)">
<path d="M10 55.7709V788.156C10 813.604 30.722 834.31 56.1537 834.31H1043.85C1069.31 834.31 1090 813.588 1090 788.156V55.7709C1090 30.323 1069.29 9.61719 1043.85 9.61719H56.1537C30.7058 9.61719 10 30.3392 10 55.7709ZM10.4223 55.7709C10.4223 54.6341 10.471 53.481 10.5522 52.3605C10.5847 52.0032 10.6009 51.646 10.6496 51.2887C10.8283 49.4049 11.1368 47.5535 11.5428 45.7509C11.6078 45.3774 11.7052 45.0363 11.8026 44.6791C11.8676 44.3705 11.965 44.0457 12.0462 43.7534C12.9232 40.5379 14.1574 37.4523 15.6677 34.5616C15.8301 34.2368 16.0087 33.9283 16.1711 33.6197C16.8694 32.353 17.6328 31.1188 18.461 29.917C18.6559 29.6409 18.8508 29.3649 19.0619 29.0888C19.4354 28.5853 19.8089 28.0657 20.1987 27.5785C21.2218 26.2793 22.3098 25.045 23.4628 23.8595C23.7227 23.5835 23.9663 23.3398 24.2424 23.08C24.3723 22.9338 24.5185 22.804 24.6321 22.7065C24.7621 22.5766 24.8919 22.4467 25.0056 22.3492C25.3954 21.9595 25.8176 21.586 26.2399 21.2287C26.6134 20.8876 27.0356 20.5466 27.4416 20.2218C27.604 20.0757 27.7826 19.9457 27.945 19.8158C28.0425 19.7346 28.1399 19.6534 28.2536 19.5722C28.6921 19.2312 29.1306 18.8901 29.5853 18.5653C29.634 18.5653 29.6502 18.5166 29.699 18.4841C30.2349 18.1106 30.8033 17.7371 31.3555 17.3636C31.4042 17.3311 31.4691 17.2986 31.5178 17.2499C32.07 16.8926 32.6222 16.5516 33.1906 16.243C33.7915 15.8695 34.441 15.5447 35.0744 15.2037C35.1718 15.155 35.2692 15.1063 35.3667 15.0413C35.9026 14.7652 36.4547 14.4891 37.0069 14.2455C37.6565 13.937 38.3223 13.6446 38.9881 13.3848C39.654 13.1087 40.336 12.8489 41.0181 12.6053C43.0643 11.8745 45.1755 11.2899 47.3517 10.8839C48.0825 10.7215 48.8133 10.6078 49.5603 10.5104C50.2099 10.4129 50.8432 10.3317 51.4928 10.2668C51.5903 10.2668 51.704 10.2668 51.8014 10.2343C52.1262 10.1856 52.4672 10.1693 52.8083 10.1693C53.2143 10.1206 53.6203 10.1043 54.0425 10.0881C54.7408 10.0394 55.4554 10.0394 56.1699 10.0394H1043.86C1044.58 10.0394 1045.29 10.0394 1045.99 10.0881C1046.4 10.0881 1046.8 10.1369 1047.22 10.1693C1047.56 10.1693 1047.91 10.2018 1048.23 10.2343C1048.33 10.2343 1048.44 10.2668 1048.54 10.2668C1049.19 10.3155 1049.82 10.4129 1050.47 10.5104C1051.2 10.6078 1051.93 10.7377 1052.68 10.8839C1054.86 11.2899 1056.97 11.8745 1059.01 12.6053C1059.71 12.8489 1060.38 13.0925 1061.04 13.3848C1061.71 13.6609 1062.38 13.937 1063.03 14.2455C1063.58 14.4891 1064.13 14.749 1064.67 15.0413C1064.76 15.09 1064.86 15.1387 1064.96 15.2037C1065.59 15.5447 1066.22 15.8858 1066.84 16.243C1067.41 16.5516 1067.96 16.8926 1068.51 17.2499C1068.56 17.2986 1068.63 17.3311 1068.68 17.3636C1069.23 17.7371 1069.8 18.0944 1070.33 18.4841C1070.38 18.5329 1070.4 18.5491 1070.45 18.5653C1070.9 18.8901 1071.34 19.2312 1071.78 19.5722C1071.89 19.6372 1071.99 19.7346 1072.09 19.8158C1072.25 19.9457 1072.43 20.0919 1072.59 20.2218C1073 20.5466 1073.4 20.8876 1073.79 21.2287C1074.21 21.586 1074.62 21.9432 1075.03 22.3492C1075.16 22.4467 1075.29 22.5766 1075.4 22.7065C1075.53 22.8202 1075.68 22.9501 1075.79 23.08C1076.07 23.3398 1076.31 23.5835 1076.57 23.8595C1077.72 25.045 1078.81 26.2793 1079.83 27.5785C1080.22 28.0657 1080.61 28.5853 1080.97 29.0888C1081.17 29.3649 1081.36 29.6572 1081.57 29.917C1082.38 31.1188 1083.15 32.353 1083.86 33.6197C1084.02 33.9283 1084.2 34.2368 1084.36 34.5616C1085.89 37.4523 1087.13 40.5379 1087.99 43.7534C1088.07 44.0457 1088.15 44.3705 1088.23 44.6791C1088.33 45.0363 1088.41 45.3774 1088.49 45.7509C1088.9 47.5535 1089.19 49.3886 1089.38 51.2887C1089.43 51.646 1089.45 52.0032 1089.48 52.3605C1089.56 53.4973 1089.61 54.6341 1089.61 55.7709V788.156C1089.61 789.293 1089.56 790.446 1089.48 791.567C1089.45 791.892 1089.43 792.2 1089.4 792.525C1089.22 794.441 1088.91 796.341 1088.49 798.193C1088.42 798.55 1088.33 798.891 1088.23 799.248C1088.18 799.508 1088.1 799.768 1088.03 800.044C1087.16 803.324 1085.92 806.442 1084.36 809.382C1084.2 809.707 1084.04 810.015 1083.86 810.324C1083.5 810.973 1083.15 811.591 1082.74 812.224C1082.58 812.5 1082.38 812.809 1082.19 813.085C1082.01 813.377 1081.81 813.685 1081.59 813.978C1081.04 814.79 1080.45 815.602 1079.82 816.381C1079.54 816.739 1079.28 817.063 1079.01 817.388C1078.6 817.908 1078.14 818.411 1077.69 818.915C1077.41 819.207 1077.15 819.499 1076.88 819.775C1076.41 820.279 1075.9 820.782 1075.4 821.253C1075.4 821.253 1075.37 821.302 1075.35 821.302C1074.33 822.276 1073.27 823.202 1072.15 824.063C1072.12 824.063 1072.1 824.095 1072.09 824.111C1070.43 825.427 1068.68 826.612 1066.84 827.668C1066.24 828.042 1065.59 828.383 1064.96 828.707C1064.86 828.756 1064.76 828.805 1064.67 828.87C1064.13 829.146 1063.58 829.422 1063.03 829.665C1062.38 829.974 1061.71 830.266 1061.04 830.526C1060.36 830.802 1059.7 831.062 1059.01 831.306C1058.35 831.549 1057.67 831.777 1057 831.972C1056.97 831.972 1056.94 831.972 1056.89 832.004C1056.2 832.215 1055.52 832.394 1054.82 832.572C1054.13 832.751 1053.4 832.913 1052.68 833.043C1051.95 833.206 1051.22 833.32 1050.47 833.417C1049.82 833.514 1049.19 833.596 1048.54 833.661C1048.44 833.661 1048.33 833.661 1048.23 833.693C1047.18 833.79 1046.12 833.855 1045.03 833.888C1044.64 833.888 1044.25 833.888 1043.86 833.888H56.1699C55.7802 833.888 55.3905 833.888 55.0007 833.888C53.9289 833.855 52.8732 833.79 51.8014 833.693C51.704 833.693 51.5903 833.661 51.4928 833.661C50.8432 833.612 50.2099 833.514 49.5603 833.417C48.8295 833.32 48.0987 833.19 47.3517 833.043C46.6371 832.913 45.9063 832.767 45.208 832.572C44.5097 832.41 43.8276 832.215 43.1455 832.004C43.0968 832.004 43.0644 831.972 43.0319 831.972C42.3499 831.777 41.6839 831.549 41.0181 831.306C40.336 831.062 39.6702 830.819 38.9881 830.526C38.3223 830.266 37.6565 829.974 37.0069 829.665C36.4547 829.422 35.9026 829.162 35.3667 828.87C35.2692 828.821 35.1718 828.756 35.0744 828.707C34.441 828.383 33.8077 828.025 33.1906 827.668C31.3555 826.612 29.6015 825.427 27.945 824.111C27.9126 824.079 27.8963 824.063 27.8801 824.063C26.7596 823.186 25.7039 822.276 24.6808 821.302C24.6483 821.302 24.6321 821.253 24.6321 821.253C24.1287 820.766 23.609 820.279 23.1543 819.775C22.8782 819.499 22.6021 819.207 22.3423 818.915C21.8875 818.411 21.4328 817.908 21.0268 817.388C20.7508 817.063 20.4747 816.739 20.2148 816.381C19.5977 815.602 18.9969 814.806 18.4448 813.978C18.2336 813.685 18.0388 813.377 17.8439 813.085C17.649 812.809 17.4703 812.5 17.2917 812.224C16.9019 811.607 16.5284 810.99 16.1711 810.324C15.9925 810.015 15.8139 809.707 15.6677 809.382C14.1087 806.442 12.8744 803.324 11.9975 800.044C11.9325 799.768 11.8513 799.508 11.8026 799.248C11.7052 798.891 11.624 798.55 11.5428 798.193C11.1206 796.341 10.8283 794.457 10.6334 792.525C10.6009 792.2 10.5847 791.892 10.5522 791.567C10.471 790.43 10.4223 789.293 10.4223 788.156V55.7709Z" fill="#DFDFDF"/>
<rect x="45.7275" y="44.6094" width="1009.97" height="754.667" rx="12.9919" fill="white"/>
<path d="M14.6611 55.7663V788.152C14.6611 811.034 33.272 829.645 56.154 829.645H1043.85C1066.73 829.645 1085.34 811.034 1085.34 788.152V55.7663C1085.34 32.8843 1066.73 14.2734 1043.85 14.2734H56.154C33.272 14.2734 14.6611 32.8843 14.6611 55.7663ZM44.3151 55.7663C44.3151 49.2379 49.6256 43.9112 56.1702 43.9112H1043.86C1050.39 43.9112 1055.7 49.2216 1055.7 55.7663V788.152C1055.7 794.68 1050.39 800.007 1043.86 800.007H56.1702C49.6418 800.007 44.3151 794.696 44.3151 788.152V55.7663Z" fill="#232222"/>
<path d="M1045.97 833.818C1046.46 833.786 1046.96 833.77 1047.45 833.721C1047.71 833.721 1047.94 833.688 1048.2 833.672C1048.3 833.672 1048.41 833.64 1048.51 833.64C1049.16 833.575 1049.81 833.477 1050.44 833.396C1051.19 833.282 1051.9 833.152 1052.65 833.022C1053.36 832.876 1054.09 832.73 1054.79 832.552C1055.49 832.373 1056.17 832.178 1056.85 831.983C1056.9 831.983 1056.94 831.951 1056.97 831.951C1057.65 831.74 1058.32 831.512 1058.98 831.285C1059.68 831.041 1060.35 830.798 1061.01 830.505C1061.68 830.229 1062.34 829.953 1062.99 829.645C1063.55 829.385 1064.1 829.125 1064.63 828.849C1064.73 828.8 1064.83 828.735 1064.93 828.686C1065.56 828.345 1066.19 828.004 1066.81 827.647C1068.64 826.575 1070.4 825.39 1072.05 824.091C1072.09 824.058 1072.1 824.042 1072.12 824.042C1073.22 823.165 1074.3 822.239 1075.32 821.281C1075.35 821.281 1075.37 821.232 1075.37 821.232C1075.87 820.745 1076.37 820.258 1076.85 819.755C1077.12 819.478 1077.4 819.186 1077.66 818.894C1078.1 818.407 1078.55 817.887 1078.97 817.367C1079.25 817.043 1079.53 816.718 1079.78 816.36C1080.39 815.581 1080.99 814.785 1081.56 813.957C1081.75 813.665 1081.94 813.356 1082.16 813.064C1082.33 812.788 1082.53 812.479 1082.71 812.203C1083.1 811.586 1083.47 810.969 1083.83 810.303C1083.99 809.994 1084.17 809.67 1084.33 809.361C1085.89 806.422 1087.13 803.304 1088 800.023C1088.07 799.763 1088.15 799.503 1088.2 799.227C1088.29 798.87 1088.38 798.529 1088.46 798.172C1088.88 796.32 1089.17 794.437 1089.37 792.504C1089.4 792.179 1089.42 791.871 1089.45 791.546C1089.53 790.409 1089.58 789.272 1089.58 788.136V55.75C1089.58 54.6132 1089.53 53.4602 1089.45 52.3396C1089.42 51.9824 1089.4 51.6251 1089.35 51.2678C1089.17 49.384 1088.86 47.5326 1088.46 45.73C1088.39 45.3565 1088.29 45.0154 1088.2 44.6582C1088.13 44.3496 1088.03 44.0248 1087.95 43.7325C1087.08 40.517 1085.84 37.4314 1084.33 34.5407C1084.17 34.2159 1083.99 33.9074 1083.83 33.5988C1083.13 32.3321 1082.37 31.0979 1081.54 29.8961C1081.34 29.62 1081.15 29.344 1080.94 29.0679C1080.56 28.5644 1080.19 28.0448 1079.8 27.5576C1078.78 26.2584 1077.69 25.0241 1076.54 23.8386C1076.28 23.5626 1076.03 23.319 1075.76 23.0592C1075.63 22.913 1075.48 22.7831 1075.37 22.6856C1075.24 22.5557 1075.11 22.4258 1074.99 22.3283C1074.6 21.9386 1074.18 21.5651 1073.76 21.2078C1073.39 20.8667 1072.96 20.5257 1072.56 20.2009C1072.4 20.0548 1072.22 19.9248 1072.05 19.7949C1071.96 19.7137 1071.86 19.6325 1071.75 19.5513C1071.31 19.2103 1070.87 18.8693 1070.41 18.5445C1070.37 18.5445 1070.35 18.4957 1070.3 18.4632C1069.77 18.0897 1069.2 17.7162 1068.64 17.3427C1068.6 17.3102 1068.53 17.2778 1068.48 17.229C1067.93 16.888 1067.38 16.5469 1066.81 16.2221C1066.21 15.8486 1065.56 15.5238 1064.93 15.1828C1064.83 15.1341 1064.73 15.0854 1064.63 15.0204C1064.1 14.7443 1063.55 14.4845 1062.99 14.2247C1062.34 13.9161 1061.68 13.6238 1061.01 13.3639C1060.35 13.0879 1059.66 12.828 1058.98 12.5844C1056.94 11.8699 1054.82 11.2852 1052.65 10.863C1051.92 10.7168 1051.19 10.5869 1050.44 10.4895C1049.81 10.4083 1049.16 10.3271 1048.51 10.2459C1048.41 10.2459 1048.3 10.2459 1048.2 10.2134C1047.87 10.1647 1047.53 10.1484 1047.19 10.1484C1047.47 10.1484 1047.73 10.1972 1048 10.2134C1048.69 10.2784 1049.35 10.3758 1050.02 10.4733C1050.34 10.522 1050.67 10.5707 1050.98 10.6357C1051.38 10.6844 1051.79 10.7655 1052.18 10.8467C1052.78 10.9604 1053.38 11.1066 1053.96 11.2527C1054.6 11.4151 1055.23 11.5775 1055.86 11.7724C1056.38 11.9348 1056.89 12.0972 1057.41 12.2759C1058.49 12.6494 1059.57 13.0554 1060.61 13.5264C1060.93 13.6563 1061.26 13.8024 1061.56 13.9648C1062.05 14.1922 1062.55 14.4358 1063.03 14.6794C1063.07 14.7119 1063.11 14.7281 1063.16 14.7443C1063.71 15.0367 1064.24 15.3452 1064.78 15.6538C1064.81 15.6538 1064.83 15.6863 1064.84 15.7025C1065.22 15.9299 1065.61 16.1572 1065.98 16.4008C1066.31 16.5957 1066.63 16.8068 1066.94 17.0179C1067 17.0666 1067.09 17.1154 1067.15 17.1803C1067.65 17.5214 1068.17 17.8786 1068.66 18.2521C1069.15 18.6094 1069.62 18.9667 1070.09 19.3727C1070.2 19.4376 1070.3 19.5351 1070.38 19.6325C1070.85 19.9898 1071.29 20.3795 1071.73 20.8018C1072.22 21.2403 1072.7 21.7112 1073.18 22.1659C1073.58 22.5557 1073.99 22.978 1074.39 23.4164C1074.49 23.5301 1074.6 23.6438 1074.72 23.7737C1075.09 24.2122 1075.48 24.6669 1075.85 25.1216C1076.29 25.625 1076.7 26.1447 1077.09 26.6969C1077.41 27.1191 1077.72 27.5414 1078.01 27.9798C1078.18 28.1909 1078.32 28.4183 1078.49 28.6457C1078.66 28.9217 1078.86 29.1978 1079.02 29.4901C1079.2 29.7662 1079.38 30.026 1079.53 30.3021C1079.85 30.8543 1080.17 31.4064 1080.47 31.9748C1080.65 32.3159 1080.84 32.6732 1081 33.0142C1081.41 33.8262 1081.81 34.6869 1082.16 35.5476C1082.27 35.8237 1082.38 36.0997 1082.5 36.3758C1082.66 36.798 1082.82 37.2203 1082.98 37.6588C1083.18 38.2109 1083.36 38.7793 1083.54 39.3315C1083.72 39.8999 1083.88 40.4683 1084.02 41.0529C1084.02 41.0854 1084.02 41.1017 1084.02 41.1341C1084.19 41.7675 1084.35 42.4008 1084.48 43.0342C1084.48 43.0829 1084.48 43.0991 1084.48 43.1316C1084.58 43.6188 1084.67 44.0898 1084.74 44.577C1085.13 46.8181 1085.34 49.1241 1085.34 51.4789V792.325C1085.34 793.137 1085.31 793.982 1085.26 794.778C1085.26 795.216 1085.21 795.655 1085.18 796.077C1085.14 796.45 1085.11 796.808 1085.05 797.181C1085.05 797.36 1085 797.538 1085 797.701C1084.95 798.188 1084.87 798.675 1084.77 799.162C1084.77 799.227 1084.77 799.292 1084.74 799.357C1084.69 799.65 1084.64 799.958 1084.58 800.25C1084.54 800.397 1084.53 800.527 1084.49 800.673C1084.49 800.721 1084.46 800.77 1084.46 800.835C1084.38 801.274 1084.28 801.696 1084.17 802.134C1084.12 802.313 1084.09 802.508 1084.02 802.686C1083.86 803.287 1083.7 803.904 1083.52 804.489C1083.34 805.09 1083.15 805.675 1082.94 806.243C1082.94 806.275 1082.94 806.292 1082.9 806.308C1082.81 806.6 1082.71 806.893 1082.58 807.169C1082.58 807.217 1082.55 807.234 1082.53 807.282C1082.42 807.607 1082.29 807.916 1082.16 808.224C1082.16 808.257 1082.16 808.273 1082.12 808.289C1081.75 809.15 1081.38 809.978 1080.97 810.806C1080.81 811.164 1080.61 811.505 1080.43 811.846C1080.14 812.414 1079.82 812.966 1079.49 813.518C1079.33 813.795 1079.17 814.071 1078.99 814.33C1078.83 814.607 1078.63 814.899 1078.45 815.175C1078.31 815.402 1078.16 815.63 1077.98 815.841C1077.71 816.279 1077.38 816.701 1077.06 817.124C1076.68 817.66 1076.26 818.179 1075.82 818.699C1075.51 819.089 1075.17 819.495 1074.82 819.868C1074.77 819.917 1074.72 819.982 1074.67 820.031C1074.56 820.161 1074.44 820.274 1074.34 820.388C1074.3 820.437 1074.26 820.469 1074.23 820.518C1073.86 820.891 1073.5 821.281 1073.13 821.655C1072.75 822.028 1072.4 822.385 1072.02 822.726C1071.99 822.726 1071.97 822.775 1071.94 822.791C1071.78 822.954 1071.62 823.1 1071.44 823.246C1071.1 823.571 1070.74 823.863 1070.4 824.156C1070.28 824.253 1070.17 824.35 1070.04 824.448C1069.57 824.821 1069.12 825.211 1068.61 825.568C1068.25 825.845 1067.91 826.104 1067.54 826.348C1067.51 826.38 1067.48 826.397 1067.43 826.429C1067.15 826.624 1066.86 826.819 1066.58 827.014C1066.09 827.322 1065.61 827.647 1065.1 827.939C1065.07 827.939 1065.06 827.972 1065.02 827.988C1064.68 828.183 1064.34 828.378 1064 828.573C1063.82 828.686 1063.63 828.8 1063.42 828.898C1063.04 829.092 1062.68 829.287 1062.31 829.466C1061.82 829.726 1061.32 829.953 1060.82 830.164C1060.44 830.327 1060.09 830.505 1059.71 830.652C1059.57 830.7 1059.44 830.765 1059.31 830.814C1058.92 830.976 1058.51 831.122 1058.1 831.269C1057.86 831.366 1057.62 831.447 1057.36 831.545C1057.31 831.545 1057.26 831.593 1057.2 831.593C1056.74 831.756 1056.29 831.886 1055.83 832.032C1055.34 832.194 1054.86 832.324 1054.37 832.438C1054.3 832.47 1054.24 832.487 1054.17 832.487C1054.01 832.535 1053.83 832.568 1053.67 832.616C1053.2 832.746 1052.73 832.844 1052.24 832.941C1052.21 832.941 1052.19 832.941 1052.18 832.941C1051.79 833.022 1051.38 833.104 1050.98 833.152C1050.67 833.217 1050.34 833.282 1050.02 833.315C1049.35 833.412 1048.67 833.493 1048 833.575C1047.34 833.64 1046.66 833.705 1045.97 833.737V833.818Z" fill="url(#paint0_linear_1488_67338)"/>
<path d="M10.4219 55.7787V788.164C10.4219 789.301 10.4706 790.454 10.5518 791.575C10.5843 791.899 10.6005 792.208 10.633 792.533C10.8116 794.449 11.1202 796.349 11.5424 798.201C11.6074 798.558 11.7048 798.899 11.8022 799.256C11.8509 799.532 11.9321 799.792 11.9971 800.052C12.874 803.332 14.1083 806.45 15.6673 809.39C15.8297 809.698 16.0084 810.023 16.1708 810.332C16.528 810.981 16.8853 811.598 17.2913 812.232C17.4699 812.508 17.6649 812.816 17.8435 813.092C18.0384 813.385 18.2333 813.693 18.4444 813.986C19.0128 814.798 19.5973 815.61 20.2145 816.389C20.4905 816.746 20.7504 817.071 21.0265 817.396C21.4487 817.916 21.9034 818.419 22.3419 818.923C22.618 819.215 22.8778 819.507 23.1539 819.783C23.6411 820.287 24.1283 820.79 24.6318 821.261C24.6318 821.261 24.6642 821.31 24.6804 821.31C25.7035 822.268 26.7754 823.21 27.8797 824.071C27.9122 824.071 27.9284 824.103 27.9447 824.119C29.6011 825.419 31.3551 826.604 33.1902 827.676C33.7911 828.049 34.4406 828.374 35.074 828.715C35.1714 828.764 35.2688 828.813 35.3663 828.878C35.9022 829.154 36.4544 829.413 37.0065 829.673C37.6561 829.982 38.3219 830.274 38.9877 830.534C39.6536 830.81 40.3357 831.07 41.0177 831.314C41.6836 831.541 42.3657 831.768 43.0316 831.979C43.064 831.979 43.0964 831.979 43.1451 832.012C43.8272 832.207 44.5093 832.385 45.2076 832.58C45.906 832.743 46.6368 832.905 47.3513 833.051C48.0821 833.197 48.8129 833.327 49.5599 833.425C50.1933 833.506 50.8429 833.587 51.4925 833.668C51.5899 833.668 51.7036 833.668 51.801 833.701C52.0609 833.733 52.2883 833.75 52.5481 833.75C52.3695 833.75 52.1745 833.701 51.9959 833.701C51.3138 833.652 50.648 833.555 49.9822 833.441C49.6574 833.392 49.3326 833.344 49.0241 833.279C48.6181 833.23 48.212 833.149 47.8222 833.068C47.1402 832.921 46.4744 832.775 45.8248 832.597C45.2564 832.45 44.688 832.304 44.1521 832.126C43.6812 831.979 43.2264 831.85 42.7879 831.687C41.9272 831.395 41.099 831.086 40.2708 830.745C39.8972 830.583 39.54 830.42 39.1665 830.258C38.663 830.047 38.1433 829.803 37.6723 829.56C37.2988 829.381 36.9415 829.186 36.568 828.991C36.3731 828.894 36.1783 828.78 35.9834 828.666C35.6099 828.472 35.2364 828.261 34.8629 828.033C34.3594 827.741 33.856 827.416 33.3851 827.108C33.109 826.929 32.8166 826.734 32.5406 826.523C32.1346 826.247 31.7286 825.954 31.3551 825.662C30.8679 825.305 30.3969 824.948 29.926 824.542C29.7961 824.444 29.6823 824.347 29.5686 824.249C29.2114 823.973 28.8703 823.665 28.5293 823.34C28.3506 823.194 28.172 823.047 28.0258 822.885C27.6198 822.512 27.2139 822.154 26.8404 821.748C26.4344 821.359 26.0284 820.936 25.6224 820.498C25.5249 820.384 25.4112 820.27 25.2975 820.141C24.924 819.702 24.5343 819.247 24.1607 818.793C23.7223 818.289 23.3163 817.77 22.9266 817.217C22.6018 816.795 22.2932 816.373 22.0009 815.934C21.8385 815.723 21.676 815.496 21.5299 815.269C21.3513 814.993 21.1564 814.7 20.994 814.424C20.8154 814.148 20.6368 813.888 20.4906 813.612C20.1658 813.06 19.841 812.508 19.5487 811.939C19.37 811.582 19.1751 811.241 19.0127 810.9C18.6067 810.088 18.217 809.244 17.8598 808.383C17.7136 808.042 17.5836 807.701 17.4699 807.36C17.3238 807.019 17.1939 806.662 17.0802 806.32C16.8691 805.752 16.6904 805.167 16.4956 804.567C16.3169 803.966 16.1383 803.365 15.9921 802.764C15.8135 802.114 15.6674 801.432 15.5212 800.766C15.4075 800.279 15.3263 799.76 15.2451 799.256C14.8716 797.031 14.6605 794.758 14.6605 792.419V51.5726C14.6605 49.2178 14.8553 46.9118 15.2613 44.6707C15.31 44.1835 15.4238 43.7125 15.5212 43.2254C15.5212 43.1929 15.5212 43.1766 15.5212 43.1279C15.6511 42.4946 15.7972 41.8612 15.9759 41.2278C15.9759 41.1954 15.9759 41.1791 15.9759 41.1467C16.1383 40.562 16.2844 39.9936 16.4631 39.4252C16.6255 38.8568 16.8204 38.2884 17.0153 37.7525C17.1777 37.314 17.3238 36.8918 17.5024 36.4696C17.6161 36.1935 17.7298 35.9012 17.8435 35.6413C18.2008 34.7806 18.5905 33.9361 18.9965 33.1079C19.1589 32.7506 19.3538 32.4096 19.5324 32.0685C19.8247 31.5001 20.1496 30.948 20.4744 30.3958C20.6368 30.1197 20.7992 29.8437 20.9778 29.5838C21.1402 29.2915 21.3351 28.9992 21.5137 28.7394C21.6761 28.512 21.806 28.2846 21.9847 28.0735C22.2607 27.6351 22.5855 27.2128 22.9103 26.7906C23.2839 26.2547 23.7061 25.735 24.1446 25.2153C24.5181 24.7606 24.9078 24.3059 25.2813 23.8674C25.395 23.7375 25.5087 23.6238 25.6061 23.5101C25.9959 23.0717 26.4181 22.6494 26.8241 22.2597C27.2951 21.7887 27.766 21.334 28.2695 20.8955C28.7079 20.4733 29.1627 20.0835 29.6174 19.7263C29.6986 19.6288 29.796 19.5476 29.9097 19.4664C30.3807 19.0767 30.8516 18.7031 31.3388 18.3459C31.826 17.9723 32.3457 17.6151 32.8491 17.274C32.9141 17.2253 32.9953 17.1603 33.0603 17.1116C33.3688 16.9005 33.6936 16.6894 34.0184 16.4945C34.3919 16.2509 34.7654 16.0236 35.1552 15.7962C35.1552 15.7962 35.2039 15.7637 35.2202 15.7475C35.7561 15.4389 36.292 15.1466 36.8442 14.838C36.8929 14.8056 36.9253 14.7893 36.974 14.7731C37.4612 14.5132 37.9484 14.2859 38.4356 14.0585C38.7442 13.8961 39.0689 13.75 39.3937 13.6201C40.4169 13.1329 41.505 12.7269 42.593 12.3696C43.0965 12.191 43.6162 12.0123 44.1359 11.8662C44.753 11.6713 45.3863 11.4926 46.0359 11.3465C46.6205 11.1841 47.2051 11.0542 47.8222 10.9405C48.212 10.8593 48.6181 10.7781 49.0241 10.7294C49.3326 10.6644 49.6574 10.5994 49.9822 10.567C50.648 10.4695 51.3301 10.3883 51.9959 10.3071C52.272 10.2746 52.5318 10.2584 52.8079 10.2422C52.4669 10.2422 52.1258 10.2746 51.801 10.3071C51.7036 10.3071 51.5899 10.3396 51.4925 10.3396C50.8429 10.4046 50.1933 10.502 49.5599 10.5832C48.8129 10.6969 48.0984 10.8268 47.3513 10.9567C45.1752 11.3789 43.064 11.9636 41.0177 12.6782C40.3194 12.9218 39.6536 13.1653 38.9877 13.4576C38.3219 13.7337 37.6561 14.0098 37.0065 14.3184C36.4544 14.5782 35.9022 14.8381 35.3663 15.1141C35.2688 15.1629 35.1714 15.2115 35.074 15.2765C34.4406 15.6175 33.8073 15.9586 33.1902 16.3159C32.6218 16.6407 32.0696 16.9817 31.5174 17.3227C31.4687 17.3715 31.4038 17.404 31.3551 17.4364C30.8029 17.81 30.2345 18.1672 29.6986 18.557C29.6499 18.6057 29.6336 18.6219 29.5849 18.6382C29.1302 18.963 28.6917 19.304 28.2532 19.645C28.1395 19.71 28.0421 19.8074 27.9447 19.8886C27.7823 20.0185 27.6036 20.1647 27.4412 20.2946C27.0352 20.6194 26.6292 20.9605 26.2395 21.3015C25.8173 21.6588 25.4112 22.0161 25.0052 22.4221C24.8753 22.5195 24.7454 22.6494 24.6318 22.7793C24.5018 22.893 24.3557 23.0229 24.242 23.1529C23.9659 23.4127 23.7223 23.6563 23.4624 23.9324C22.3094 25.1179 21.2214 26.3521 20.1983 27.6513C19.8085 28.1385 19.4188 28.6582 19.0615 29.1616C18.8666 29.4377 18.6717 29.73 18.4606 29.9898C17.6486 31.1916 16.8853 32.4258 16.1708 33.6925C16.0084 34.0011 15.8297 34.3097 15.6673 34.6345C14.1408 37.5251 12.9066 40.6107 12.0459 43.8262C11.9647 44.1185 11.8834 44.4433 11.8022 44.7519C11.7048 45.1092 11.6236 45.4502 11.5424 45.8237C11.1364 47.6263 10.8441 49.4614 10.6493 51.3615C10.6005 51.7188 10.5843 52.0761 10.5518 52.4333C10.4706 53.5701 10.4219 54.7069 10.4219 55.8437V55.7787Z" fill="url(#paint1_linear_1488_67338)"/>
<path d="M14.6604 51.5307V55.7693C14.6604 32.8873 33.2713 14.2764 56.1533 14.2764H1043.85C1066.73 14.2764 1085.34 32.8873 1085.34 55.7693V51.5307C1085.34 49.1759 1085.14 46.8698 1084.74 44.6287C1084.69 44.1416 1084.58 43.6706 1084.48 43.1834C1084.48 43.1509 1084.48 43.1347 1084.48 43.0859C1084.35 42.4526 1084.2 41.8193 1084.02 41.1859C1084.02 41.1534 1084.02 41.1372 1084.02 41.1047C1083.86 40.52 1083.71 39.9516 1083.54 39.3833C1083.37 38.8149 1083.18 38.2465 1082.98 37.7105C1082.82 37.2721 1082.68 36.8498 1082.5 36.4276C1082.38 36.1515 1082.27 35.8592 1082.16 35.5994C1081.8 34.7387 1081.41 33.8942 1081 33.066C1080.84 32.7087 1080.65 32.3676 1080.47 32.0266C1080.17 31.4582 1079.85 30.906 1079.52 30.3539C1079.36 30.0778 1079.2 29.8017 1079.02 29.5419C1078.86 29.2496 1078.66 28.9573 1078.49 28.6974C1078.34 28.4701 1078.19 28.2427 1078.01 28.0316C1077.74 27.5931 1077.41 27.1709 1077.09 26.7486C1076.7 26.2127 1076.28 25.693 1075.85 25.1734C1075.48 24.7187 1075.09 24.264 1074.72 23.8255C1074.6 23.6956 1074.49 23.5819 1074.39 23.4682C1074 23.046 1073.58 22.6237 1073.18 22.2177C1072.7 21.7467 1072.23 21.292 1071.73 20.8536C1071.29 20.4476 1070.84 20.0578 1070.38 19.6843C1070.3 19.5868 1070.2 19.5056 1070.09 19.4244C1069.62 19.0509 1069.16 18.6774 1068.66 18.3039C1068.17 17.9304 1067.65 17.5731 1067.15 17.2321C1067.08 17.1834 1067 17.1184 1066.94 17.0697C1066.63 16.8586 1066.31 16.6474 1065.98 16.4526C1065.61 16.209 1065.23 15.9816 1064.84 15.7543C1064.84 15.7543 1064.8 15.7218 1064.78 15.7055C1064.24 15.397 1063.71 15.1047 1063.15 14.7961C1063.11 14.7636 1063.07 14.7474 1063.03 14.7311C1062.54 14.4713 1062.05 14.2439 1061.56 14.0166C1061.25 13.8542 1060.93 13.708 1060.61 13.5781C1059.58 13.0909 1058.49 12.6849 1057.41 12.3276C1056.9 12.149 1056.38 11.9704 1055.86 11.8242C1055.25 11.6456 1054.61 11.4507 1053.96 11.3045C1053.38 11.1421 1052.79 11.0122 1052.18 10.8985C1051.79 10.8173 1051.38 10.7362 1050.98 10.6874C1050.67 10.6225 1050.34 10.5575 1050.02 10.525C1049.35 10.4276 1048.67 10.3464 1048 10.2652C1047.73 10.2327 1047.47 10.2164 1047.19 10.2002C1046.79 10.1515 1046.38 10.1353 1045.96 10.119C1045.26 10.0703 1044.54 10.0703 1043.83 10.0703H56.137C55.4225 10.0703 54.7079 10.0703 54.0096 10.119C53.6036 10.119 53.1977 10.1677 52.7755 10.2002C52.4994 10.2002 52.2395 10.2489 51.9635 10.2652C51.2814 10.3301 50.6155 10.4276 49.9496 10.525C49.6248 10.5737 49.3001 10.6225 48.9915 10.6874C48.5855 10.7362 48.1796 10.8173 47.7898 10.8985C47.1889 11.0122 46.588 11.1583 46.0034 11.3045C45.37 11.4669 44.7367 11.6456 44.1033 11.8242C43.5837 11.9866 43.0802 12.149 42.5605 12.3276C41.4724 12.7011 40.4007 13.1072 39.3613 13.5781C39.0365 13.708 38.7117 13.8542 38.4031 14.0166C37.9159 14.2439 37.4125 14.4875 36.9416 14.7311C36.8929 14.7636 36.8604 14.7799 36.8116 14.7961C36.2595 15.0884 35.7236 15.397 35.1877 15.7055C35.1552 15.7055 35.1389 15.738 35.1226 15.7543C34.7491 15.9816 34.3594 16.209 33.9859 16.4526C33.6611 16.6474 33.3363 16.8586 33.0277 17.0697C32.9628 17.1184 32.8816 17.1671 32.8166 17.2321C32.3132 17.5731 31.7935 17.9304 31.3063 18.3039C30.8191 18.6774 30.3481 19.0347 29.8772 19.4244C29.7635 19.4894 29.6661 19.5868 29.5849 19.6843C29.1139 20.0578 28.6592 20.4476 28.2369 20.8536C27.7498 21.292 27.2626 21.763 26.7917 22.2177C26.3857 22.6237 25.9797 23.046 25.5737 23.4682C25.4762 23.5819 25.3625 23.6956 25.2489 23.8255C24.8753 24.264 24.4856 24.7187 24.1121 25.1734C23.6898 25.6768 23.2838 26.1965 22.8778 26.7486C22.553 27.1709 22.2444 27.5931 21.9521 28.0316C21.7897 28.2427 21.6274 28.4701 21.4812 28.6974C21.3026 28.9735 21.1077 29.2496 20.9453 29.5419C20.7666 29.818 20.588 30.0778 20.4418 30.3539C20.117 30.906 19.7922 31.4582 19.4999 32.0266C19.3213 32.3676 19.1264 32.7249 18.964 33.066C18.558 33.878 18.152 34.7387 17.811 35.5994C17.6973 35.8755 17.5836 36.1515 17.4699 36.4276C17.3075 36.8498 17.1451 37.2721 16.9827 37.7105C16.7879 38.2627 16.6093 38.8311 16.4306 39.3833C16.252 39.9516 16.0895 40.52 15.9434 41.1047C15.9434 41.1372 15.9434 41.1534 15.9434 41.1859C15.781 41.8193 15.6186 42.4526 15.4887 43.0859C15.4887 43.1347 15.4887 43.1509 15.4887 43.1834C15.3913 43.6706 15.2938 44.1416 15.2288 44.6287C14.839 46.8698 14.6279 49.1759 14.6279 51.5307H14.6604Z" fill="url(#paint2_linear_1488_67338)"/>
</g>
<defs>
<filter id="filter0_d_1488_67338" x="0.76923" y="0.386417" width="1135.38" height="880.08" filterUnits="userSpaceOnUse" color-interpolation-filters="sRGB">
<feFlood flood-opacity="0" result="BackgroundImageFix"/>
<feColorMatrix in="SourceAlpha" type="matrix" values="0 0 0 0 0 0 0 0 0 0 0 0 0 0 0 0 0 0 127 0" result="hardAlpha"/>
<feOffset dx="18.4615" dy="18.4615"/>
<feGaussianBlur stdDeviation="13.8462"/>
<feComposite in2="hardAlpha" operator="out"/>
<feColorMatrix type="matrix" values="0 0 0 0 0 0 0 0 0 0 0 0 0 0 0 0 0 0 0.2 0"/>
<feBlend mode="normal" in2="BackgroundImageFix" result="effect1_dropShadow_1488_67338"/>
<feBlend mode="normal" in="SourceGraphic" in2="effect1_dropShadow_1488_67338" result="shape"/>
</filter>
<linearGradient id="paint0_linear_1488_67338" x1="1089.59" y1="421.992" x2="1045.99" y2="421.992" gradientUnits="userSpaceOnUse">
<stop stop-color="#F1F1F1"/>
<stop offset="0.06" stop-color="#DCDCDC"/>
<stop offset="0.15" stop-color="#C6C6C6"/>
<stop offset="0.25" stop-color="#B5B5B5"/>
<stop offset="0.37" stop-color="#A9A9A9"/>
<stop offset="0.54" stop-color="#A2A2A2"/>
<stop offset="1" stop-color="#A1A1A1"/>
</linearGradient>
<linearGradient id="paint1_linear_1488_67338" x1="52.8079" y1="421.955" x2="10.4219" y2="421.955" gradientUnits="userSpaceOnUse">
<stop stop-color="#A1A1A1"/>
<stop offset="0.46" stop-color="#A2A2A2"/>
<stop offset="0.63" stop-color="#A9A9A9"/>
<stop offset="0.75" stop-color="#B5B5B5"/>
<stop offset="0.85" stop-color="#C6C6C6"/>
<stop offset="0.94" stop-color="#DCDCDC"/>
<stop offset="1" stop-color="#F1F1F1"/>
</linearGradient>
<linearGradient id="paint2_linear_1488_67338" x1="1085.35" y1="32.9036" x2="14.6603" y2="32.9036" gradientUnits="userSpaceOnUse">
<stop stop-color="#C9C9C9"/>
<stop offset="0.48" stop-color="#F1F1F1"/>
<stop offset="0.64" stop-color="#ECECEC"/>
<stop offset="0.82" stop-color="#DEDEDE"/>
<stop offset="1" stop-color="#C9C9C9"/>
</linearGradient>
</defs>
</svg>
