<svg width="19" height="16" viewBox="0 0 19 16" fill="#FF0000" xmlns="http://www.w3.org/2000/svg">
<path d="M8.80063 3.03464L9.33347 3.87196L9.86631 3.03464C10.634 1.82828 11.9904 1.05345 13.544 1.05345C15.9741 1.05345 17.965 3.04437 17.965 5.47451C17.965 6.54764 17.4698 7.6799 16.64 8.81154C15.8149 9.93662 14.7011 11.0036 13.5651 11.9331C12.4323 12.8599 11.2963 13.6347 10.4418 14.1785C10.0151 14.45 9.66016 14.663 9.41282 14.8075C9.38543 14.8235 9.35935 14.8387 9.33466 14.853C9.30976 14.8385 9.28347 14.8231 9.25583 14.8068C9.00841 14.6611 8.65335 14.4467 8.22661 14.1735C7.3719 13.6264 6.23563 12.8475 5.1025 11.9178C3.96624 10.9856 2.85203 9.91695 2.02669 8.79337C1.19618 7.66275 0.701891 6.53607 0.701891 5.47451C0.701891 3.04437 2.69281 1.05345 5.12294 1.05345C6.67654 1.05345 8.03295 1.82828 8.80063 3.03464Z" stroke="#FF0000" stroke-width="1.26316"/>
</svg>
