<svg width="18" height="19" viewBox="0 0 18 19" fill="none" xmlns="http://www.w3.org/2000/svg">
<path d="M6.00099 12.637L12.001 6.63702M8.00099 3.63702L8.46399 3.10102C9.40179 2.16335 10.6737 1.63662 11.9998 1.63672C13.326 1.63681 14.5978 2.16372 15.5355 3.10152C16.4732 4.03933 16.9999 5.31122 16.9998 6.63738C16.9997 7.96354 16.4728 9.23535 15.535 10.173L15.001 10.637M10.001 15.637L9.60399 16.171C8.65498 17.1087 7.37462 17.6346 6.04049 17.6346C4.70636 17.6346 3.42599 17.1087 2.47699 16.171C2.0091 15.7088 1.63762 15.1582 1.38409 14.5513C1.13055 13.9444 1 13.2933 1 12.6355C1 11.9778 1.13055 11.3266 1.38409 10.7197C1.63762 10.1128 2.0091 9.56229 2.47699 9.10003L3.00099 8.63703" stroke="#111111" stroke-width="2" stroke-linecap="round" stroke-linejoin="round"/>
</svg>
