<svg width="102" height="94" viewBox="0 0 102 94" fill="none" xmlns="http://www.w3.org/2000/svg">
<path d="M6.35693 8H0.356934C0.356934 8 0.356936 0 3.35693 0C6.35693 0 6.35693 6 6.35693 8Z" fill="#333333"/>
<path d="M5.24738 0H12.3569V72C8.43043 72 5.24738 68.8222 5.24738 64.8957V14.4C5.24738 5.72205e-05 3.35693 0 3.35693 0H5.24738Z" fill="#FFC94A"/>
<path d="M5.24738 0H12.3569V72C8.43043 72 5.24738 68.8222 5.24738 64.8957V14.4C5.24738 5.72205e-05 3.35693 0 3.35693 0H5.24738Z" fill="url(#paint0_linear_444_1992)"/>
<path d="M12.3569 0H89.3569V72L50.3569 63.4576L12.3569 72V0Z" fill="url(#paint1_linear_444_1992)"/>
<path d="M95.3569 8H101.357C101.357 8 101.357 0 98.3569 0C95.3569 0 95.3569 6 95.3569 8Z" fill="#333333"/>
<path d="M96.4665 0H89.3569V72C93.2834 72 96.4665 68.8222 96.4665 64.8957V14.4C96.4665 5.72205e-05 98.3569 0 98.3569 0H96.4665Z" fill="#FFC94A"/>
<path d="M96.4665 0H89.3569V72C93.2834 72 96.4665 68.8222 96.4665 64.8957V14.4C96.4665 5.72205e-05 98.3569 0 98.3569 0H96.4665Z" fill="url(#paint2_linear_444_1992)"/>
<g style="mix-blend-mode:soft-light">
<path fill-rule="evenodd" clip-rule="evenodd" d="M3.35596 0.00194437H98.3565C97.9579 0.289583 97.5594 0.806519 97.1608 2.4667C97.0739 2.82872 97.0304 3.00973 96.9593 3.48597C96.9426 3.59811 96.9106 3.85053 96.8987 3.9633C96.8486 4.44219 96.8426 4.79631 96.8306 5.50454L96.3565 33.5586V69.6392L50.356 59.8969L20.7161 66.5514C14.4597 67.9561 11.3316 68.6584 9.02576 67.4112C8.28836 67.0124 7.62861 66.4844 7.07792 65.8522C5.35596 63.8756 5.35596 60.6698 5.35596 54.2581C5.35596 39.2991 5.35596 18.2739 5.35596 12.6308C5.35596 3.60808 3.85622 -0.0974604 3.35596 0.00194437Z" fill="url(#paint3_linear_444_1992)" style="mix-blend-mode:lighten"/>
</g>
<g style="mix-blend-mode:hard-light">
<path d="M27.8725 42.002V24.5474H31.5629V38.9593H39.0458V42.002H27.8725ZM41.4215 42.002V28.911H45.0522V42.002H41.4215ZM43.2454 27.2235C42.7056 27.2235 42.2425 27.0446 41.8562 26.6866C41.4755 26.323 41.2852 25.8883 41.2852 25.3826C41.2852 24.8826 41.4755 24.4537 41.8562 24.0957C42.2425 23.7321 42.7056 23.5502 43.2454 23.5502C43.7852 23.5502 44.2454 23.7321 44.6261 24.0957C45.0124 24.4537 45.2056 24.8826 45.2056 25.3826C45.2056 25.8883 45.0124 26.323 44.6261 26.6866C44.2454 27.0446 43.7852 27.2235 43.2454 27.2235ZM60.1651 28.911L55.5884 42.002H51.4975L46.9208 28.911H50.756L53.4748 38.2775H53.6111L56.3214 28.911H60.1651ZM67.5671 42.2576C66.2205 42.2576 65.0614 41.9849 64.0898 41.4395C63.1239 40.8883 62.3796 40.1099 61.8569 39.1042C61.3342 38.0929 61.0728 36.8968 61.0728 35.5162C61.0728 34.1696 61.3342 32.9877 61.8569 31.9707C62.3796 30.9537 63.1154 30.161 64.0643 29.5929C65.0188 29.0247 66.1381 28.7406 67.4222 28.7406C68.2859 28.7406 69.0898 28.8798 69.8342 29.1582C70.5842 29.4309 71.2376 29.8429 71.7944 30.394C72.3569 30.9451 72.7944 31.6383 73.1069 32.4735C73.4194 33.3031 73.5756 34.2747 73.5756 35.3883V36.3855H62.5217V34.1355H70.158C70.158 33.6127 70.0444 33.1497 69.8171 32.7463C69.5898 32.3429 69.2745 32.0275 68.8711 31.8002C68.4734 31.5673 68.0103 31.4508 67.4819 31.4508C66.9307 31.4508 66.4421 31.5787 66.016 31.8343C65.5955 32.0843 65.266 32.4224 65.0273 32.8485C64.7887 33.269 64.6665 33.7377 64.6609 34.2548V36.394C64.6609 37.0417 64.7802 37.6014 65.0188 38.073C65.2631 38.5446 65.6069 38.9082 66.0501 39.1639C66.4932 39.4196 67.0188 39.5474 67.6268 39.5474C68.0302 39.5474 68.3995 39.4906 68.7347 39.377C69.07 39.2633 69.3569 39.0929 69.5955 38.8656C69.8342 38.6383 70.016 38.3599 70.141 38.0304L73.4989 38.252C73.3285 39.0588 72.979 39.7633 72.4506 40.3656C71.9279 40.9622 71.2518 41.4281 70.4222 41.7633C69.5984 42.0929 68.6467 42.2576 67.5671 42.2576Z" fill="url(#paint4_linear_444_1992)"/>
</g>
<defs>
<linearGradient id="paint0_linear_444_1992" x1="7.85693" y1="0" x2="7.85693" y2="72" gradientUnits="userSpaceOnUse">
<stop stop-color="#FEB70F"/>
<stop offset="1" stop-color="#FFC94A"/>
</linearGradient>
<linearGradient id="paint1_linear_444_1992" x1="50.8569" y1="0" x2="50.8569" y2="72" gradientUnits="userSpaceOnUse">
<stop stop-color="#FEB70F"/>
<stop offset="1" stop-color="#FFC94A"/>
</linearGradient>
<linearGradient id="paint2_linear_444_1992" x1="93.8569" y1="0" x2="93.8569" y2="72" gradientUnits="userSpaceOnUse">
<stop stop-color="#FEB70F"/>
<stop offset="1" stop-color="#FFC94A"/>
</linearGradient>
<linearGradient id="paint3_linear_444_1992" x1="5.35595" y1="0" x2="5.35595" y2="67.1134" gradientUnits="userSpaceOnUse">
<stop stop-color="white"/>
<stop offset="0.560051" stop-color="white" stop-opacity="0.01"/>
</linearGradient>
<linearGradient id="paint4_linear_444_1992" x1="50.2317" y1="42.3066" x2="53.5913" y2="2.00922" gradientUnits="userSpaceOnUse">
<stop stop-color="#6F4704"/>
<stop offset="1" stop-color="#D58807"/>
</linearGradient>
</defs>
</svg>
