<svg width="40" height="41" viewBox="0 0 40 41" fill="none" xmlns="http://www.w3.org/2000/svg">
<path fill-rule="evenodd" clip-rule="evenodd" d="M14.222 5.53394C17.8634 3.41811 22.3393 3.45509 25.9466 5.63081C29.5184 7.85085 31.6892 11.813 31.669 16.0751C31.5859 20.3092 29.2581 24.2893 26.3484 27.3661C24.669 29.15 22.7903 30.7274 20.7507 32.0661C20.5406 32.1875 20.3105 32.2688 20.0717 32.306C19.8419 32.2962 19.6181 32.2283 19.4205 32.1084C16.3066 30.0969 13.5748 27.5294 11.3565 24.5293C9.50025 22.0249 8.44566 18.9993 8.33594 15.8634C8.33353 11.5931 10.5805 7.64977 14.222 5.53394ZM16.3239 17.6289C16.9364 19.139 18.3822 20.124 19.9863 20.124C21.0371 20.1316 22.0472 19.7106 22.7916 18.9551C23.536 18.1995 23.9527 17.172 23.949 16.1016C23.9546 14.4677 22.9927 12.9915 21.5124 12.3622C20.032 11.733 18.3253 12.0749 17.1891 13.2282C16.0529 14.3815 15.7113 16.1188 16.3239 17.6289Z" fill="#24304C"/>
<path opacity="0.4" d="M20.0052 37.306C24.6076 37.306 28.3385 36.5598 28.3385 35.6393C28.3385 34.7188 24.6076 33.9727 20.0052 33.9727C15.4028 33.9727 11.6719 34.7188 11.6719 35.6393C11.6719 36.5598 15.4028 37.306 20.0052 37.306Z" fill="#24304C"/>
</svg>
