<svg width="24" height="25" viewBox="0 0 24 25" fill="none" xmlns="http://www.w3.org/2000/svg">
<g clip-path="url(#clip0_305_5962)">
<path fill-rule="evenodd" clip-rule="evenodd" d="M18.75 9.80736C18.7531 11.2537 18.2885 12.6622 17.4255 13.8229L12 21.0574L6.5745 13.8229C5.93926 12.9646 5.51668 11.9679 5.34148 10.9146C5.16629 9.86135 5.24346 8.78152 5.56667 7.76386C5.88988 6.74619 6.44991 5.81972 7.20075 5.06054C7.95159 4.30137 8.87182 3.73114 9.88585 3.39671C10.8999 3.06228 11.9788 2.97319 13.0339 3.13674C14.0891 3.3003 15.0904 3.71184 15.9556 4.33757C16.8208 4.96329 17.5252 5.78535 18.011 6.73621C18.4968 7.68707 18.75 8.7396 18.75 9.80736ZM21 9.80736C21 11.8174 20.3415 13.6714 19.23 15.1684L13.4055 22.9324L12 24.8074L10.593 22.9324L4.77 15.1684C3.92203 14.0245 3.35756 12.6958 3.12298 11.2913C2.8884 9.88689 2.99039 8.44683 3.42058 7.08948C3.85078 5.73212 4.59689 4.49621 5.59762 3.48329C6.59835 2.47036 7.82514 1.70934 9.17718 1.26274C10.5292 0.816137 11.9679 0.69671 13.3751 0.914268C14.7823 1.13183 16.1178 1.68016 17.2718 2.51422C18.4259 3.34827 19.3655 4.44425 20.0137 5.71209C20.6618 6.97994 20.9998 8.38347 21 9.80736ZM12 12.8074C12.7957 12.8074 13.5587 12.4913 14.1213 11.9287C14.6839 11.3661 15 10.603 15 9.80736C15 9.01171 14.6839 8.24865 14.1213 7.68604C13.5587 7.12343 12.7957 6.80736 12 6.80736C11.2044 6.80736 10.4413 7.12343 9.87868 7.68604C9.31607 8.24865 9 9.01171 9 9.80736C9 10.603 9.31607 11.3661 9.87868 11.9287C10.4413 12.4913 11.2044 12.8074 12 12.8074Z" fill="#969696"/>
</g>
<defs>
<clipPath id="clip0_305_5962">
<rect width="24" height="24" fill="white" transform="translate(0 0.808594)"/>
</clipPath>
</defs>
</svg>
