<svg width="562" height="356" viewBox="0 0 562 356" fill="none" xmlns="http://www.w3.org/2000/svg">
<rect width="562" height="355" transform="translate(0 0.203125)" fill="white"/>
<rect width="390" height="355.019" transform="matrix(-1 0 0 1 476 0.195312)" fill="white"/>
<path d="M415.488 312.102C477.729 276.169 477.729 217.908 415.488 181.962C353.247 146.016 252.341 146.03 190.1 181.962C127.859 217.894 127.866 276.156 190.1 312.102C252.334 348.048 353.254 348.034 415.488 312.102Z" fill="#F5F5F5"/>
<path d="M231.513 220.597C248.164 230.186 248.164 245.796 231.513 255.412C214.862 265.029 187.861 265.002 171.203 255.412C154.545 245.823 154.552 230.206 171.203 220.597C187.854 210.987 214.862 210.98 231.513 220.597Z" fill="#C1E9F7"/>
<path d="M252.054 315.358C252.327 315.197 252.608 315.051 252.897 314.92C253.909 314.577 254.897 314.167 255.856 313.694C257.011 313.005 258.11 312.226 259.143 311.365C262.109 308.824 265.787 306.892 268.849 304.516C272.377 301.776 276.294 299.474 279.432 296.296C282.925 292.748 285.267 288.269 288.055 284.145C290.514 280.508 293.535 276.995 297.432 275.097L294.007 273.138L254.582 250.419C253.212 249.617 253.212 248.323 254.582 247.528L355.262 189.37C356.038 188.978 356.896 188.773 357.765 188.773C358.635 188.773 359.492 188.978 360.269 189.37L445.27 238.453C446.64 239.254 446.64 240.549 445.27 241.343L344.584 299.454C343.807 299.846 342.95 300.05 342.08 300.05C341.21 300.05 340.353 299.846 339.577 299.454L332.652 295.454L322.713 289.68C322.713 289.68 322.295 294.344 320.056 297.55C318.097 300.351 312.391 304.358 309.261 305.735C306.314 307.004 303.448 308.452 300.679 310.071C297.699 311.831 294.589 313.399 291.61 315.201C290.055 316.052 288.663 317.172 287.5 318.509C286.87 319.297 286.391 320.18 285.829 321.023C283.419 324.441 280.034 327.052 276.116 328.516C272.235 330.078 268.128 331.003 263.952 331.256C258.554 331.557 252.753 331.318 248.808 327.009C247.321 325.393 247.246 321.858 247.999 319.893C248.814 317.975 250.239 316.381 252.054 315.358Z" fill="#C1E9F7"/>
<path d="M447.14 102.916L445.79 103.711L418.201 87.7858L419.543 86.9844L447.14 102.916Z" fill="#FAFAFA"/>
<path d="M419.543 86.9839L445.79 102.135V74.6412L419.543 59.5039V86.9839Z" fill="white"/>
<path d="M415.659 54.3203L448.331 73.1837V108.116L415.659 89.2525V54.3203ZM418.2 87.7867L445.79 103.753V74.6495L418.2 58.7177V87.7867Z" fill="#D7F5FF"/>
<path d="M418.2 87.7878L419.543 86.9864V59.5064L418.2 58.7188V87.7878Z" fill="#C1E9F7"/>
<path d="M415.659 54.3199L417.029 53.5391L449.694 72.4025L448.331 73.1833L415.659 54.3199Z" fill="#FAFAFA"/>
<path d="M449.694 72.4023L448.331 73.1832V108.109L449.694 107.328V72.4023Z" fill="#C1E9F7"/>
<path d="M420.57 86.1634L444.77 100.129V93.143L438.715 79.177L434.947 82.6702L436.304 88.5265L427.947 70.6562L420.57 79.177V86.1634Z" fill="#D7F5FF"/>
<path d="M435.173 72.4273C435.695 72.7654 436.13 73.2221 436.442 73.7601C436.754 74.2982 436.934 74.9023 436.968 75.5233C436.968 76.6671 436.166 77.1329 435.173 76.5576C434.653 76.2179 434.221 75.7607 433.91 75.2229C433.599 74.685 433.42 74.0817 433.386 73.4616C433.386 72.3177 434.187 71.8588 435.173 72.4273Z" fill="#D7F5FF"/>
<path d="M400.317 67.4318L398.968 68.2332L371.378 52.3014L372.721 51.5L400.317 67.4318Z" fill="#FAFAFA"/>
<path d="M372.721 51.4995L398.968 66.6505V39.1637L372.721 24.0195V51.4995Z" fill="white"/>
<path d="M368.837 18.8203L401.509 37.6837V72.6159L368.837 53.7525V18.8203ZM371.378 52.2867L398.968 68.2323V39.1632L371.378 23.2314V52.2867Z" fill="#D7F5FF"/>
<path d="M371.378 52.3034L372.721 51.5021V24.0221L371.378 23.2344V52.3034Z" fill="#C1E9F7"/>
<path d="M368.837 18.8355L370.207 18.0547L402.872 36.9181L401.509 37.6989L368.837 18.8355Z" fill="#FAFAFA"/>
<path d="M402.872 36.918L401.509 37.6988V72.631L402.872 71.8433V36.918Z" fill="#C1E9F7"/>
<path d="M373.74 50.6751L397.946 64.648V57.6616L391.891 43.6887L388.124 47.1819L389.48 53.0382L381.124 35.168L373.74 43.6887V50.6751Z" fill="#D7F5FF"/>
<path d="M388.35 36.9425C388.873 37.2827 389.308 37.7417 389.62 38.2822C389.932 38.8226 390.112 39.429 390.145 40.0521C390.145 41.1891 389.343 41.6549 388.35 41.0864C387.831 40.747 387.399 40.2908 387.089 39.7543C386.779 39.2178 386.598 38.6161 386.562 37.9973C386.562 36.8329 387.364 36.3739 388.35 36.9425Z" fill="#D7F5FF"/>
<path d="M157.93 134.432L160.08 135.713L240.616 89.0065L238.459 87.7188L157.93 134.432Z" fill="#FAFAFA"/>
<path d="M238.458 87.7202L160.08 133.18V73.0555L238.458 27.6094V87.7202Z" fill="white"/>
<path d="M199.334 48.0251V110.677L203.396 108.335V45.6758L199.334 48.0251Z" fill="#D7F5FF"/>
<path d="M197.3 46.8477L199.334 48.0258V110.678L197.3 109.5V46.8477Z" fill="#C1E9F7"/>
<path d="M244.678 91.3511L156.018 142.756V70.7137L244.678 19.3086V91.3511ZM240.616 26.3567L160.08 73.0631V135.722L240.616 89.0086V26.3567Z" fill="#D7F5FF"/>
<path d="M240.616 89.0064L238.459 87.7187V27.608L240.616 26.3477V89.0064Z" fill="#C1E9F7"/>
<path d="M244.678 19.3081L242.493 18.0547L153.833 69.4598L156.018 70.7133L244.678 19.3081Z" fill="#FAFAFA"/>
<path d="M153.834 69.4609L156.019 70.7144V142.757L153.834 141.503V69.4609Z" fill="#C1E9F7"/>
<path d="M199.335 50.363L203.39 48.0273V50.3699L199.335 52.7124V50.363Z" fill="#C1E9F7"/>
<path opacity="0.15" d="M199.334 52.7126L197.3 51.5414L199.334 50.3633V52.7126Z" fill="black"/>
<path d="M426.832 227.817L432.942 231.331L435.517 232.817C435.73 230.701 436.319 225.201 437.099 219.228C438.202 210.865 439.558 204.967 442.504 199.282C445.168 194.125 449.127 189.145 455.388 182.645C464.662 173.008 461.511 163.741 453.586 163.145C440.654 162.165 432.545 174.467 428.387 188.268C424.723 200.33 425.181 218.214 426.832 227.817Z" fill="#C1E9F7"/>
<path d="M430.66 229.743H430.715C430.85 229.727 430.974 229.659 431.058 229.552C431.143 229.445 431.182 229.309 431.167 229.174C428.037 199.975 438.92 178.064 451.092 169.296C451.203 169.216 451.277 169.096 451.299 168.961C451.321 168.826 451.288 168.688 451.208 168.577C451.128 168.466 451.008 168.392 450.873 168.37C450.738 168.348 450.6 168.381 450.489 168.461C438.078 177.399 426.975 199.674 430.146 229.284C430.16 229.41 430.22 229.527 430.315 229.612C430.41 229.697 430.533 229.743 430.66 229.743Z" fill="white"/>
<path d="M432.941 231.33L435.517 232.817L438.489 234.577C439.174 229.097 441.359 220.953 447.757 214.638C455.072 207.426 464.414 203.528 466.058 197.2C467.62 191.193 462.168 186.843 453.25 189.973C448.951 191.581 445.185 194.354 442.373 197.98C435.989 205.939 431.975 218.864 432.941 231.33Z" fill="#C1E9F7"/>
<path d="M435.517 233.002C435.653 232.998 435.782 232.942 435.876 232.844C435.971 232.747 436.024 232.617 436.024 232.481C435.819 213.83 446.764 200.11 457.709 194.809C457.832 194.749 457.926 194.643 457.97 194.514C458.014 194.385 458.006 194.243 457.946 194.121C457.886 193.998 457.78 193.904 457.651 193.86C457.521 193.816 457.38 193.824 457.257 193.884C446.024 199.364 434.791 213.419 434.997 232.515C435.005 232.647 435.064 232.771 435.161 232.861C435.257 232.952 435.385 233.002 435.517 233.002Z" fill="white"/>
<path d="M231.801 209.745C231.783 209.553 231.715 209.37 231.603 209.213C231.491 209.057 231.339 208.933 231.164 208.855C230.686 208.614 230.158 208.488 229.623 208.488C229.087 208.488 228.559 208.614 228.081 208.855C227.905 208.933 227.753 209.057 227.64 209.213C227.527 209.37 227.457 209.553 227.438 209.745L235.205 236.855C235.22 236.988 235.27 237.115 235.349 237.223C235.429 237.331 235.535 237.417 235.657 237.472C235.994 237.644 236.367 237.733 236.746 237.733C237.125 237.733 237.498 237.644 237.835 237.472C237.957 237.417 238.063 237.331 238.143 237.223C238.222 237.115 238.272 236.988 238.287 236.855L231.801 209.745Z" fill="#455A64"/>
<path d="M171.909 209.743C171.927 209.551 171.995 209.368 172.107 209.211C172.219 209.055 172.371 208.931 172.546 208.852C173.025 208.61 173.554 208.484 174.091 208.484C174.627 208.484 175.157 208.61 175.635 208.852C175.811 208.931 175.963 209.055 176.075 209.211C176.187 209.368 176.255 209.551 176.272 209.743L168.505 236.853C168.49 236.986 168.44 237.113 168.361 237.221C168.281 237.329 168.175 237.415 168.053 237.469C167.716 237.641 167.343 237.731 166.964 237.731C166.585 237.731 166.212 237.641 165.875 237.469C165.753 237.415 165.647 237.329 165.568 237.221C165.488 237.113 165.438 236.986 165.423 236.853L171.909 209.743Z" fill="#455A64"/>
<path d="M199.375 213.216C199.393 213.024 199.461 212.84 199.573 212.684C199.685 212.527 199.836 212.403 200.012 212.325C200.491 212.083 201.02 211.957 201.557 211.957C202.093 211.957 202.622 212.083 203.101 212.325C203.277 212.403 203.429 212.527 203.541 212.684C203.653 212.84 203.721 213.024 203.738 213.216L203.101 249.024C203.087 249.156 203.038 249.282 202.96 249.388C202.882 249.495 202.777 249.58 202.656 249.634C202.318 249.806 201.943 249.896 201.564 249.896C201.184 249.896 200.81 249.806 200.471 249.634C200.35 249.58 200.246 249.495 200.167 249.388C200.089 249.282 200.041 249.156 200.026 249.024L199.375 213.216Z" fill="#455A64"/>
<path d="M162.497 194.641C162.497 188.867 166.278 183.093 173.915 178.682C189.183 169.867 213.93 169.867 229.197 178.682C236.834 183.093 240.615 188.867 240.608 194.641H240.649V197.744C240.554 203.443 236.732 209.128 229.197 213.497C213.93 222.313 189.183 222.313 173.915 213.497C166.381 209.148 162.552 203.463 162.463 197.744L162.497 194.641Z" fill="#00B5CE"/>
<path opacity="0.3" d="M162.497 194.641C162.497 188.867 166.278 183.093 173.915 178.682C189.183 169.867 213.93 169.867 229.197 178.682C236.834 183.093 240.615 188.867 240.608 194.641H240.649V197.744C240.554 203.443 236.732 209.128 229.197 213.497C213.93 222.313 189.183 222.313 173.915 213.497C166.381 209.148 162.552 203.463 162.463 197.744L162.497 194.641Z" fill="white"/>
<path d="M229.232 178.682C244.499 187.497 244.499 201.785 229.232 210.6C213.965 219.415 189.218 219.415 173.95 210.6C158.683 201.785 158.683 187.497 173.95 178.682C189.218 169.867 213.965 169.867 229.232 178.682Z" fill="#00B5CE"/>
<path opacity="0.6" d="M229.232 178.682C244.499 187.497 244.499 201.785 229.232 210.6C213.965 219.415 189.218 219.415 173.95 210.6C158.683 201.785 158.683 187.497 173.95 178.682C189.218 169.867 213.965 169.867 229.232 178.682Z" fill="white"/>
<path opacity="0.15" d="M225.916 194.917L198.415 210.794C197.586 211.216 196.668 211.436 195.737 211.436C194.806 211.436 193.889 211.216 193.059 210.794L174.949 200.335C173.47 199.486 173.47 198.102 174.949 197.246L202.45 181.369C203.279 180.947 204.197 180.727 205.128 180.727C206.059 180.727 206.976 180.947 207.806 181.369L225.916 191.821C227.395 192.677 227.395 194.061 225.916 194.917Z" fill="black"/>
<path d="M176.093 197.689L195.922 208.997L223.902 192.949L204.08 181.641L176.093 197.689Z" fill="black"/>
<path d="M196.148 208.136L177.024 197.177C177.52 195.553 177.484 193.813 176.921 192.211L195.949 203.074C195.949 203.074 196.285 204.259 196.148 208.136Z" fill="#F5F5F5"/>
<path d="M194.95 201.514C195.483 201.859 195.928 202.326 196.247 202.876C196.566 203.426 196.75 204.043 196.785 204.678V208.377C196.785 209.541 195.963 210.014 194.95 209.431L176.086 198.609V197.692L194.689 208.301C195.299 208.651 195.792 208.37 195.792 207.664V204.24C195.771 203.859 195.66 203.488 195.468 203.159C195.277 202.829 195.01 202.549 194.689 202.342L176.086 191.733V190.691L194.95 201.514Z" fill="#263238"/>
<path d="M176.087 190.697L204.08 174.648L222.93 185.464C223.464 185.809 223.908 186.276 224.227 186.826C224.546 187.376 224.731 187.993 224.766 188.628V192.327C224.789 192.553 224.752 192.781 224.658 192.988C224.564 193.195 224.417 193.374 224.231 193.505L196.244 209.553C196.432 209.423 196.581 209.245 196.676 209.038C196.771 208.831 196.809 208.602 196.786 208.375V204.676C196.749 204.041 196.563 203.423 196.243 202.874C195.923 202.324 195.478 201.857 194.943 201.512L176.087 190.697Z" fill="#455A64"/>
<path d="M196.251 202.877C196.582 203.422 196.768 204.042 196.792 204.679V208.378C196.816 208.604 196.778 208.833 196.683 209.041C196.588 209.248 196.439 209.426 196.251 209.556L224.231 193.487C224.417 193.356 224.564 193.177 224.658 192.97C224.752 192.763 224.789 192.535 224.766 192.309V188.61C224.743 187.974 224.559 187.354 224.231 186.809L196.251 202.877Z" fill="#37474F"/>
<path d="M284.202 42.4437C285.295 42.9468 286.31 43.6042 287.216 44.3958C288.088 45.141 288.818 46.0364 289.374 47.0396C289.905 48.0014 290.22 49.0672 290.298 50.163C290.368 51.3334 290.132 52.5017 289.613 53.5535C289.242 54.3992 288.707 55.1628 288.038 55.8001C287.443 56.3502 286.772 56.8116 286.045 57.17C285.338 57.5102 284.602 57.7853 283.846 57.9919L281.716 58.5878C281.073 58.7599 280.448 58.9891 279.846 59.2728C279.309 59.5234 278.854 59.9198 278.531 60.4166C278.374 60.6456 278.155 60.826 277.901 60.9372C277.782 60.9947 277.652 61.0246 277.521 61.0246C277.389 61.0246 277.259 60.9947 277.141 60.9372L274.462 59.6974C274.204 59.5766 274.003 59.3606 273.901 59.0947C273.846 58.969 273.821 58.832 273.829 58.695C273.838 58.558 273.879 58.425 273.949 58.307C274.361 57.483 274.94 56.7532 275.647 56.1631C276.284 55.6363 276.989 55.1985 277.743 54.8617C278.466 54.5387 279.216 54.2775 279.983 54.0809C280.743 53.8891 281.456 53.6973 282.113 53.5055C282.714 53.3417 283.295 53.112 283.846 52.8206C284.324 52.5682 284.707 52.1665 284.935 51.6767C285.142 51.2459 285.24 50.7708 285.221 50.2932C285.202 49.8156 285.066 49.3499 284.826 48.9369C284.234 47.919 283.321 47.1264 282.23 46.6835C280.23 45.7702 278.298 46.0899 276.435 47.6424C276.25 47.8177 276.034 47.9571 275.798 48.0534C275.547 48.1161 275.281 48.0767 275.058 47.9438L272.202 46.6287C272.101 46.5847 272.009 46.5208 271.932 46.4408C271.856 46.3608 271.796 46.2663 271.757 46.1629C271.706 46.0558 271.68 45.9389 271.68 45.8204C271.68 45.702 271.706 45.585 271.757 45.478C272.212 44.6103 272.873 43.8672 273.682 43.3135C274.592 42.6597 275.613 42.1748 276.695 41.882C277.882 41.561 279.112 41.4293 280.339 41.4916C281.677 41.5514 282.99 41.8749 284.202 42.4437ZM276.38 63.1085C276.506 63.1657 276.618 63.2481 276.71 63.3506C276.801 63.4532 276.871 63.5736 276.914 63.7044C276.97 63.8293 276.999 63.9647 276.999 64.1016C276.999 64.2386 276.97 64.3739 276.914 64.4989L275.483 67.6017C275.365 67.8479 275.157 68.0389 274.902 68.1347C274.646 68.2304 274.364 68.2235 274.113 68.1154L271.079 66.7455C270.835 66.6254 270.647 66.4164 270.552 66.1616C270.458 65.9068 270.465 65.6255 270.572 65.3756L272.003 62.2728C272.121 62.0267 272.33 61.8361 272.586 61.7414C272.841 61.6468 273.124 61.6556 273.373 61.766L276.38 63.1085Z" fill="#00B5CE"/>
<path d="M283.106 79.0956C283.89 79.3665 284.631 79.7495 285.305 80.2326C285.953 80.6862 286.514 81.2522 286.962 81.9039C287.386 82.5212 287.673 83.2217 287.805 83.9587C287.902 84.6741 287.848 85.4019 287.648 86.0954C287.447 86.7889 287.104 87.433 286.64 87.9862C286.268 88.3969 285.839 88.7521 285.366 89.041C284.902 89.3126 284.413 89.5419 283.908 89.726L282.483 90.2739C282.054 90.4383 281.641 90.6424 281.25 90.8835C280.896 91.0886 280.609 91.3904 280.421 91.7534C280.327 91.9212 280.19 92.0608 280.024 92.1575C279.944 92.2014 279.856 92.2277 279.765 92.2348C279.674 92.2418 279.582 92.2295 279.496 92.1986L277.572 91.5137C277.388 91.4453 277.237 91.311 277.147 91.137C277.103 91.0523 277.08 90.9583 277.08 90.863C277.08 90.7676 277.103 90.6737 277.147 90.589C277.38 89.9979 277.729 89.4598 278.175 89.0068C278.584 88.604 279.045 88.2563 279.544 87.9725C280.023 87.7039 280.522 87.4748 281.038 87.2876C281.544 87.1026 282.017 86.9246 282.462 86.7465C282.864 86.5935 283.248 86.3959 283.606 86.1574C283.922 85.9519 284.163 85.6489 284.291 85.2944C284.399 84.9856 284.432 84.6554 284.387 84.3313C284.341 84.0073 284.219 83.6987 284.031 83.4313C283.558 82.772 282.878 82.2898 282.099 82.0615C281.418 81.8121 280.677 81.7782 279.976 81.9645C279.275 82.1507 278.649 82.548 278.181 83.1026C278.064 83.2342 277.925 83.3454 277.77 83.4313C277.606 83.498 277.421 83.498 277.257 83.4313L275.202 82.7464C275.128 82.7226 275.06 82.6843 275.001 82.6337C274.942 82.5831 274.894 82.5213 274.859 82.4519C274.825 82.3802 274.808 82.3018 274.808 82.2224C274.808 82.143 274.825 82.0646 274.859 81.993C275.102 81.3793 275.487 80.8322 275.983 80.397C276.566 79.8858 277.236 79.4844 277.962 79.2121C278.756 78.9094 279.593 78.736 280.442 78.6984C281.347 78.6581 282.252 78.793 283.106 79.0956ZM279.092 93.8151C279.273 93.8794 279.42 94.0123 279.503 94.185C279.547 94.2699 279.573 94.3632 279.579 94.4588C279.585 94.5543 279.571 94.65 279.538 94.7398L278.757 96.9659C278.727 97.0563 278.679 97.1396 278.615 97.2103C278.551 97.2811 278.474 97.3378 278.387 97.3768C278.213 97.4599 278.014 97.4722 277.832 97.4111L275.661 96.6439C275.571 96.615 275.488 96.5678 275.417 96.5053C275.347 96.4429 275.29 96.3665 275.25 96.2809C275.206 96.196 275.18 96.1027 275.174 96.0071C275.168 95.9116 275.182 95.8158 275.216 95.7261L275.983 93.4795C276.012 93.389 276.061 93.3058 276.124 93.235C276.188 93.1643 276.266 93.1075 276.353 93.0685C276.437 93.0253 276.529 93 276.623 92.9941C276.717 92.9882 276.812 93.0019 276.901 93.0343L279.092 93.8151Z" fill="#00B5CE"/>
<g opacity="0.2">
<path d="M283.107 79.0956C283.891 79.3665 284.632 79.7495 285.306 80.2326C285.954 80.6862 286.515 81.2522 286.963 81.9039C287.387 82.5212 287.674 83.2217 287.806 83.9587C287.903 84.6741 287.849 85.4019 287.649 86.0954C287.448 86.7889 287.105 87.433 286.641 87.9862C286.269 88.3969 285.84 88.7521 285.367 89.041C284.903 89.3126 284.414 89.5419 283.909 89.726L282.484 90.2739C282.055 90.4383 281.642 90.6424 281.251 90.8835C280.897 91.0886 280.61 91.3904 280.422 91.7534C280.328 91.9212 280.191 92.0608 280.025 92.1575C279.945 92.2014 279.857 92.2277 279.766 92.2348C279.675 92.2418 279.583 92.2295 279.497 92.1986L277.573 91.5137C277.389 91.4453 277.238 91.311 277.148 91.137C277.104 91.0523 277.081 90.9583 277.081 90.863C277.081 90.7676 277.104 90.6737 277.148 90.589C277.381 89.9979 277.73 89.4598 278.176 89.0068C278.585 88.604 279.046 88.2563 279.545 87.9725C280.024 87.7039 280.523 87.4748 281.039 87.2876C281.545 87.1026 282.018 86.9246 282.463 86.7465C282.865 86.5935 283.249 86.3959 283.607 86.1574C283.923 85.9519 284.164 85.6489 284.292 85.2944C284.4 84.9856 284.433 84.6554 284.388 84.3313C284.342 84.0073 284.22 83.6987 284.032 83.4313C283.559 82.772 282.879 82.2898 282.1 82.0615C281.419 81.8121 280.678 81.7782 279.977 81.9645C279.276 82.1507 278.65 82.548 278.182 83.1026C278.065 83.2342 277.926 83.3454 277.771 83.4313C277.607 83.498 277.422 83.498 277.258 83.4313L275.203 82.7464C275.129 82.7226 275.061 82.6843 275.002 82.6337C274.943 82.5831 274.895 82.5213 274.86 82.4519C274.826 82.3802 274.809 82.3018 274.809 82.2224C274.809 82.143 274.826 82.0646 274.86 81.993C275.103 81.3793 275.488 80.8322 275.984 80.397C276.567 79.8858 277.237 79.4844 277.963 79.2121C278.757 78.9094 279.594 78.736 280.443 78.6984C281.348 78.6581 282.253 78.793 283.107 79.0956ZM279.093 93.8151C279.274 93.8794 279.421 94.0123 279.504 94.185C279.548 94.2699 279.574 94.3632 279.58 94.4588C279.586 94.5543 279.572 94.65 279.539 94.7398L278.758 96.9659C278.728 97.0563 278.68 97.1396 278.616 97.2103C278.552 97.2811 278.475 97.3378 278.388 97.3768C278.214 97.4599 278.015 97.4722 277.833 97.4111L275.662 96.6439C275.572 96.615 275.489 96.5678 275.418 96.5053C275.348 96.4429 275.291 96.3665 275.251 96.2809C275.207 96.196 275.181 96.1027 275.175 96.0071C275.169 95.9116 275.183 95.8158 275.217 95.7261L275.984 93.4795C276.013 93.389 276.062 93.3058 276.125 93.235C276.189 93.1643 276.267 93.1075 276.354 93.0685C276.438 93.0253 276.53 93 276.624 92.9941C276.718 92.9882 276.813 93.0019 276.902 93.0343L279.093 93.8151Z" fill="black"/>
</g>
<path d="M308.367 81.8373C308.48 81.8453 308.589 81.8761 308.689 81.9279C308.789 81.9798 308.878 82.0515 308.949 82.1386C309.025 82.2226 309.082 82.3214 309.118 82.4287C309.153 82.536 309.166 82.6495 309.155 82.7619L308.943 85.5428C308.937 85.6558 308.907 85.7663 308.855 85.8668C308.803 85.9672 308.73 86.0553 308.641 86.125C308.558 86.2006 308.461 86.2584 308.355 86.2949C308.249 86.3314 308.137 86.3459 308.025 86.3374L305.285 86.125C305.059 86.1075 304.849 86.0011 304.701 85.829C304.554 85.6569 304.48 85.4333 304.497 85.2072L304.71 82.4195C304.718 82.307 304.748 82.1974 304.8 82.0973C304.852 81.9972 304.924 81.9087 305.011 81.8373C305.094 81.7626 305.192 81.7058 305.298 81.6704C305.404 81.6351 305.516 81.6219 305.627 81.6318L308.367 81.8373ZM308.47 63.7616C309.45 63.832 310.414 64.0442 311.333 64.3917C312.215 64.7141 313.031 65.192 313.744 65.8027C314.426 66.3887 314.973 67.1154 315.347 67.9329C315.741 68.806 315.899 69.7672 315.806 70.7206C315.765 71.4746 315.574 72.2129 315.244 72.8919C314.944 73.4777 314.559 74.0156 314.1 74.4878C313.658 74.9512 313.174 75.3731 312.655 75.7481L311.182 76.8166C310.742 77.1349 310.332 77.4926 309.956 77.8851C309.617 78.2322 309.38 78.6658 309.271 79.1386C309.215 79.3581 309.101 79.5589 308.943 79.7208C308.868 79.7992 308.775 79.8588 308.673 79.8945C308.57 79.9302 308.461 79.9411 308.354 79.9263L305.949 79.7413C305.718 79.7255 305.501 79.6198 305.347 79.4468C305.265 79.367 305.205 79.2683 305.172 79.1594C305.138 79.0506 305.132 78.9352 305.155 78.8235C305.237 78.0745 305.47 77.3498 305.84 76.6933C306.177 76.1105 306.592 75.5759 307.073 75.1043C307.535 74.6478 308.037 74.233 308.573 73.8645C309.093 73.5015 309.586 73.1796 310.032 72.8097C310.445 72.5096 310.824 72.1651 311.162 71.7823C311.453 71.4519 311.631 71.0364 311.669 70.5973C311.703 70.2105 311.642 69.8212 311.491 69.4632C311.341 69.1051 311.106 68.7891 310.806 68.5425C310.063 67.9298 309.138 67.5806 308.175 67.5493C306.381 67.4123 304.99 68.2343 304.011 69.9398C303.917 70.1261 303.792 70.2952 303.641 70.4398C303.463 70.5565 303.248 70.6029 303.038 70.5699L300.477 70.3713C300.386 70.3674 300.296 70.3453 300.214 70.3065C300.132 70.2677 300.058 70.2129 299.997 70.1453C299.936 70.0744 299.889 69.9916 299.861 69.9021C299.833 69.8125 299.823 69.7181 299.833 69.6247C299.931 68.829 300.223 68.0694 300.682 67.4123C301.197 66.6526 301.841 65.9895 302.586 65.4534C303.4 64.8565 304.304 64.394 305.264 64.0835C306.301 63.7656 307.39 63.6539 308.47 63.7547V63.7616Z" fill="#00B5CE"/>
<g opacity="0.3">
<path d="M308.367 81.8373C308.48 81.8453 308.589 81.8761 308.689 81.9279C308.789 81.9798 308.878 82.0515 308.949 82.1386C309.025 82.2226 309.082 82.3214 309.118 82.4287C309.153 82.536 309.166 82.6495 309.155 82.7619L308.943 85.5428C308.937 85.6558 308.907 85.7663 308.855 85.8668C308.803 85.9672 308.73 86.0553 308.641 86.125C308.558 86.2006 308.461 86.2584 308.355 86.2949C308.249 86.3314 308.137 86.3459 308.025 86.3374L305.285 86.125C305.059 86.1075 304.849 86.0011 304.701 85.829C304.554 85.6569 304.48 85.4333 304.497 85.2072L304.71 82.4195C304.718 82.307 304.748 82.1974 304.8 82.0973C304.852 81.9972 304.924 81.9087 305.011 81.8373C305.094 81.7626 305.192 81.7058 305.298 81.6704C305.404 81.6351 305.516 81.6219 305.627 81.6318L308.367 81.8373ZM308.47 63.7616C309.45 63.832 310.414 64.0442 311.333 64.3917C312.215 64.7141 313.031 65.192 313.744 65.8027C314.426 66.3887 314.973 67.1154 315.347 67.9329C315.741 68.806 315.899 69.7672 315.806 70.7206C315.765 71.4746 315.574 72.2129 315.244 72.8919C314.944 73.4777 314.559 74.0156 314.1 74.4878C313.658 74.9512 313.174 75.3731 312.655 75.7481L311.182 76.8166C310.742 77.1349 310.332 77.4926 309.956 77.8851C309.617 78.2322 309.38 78.6658 309.271 79.1386C309.215 79.3581 309.101 79.5589 308.943 79.7208C308.868 79.7992 308.775 79.8588 308.673 79.8945C308.57 79.9302 308.461 79.9411 308.354 79.9263L305.949 79.7413C305.718 79.7255 305.501 79.6198 305.347 79.4468C305.265 79.367 305.205 79.2683 305.172 79.1594C305.138 79.0506 305.132 78.9352 305.155 78.8235C305.237 78.0745 305.47 77.3498 305.84 76.6933C306.177 76.1105 306.592 75.5759 307.073 75.1043C307.535 74.6478 308.037 74.233 308.573 73.8645C309.093 73.5015 309.586 73.1796 310.032 72.8097C310.445 72.5096 310.824 72.1651 311.162 71.7823C311.453 71.4519 311.631 71.0364 311.669 70.5973C311.703 70.2105 311.642 69.8212 311.491 69.4632C311.341 69.1051 311.106 68.7891 310.806 68.5425C310.063 67.9298 309.138 67.5806 308.175 67.5493C306.381 67.4123 304.99 68.2343 304.011 69.9398C303.917 70.1261 303.792 70.2952 303.641 70.4398C303.463 70.5565 303.248 70.6029 303.038 70.5699L300.477 70.3713C300.386 70.3674 300.296 70.3453 300.214 70.3065C300.132 70.2677 300.058 70.2129 299.997 70.1453C299.936 70.0744 299.889 69.9916 299.861 69.9021C299.833 69.8125 299.823 69.7181 299.833 69.6247C299.931 68.829 300.223 68.0694 300.682 67.4123C301.197 66.6526 301.841 65.9895 302.586 65.4534C303.4 64.8565 304.304 64.394 305.264 64.0835C306.301 63.7656 307.39 63.6539 308.47 63.7547V63.7616Z" fill="white"/>
</g>
<path d="M274.034 205.547C273.646 207.866 273.974 210.247 274.975 212.374C275.977 214.501 277.603 216.272 279.637 217.451L345.268 251.698L345.46 255.486L348.487 257.178L344.631 259.397L272.027 217.376L274.034 205.547Z" fill="#00B5CE"/>
<path d="M341.302 114.469L358.083 124.154L286.52 169.401C284.257 170.835 282.321 172.73 280.839 174.961C279.357 177.193 278.361 179.712 277.917 182.354L267.492 249.834C267.461 250.02 267.385 250.196 267.272 250.346C267.158 250.496 267.01 250.616 266.839 250.696C266.669 250.776 266.482 250.814 266.294 250.806C266.105 250.798 265.922 250.744 265.759 250.65C265.369 250.43 265.143 249.965 265.28 248.355L271.239 176.648C271.574 172.6 274.157 167.744 278.28 164.497L341.302 114.469Z" fill="#00B5CE"/>
<path opacity="0.1" d="M341.302 114.469L358.083 124.154L286.52 169.401C284.257 170.835 282.321 172.73 280.839 174.961C279.357 177.193 278.361 179.712 277.917 182.354L267.492 249.834C267.461 250.02 267.385 250.196 267.272 250.346C267.158 250.496 267.01 250.616 266.839 250.696C266.669 250.776 266.482 250.814 266.294 250.806C266.105 250.798 265.922 250.744 265.759 250.65C265.369 250.43 265.143 249.965 265.28 248.355L271.239 176.648C271.574 172.6 274.157 167.744 278.28 164.497L341.302 114.469Z" fill="black"/>
<path d="M273.349 209.637C272.971 211.904 273.293 214.233 274.272 216.314C275.251 218.394 276.84 220.126 278.828 221.281L340.097 256.686L336.829 263.446L277.65 229.274C276.87 228.827 275.994 228.576 275.096 228.543C274.198 228.509 273.305 228.693 272.494 229.079C271.683 229.466 270.977 230.043 270.438 230.761C269.898 231.48 269.541 232.319 269.397 233.206L273.349 209.637Z" fill="#00B5CE"/>
<path opacity="0.1" d="M273.349 209.637C272.971 211.904 273.293 214.233 274.272 216.314C275.251 218.394 276.84 220.126 278.828 221.281L340.097 256.686L336.829 263.446L277.65 229.274C276.87 228.827 275.994 228.576 275.096 228.543C274.198 228.509 273.305 228.693 272.494 229.079C271.683 229.466 270.977 230.043 270.438 230.761C269.898 231.48 269.541 232.319 269.397 233.206L273.349 209.637Z" fill="black"/>
<path d="M349.535 256.72L350.363 251.789L412.241 216.082L404.707 211.747L408.461 209.582L411.269 211.206C412.292 211.807 413.48 212.068 414.661 211.951C415.842 211.835 416.955 211.347 417.841 210.557C418.727 209.768 419.34 208.718 419.592 207.558C419.844 206.398 419.721 205.188 419.242 204.103L418.981 203.5L419.392 204.445L424.995 217.356L420.125 220.61L416.015 218.233L349.535 256.72Z" fill="#00B5CE"/>
<path d="M348.734 252.726L411.995 216.171C413.162 215.411 414.132 214.387 414.827 213.181C415.522 211.975 415.922 210.622 415.995 209.232V205.506C415.921 204.118 415.521 202.768 414.826 201.564C414.13 200.361 413.16 199.339 411.995 198.581L348.734 162.053C347.495 161.425 346.126 161.098 344.737 161.098C343.348 161.098 341.979 161.425 340.74 162.053L277.458 198.595C276.295 199.354 275.327 200.376 274.633 201.58C273.939 202.783 273.539 204.133 273.465 205.52V209.294C273.54 210.681 273.941 212.03 274.634 213.233C275.328 214.436 276.295 215.459 277.458 216.219L340.726 252.726C341.967 253.357 343.339 253.685 344.73 253.685C346.121 253.685 347.493 253.357 348.734 252.726Z" fill="#455A64"/>
<path d="M347.561 253.234C347.968 253.102 348.36 252.93 348.733 252.72L411.994 216.171C413.159 215.41 414.127 214.386 414.821 213.18C415.515 211.974 415.914 210.622 415.987 209.233V205.5C415.916 204.269 415.592 203.066 415.034 201.967C414.477 200.867 413.698 199.894 412.748 199.109C414.165 200.383 413.912 202.082 411.994 203.219L349.034 239.576L347.561 253.234Z" fill="#263238"/>
<path d="M273.479 205.516V209.296C273.55 210.683 273.948 212.032 274.639 213.235C275.331 214.439 276.297 215.462 277.458 216.221L340.72 252.729C341.772 253.261 342.919 253.58 344.094 253.666C345.27 253.752 346.451 253.603 347.569 253.229L349.042 239.53L348.741 239.701C347.503 240.333 346.133 240.662 344.744 240.662C343.355 240.662 341.985 240.333 340.747 239.701L277.458 203.207C275.527 202.105 275.28 200.392 276.705 199.098C275.753 199.886 274.974 200.864 274.419 201.968C273.864 203.073 273.543 204.281 273.479 205.516Z" fill="#37474F"/>
<path d="M326.227 175.052L389.495 211.58C390.932 212.341 392.562 212.663 394.18 212.505C394.42 212.505 394.653 212.463 394.865 212.429H395.009L395.427 212.354H395.482C395.693 212.312 395.901 212.257 396.105 212.189C396.584 212.056 397.044 211.862 397.475 211.614L400.749 209.703C403.167 208.12 404.883 205.668 405.543 202.854L415.133 149.154C415.188 148.824 415.215 148.489 415.215 148.154C415.215 148.024 415.215 147.894 415.215 147.764C415.16 147.091 415.013 146.43 414.776 145.798C414.355 144.632 413.638 143.595 412.694 142.791L412.42 142.585C412.284 142.486 412.142 142.395 411.996 142.311L348.734 105.783C347.494 105.16 346.125 104.836 344.737 104.836C343.35 104.836 341.981 105.16 340.741 105.783L337.487 107.667C336.776 108.095 336.128 108.621 335.563 109.229L335.241 109.585C334.81 110.077 334.421 110.604 334.076 111.16C333.995 111.275 333.919 111.394 333.85 111.516L333.672 111.838L333.426 112.311C333.35 112.468 333.275 112.626 333.213 112.783C333.152 112.941 333.104 113.051 333.056 113.181C333.025 113.242 332.999 113.306 332.98 113.372C332.939 113.489 332.905 113.605 332.871 113.722C332.836 113.838 332.782 114.03 332.747 114.181C332.717 114.291 332.691 114.403 332.672 114.516L323.049 168.23C322.876 169.551 323.084 170.895 323.646 172.103C324.209 173.311 325.104 174.334 326.227 175.052Z" fill="#455A64"/>
<path d="M403.925 155.643L394.336 209.349C393.891 211.856 391.733 212.863 389.542 211.582L326.28 175.061C325.153 174.34 324.254 173.313 323.69 172.1C323.126 170.887 322.92 169.538 323.095 168.212L332.719 114.512C333.164 111.998 335.321 110.998 337.513 112.272L400.747 148.793C401.874 149.514 402.772 150.542 403.335 151.755C403.897 152.968 404.102 154.317 403.925 155.643Z" fill="#37474F"/>
<path d="M391.125 212.234C392.123 212.487 393.154 212.58 394.18 212.508C394.42 212.508 394.653 212.466 394.865 212.432C395.077 212.398 395.235 212.377 395.427 212.336H395.482C395.693 212.294 395.901 212.24 396.105 212.172C396.584 212.038 397.044 211.845 397.475 211.597L400.749 209.706C403.167 208.123 404.883 205.671 405.543 202.857L415.133 149.157C415.188 148.827 415.215 148.492 415.215 148.157C415.215 148.027 415.215 147.897 415.215 147.767C415.16 147.094 415.013 146.433 414.776 145.801L403.489 152.212C403.936 153.294 404.076 154.48 403.893 155.637L394.303 209.343C393.975 211.213 392.694 212.254 391.139 212.124C391.139 212.161 391.134 212.198 391.125 212.234Z" fill="#263238"/>
<path d="M293.457 245.428C293.457 245.428 300.711 261.004 301.341 267.257C302.026 273.771 303.684 275.853 302.923 283.011C302.752 284.573 302.094 287.71 301.951 288.977C301.82 290.107 302.286 290.984 303.738 291.21C306.601 291.662 311.054 286.114 313.012 280.21C314.971 274.305 317.513 261.093 317.636 259.517C317.668 257.936 317.283 256.375 316.519 254.99C316.122 254.177 315.647 253.404 315.102 252.682C314.026 249.887 313.314 244.503 312.362 240.805L293.457 245.428Z" fill="#EFB46E"/>
<path d="M323.465 265.203C323.871 265.85 324.163 266.561 324.329 267.306C324.459 268.607 321.726 273.039 320.644 274.655C319.561 276.272 318.534 278.286 318.876 282.19C319.253 286.354 317.602 290.457 315.075 294.026C312.547 297.594 308.061 301.56 301.28 304.033C294.499 306.505 291.917 303.156 291.917 303.156C291.917 303.156 289.622 299.937 290.835 298.519C292.047 297.101 323.465 265.203 323.465 265.203Z" fill="#263238"/>
<path d="M315.129 252.68C315.334 252.68 315.704 252.591 316.273 253.214C316.492 253.447 317.896 256.482 319.013 258.057C320.129 259.632 323.013 262.578 323.492 265.201C322.122 270.379 317.533 274.153 317.047 279.003C316.561 283.852 316.752 289.448 309.636 295.695C302.519 301.941 294.944 302.928 292.135 301.496C289.327 300.065 289.43 297.126 292.971 291.366C296.731 285.249 298.841 272.283 298.841 272.276C299.238 270.016 298.615 266.269 300.773 264.783C301.852 264.158 303.057 263.779 304.3 263.674C305.67 263.454 307.238 263.263 308.41 264.009C309.413 264.753 310.086 265.859 310.286 267.091C310.475 268.314 310.745 269.522 311.095 270.708C311.239 271.078 311.478 271.482 311.876 271.523C312.465 271.578 312.745 270.838 312.828 270.235C313.284 267.126 313.727 264.014 314.156 260.9C314.376 259.386 314.595 257.865 314.807 256.351C314.978 255.18 315.444 253.824 315.129 252.68Z" fill="#37474F"/>
<path d="M284.047 267.23C284.047 267.23 279.656 285.505 275.731 292.436C271.807 299.368 269.813 302.711 264.724 307.8C263.621 308.903 261.135 310.937 260.231 311.834C259.423 312.629 259.231 313.608 260.231 314.697C262.176 316.841 270.998 317.951 276.224 314.588C281.451 311.225 286.54 303.628 289.718 300.841C290.91 299.793 292.033 298.717 293.143 297.567C294.252 296.416 293.999 295.32 294.177 294.012C294.266 293.375 294.3 291.628 294.3 291.628C295.204 288.567 297.389 283.813 298.581 280.847L284.047 267.23Z" fill="#EFB46E"/>
<path d="M295.013 305.734C295.012 306.497 294.882 307.254 294.629 307.974C294.047 309.139 289.369 311.44 287.595 312.241C285.821 313.043 283.875 314.193 282.115 317.673C280.211 321.392 276.636 323.995 272.601 325.673C268.567 327.351 262.635 328.344 255.594 326.81C248.553 325.276 248.128 321.084 248.128 321.084C248.128 321.084 247.895 317.139 249.683 316.584C251.471 316.029 295.013 305.734 295.013 305.734Z" fill="#263238"/>
<path d="M294.581 290.684C294.766 290.779 295.122 290.91 295.266 291.738C295.321 292.053 294.896 295.369 295.006 297.293C295.129 299.348 295.992 303.252 295.006 305.732C291.115 309.396 285.197 310.143 282.211 313.992C279.224 317.842 276.402 322.677 267.053 324.184C257.703 325.691 250.765 322.492 249.149 319.787C247.532 317.081 249.183 314.65 255.251 311.657C261.683 308.472 270.361 298.643 270.368 298.608C271.561 297.212 272.664 295.741 273.67 294.204C274.293 293.273 274.279 292.327 275.724 292.238C276.409 292.238 277.086 292.373 277.718 292.636C279.012 293.088 280.286 293.601 281.526 294.177C282.172 294.395 282.716 294.844 283.053 295.437C283.236 296.126 283.158 296.857 282.834 297.492C281.989 299.775 281.145 302.058 280.3 304.341C283.149 302.971 285.012 300.232 286.916 297.691C287.97 296.201 289.229 294.868 290.656 293.732C291.333 293.213 292.078 292.789 292.869 292.471C293.156 292.362 293.917 292.3 294.122 292.088C294.218 291.985 294.28 291.519 294.362 291.485C294.449 291.222 294.522 290.954 294.581 290.684Z" fill="#37474F"/>
<path d="M330.198 173.688C322.218 178.701 294.718 192.058 283.286 201.215C279.985 203.859 278.389 208.017 279.93 215.983C282.067 227.017 290.204 250.634 290.204 250.634C291.051 252.741 291.72 254.916 292.204 257.134L334.308 213.942L330.198 173.688Z" fill="#00B5CE"/>
<path opacity="0.4" d="M330.198 173.688C322.218 178.701 294.718 192.058 283.286 201.215C279.985 203.859 278.389 208.017 279.93 215.983C282.067 227.017 290.204 250.634 290.204 250.634C291.051 252.741 291.72 254.916 292.204 257.134L334.308 213.942L330.198 173.688Z" fill="white"/>
<path opacity="0.3" d="M293.457 224.652C294.601 220.344 297.485 218.029 300.047 216.282C310.259 209.323 324.705 199.227 327.294 197.268C326.177 194.529 324.321 189.7 326.355 185.008C326.355 185.008 327.123 195.282 332.78 199.515L332.842 199.618C331.403 201.556 302.958 239.934 290.635 251.674C290.498 251.31 290.355 250.989 290.211 250.66C290.211 250.66 289.677 249.105 288.841 246.619C289.937 240.201 291.738 231.146 293.457 224.652Z" fill="black"/>
<path d="M329.732 172.496L385.761 185.51C384.151 194.627 383.357 198.524 380.233 203.51C377.11 208.497 371.815 213.785 353.705 222.278C340.061 228.668 323.157 235.662 319.746 236.991C317.177 237.997 316.547 242.95 314.8 249.265C312.848 256.327 309.554 261.279 306.581 267.108C302.239 275.615 298.985 282.622 298.985 282.622C298.985 282.622 287.101 282.676 280.807 276.286C292.718 232.73 293.601 229.6 293.93 228.531C295.362 223.826 295.416 222.545 301.732 217.716C307.15 213.572 331.13 197.983 331.13 197.983C331.13 197.983 322.965 185.188 329.732 172.496Z" fill="#00B5CE"/>
<path opacity="0.4" d="M329.732 172.496L385.761 185.51C384.151 194.627 383.357 198.524 380.233 203.51C377.11 208.497 371.815 213.785 353.705 222.278C340.061 228.668 323.157 235.662 319.746 236.991C317.177 237.997 316.547 242.95 314.8 249.265C312.848 256.327 309.554 261.279 306.581 267.108C302.239 275.615 298.985 282.622 298.985 282.622C298.985 282.622 287.101 282.676 280.807 276.286C292.718 232.73 293.601 229.6 293.93 228.531C295.362 223.826 295.416 222.545 301.732 217.716C307.15 213.572 331.13 197.983 331.13 197.983C331.13 197.983 322.965 185.188 329.732 172.496Z" fill="white"/>
<path d="M341.383 114.188C331.109 114.263 326.355 120.571 323.28 129.612C320.204 138.654 318.588 143.195 316.143 150.264C313.553 157.743 327.437 166.908 331.17 164.805L338.828 145.058C339.527 138.339 341.383 114.188 341.383 114.188Z" fill="#EFB46E"/>
<path d="M341.897 111.68C336.233 111.954 331.788 113.817 329.719 115.721C327.651 117.625 326.192 118.2 321.657 131.934C318.383 141.845 317.828 144.119 317.828 144.119C317.828 144.119 324.808 152.934 338.267 151.872L340.582 146.393L341.897 111.68Z" fill="#263238"/>
<path d="M361.459 110.317L374.72 114.468C374.72 114.468 385.905 122.619 387.049 131.735C388.193 140.852 388.556 145.694 387.295 168.003C386.61 180.25 382.631 197.935 382.631 197.935C382.631 197.935 369.802 201.716 349.144 194.284C325.048 185.62 325.048 176.407 325.048 176.407C328.062 173.79 329.949 170.109 330.315 166.133C330.63 162.167 330.705 156.612 330.226 144.14C329.541 126.187 330.589 115.468 340.644 112.399C340.609 112.406 354.959 109.392 361.459 110.317Z" fill="#00B5CE"/>
<path opacity="0.3" d="M361.459 110.317L374.72 114.468C374.72 114.468 385.905 122.619 387.049 131.735C388.193 140.852 388.556 145.694 387.295 168.003C386.61 180.25 382.631 197.935 382.631 197.935C382.631 197.935 369.802 201.716 349.144 194.284C325.048 185.62 325.048 176.407 325.048 176.407C328.062 173.79 329.949 170.109 330.315 166.133C330.63 162.167 330.705 156.612 330.226 144.14C329.541 126.187 330.589 115.468 340.644 112.399C340.609 112.406 354.959 109.392 361.459 110.317Z" fill="black"/>
<path d="M342.815 62.2109C356.405 59.4231 367.857 68.3754 370.213 76.6769C373.891 89.4854 361.72 99.376 359.795 106.527L326.692 80.5879C326.212 75.3413 329.226 64.9986 342.815 62.2109Z" fill="#263238"/>
<path d="M351.732 80.2343C356.061 79.2959 357.089 81.2617 357.342 84.0563C357.595 86.8509 357.39 87.892 358.027 90.7893C358.137 91.4176 358.37 92.018 358.712 92.5565C358.883 92.8259 359.111 93.0538 359.382 93.2232C359.652 93.3927 359.957 93.4996 360.274 93.5359C361.123 93.5976 361.472 93.077 361.732 92.4058C362.068 91.5427 362.109 90.0701 363.568 88.8304C365.027 87.5906 368.897 86.2687 370.698 90.3509C372.561 94.577 369.034 99.7552 366.102 101.07C362.191 102.831 359.938 98.9127 359.938 98.9127L363.013 114.276C356.315 124.886 340.903 122.242 343.965 117.947L341.088 110.975C341.088 110.975 337.574 111.447 335.287 110.865C332.691 110.365 328.252 109.064 326.835 100.125C326.307 96.7894 326.225 87.5564 326.574 82.4193C326.869 78.063 327.663 76.5561 327.848 75.9671C329.65 74.4534 335.383 74.5082 338.122 77.1452C342.424 74.2958 348.479 74.5287 351.732 80.2343Z" fill="#EFB46E"/>
<path d="M337.733 102.009C338.323 101.39 339.092 100.971 339.931 100.81C340.311 100.723 340.7 100.684 341.089 100.693C341.502 100.675 341.911 100.778 342.267 100.988C342.319 101.034 342.358 101.093 342.38 101.16C342.402 101.226 342.405 101.297 342.39 101.365C342.39 101.474 342.294 101.68 342.157 101.687C341.96 101.685 341.763 101.669 341.568 101.639C341.356 101.639 341.151 101.639 340.938 101.639C340.595 101.636 340.252 101.676 339.918 101.755C339.585 101.832 339.263 101.95 338.959 102.104C338.641 102.294 338.334 102.502 338.041 102.728C338.009 102.756 337.971 102.776 337.93 102.787C337.889 102.797 337.846 102.797 337.805 102.787C337.764 102.777 337.726 102.757 337.694 102.729C337.662 102.7 337.638 102.665 337.623 102.625C337.582 102.522 337.57 102.41 337.589 102.301C337.609 102.192 337.658 102.091 337.733 102.009Z" fill="#B16668"/>
<path d="M341.089 110.974C345.815 110.583 348.349 109.796 350.397 108.96C354.171 107.419 355.726 107.022 358.966 98.9531C358.966 98.9531 358.61 106.09 354.171 109.734C350.671 112.652 342.048 113.337 342.048 113.337L341.089 110.974Z" fill="#EFB46E"/>
<path d="M327.979 78.5146C329.725 73.6378 335.054 69.9459 338.136 77.1447C342.403 71.0487 349.78 71.898 351.376 79.6447C352.307 83.9989 352.138 88.5166 350.883 92.7888C350.883 92.7888 355.678 90.4532 355.863 83.7681C355.863 83.7681 356.602 88.6175 356.02 90.5422C356.02 90.5422 367.829 89.4189 371.212 85.8298C371.212 85.8298 374.082 72.4734 365.082 69.0692C364.397 63.3362 355.685 56.0552 340.78 59.7197C325.876 63.3841 323.657 71.2816 323.657 71.2816C325.093 70.2976 326.658 69.5163 328.307 68.9596C325.482 71.6903 323.773 75.3744 323.513 79.2954C323.02 85.9257 326.342 89.3299 326.342 89.3299C326.342 89.3299 326.574 82.4188 327.979 78.5146Z" fill="#37474F"/>
<path d="M365.371 70.0011L370.083 66.4736C369.59 65.8473 368.874 65.4361 368.085 65.3263C367.296 65.2165 366.495 65.4165 365.85 65.8845C365.541 66.1183 365.283 66.4121 365.091 66.7482C364.899 67.0843 364.777 67.4559 364.732 67.8405C364.687 68.2251 364.721 68.6148 364.83 68.9861C364.94 69.3574 365.124 69.7026 365.371 70.0011Z" fill="#37474F"/>
<path d="M364.727 69.6527L370.241 71.7075C370.498 70.9546 370.456 70.1312 370.121 69.4089C369.787 68.6867 369.187 68.1213 368.446 67.8308C368.083 67.6979 367.696 67.6399 367.31 67.6602C366.924 67.6805 366.545 67.7787 366.198 67.9489C365.851 68.1191 365.541 68.3577 365.288 68.6505C365.036 68.9433 364.844 69.2842 364.727 69.6527Z" fill="#37474F"/>
<path d="M340.473 72.462C340.419 72.463 340.366 72.4461 340.322 72.4141C340.276 72.3753 340.247 72.3201 340.24 72.26C340.234 72.2 340.251 72.1398 340.288 72.0921C345.35 65.7564 358.857 65.1536 364.131 68.3797C364.157 68.3955 364.179 68.4161 364.197 68.4405C364.214 68.4648 364.227 68.4924 364.234 68.5217C364.241 68.5509 364.242 68.5813 364.237 68.611C364.233 68.6407 364.222 68.6692 364.206 68.6948C364.191 68.7204 364.17 68.7427 364.146 68.7604C364.121 68.778 364.094 68.7907 364.064 68.7977C364.035 68.8047 364.005 68.8059 363.975 68.8012C363.945 68.7964 363.917 68.7859 363.891 68.7701C358.871 65.7016 345.487 66.3249 340.651 72.3798C340.629 72.4053 340.602 72.4258 340.571 72.4399C340.54 72.4541 340.507 72.4616 340.473 72.462Z" fill="#263238"/>
<path d="M342.328 90.0505C342.324 90.4051 342.425 90.7529 342.618 91.0507C342.81 91.3485 343.086 91.5831 343.411 91.7253C343.736 91.8675 344.095 91.9111 344.445 91.8506C344.794 91.79 345.118 91.6281 345.376 91.3849C345.634 91.1417 345.815 90.828 345.896 90.4828C345.977 90.1376 345.955 89.7761 345.833 89.4434C345.71 89.1107 345.492 88.8213 345.206 88.6114C344.921 88.4015 344.579 88.2803 344.225 88.2628C343.983 88.2546 343.742 88.2944 343.515 88.38C343.288 88.4655 343.081 88.5952 342.904 88.7614C342.728 88.9276 342.586 89.127 342.487 89.3483C342.388 89.5696 342.334 89.8082 342.328 90.0505Z" fill="#263238"/>
<path d="M329.253 89.0714C329.236 89.3059 329.266 89.5414 329.341 89.7644C329.416 89.9873 329.534 90.1932 329.688 90.3702C329.843 90.5473 330.031 90.6919 330.242 90.7958C330.453 90.8997 330.683 90.9608 330.917 90.9756C331.156 90.9991 331.397 90.9714 331.624 90.8942C331.852 90.8171 332.06 90.6923 332.235 90.5282C332.41 90.3642 332.548 90.1646 332.64 89.9429C332.731 89.7212 332.775 89.4824 332.767 89.2426C332.787 89.0066 332.76 88.7688 332.687 88.5435C332.614 88.3182 332.496 88.11 332.34 87.9314C332.184 87.7529 331.994 87.6076 331.781 87.5042C331.567 87.4009 331.335 87.3417 331.099 87.3302C330.862 87.3187 330.626 87.355 330.403 87.4371C330.181 87.5192 329.978 87.6453 329.805 87.8079C329.633 87.9705 329.495 88.1662 329.4 88.3833C329.305 88.6004 329.255 88.8345 329.253 89.0714Z" fill="#263238"/>
<path d="M338.186 86.2344L337.384 98.5291L330.994 95.8305L338.186 86.2344Z" fill="#C68C46"/>
<path d="M348.479 85.3746L344.945 82.1211C344.517 82.6103 344.294 83.2462 344.323 83.896C344.352 84.5457 344.632 85.1589 345.103 85.6075C345.337 85.8204 345.611 85.9837 345.91 86.0877C346.209 86.1916 346.525 86.234 346.841 86.2122C347.156 86.1904 347.464 86.105 347.746 85.9611C348.027 85.8171 348.277 85.6176 348.479 85.3746Z" fill="#263238"/>
<path d="M331.925 81.4531L328.11 84.4326C328.291 84.6905 328.523 84.9087 328.792 85.0738C329.061 85.2389 329.361 85.3476 329.673 85.3931C329.985 85.4386 330.303 85.42 330.608 85.3385C330.913 85.257 331.197 85.1142 331.445 84.919C331.954 84.5126 332.287 83.9266 332.376 83.2817C332.466 82.6368 332.304 81.9823 331.925 81.4531Z" fill="#263238"/>
<path d="M362.391 98.0007C360.754 97.6172 359.494 99.1035 359.494 99.1035C359.494 99.1035 358.213 98.2747 357.439 99.1035C356.938 99.6304 356.59 100.284 356.432 100.994C356.432 100.994 355.103 100.062 354.199 101.124C353.643 101.793 353.237 102.573 353.007 103.412C353.007 103.412 351.822 102.96 350.802 104.508C350.069 105.624 348.699 107.364 346.953 108.097C345.384 108.782 346.144 109.748 347.863 110.2C349.583 110.652 363.104 98.7816 363.104 98.7816L362.391 98.0007Z" fill="#EFB46E"/>
<path d="M377.247 160.234C376.617 160.851 363.582 154.179 362.637 145.994C366.096 145.179 377.877 153.289 377.247 160.234Z" fill="#263238"/>
<path d="M374.844 115.285C384.96 119.032 387.433 127.183 386.488 135.566C385.762 141.799 381.912 148.382 374.001 161.313C366.09 174.245 359.535 170.005 359.535 170.005L357.371 160.416L368.748 132.142C368.748 132.142 369.337 119.73 374.844 115.285Z" fill="#EFB46E"/>
<path d="M363.761 144.442L365.425 140.25C365.425 140.25 371.453 151.593 368.61 158.983L363.761 144.442Z" fill="#EFB46E"/>
<path d="M374.719 114.465C382.939 117.369 385.932 120.739 387.199 127.958C388.055 132.842 387.405 136.349 385.226 143.102C382.973 150.116 377.096 160.226 377.096 160.226C377.014 156.157 369.226 146.938 362.493 145.986C362.493 145.986 366.363 134.253 367.521 131.054C368.678 127.856 371.185 118.259 374.719 114.465Z" fill="#263238"/>
<path d="M348.384 122.391C347.254 119.254 346.329 116.555 346.719 114.856C347.233 112.562 348.349 112.158 348.349 112.158C347.916 112.089 347.5 111.938 347.123 111.712C346.928 111.597 346.764 111.435 346.644 111.242C346.525 111.049 346.454 110.829 346.438 110.603C346.391 110 347.658 109.623 348.165 109.281C349.836 108.151 350.397 107.343 351.589 105.801C351.754 105.554 351.968 105.343 352.218 105.182C352.468 105.021 352.748 104.912 353.041 104.863C353.411 103.733 353.808 102.705 354.576 102.329C354.838 102.197 355.126 102.122 355.419 102.106C355.713 102.091 356.006 102.136 356.281 102.24C356.511 101.467 357.012 100.803 357.692 100.37C358.258 100.148 358.887 100.148 359.452 100.37C359.827 99.8499 360.256 99.3722 360.733 98.9451C361.193 98.6471 361.734 98.4977 362.281 98.5173C362.829 98.5369 363.357 98.7245 363.795 99.0547C364.98 99.8697 365.398 101.11 365.953 102.363C366.44 103.469 366.832 104.615 367.124 105.788C367.418 106.88 367.647 107.99 367.809 109.11C367.928 109.753 367.902 110.416 367.733 111.048C367.227 112.418 359.863 120.11 359.863 120.11C360.5 124.624 365.583 144.145 367.768 150.83C369.822 157.2 367.905 167.631 364.884 169.323C361.863 171.015 357.904 171.31 352.925 163.96C347.418 155.802 351.178 130.144 348.384 122.391Z" fill="#EFB46E"/>
<path d="M359.507 170.004C357.596 169.319 355.465 167.627 353.095 164.188C354.185 163.949 355.294 163.771 356.376 163.64C358.226 163.408 359.801 162.586 361.589 162.051C361.628 162.025 361.674 162.009 361.722 162.006C361.769 162.003 361.817 162.012 361.86 162.033C361.903 162.054 361.939 162.085 361.966 162.124C361.993 162.164 362.01 162.209 362.013 162.257C362.145 162.689 362.179 163.145 362.111 163.592C362.043 164.039 361.877 164.465 361.623 164.839C361.184 165.404 360.648 165.886 360.041 166.264C359.849 166.394 359.52 166.531 358.822 166.949C358.527 167.127 358.294 167.339 358.349 167.593C358.513 168.38 361.137 168.373 361.623 168.373C363.226 168.351 364.815 168.081 366.335 167.572C366.706 167.466 367.062 167.317 367.397 167.127C367.721 166.92 368.013 166.668 368.267 166.38C368.624 166.016 368.96 165.632 369.274 165.229C369.991 164.162 370.815 163.171 371.733 162.271C372.369 161.714 373.16 161.368 374 161.277V161.325C366.075 174.202 359.507 170.004 359.507 170.004Z" fill="#EFB46E"/>
<path d="M348.199 112.003C348.904 112.131 349.628 112.119 350.329 111.968C350.813 111.915 351.281 111.761 351.703 111.515C352.124 111.27 352.489 110.939 352.774 110.544C352.774 110.544 352.884 107.598 353.192 107.838C353.5 108.078 353.418 110.366 353.418 110.366C353.867 110.125 354.267 109.802 354.596 109.413C355.219 109.804 354.377 110.489 353.507 111.037C353.005 111.407 352.471 111.733 351.911 112.009C351.018 112.349 350.072 112.53 349.117 112.544C348.819 112.515 348.519 112.555 348.239 112.659C347.959 112.763 347.706 112.93 347.5 113.146C347.808 112.715 348.199 112.003 348.199 112.003Z" fill="#B16668"/>
<path d="M352.562 104.96C352.671 104.96 352.781 105.07 352.884 105.049C353.843 104.892 354.877 105.213 356.254 106.097C357.43 106.987 358.459 108.057 359.302 109.268C359.302 109.268 359.076 107.898 357.247 106.255C355.418 104.611 353.582 104.309 352.562 104.96Z" fill="#B16668"/>
<path d="M356.226 102.051L356.267 102.393C359.582 103.503 361.254 105.763 362.432 107.489C362.432 107.489 362.336 105.969 359.904 103.88C358.856 102.964 357.589 102.334 356.226 102.051Z" fill="#B16668"/>
<path d="M359.932 99.7891C360.528 99.9466 361.357 100.693 362.35 101.803C363.393 102.956 364.219 104.288 364.788 105.734C364.144 104.693 361.918 101.344 359.233 100.44C359.542 100.323 359.793 100.089 359.932 99.7891Z" fill="#B16668"/>
<path d="M362.391 117.371C360.532 119.095 358.17 120.18 355.651 120.467C357.072 120.676 358.522 120.568 359.897 120.152L362.391 117.371Z" fill="#B16668"/>
<path d="M349.774 148.379C349.657 145.29 349.63 142.215 349.623 139.105C349.616 135.996 349.623 132.941 349.52 129.817C349.469 128.268 349.339 126.723 349.13 125.187C349.026 124.416 348.863 123.653 348.643 122.906C348.431 122.153 348.137 121.441 347.897 120.708C347.356 119.265 346.977 117.768 346.767 116.242C346.699 115.485 346.809 114.722 347.089 114.016C347.297 113.301 347.756 112.685 348.383 112.283C348.412 112.268 348.434 112.243 348.444 112.212C348.455 112.181 348.452 112.148 348.438 112.118C348.42 112.091 348.393 112.069 348.363 112.057C347.9 111.992 347.461 111.815 347.082 111.543C346.906 111.405 346.765 111.226 346.671 111.023C346.623 110.931 346.595 110.832 346.586 110.729C346.578 110.627 346.591 110.524 346.623 110.427C346.932 110.091 347.317 109.835 347.746 109.68C348.187 109.456 348.603 109.185 348.986 108.872C349.759 108.268 350.45 107.566 351.041 106.783C351.342 106.413 351.637 106.009 351.945 105.659C352.226 105.306 352.634 105.077 353.082 105.022C353.111 105.022 353.139 105.013 353.163 104.996C353.186 104.978 353.203 104.954 353.212 104.927C353.412 104.171 353.754 103.459 354.219 102.831C354.473 102.56 354.806 102.378 355.171 102.31C355.54 102.244 355.92 102.275 356.274 102.399C356.293 102.406 356.313 102.408 356.332 102.407C356.352 102.405 356.372 102.4 356.39 102.391C356.407 102.382 356.423 102.37 356.436 102.355C356.449 102.34 356.459 102.322 356.465 102.303C356.655 101.658 357.037 101.087 357.561 100.666C357.84 100.498 358.155 100.398 358.481 100.375C358.806 100.353 359.132 100.408 359.431 100.536C359.462 100.546 359.496 100.547 359.527 100.538C359.559 100.53 359.587 100.512 359.609 100.488C360.013 99.8703 360.532 99.3355 361.137 98.9127C361.46 98.7663 361.81 98.6905 362.164 98.6905C362.519 98.6905 362.869 98.7663 363.192 98.9127C363.877 99.2035 364.457 99.6956 364.856 100.324C365.242 100.969 365.574 101.645 365.849 102.344C366.445 103.727 366.904 105.166 367.219 106.639C367.39 107.372 367.541 108.118 367.651 108.865C367.715 109.234 367.751 109.607 367.76 109.981C367.793 110.34 367.754 110.701 367.644 111.043C367.421 111.479 367.15 111.888 366.836 112.262C366.527 112.653 366.205 113.043 365.883 113.42C365.24 114.187 364.575 114.934 363.904 115.68C362.561 117.164 361.192 118.635 359.794 120.091C359.788 120.101 359.784 120.113 359.784 120.125C359.784 120.138 359.788 120.15 359.794 120.16C360.013 121.612 360.342 123.043 360.671 124.468C361 125.893 361.356 127.317 361.719 128.735L363.918 137.249L361.822 128.715L360.822 124.434C360.5 123.009 360.178 121.578 359.966 120.132V120.208C361.335 118.756 362.705 117.297 364.075 115.81C364.76 115.071 365.445 114.317 366.068 113.557C366.397 113.173 366.719 112.79 367.027 112.392C367.358 112.002 367.643 111.574 367.877 111.118C368.018 110.745 368.072 110.345 368.034 109.947C368.019 109.564 367.982 109.182 367.925 108.803C367.815 108.05 367.671 107.303 367.5 106.557C367.173 105.067 366.703 103.613 366.096 102.214C365.813 101.505 365.476 100.818 365.089 100.159C364.679 99.4853 364.075 98.9506 363.356 98.625C362.992 98.4577 362.596 98.3711 362.195 98.3711C361.794 98.3711 361.398 98.4577 361.034 98.625C360.689 98.8213 360.382 99.079 360.13 99.3853C359.871 99.668 359.629 99.9653 359.404 100.276L359.575 100.228C359.228 100.093 358.858 100.03 358.486 100.043C358.105 100.05 357.734 100.166 357.418 100.379C357.114 100.595 356.86 100.872 356.671 101.194C356.475 101.499 356.318 101.828 356.205 102.173L356.397 102.077C355.992 101.939 355.558 101.906 355.137 101.981C354.711 102.064 354.323 102.28 354.027 102.598C353.536 103.258 353.178 104.007 352.972 104.803L353.102 104.701C352.58 104.765 352.102 105.027 351.767 105.433C351.431 105.817 351.157 106.201 350.856 106.577C350.278 107.346 349.603 108.036 348.849 108.632C348.483 108.934 348.086 109.195 347.664 109.413C347.445 109.516 347.226 109.625 346.979 109.749C346.743 109.872 346.543 110.054 346.397 110.276C346.326 110.538 346.338 110.816 346.431 111.071C346.524 111.326 346.694 111.546 346.917 111.701C347.325 111.99 347.794 112.182 348.287 112.262V112.029C347.589 112.452 347.076 113.122 346.849 113.906C346.714 114.278 346.613 114.66 346.547 115.05C346.503 115.444 346.503 115.841 346.547 116.235C346.763 117.778 347.151 119.292 347.705 120.749C347.945 121.482 348.246 122.201 348.458 122.934C348.676 123.672 348.838 124.425 348.945 125.187C349.171 126.715 349.274 128.256 349.349 129.797C349.472 132.886 349.479 135.961 349.52 139.078C349.561 142.194 349.623 145.29 349.774 148.379Z" fill="#B16668"/>
<path d="M339.945 178.593C342.075 179.394 344.788 181.141 347.637 181.915C350.63 182.672 353.717 182.991 356.802 182.86C358.421 182.839 360.038 182.724 361.644 182.518C363.329 182.292 364.754 181.408 366.274 180.668C367.795 179.929 369.411 179.059 369.98 177.483C370.281 176.661 370.247 175.723 370.706 174.976C370.987 174.517 371.425 174.182 371.74 173.75C372.189 173.001 372.452 172.156 372.507 171.285C372.646 170.351 372.875 169.434 373.192 168.545C373.872 166.583 374.679 164.668 375.61 162.812C375.653 162.75 375.671 162.674 375.658 162.599C375.622 162.526 375.558 162.469 375.48 162.442C374.869 162.236 374.214 162.201 373.585 162.341C372.956 162.481 372.377 162.791 371.912 163.236C370.992 164.138 370.168 165.131 369.453 166.202C369.137 166.599 368.802 166.983 368.446 167.353C368.19 167.637 367.897 167.886 367.576 168.093C367.242 168.284 366.885 168.434 366.514 168.538C364.993 169.045 363.404 169.317 361.802 169.346C361.315 169.346 358.692 169.346 358.521 168.565C358.466 168.305 358.706 168.093 359 167.921C359.685 167.517 360.028 167.373 360.213 167.237C360.825 166.861 361.364 166.375 361.802 165.805C362.055 165.431 362.222 165.005 362.29 164.558C362.357 164.111 362.324 163.655 362.192 163.223C362.172 163.142 362.127 163.07 362.062 163.017C362.016 162.997 361.965 162.987 361.915 162.987C361.864 162.987 361.814 162.997 361.767 163.017C360 163.551 358.404 164.387 356.555 164.606C354.735 164.8 352.939 165.171 351.192 165.716C349.993 166.2 348.77 166.623 347.527 166.983C346.799 167.156 346.043 167.181 345.305 167.055C344.567 166.929 343.863 166.655 343.233 166.25C340.205 164.579 333.561 159.25 330.013 156.729L316.595 148.832C316.595 148.832 315.664 151.572 314.739 154.853C312.965 161.161 313.171 162.387 315.986 165.072C320.684 169.565 329.65 174.716 339.945 178.593Z" fill="#EFB46E"/>
<path d="M375.515 162.46C375.142 162.306 374.743 162.227 374.34 162.227C373.937 162.227 373.538 162.306 373.165 162.46C372.416 162.76 371.745 163.229 371.206 163.83C370.658 164.426 370.199 165.091 369.72 165.727C369.487 166.049 369.22 166.344 368.953 166.645C368.686 166.947 368.439 167.255 368.145 167.522C367.563 168.04 366.854 168.392 366.09 168.543C365.326 168.766 364.548 168.935 363.761 169.049C362.974 169.165 362.179 169.208 361.384 169.18C360.603 169.186 359.826 169.065 359.083 168.823C358.72 168.673 358.596 168.399 358.918 168.138C359.24 167.878 359.603 167.741 359.946 167.543C360.302 167.347 360.639 167.117 360.953 166.858C361.283 166.614 361.58 166.329 361.836 166.008C362.093 165.678 362.281 165.301 362.39 164.897C362.5 164.494 362.528 164.073 362.473 163.659C362.449 163.448 362.398 163.241 362.323 163.043C362.295 162.975 362.247 162.919 362.186 162.881C362.124 162.842 362.052 162.825 361.98 162.83C361.872 162.842 361.766 162.867 361.665 162.906C361.281 163.029 360.905 163.166 360.528 163.303C359.775 163.584 359.028 163.878 358.268 164.111C357.505 164.336 356.723 164.49 355.932 164.57C354.342 164.792 352.776 165.161 351.254 165.673C352.787 165.209 354.36 164.89 355.953 164.721C356.754 164.646 357.547 164.499 358.323 164.282C359.097 164.049 359.843 163.762 360.597 163.495C360.973 163.358 361.35 163.227 361.734 163.118C361.816 163.082 361.904 163.058 361.994 163.049C362.062 163.049 362.083 163.049 362.124 163.138C362.184 163.316 362.226 163.5 362.247 163.686C362.295 164.07 362.266 164.459 362.162 164.83C362.057 165.202 361.879 165.549 361.638 165.851C361.389 166.152 361.103 166.421 360.788 166.652C360.477 166.899 360.142 167.115 359.788 167.296C359.429 167.479 359.079 167.68 358.74 167.899C358.644 167.971 358.562 168.062 358.501 168.166C358.466 168.225 358.443 168.291 358.435 168.36C358.427 168.428 358.433 168.497 358.453 168.563C358.494 168.679 358.561 168.783 358.649 168.869C358.737 168.954 358.843 169.018 358.96 169.056C359.741 169.315 360.561 169.436 361.384 169.412C362.191 169.434 362.998 169.384 363.795 169.262C364.592 169.134 365.379 168.953 366.151 168.721C366.543 168.614 366.928 168.481 367.302 168.323C367.68 168.161 368.024 167.929 368.316 167.638C368.61 167.358 368.857 167.043 369.124 166.741C369.391 166.44 369.652 166.132 369.884 165.803C370.364 165.159 370.816 164.501 371.343 163.906C371.849 163.289 372.492 162.799 373.22 162.474C373.954 162.169 374.777 162.164 375.515 162.46Z" fill="#B16668"/>
<path d="M330.507 157.092C328.123 155.27 323.144 153.448 319.548 154.393C321.603 152.194 327.911 153.537 330.507 154.955V157.092Z" fill="#EFB46E"/>
<path d="M351.131 246.967C350.989 247.828 351.095 248.711 351.436 249.515C351.776 250.318 352.337 251.009 353.054 251.506C353.771 252.004 354.614 252.288 355.486 252.326C356.358 252.364 357.223 252.154 357.98 251.72L416.954 217.672C418.459 216.805 419.661 215.496 420.396 213.922C421.131 212.349 421.364 210.587 421.064 208.877L408.522 179.246H416.057L436.509 238.049C436.599 238.323 436.605 238.617 436.525 238.894C436.446 239.172 436.285 239.418 436.064 239.603C435.842 239.788 435.57 239.901 435.283 239.93C434.996 239.958 434.707 239.899 434.454 239.761C434.186 239.603 433.974 239.363 433.851 239.076L428.269 225.877C427.234 224.742 425.842 223.996 424.324 223.763C422.806 223.53 421.254 223.824 419.927 224.596L354.364 262.453C352.327 263.648 350.575 265.273 349.23 267.214C347.885 269.155 346.979 271.366 346.576 273.693L351.131 246.967Z" fill="#00B5CE"/>
<path opacity="0.2" d="M351.131 246.967C350.989 247.828 351.095 248.711 351.436 249.515C351.776 250.318 352.337 251.009 353.054 251.506C353.771 252.004 354.614 252.288 355.486 252.326C356.358 252.364 357.223 252.154 357.98 251.72L416.954 217.672C418.459 216.805 419.661 215.496 420.396 213.922C421.131 212.349 421.364 210.587 421.064 208.877L408.522 179.246H416.057L436.509 238.049C436.599 238.323 436.605 238.617 436.525 238.894C436.446 239.172 436.285 239.418 436.064 239.603C435.842 239.788 435.57 239.901 435.283 239.93C434.996 239.958 434.707 239.899 434.454 239.761C434.186 239.603 433.974 239.363 433.851 239.076L428.269 225.877C427.234 224.742 425.842 223.996 424.324 223.763C422.806 223.53 421.254 223.824 419.927 224.596L354.364 262.453C352.327 263.648 350.575 265.273 349.23 267.214C347.885 269.155 346.979 271.366 346.576 273.693L351.131 246.967Z" fill="white"/>
<path d="M340.103 256.707C340.541 257.011 341.054 257.189 341.586 257.222C342.118 257.255 342.649 257.142 343.122 256.895C343.594 256.648 343.99 256.277 344.267 255.821C344.544 255.366 344.691 254.843 344.692 254.31L345.007 251.057L344.918 252.022L347.802 222.111C348.018 219.518 348.763 216.996 349.99 214.701C351.218 212.407 352.902 210.387 354.939 208.768L412.714 162.877L413.858 156.527C415.852 158.109 417.438 160.144 418.484 162.464C419.53 164.783 420.006 167.319 419.872 169.861C419.738 172.402 418.998 174.874 417.713 177.07C416.429 179.267 414.637 181.124 412.488 182.487L363.172 213.645C360.907 215.077 358.97 216.971 357.486 219.203C356.002 221.435 355.006 223.954 354.562 226.597L343.254 293.345C343.216 293.652 343.057 293.931 342.813 294.122C342.692 294.216 342.554 294.285 342.406 294.326C342.259 294.367 342.104 294.378 341.952 294.359C341.8 294.34 341.654 294.291 341.52 294.216C341.387 294.14 341.27 294.039 341.176 293.918C341.082 293.797 341.012 293.659 340.972 293.511C340.931 293.364 340.92 293.209 340.939 293.057L342.576 276.085C342.993 271.043 341.206 265.968 336.822 263.44" fill="#00B5CE"/>
<path opacity="0.1" d="M340.103 256.707C340.541 257.011 341.054 257.189 341.586 257.222C342.118 257.255 342.649 257.142 343.122 256.895C343.594 256.648 343.99 256.277 344.267 255.821C344.544 255.366 344.691 254.843 344.692 254.31L345.007 251.057L344.918 252.022L347.802 222.111C348.018 219.518 348.763 216.996 349.99 214.701C351.218 212.407 352.902 210.387 354.939 208.768L412.714 162.877L413.858 156.527C415.852 158.109 417.438 160.144 418.484 162.464C419.53 164.783 420.006 167.319 419.872 169.861C419.738 172.402 418.998 174.874 417.713 177.07C416.429 179.267 414.637 181.124 412.488 182.487L363.172 213.645C360.907 215.077 358.97 216.971 357.486 219.203C356.002 221.435 355.006 223.954 354.562 226.597L343.254 293.345C343.216 293.652 343.057 293.931 342.813 294.122C342.692 294.216 342.554 294.285 342.406 294.326C342.259 294.367 342.104 294.378 341.952 294.359C341.8 294.34 341.654 294.291 341.52 294.216C341.387 294.14 341.27 294.039 341.176 293.918C341.082 293.797 341.012 293.659 340.972 293.511C340.931 293.364 340.92 293.209 340.939 293.057L342.576 276.085C342.993 271.043 341.206 265.968 336.822 263.44" fill="black"/>
</svg>
