<svg width="113" height="24" viewBox="0 0 113 24" fill="none" xmlns="http://www.w3.org/2000/svg">
<g clip-path="url(#clip0_405_27632)">
<path d="M39.7103 13.822L39.0398 15.7197H38.9839C38.8721 15.2918 38.6672 14.6406 38.332 13.8592L34.7372 4.83596H31.2169V19.2174H33.5451V10.3429C33.5451 9.78479 33.5451 9.15223 33.5265 8.37084C33.5079 7.98014 33.4706 7.68247 33.452 7.45921H33.5079C33.6196 8.01735 33.75 8.42665 33.8432 8.68712L38.1644 19.1801H39.8034L44.0874 8.5941C44.1805 8.35223 44.2736 7.86851 44.3668 7.45921H44.4226C44.3668 8.51968 44.3295 9.46851 44.3109 10.0453V19.1615H46.7881V4.79875H43.3982L39.7103 13.822ZM49.135 8.85456H51.5563V19.1615H49.135V8.85456ZM50.3643 4.50107C49.9545 4.50107 49.6192 4.64991 49.3398 4.91037C49.0605 5.17084 48.9115 5.50572 48.9115 5.91503C48.9115 6.30572 49.0605 6.64061 49.3398 6.90107C49.6192 7.16154 49.9545 7.29177 50.3643 7.29177C50.774 7.29177 51.1279 7.14293 51.3887 6.90107C51.6681 6.64061 51.8171 6.30572 51.8171 5.91503C51.8171 5.52433 51.6681 5.18944 51.3887 4.91037C51.1466 4.64991 50.7927 4.50107 50.3643 4.50107ZM60.1428 8.76154C59.6958 8.66851 59.2302 8.6127 58.7831 8.6127C57.6842 8.6127 56.6784 8.85456 55.8403 9.33828C55.0021 9.822 54.3316 10.4918 53.9032 11.329C53.4562 12.1848 53.2326 13.1708 53.2326 14.3057C53.2326 15.2918 53.4562 16.1662 53.8845 16.9662C54.3129 17.7476 54.909 18.3801 55.7099 18.808C56.4735 19.236 57.3676 19.4592 58.3734 19.4592C59.5282 19.4592 60.5153 19.2174 61.2976 18.7708L61.3163 18.7522V16.5197L61.2231 16.5941C60.8692 16.8546 60.4595 17.0778 60.0497 17.208C59.6213 17.3569 59.2302 17.4313 58.8949 17.4313C57.9264 17.4313 57.1627 17.1522 56.6225 16.5383C56.0638 15.9429 55.7844 15.1243 55.7844 14.1011C55.7844 13.0406 56.0638 12.2034 56.6412 11.5894C57.2186 10.9755 57.9822 10.6592 58.9135 10.6592C59.6958 10.6592 60.4967 10.9197 61.2231 11.4406L61.3163 11.515V9.15223L61.2976 9.13363C60.981 9.0034 60.6271 8.85456 60.1428 8.76154ZM68.1333 8.68712C67.5373 8.68712 66.9785 8.87316 66.4942 9.26386C66.0845 9.59875 65.8051 10.0825 65.5629 10.6592H65.5443V8.85456H63.123V19.1615H65.5443V13.8964C65.5443 13.0034 65.7306 12.2592 66.1403 11.7197C66.5501 11.1615 67.0716 10.8825 67.7049 10.8825C67.9284 10.8825 68.1519 10.9383 68.4313 10.9755C68.6921 11.0499 68.8783 11.1243 69.0087 11.2174L69.1018 11.2918V8.87317L69.046 8.85456C68.8783 8.74293 68.5431 8.68712 68.1333 8.68712ZM74.7269 8.6313C73.0319 8.6313 71.6722 9.13363 70.7223 10.1197C69.7538 11.1057 69.2881 12.4639 69.2881 14.1755C69.2881 15.7755 69.7724 17.0778 70.7037 18.0267C71.635 18.9569 72.9015 19.4406 74.4847 19.4406C76.1424 19.4406 77.4648 18.9383 78.4148 17.9336C79.3833 16.929 79.849 15.5894 79.849 13.9336C79.849 12.2964 79.4019 10.9941 78.4893 10.0453C77.6139 9.09642 76.3287 8.6313 74.7269 8.6313ZM76.6639 16.5569C76.2169 17.1336 75.5091 17.4127 74.6337 17.4127C73.7583 17.4127 73.0505 17.1336 72.5476 16.5197C72.0447 15.9429 71.8026 15.1057 71.8026 14.0453C71.8026 12.9476 72.0634 12.1104 72.5476 11.515C73.0505 10.9197 73.7397 10.622 74.6151 10.622C75.4719 10.622 76.1424 10.9011 76.6267 11.4778C77.111 12.0546 77.3717 12.8918 77.3717 13.9894C77.3345 15.1057 77.1296 15.9801 76.6639 16.5569ZM85.2504 13.1336C84.4868 12.8174 84.0025 12.5755 83.779 12.3708C83.5927 12.1848 83.4996 11.9243 83.4996 11.5894C83.4996 11.3104 83.6114 11.0313 83.8908 10.8453C84.1701 10.6592 84.4868 10.5662 84.9524 10.5662C85.3622 10.5662 85.7906 10.6406 86.2004 10.7522C86.6101 10.8639 86.9826 11.0313 87.2807 11.2546L87.3738 11.329V9.05921L87.3179 9.04061C87.0385 8.92898 86.666 8.81735 86.219 8.72433C85.772 8.64991 85.3622 8.6127 85.0269 8.6127C83.8721 8.6127 82.9222 8.89177 82.1772 9.50572C81.4322 10.0825 81.0783 10.8639 81.0783 11.7755C81.0783 12.2592 81.1528 12.6871 81.3204 13.0406C81.488 13.3941 81.7302 13.729 82.0654 14.008C82.4007 14.2685 82.885 14.5662 83.5555 14.8453C84.1143 15.0871 84.5427 15.2732 84.8034 15.422C85.0642 15.5708 85.2318 15.7383 85.3622 15.8685C85.4553 16.0174 85.5112 16.2034 85.5112 16.4453C85.5112 17.1336 84.9897 17.4685 83.928 17.4685C83.5182 17.4685 83.0898 17.3941 82.5869 17.2267C82.084 17.0592 81.6184 16.8174 81.2273 16.5383L81.1341 16.4639V18.8267L81.19 18.8453C81.5439 19.0127 81.9723 19.1243 82.4938 19.2546C83.0153 19.3476 83.481 19.422 83.8908 19.422C85.1387 19.422 86.1631 19.1429 86.8895 18.529C87.6345 17.9336 88.0257 17.1708 88.0257 16.1848C88.0257 15.4964 87.8394 14.8825 87.4297 14.4174C86.8895 13.9708 86.219 13.5057 85.2504 13.1336ZM94.4143 8.6313C92.7194 8.6313 91.3597 9.13363 90.4098 10.1197C89.4599 11.1057 88.9756 12.4639 88.9756 14.1755C88.9756 15.7755 89.4599 17.0778 90.3912 18.0267C91.3225 18.9569 92.589 19.4406 94.1722 19.4406C95.8299 19.4406 97.1524 18.9383 98.1023 17.9336C99.0708 16.929 99.5365 15.5894 99.5365 13.9336C99.5365 12.2964 99.0894 10.9941 98.1768 10.0453C97.3013 9.09642 96.0162 8.6313 94.4143 8.6313ZM96.3328 16.5569C95.8858 17.1336 95.178 17.4127 94.3026 17.4127C93.4086 17.4127 92.7194 17.1336 92.2165 16.5197C91.7136 15.9429 91.4715 15.1057 91.4715 14.0453C91.4715 12.9476 91.7322 12.1104 92.2165 11.515C92.7194 10.9197 93.4086 10.622 94.284 10.622C95.1221 10.622 95.8113 10.9011 96.2956 11.4778C96.7798 12.0546 97.0406 12.8918 97.0406 13.9894C97.0406 15.1057 96.7985 15.9801 96.3328 16.5569ZM112.481 10.8453V8.85456H110.041V5.8034L109.967 5.822L107.657 6.51037L107.601 6.52898V8.85456H103.951V7.55223C103.951 6.95689 104.1 6.49177 104.361 6.19409C104.621 5.89642 105.012 5.74758 105.497 5.74758C105.832 5.74758 106.186 5.822 106.577 5.98944L106.67 6.04526V3.94293L106.614 3.92433C106.279 3.8127 105.832 3.73828 105.255 3.73828C104.528 3.73828 103.895 3.90572 103.317 4.18479C102.74 4.50107 102.312 4.92898 101.995 5.50572C101.678 6.06386 101.511 6.69642 101.511 7.422V8.85456H99.8158V10.8267H101.511V19.1615H103.951V10.8453H107.601V16.1476C107.601 18.3243 108.626 19.422 110.675 19.422C111.01 19.422 111.364 19.3662 111.699 19.3104C112.053 19.236 112.314 19.1429 112.463 19.0685L112.481 19.0499V17.0592L112.388 17.1336C112.239 17.2267 112.109 17.3011 111.885 17.3569C111.699 17.4127 111.531 17.4313 111.401 17.4313C110.917 17.4313 110.582 17.3197 110.339 17.0406C110.116 16.7801 110.004 16.3522 110.004 15.7197V10.8453H112.481Z" fill="#737373"/>
<path d="M0 0H11.4176V11.4047H0V0Z" fill="#F25022"/>
<path d="M12.6097 0H24.0274V11.4047H12.6097V0Z" fill="#7FBA00"/>
<path d="M0 12.5977H11.4176V24.0023H0V12.5977Z" fill="#00A4EF"/>
<path d="M12.6097 12.5977H24.0274V24.0023H12.6097V12.5977Z" fill="#FFB900"/>
</g>
<defs>
<clipPath id="clip0_405_27632">
<rect width="112.5" height="24" fill="white"/>
</clipPath>
</defs>
</svg>
