<svg width="137" height="97" viewBox="0 0 137 97" fill="none" xmlns="http://www.w3.org/2000/svg">
<g clip-path="url(#clip0_619_68822)">
<path d="M41.5998 0.835938H95.9998C107.4 0.835938 116.8 10.2359 116.8 21.6359V76.0359C116.8 87.4359 107.4 96.8359 95.9998 96.8359H41.5998C30.1998 96.8359 20.7998 87.4359 20.7998 76.0359V21.6359C20.7998 10.2359 30.1998 0.835938 41.5998 0.835938Z" fill="#FFC303"/>
<path fill-rule="evenodd" clip-rule="evenodd" d="M87.3998 12.8359H76.7998L85.5998 28.2359L66.3998 12.8359H55.7998L65.3998 31.6359L45.3998 12.8359H34.7998L45.3998 36.8359L34.7998 84.8359H45.3998L65.5998 33.4359L55.7998 84.8359H66.3998L85.7998 30.0359L76.9998 84.8359H87.5998L106.8 24.8359L87.3998 12.8359Z" fill="#050038"/>
</g>
<defs>
<clipPath id="clip0_619_68822">
<rect width="96" height="96" fill="white" transform="translate(20.7998 0.835938)"/>
</clipPath>
</defs>
</svg>
