<svg width="61" height="24" viewBox="0 0 61 24" fill="none" xmlns="http://www.w3.org/2000/svg">
<mask id="mask0_1109_34108" style="mask-type:luminance" maskUnits="userSpaceOnUse" x="0" y="0" width="61" height="24">
<path d="M60.1379 0H0V23.8404H60.1379V0Z" fill="white"/>
</mask>
<g mask="url(#mask0_1109_34108)">
<path d="M1.3114 5.37484H5.3747V1.31154C5.3747 0.586483 4.787 0 4.06317 0C3.33812 0 2.75163 0.587719 2.75163 1.31154V2.75053H1.31264C0.58758 2.75053 0.00109863 3.33823 0.00109863 4.06207C0.00109863 4.78712 0.588818 5.3736 1.31264 5.3736L1.3114 5.37484Z" fill="#034EA2"/>
<path d="M7.1228 1.31154V5.37484H11.1861C11.9112 5.37484 12.4976 4.78712 12.4976 4.06331C12.4976 3.33823 11.9099 2.75177 11.1861 2.75177H9.74713V1.31278C9.74589 0.587719 9.15941 0 8.43436 0C7.71053 0 7.1228 0.587719 7.1228 1.31154Z" fill="#ED1C24"/>
<path d="M5.37484 11.1844V7.12109H1.31154C0.586483 7.12109 0 7.70882 0 8.43262C0 9.1577 0.587719 9.74418 1.31154 9.74418H2.75053V11.1832C2.75053 11.9082 3.33823 12.4947 4.06207 12.4947C4.78712 12.4947 5.3736 11.907 5.3736 11.1832L5.37484 11.1844Z" fill="#EB2127"/>
<path d="M9.0332 7.12891L12.682 12.9937H12.7067V7.12891H14.5071V15.8705H12.5843L8.94782 10.018H8.92308V15.8705H7.1228V7.12891H9.0332Z" fill="#034EA2"/>
<path d="M15.409 11.4881C15.4338 11.0798 15.5352 10.7408 15.7146 10.4723C15.894 10.2026 16.123 9.98726 16.4001 9.82395C16.6772 9.66061 16.9891 9.54431 17.3367 9.47504C17.6832 9.40574 18.0321 9.37109 18.3835 9.37109C18.7015 9.37109 19.0244 9.39336 19.3511 9.43791C19.6777 9.48246 19.9759 9.57029 20.2444 9.70147C20.5141 9.83261 20.7344 10.0132 20.9051 10.2459C21.0771 10.4785 21.1625 10.7866 21.1625 11.1701V14.4638C21.1625 14.7497 21.1786 15.0231 21.212 15.2842C21.2441 15.5452 21.3023 15.7407 21.3839 15.8719H19.6208C19.5886 15.7742 19.5614 15.6739 19.5416 15.5725C19.5206 15.471 19.507 15.3658 19.4983 15.2607C19.2212 15.5465 18.8945 15.7469 18.5184 15.8607C18.1422 15.9746 17.7587 16.0327 17.3677 16.0327C17.0658 16.0327 16.7837 15.9956 16.5226 15.9226C16.2615 15.8496 16.0326 15.7345 15.8371 15.5799C15.6416 15.4252 15.4882 15.2285 15.3781 14.9922C15.268 14.7558 15.2123 14.4737 15.2123 14.1471C15.2123 13.7883 15.2754 13.4926 15.4016 13.2599C15.5278 13.0273 15.6911 12.8417 15.8916 12.7031C16.092 12.5646 16.3197 12.4606 16.577 12.3913C16.8344 12.3221 17.093 12.2676 17.3541 12.2255C17.6151 12.1847 17.8725 12.1526 18.1249 12.1278C18.3773 12.1031 18.6025 12.0672 18.798 12.0177C18.9935 11.9682 19.1494 11.8977 19.2632 11.8036C19.3771 11.7096 19.4303 11.5735 19.4228 11.3941C19.4228 11.206 19.3919 11.0575 19.3313 10.9474C19.2707 10.8373 19.189 10.7519 19.0863 10.6901C18.9836 10.6294 18.866 10.5886 18.7312 10.5676C18.5963 10.5478 18.4516 10.5366 18.2969 10.5366C17.9542 10.5366 17.6844 10.6096 17.4889 10.7569C17.2934 10.9041 17.1784 11.1491 17.1462 11.4918H15.4078L15.409 11.4881ZM19.4253 12.7737C19.3523 12.8393 19.2595 12.89 19.1494 12.9271C19.0393 12.9642 18.9205 12.9939 18.7943 13.0187C18.6681 13.0434 18.5357 13.0632 18.3959 13.0793C18.2573 13.0954 18.1187 13.1164 17.9801 13.1399C17.849 13.1647 17.7215 13.1968 17.5941 13.2377C17.4679 13.2785 17.3578 13.3342 17.2637 13.4035C17.1697 13.4727 17.0942 13.5606 17.0373 13.667C16.9804 13.7734 16.9519 13.9083 16.9519 14.0716C16.9519 14.2349 16.9804 14.3574 17.0373 14.4638C17.0942 14.5702 17.1722 14.6531 17.2699 14.715C17.3677 14.7756 17.4815 14.819 17.6127 14.8437C17.7426 14.8684 17.8774 14.8808 18.0172 14.8808C18.36 14.8808 18.6248 14.8239 18.8128 14.7088C19.0009 14.595 19.1395 14.4577 19.2286 14.2993C19.3189 14.1397 19.3734 13.9788 19.3944 13.8155C19.4142 13.6522 19.4253 13.5222 19.4253 13.4233V12.7749V12.7737Z" fill="#034EA2"/>
<path d="M23.9353 9.54185V10.7173H23.96C24.0417 10.5218 24.1518 10.3399 24.2904 10.1729C24.4289 10.0058 24.5886 9.86229 24.768 9.74475C24.9474 9.62599 25.1391 9.5344 25.3433 9.46883C25.5475 9.40326 25.759 9.37109 25.9805 9.37109C26.0943 9.37109 26.2218 9.39211 26.3604 9.43173V11.0476C26.2787 11.0316 26.181 11.0167 26.0659 11.0043C25.9521 10.9919 25.842 10.9858 25.7355 10.9858C25.4175 10.9858 25.1478 11.039 24.9276 11.1454C24.7073 11.2518 24.5292 11.3966 24.3955 11.5797C24.2607 11.7628 24.1654 11.9781 24.1073 12.2231C24.0503 12.4681 24.0219 12.7329 24.0219 13.0187V15.8719H22.2834V9.54185H23.9365H23.9353Z" fill="#034EA2"/>
<path d="M27.2311 11.4881C27.2559 11.0798 27.3573 10.7408 27.5368 10.4723C27.7161 10.2026 27.945 9.98726 28.2223 9.82395C28.4995 9.66061 28.8113 9.54431 29.1588 9.47504C29.5053 9.40574 29.8543 9.37109 30.2057 9.37109C30.5235 9.37109 30.8466 9.39336 31.1732 9.43791C31.4998 9.48246 31.798 9.57029 32.0664 9.70147C32.3362 9.83261 32.5566 10.0132 32.7274 10.2459C32.8993 10.4785 32.9845 10.7866 32.9845 11.1701V14.4638C32.9845 14.7497 33.0008 15.0231 33.0341 15.2842C33.0661 15.5452 33.1244 15.7407 33.206 15.8719H31.443C31.4107 15.7742 31.3837 15.6739 31.3638 15.5725C31.3428 15.471 31.329 15.3658 31.3205 15.2607C31.0433 15.5465 30.7166 15.7469 30.3406 15.8607C29.9644 15.9746 29.5809 16.0327 29.1897 16.0327C28.8879 16.0327 28.6057 15.9956 28.3448 15.9226C28.0835 15.8496 27.8548 15.7345 27.6593 15.5799C27.4638 15.4252 27.3103 15.2285 27.2002 14.9922C27.0901 14.7558 27.0344 14.4737 27.0344 14.1471C27.0344 13.7883 27.0975 13.4926 27.2237 13.2599C27.3499 13.0273 27.5133 12.8417 27.7136 12.7031C27.9141 12.5646 28.1417 12.4606 28.3991 12.3913C28.6565 12.3221 28.9153 12.2676 29.1762 12.2255C29.4372 12.1847 29.6946 12.1526 29.947 12.1278C30.1994 12.1031 30.4248 12.0672 30.6201 12.0177C30.8157 11.9682 30.9715 11.8977 31.0855 11.8036C31.1991 11.7096 31.2524 11.5735 31.2449 11.3941C31.2449 11.206 31.214 11.0575 31.1533 10.9474C31.0929 10.8373 31.0113 10.7519 30.9084 10.6901C30.8057 10.6294 30.6882 10.5886 30.5533 10.5676C30.4184 10.5478 30.2736 10.5366 30.1191 10.5366C29.7762 10.5366 29.5064 10.6096 29.3111 10.7569C29.1155 10.9041 29.0005 11.1491 28.9682 11.4918H27.2299L27.2311 11.4881ZM31.2474 12.7737C31.1746 12.8393 31.0816 12.89 30.9715 12.9271C30.8615 12.9642 30.7426 12.9939 30.6165 13.0187C30.4901 13.0434 30.3577 13.0632 30.2179 13.0793C30.0794 13.0954 29.9409 13.1164 29.8021 13.1399C29.6711 13.1647 29.5437 13.1968 29.4162 13.2377C29.2901 13.2785 29.1798 13.3342 29.086 13.4035C28.9919 13.4727 28.9164 13.5606 28.8595 13.667C28.8024 13.7734 28.774 13.9083 28.774 14.0716C28.774 14.2349 28.8024 14.3574 28.8595 14.4638C28.9164 14.5702 28.9944 14.6531 29.0921 14.715C29.1897 14.7756 29.3037 14.819 29.4347 14.8437C29.5646 14.8684 29.6995 14.8808 29.8394 14.8808C30.182 14.8808 30.4468 14.8239 30.635 14.7088C30.8231 14.595 30.9616 14.4577 31.0507 14.2993C31.1409 14.1397 31.1955 13.9788 31.2165 13.8155C31.2364 13.6522 31.2474 13.5222 31.2474 13.4233V12.7749V12.7737Z" fill="#034EA2"/>
<path d="M36.5702 17.756C36.235 17.9762 35.7696 18.0863 35.1746 18.0863C34.9953 18.0863 34.8171 18.0802 34.6425 18.0678C34.4667 18.0554 34.2899 18.0418 34.1106 18.0245V16.5917C34.2739 16.6078 34.4408 16.6239 34.613 16.6412C34.7848 16.6573 34.9556 16.661 35.1277 16.6535C35.3564 16.6288 35.5261 16.5397 35.6361 16.3838C35.7462 16.2292 35.8019 16.0572 35.8019 15.8691C35.8019 15.7305 35.7771 15.5994 35.7288 15.4769L33.5128 9.53906H35.3614L36.7942 13.8733H36.819L38.2022 9.53906H40.0025L37.3583 16.6523C37.1705 17.167 36.9092 17.5333 36.5752 17.7548L36.5702 17.756Z" fill="#034EA2"/>
<path d="M40.4511 11.4881C40.4759 11.0798 40.5774 10.7408 40.7567 10.4723C40.936 10.2026 41.165 9.98726 41.4423 9.82395C41.7192 9.66061 42.0312 9.54431 42.3788 9.47504C42.7253 9.40574 43.0743 9.37109 43.4257 9.37109C43.7435 9.37109 44.0665 9.39336 44.3932 9.43791C44.7198 9.48246 45.018 9.57029 45.2864 9.70147C45.5562 9.83261 45.7763 10.0132 45.9471 10.2459C46.1192 10.4785 46.2045 10.7866 46.2045 11.1701V14.4638C46.2045 14.7497 46.2207 15.0231 46.2541 15.2842C46.2861 15.5452 46.3443 15.7407 46.426 15.8719H44.6629C44.6307 15.7742 44.6034 15.6739 44.5838 15.5725C44.5625 15.471 44.549 15.3658 44.5405 15.2607C44.2632 15.5465 43.9366 15.7469 43.5603 15.8607C43.1843 15.9746 42.8006 16.0327 42.4097 16.0327C42.1079 16.0327 41.8257 15.9956 41.5647 15.9226C41.3035 15.8496 41.0748 15.7345 40.8792 15.5799C40.6836 15.4252 40.5303 15.2285 40.4202 14.9922C40.3101 14.7558 40.2544 14.4737 40.2544 14.1471C40.2544 13.7883 40.3176 13.4926 40.4436 13.2599C40.57 13.0273 40.7333 12.8417 40.9336 12.7031C41.1341 12.5646 41.3617 12.4606 41.6191 12.3913C41.8765 12.3221 42.1349 12.2676 42.3962 12.2255C42.6572 12.1847 42.9145 12.1526 43.1669 12.1278C43.4194 12.1031 43.6445 12.0672 43.84 12.0177C44.0356 11.9682 44.1915 11.8977 44.3054 11.8036C44.4191 11.7096 44.4723 11.5735 44.4649 11.3941C44.4649 11.206 44.434 11.0575 44.3733 10.9474C44.3126 10.8373 44.2309 10.7519 44.1283 10.6901C44.0257 10.6294 43.9082 10.5886 43.7733 10.5676C43.6384 10.5478 43.4936 10.5366 43.3391 10.5366C42.9962 10.5366 42.7264 10.6096 42.5311 10.7569C42.3355 10.9041 42.2205 11.1491 42.1882 11.4918H40.45L40.4511 11.4881ZM44.4674 12.7737C44.3943 12.8393 44.3016 12.89 44.1915 12.9271C44.0814 12.9642 43.9625 12.9939 43.8365 13.0187C43.7101 13.0434 43.5777 13.0632 43.4378 13.0793C43.2994 13.0954 43.1609 13.1164 43.0221 13.1399C42.8911 13.1647 42.7636 13.1968 42.6362 13.2377C42.5098 13.2785 42.3998 13.3342 42.3057 13.4035C42.2119 13.4727 42.1363 13.5606 42.0795 13.667C42.0224 13.7734 41.994 13.9083 41.994 14.0716C41.994 14.2349 42.0224 14.3574 42.0795 14.4638C42.1363 14.5702 42.2141 14.6531 42.312 14.715C42.4097 14.7756 42.5236 14.819 42.6547 14.8437C42.7846 14.8684 42.9195 14.8808 43.0594 14.8808C43.402 14.8808 43.6668 14.8239 43.8549 14.7088C44.0431 14.595 44.1816 14.4577 44.2707 14.2993C44.3609 14.1397 44.4155 13.9788 44.4365 13.8155C44.4563 13.6522 44.4674 13.5222 44.4674 13.4233V12.7749V12.7737Z" fill="#034EA2"/>
<path d="M48.977 9.53919V10.4201H49.0143C49.2344 10.0527 49.5202 9.78539 49.8716 9.61836C50.2231 9.45133 50.582 9.36719 50.9494 9.36719C51.4145 9.36719 51.7958 9.43031 52.094 9.55651C52.3922 9.68269 52.6259 9.85839 52.798 10.0836C52.9699 10.3075 53.0899 10.581 53.1594 10.9039C53.2286 11.2269 53.2631 11.5832 53.2631 11.9754V15.8692H51.5249V12.2947C51.5249 11.7725 51.4432 11.3827 51.2797 11.1254C51.1163 10.868 50.827 10.7394 50.4099 10.7394C49.9362 10.7394 49.5933 10.8804 49.3817 11.1613C49.169 11.4434 49.0636 11.9061 49.0636 12.5508V15.8692H47.3254V9.53919H48.9784H48.977Z" fill="#034EA2"/>
<path d="M54.1623 11.4881C54.1871 11.0798 54.2886 10.7408 54.4679 10.4723C54.6472 10.2026 54.8762 9.98726 55.1534 9.82395C55.4307 9.66061 55.7435 9.54431 56.09 9.47504C56.4365 9.40574 56.7854 9.37109 57.1369 9.37109C57.4547 9.37109 57.7777 9.39336 58.1043 9.43791C58.431 9.48246 58.7292 9.57029 58.9976 9.70147C59.2674 9.83261 59.4878 10.0132 59.6585 10.2459C59.8304 10.4785 59.9156 10.7866 59.9156 11.1701V14.4638C59.9156 14.7497 59.9319 15.0231 59.9653 15.2842C59.9973 15.5452 60.0555 15.7407 60.1372 15.8719H58.3741C58.3419 15.7742 58.3148 15.6739 58.295 15.5725C58.274 15.471 58.2602 15.3658 58.2516 15.2607C57.9744 15.5465 57.6478 15.7469 57.2718 15.8607C56.8969 15.9746 56.5132 16.0327 56.1209 16.0327C55.8191 16.0327 55.5369 15.9956 55.2759 15.9226C55.0147 15.8496 54.786 15.7345 54.5904 15.5799C54.3948 15.4252 54.2414 15.2285 54.1314 14.9922C54.0213 14.7558 53.9656 14.4737 53.9656 14.1471C53.9656 13.7883 54.0287 13.4926 54.1548 13.2599C54.2812 13.0273 54.4445 12.8417 54.6448 12.7031C54.8453 12.5646 55.0729 12.4606 55.3303 12.3913C55.5876 12.3221 55.8464 12.2676 56.1074 12.2255C56.3683 12.1847 56.6257 12.1526 56.8781 12.1278C57.1305 12.1031 57.3559 12.0672 57.5512 12.0177C57.7468 11.9682 57.9027 11.8977 58.0166 11.8036C58.1303 11.7096 58.1835 11.5735 58.1761 11.3941C58.1761 11.206 58.1452 11.0575 58.0845 10.9474C58.0227 10.8373 57.941 10.7519 57.8395 10.6901C57.7369 10.6294 57.6194 10.5886 57.4845 10.5676C57.3496 10.5478 57.2048 10.5366 57.0503 10.5366C56.7074 10.5366 56.4376 10.6096 56.2423 10.7569C56.0467 10.9041 55.9316 11.1491 55.8994 11.4918H54.1612L54.1623 11.4881ZM58.1785 12.7737C58.1057 12.8393 58.0127 12.89 57.9027 12.9271C57.7926 12.9642 57.6737 12.9939 57.5476 13.0187C57.4213 13.0434 57.2889 13.0632 57.149 13.0793C57.0105 13.0954 56.8721 13.1164 56.7333 13.1399C56.6023 13.1647 56.4748 13.1968 56.3474 13.2377C56.2213 13.2785 56.111 13.3342 56.0172 13.4035C55.9231 13.4727 55.8475 13.5606 55.7907 13.667C55.7336 13.7734 55.7052 13.9083 55.7052 14.0716C55.7052 14.2349 55.7336 14.3574 55.7907 14.4638C55.8475 14.5702 55.9256 14.6531 56.0232 14.715C56.1209 14.7756 56.2348 14.819 56.3659 14.8437C56.4958 14.8684 56.6307 14.8808 56.7705 14.8808C57.1132 14.8808 57.378 14.8239 57.5661 14.7088C57.7543 14.595 57.8928 14.4577 57.9819 14.2993C58.0721 14.1397 58.1267 13.9788 58.1476 13.8155C58.1675 13.6522 58.1785 13.5222 58.1785 13.4233V12.7749V12.7737Z" fill="#034EA2"/>
<path d="M8.27596 18.5V20.5131H10.3992V18.5H11.5523V23.7449H10.3992V21.4819H8.27596V23.7449H7.1228V18.5H8.27596Z" fill="#EB2127"/>
<path d="M13.4256 22.8317C13.5827 22.9838 13.8079 23.0593 14.1011 23.0593C14.3115 23.0593 14.4933 23.0061 14.6443 22.9009C14.7965 22.7958 14.8893 22.6844 14.9239 22.5669H15.842C15.6948 23.0222 15.4696 23.3476 15.1664 23.5443C14.8633 23.7398 14.4958 23.8376 14.064 23.8376C13.7658 23.8376 13.4961 23.7893 13.256 23.6941C13.016 23.5988 12.8131 23.4627 12.6461 23.2857C12.479 23.1088 12.3503 22.8985 12.26 22.6535C12.1697 22.4085 12.1239 22.1388 12.1239 21.8455C12.1239 21.5523 12.1709 21.2974 12.2637 21.0524C12.3565 20.8074 12.4889 20.5958 12.6609 20.4164C12.8329 20.2382 13.037 20.0972 13.2746 19.9945C13.5121 19.8918 13.7757 19.8398 14.064 19.8398C14.3869 19.8398 14.669 19.9017 14.9091 20.0267C15.1491 20.1517 15.3459 20.3199 15.5005 20.5303C15.6552 20.7406 15.7665 20.9806 15.8346 21.2504C15.9026 21.5201 15.9274 21.801 15.9076 22.0955H13.167C13.1818 22.4332 13.2672 22.6782 13.4243 22.8304L13.4256 22.8317ZM14.6047 20.8334C14.4797 20.6961 14.2904 20.628 14.0355 20.628C13.8685 20.628 13.7312 20.6565 13.621 20.7121C13.5109 20.7691 13.4231 20.8384 13.3563 20.9213C13.2907 21.0041 13.2437 21.0932 13.2165 21.186C13.1892 21.2788 13.1731 21.363 13.1682 21.436H14.8658C14.8163 21.1712 14.7297 20.9707 14.6047 20.8334Z" fill="#EB2127"/>
<path d="M16.4851 21.1145C16.5 20.8695 16.5606 20.6666 16.6682 20.5045C16.7759 20.3424 16.9132 20.2137 17.079 20.1147C17.2461 20.017 17.4329 19.9465 17.6408 19.9056C17.8486 19.8636 18.0577 19.8438 18.2693 19.8438C18.4599 19.8438 18.6541 19.8573 18.8496 19.8846C19.0451 19.9118 19.2245 19.9638 19.3854 20.0429C19.5474 20.1209 19.6799 20.2298 19.7825 20.3696C19.8852 20.5094 19.9372 20.6938 19.9372 20.9239V22.8999C19.9372 23.0719 19.9471 23.2352 19.9669 23.3923C19.9867 23.5495 20.0213 23.667 20.0696 23.745H19.0117C18.9919 23.6868 18.9758 23.6262 18.9634 23.5656C18.9511 23.5049 18.9424 23.4418 18.9375 23.3787C18.7704 23.5507 18.5749 23.6695 18.3497 23.7388C18.1245 23.8068 17.8944 23.8415 17.6593 23.8415C17.4787 23.8415 17.3092 23.8192 17.152 23.7759C16.9949 23.7314 16.8588 23.6633 16.7412 23.5705C16.6237 23.4777 16.5321 23.3602 16.4653 23.2179C16.3997 23.0756 16.3663 22.9073 16.3663 22.7106C16.3663 22.4953 16.4047 22.3171 16.4802 22.1785C16.5557 22.0387 16.6534 21.9274 16.7734 21.8445C16.8934 21.7616 17.0308 21.6985 17.1842 21.6576C17.3389 21.6156 17.4935 21.5834 17.6507 21.5586C17.8078 21.5339 17.9612 21.5141 18.1134 21.5005C18.2656 21.4857 18.4005 21.4634 18.518 21.4349C18.6355 21.4052 18.7283 21.3631 18.7976 21.3062C18.8657 21.2506 18.8979 21.1677 18.8929 21.06C18.8929 20.9474 18.8744 20.8583 18.8372 20.7915C18.8001 20.7247 18.7519 20.674 18.69 20.6369C18.6281 20.5997 18.5576 20.5762 18.4772 20.5639C18.3968 20.5515 18.3089 20.5453 18.2161 20.5453C18.0107 20.5453 17.8486 20.5898 17.7311 20.6777C17.6135 20.7655 17.5455 20.9128 17.5257 21.1182H16.4826L16.4851 21.1145ZM18.8941 21.8853C18.8496 21.9249 18.7952 21.9546 18.7283 21.9769C18.6628 21.9991 18.591 22.0177 18.5155 22.0325C18.4401 22.0474 18.3596 22.0598 18.2767 22.0697C18.1938 22.0796 18.1097 22.0919 18.0268 22.1068C17.9488 22.1216 17.8709 22.1414 17.7954 22.1662C17.72 22.1909 17.6531 22.2243 17.5975 22.2652C17.5405 22.3072 17.496 22.3592 17.4614 22.4235C17.4267 22.4866 17.4094 22.5683 17.4094 22.666C17.4094 22.7638 17.4267 22.838 17.4614 22.9011C17.496 22.9655 17.5418 23.0149 17.6012 23.0521C17.6606 23.0892 17.7286 23.1139 17.8066 23.1288C17.8845 23.1436 17.9662 23.1511 18.0491 23.1511C18.2545 23.1511 18.4141 23.1164 18.5267 23.0484C18.6393 22.9803 18.7222 22.8974 18.7766 22.8021C18.8298 22.7069 18.8632 22.6104 18.8756 22.5114C18.888 22.4136 18.8941 22.3345 18.8941 22.2763V21.8865V21.8853Z" fill="#EB2127"/>
<path d="M21.6723 18.5V23.7449H20.6293V18.5H21.6723Z" fill="#EB2127"/>
<path d="M24.6692 19.9482V20.646H23.9058V22.5267C23.9058 22.7036 23.9355 22.8212 23.9936 22.8793C24.0518 22.9375 24.1706 22.9672 24.3463 22.9672C24.4044 22.9672 24.4613 22.9647 24.5158 22.9597C24.569 22.9548 24.6209 22.9474 24.6704 22.9375V23.7454C24.5826 23.7603 24.4848 23.7702 24.3772 23.7751C24.2695 23.7801 24.1644 23.7826 24.0617 23.7826C23.8996 23.7826 23.7474 23.7714 23.6026 23.7491C23.4579 23.7269 23.3304 23.6848 23.2203 23.6205C23.1102 23.5574 23.0236 23.4658 22.9592 23.3483C22.8961 23.2307 22.864 23.076 22.864 22.8855V20.6448H22.2317V19.9469H22.864V18.8086H23.907V19.9469H24.6704L24.6692 19.9482Z" fill="#EB2127"/>
<path d="M26.2706 18.5V20.476H26.2929C26.4253 20.2557 26.5935 20.0949 26.8002 19.9946C27.0056 19.8944 27.206 19.8437 27.4027 19.8437C27.6822 19.8437 27.9112 19.8821 28.0894 19.9575C28.2676 20.033 28.4086 20.1382 28.5115 20.273C28.6141 20.4079 28.6858 20.5713 28.728 20.7655C28.77 20.9585 28.7898 21.1738 28.7898 21.4089V23.7449H27.7468V21.5994C27.7468 21.2864 27.6971 21.0526 27.5995 20.8979C27.5017 20.7432 27.3273 20.6665 27.0773 20.6665C26.7927 20.6665 26.5874 20.7506 26.4599 20.9202C26.3325 21.0897 26.2694 21.3668 26.2694 21.7541V23.7449H25.2263V18.5H26.2694H26.2706Z" fill="#EB2127"/>
</g>
</svg>
