<svg width="455" height="281" viewBox="0 0 455 281" fill="none" xmlns="http://www.w3.org/2000/svg">
<path d="M449.565 1267.97L453.477 1249.85M449.565 1267.97L449.565 1214.26M449.565 1267.97L445.524 1286.69M449.565 1267.97L449.565 1306M453.477 1249.85L453.476 1256.44L453.467 1262.97L453.444 1269.36L453.397 1275.55L453.321 1281.47L453.206 1287.06L453.047 1292.25L452.844 1297.07L452.563 1301.2L452.238 1304.97L452.124 1306L449.565 1306M453.477 1249.85L453.477 1197.01M453.477 1197.01L453.477 1144.17M453.477 1197.01L449.565 1214.26M453.477 1144.17L453.477 1091.33M453.477 1144.17L449.565 1160.56M453.477 1091.33L453.477 1038.49M453.477 1091.33L449.565 1106.86M453.477 1038.49L453.477 985.647M453.477 1038.49L449.565 1053.16M453.477 985.647L453.477 932.807M453.477 985.647L449.565 999.455M453.477 932.807L453.477 879.967M453.477 932.807L449.565 945.752M453.477 879.967L453.477 827.128M453.477 879.967L449.565 892.049M453.477 827.128L453.477 774.287M453.477 827.128L449.565 838.346M453.477 774.287L453.477 721.448M453.477 774.287L449.565 784.643M453.477 721.448L453.477 668.608M453.477 721.448L449.565 730.94M453.477 668.608L453.477 615.769M453.477 668.608L449.565 677.237M453.477 615.769L453.477 562.928M453.477 615.769L452.511 617.686L451.048 620.593L449.565 623.535M453.477 562.928L453.477 510.089M453.477 562.928L452.511 564.633L449.565 569.832M453.477 510.089L453.477 457.249M453.477 510.089L449.565 516.129M453.477 457.249L453.477 404.409M453.477 457.249L452.025 459.17L450.556 461.117L450.061 461.77L449.565 462.427M453.477 404.409L453.477 351.569M453.477 404.409L452.025 406.01L451.538 406.549L451.048 407.09L449.565 408.724M453.477 351.569L453.477 298.73M453.477 351.569L449.565 355.022M453.477 298.73L452.995 299.049L452.511 299.368L450.061 300.99L449.565 301.319M453.477 298.73L453.477 245.89M453.477 245.89L453.477 193.05M453.477 245.89L449.565 247.616M453.477 193.05L453.477 140.21M453.477 193.05L452.025 193.37L449.565 193.913M453.477 140.21L453.477 87.3708M453.477 140.21L449.565 140.21M453.477 87.3708L453.477 34.5301M453.477 87.3708L452.025 87.0503L449.565 86.5074M453.477 34.5301L453.478 -18.3093M453.477 34.5301L449.565 32.8046M453.478 -18.3093L452.995 -18.6286L452.511 -18.948L450.061 -20.5692L449.565 -20.8982M453.478 -18.3093L453.478 -71.1487M453.478 -71.1487L453.478 -123.989M453.478 -71.1487L450.061 -74.1627L449.565 -74.6011M453.478 -123.989L453.478 -176.829M453.478 -123.989L452.025 -125.59L451.538 -126.129L450.556 -127.212L450.061 -127.756L449.565 -128.304M453.478 -176.829L453.478 -229.668M453.478 -176.829L452.025 -178.75L450.556 -180.696L450.061 -181.35L449.565 -182.007M453.478 -229.668L453.478 -282.508M453.478 -229.668L449.565 -235.708M453.478 -282.508L453.478 -335.348M453.478 -282.508L452.511 -284.213L449.565 -289.411M453.478 -335.348L453.478 -388.188M453.478 -335.348L449.565 -343.114M453.478 -388.188L453.478 -441.027M453.478 -388.188L449.565 -396.817M453.478 -441.027L453.478 -493.868M453.478 -441.027L449.565 -450.52M453.478 -493.868L453.478 -546.707M453.478 -493.868L449.565 -504.223M453.478 -546.707L453.478 -599.547M453.478 -546.707L449.565 -557.925M453.478 -599.547L453.478 -652.386M453.478 -599.547L449.565 -611.628M453.478 -652.386L453.478 -705.227M453.478 -652.386L449.565 -665.331M453.478 -705.227L453.478 -758.066M453.478 -705.227L449.565 -719.034M453.478 -758.066L453.478 -810.906M453.478 -758.066L449.565 -772.737M453.478 -810.906L453.478 -863.746M453.478 -810.906L449.565 -826.44M453.478 -863.746L453.478 -916.586M453.478 -863.746L449.565 -880.141M453.478 -916.586L453.478 -969.425M453.478 -916.586L449.565 -933.844M453.478 -969.425L453.476 -976.019L453.468 -982.545L453.444 -988.935L453.397 -995.125L453.321 -1001.05L453.206 -1006.64L453.047 -1011.83L452.844 -1016.65L452.563 -1020.78L452.238 -1024.55L452.124 -1025.58L449.565 -1025.58M453.478 -969.425L449.565 -987.547M449.565 -880.141L449.565 -826.44M449.565 -880.141L449.565 -933.844M449.565 -880.141L445.524 -897.083M449.565 -826.44L445.524 -842.489M449.565 -826.44L449.565 -772.737M449.565 -665.331L449.565 -611.628M449.565 -665.331L449.565 -719.034M449.565 -665.331L448.567 -668.633L445.524 -678.705M449.565 -611.628L445.524 -624.111M449.565 -611.628L449.565 -557.925M449.565 -450.52L449.565 -396.817M449.565 -450.52L449.565 -504.223M449.565 -450.52L448.567 -452.941L448.066 -454.16L445.524 -460.328M449.565 -396.817L449.068 -397.916L448.567 -399.019L445.524 -405.733M449.565 -396.817L449.565 -343.114M449.565 -235.708L449.068 -236.478L445.524 -241.95M449.565 -235.708L449.565 -182.007M449.565 -235.708L449.565 -289.411M449.565 -182.007L448.567 -183.327L448.066 -183.992L447.561 -184.659L445.524 -187.356M449.565 -182.007L449.565 -128.304M449.565 -20.8982L449.565 32.8046M449.565 -20.8982L449.565 -74.6011M449.565 -20.8982L445.524 -23.5722M449.565 32.8046L449.068 32.5848L448.567 32.365L448.066 32.1427L446.547 31.4724L445.524 31.0219M449.565 32.8046L449.565 86.5074M449.565 193.913L449.565 247.616M449.565 193.913L449.565 140.21M449.565 193.913L445.524 194.805M449.565 247.616L449.068 247.836L448.567 248.055L448.066 248.278L445.524 249.399M449.565 247.616L449.565 301.319M449.565 408.724L449.565 462.427M449.565 408.724L449.565 355.022M449.565 408.724L448.567 409.825L446.547 412.054L446.037 412.616L445.524 413.182M449.565 462.427L448.567 463.747L448.066 464.413L447.561 465.079L445.524 467.777M449.565 462.427L449.565 516.129M449.565 623.535L449.565 677.237M449.565 623.535L449.565 569.832M449.565 623.535L448.567 625.516L448.066 626.513L445.524 631.559M449.565 677.237L449.068 678.336L448.567 679.439L445.524 686.153M449.565 677.237L449.565 730.94M449.565 838.346L449.565 892.049M449.565 838.346L449.565 784.643M449.565 838.346L448.567 841.208L448.066 842.648L445.524 849.937M449.565 892.049L445.524 904.531M449.565 892.049L449.565 945.752M449.565 1053.16L449.565 1106.86M449.565 1053.16L449.565 999.455M449.565 1053.16L445.524 1068.31M449.565 1106.86L445.524 1122.91M449.565 1106.86L449.565 1160.56M412.98 -1025.77L412.98 -1025.58M412.98 -971.715L418.144 -951.212M412.98 -971.715L407.62 -993.004M412.98 -971.715L412.98 -909.942M412.98 -971.715L412.98 -1025.58M418.144 -951.212L418.144 -1011.85M418.144 -951.212L423.12 -931.451M418.144 -951.212L418.144 -890.578M418.144 -1011.85L423.12 -990.987M418.144 -1011.85L418.144 -1025.58M418.144 -1011.85L414.868 -1025.58M432.552 -951.457L432.552 -894.001M432.552 -951.457L437.024 -932.71M432.552 -951.457L432.552 -1008.91M432.552 -951.457L427.92 -970.871M432.552 -894.001L437.024 -876.24M432.552 -894.001L427.92 -912.392M432.552 -894.001L432.552 -836.544M437.024 -932.71L437.024 -876.24M437.024 -932.71L441.346 -914.595M437.024 -932.71L437.024 -989.179M437.024 -876.24L437.024 -819.77M437.024 -876.24L441.346 -859.079M331.483 -1026.17L331.483 -1025.58M331.483 -976.326L340.044 -949.887M331.483 -976.326L322.497 -1004.08M331.483 -976.326L331.483 -896.573M331.483 -976.326L331.483 -1025.58M340.044 -949.887L348.208 -924.671M340.044 -949.887L340.044 -872.023M340.044 -949.887L340.044 -1025.58M348.208 -1000.73L348.208 -924.671M348.208 -1000.73L356.003 -974.938M348.208 -1000.73L348.208 -1025.58M348.208 -1000.73L340.7 -1025.58M363.454 -950.284L363.454 -877.585M363.454 -950.284L370.582 -926.696M363.454 -950.284L363.454 -1022.98M363.454 -950.284L356.003 -974.938M363.454 -877.585L370.582 -855.569M363.454 -877.585L356.003 -900.596M363.454 -877.585L363.454 -804.885M370.582 -926.696L370.582 -855.569M370.582 -926.696L370.582 -997.823M370.582 -926.696L377.408 -904.107M370.582 -855.569L377.408 -834.486M370.582 -855.569L370.582 -784.442M390.229 -861.682L390.229 -794.889M390.229 -861.682L396.257 -841.736M390.229 -861.682L390.229 -928.474M390.229 -861.682L383.952 -882.455M390.229 -794.889L396.257 -776.273M390.229 -794.889L383.952 -814.277M390.229 -794.889L390.229 -728.096M396.257 -841.736L396.257 -776.273M396.257 -841.736L396.257 -907.199M396.257 -841.736L402.049 -822.568M396.257 -776.273L402.049 -758.383M396.257 -776.273L396.257 -710.809M412.98 -786.395L412.98 -724.621M412.98 -786.395L418.144 -769.309M412.98 -786.395L412.98 -848.168M412.98 -786.395L407.62 -804.135M412.98 -724.621L418.144 -708.674M412.98 -724.621L407.62 -741.179M412.98 -724.621L412.98 -662.848M418.144 -769.309L418.144 -708.674M418.144 -769.309L418.144 -829.943M418.144 -769.309L423.12 -752.841M418.144 -708.674L423.12 -693.304M418.144 -708.674L418.144 -648.04M432.552 -721.633L432.552 -664.176M432.552 -721.633L437.024 -706.832M432.552 -721.633L432.552 -779.088M432.552 -721.633L427.92 -736.959M432.552 -664.176L437.024 -650.363M432.552 -664.176L427.92 -678.482M432.552 -664.176L432.552 -606.72M437.024 -706.832L437.024 -650.363M437.024 -706.832L441.346 -692.53M437.024 -706.832L437.024 -763.301M437.024 -650.363L437.024 -593.893M437.024 -650.363L441.346 -637.015M183.072 -984.72L199.94 -947.509M183.072 -984.72L165.01 -1024.57M183.072 -984.72L183.072 -872.227M183.072 -984.72L183.072 -1025.58M199.94 -947.509L215.727 -912.68M199.94 -947.509L199.94 -838.738M199.94 -947.509L199.94 -1025.58M244.452 -948.265L244.452 -849.312M244.452 -948.265L257.555 -916.467M244.452 -948.265L230.535 -982.036M244.452 -948.265L244.452 -1025.58M244.452 -849.312L257.555 -820.406M244.452 -849.312L230.535 -880.014M244.452 -849.312L244.452 -750.36M257.555 -916.467L257.555 -820.406M257.555 -916.467L257.555 -1012.53M257.555 -916.467L269.916 -886.473M257.555 -820.406L269.916 -793.138M257.555 -820.406L257.555 -724.343M292.643 -831.321L292.643 -743M292.643 -831.321L303.115 -805.908M292.643 -831.321L292.643 -919.642M292.643 -831.321L281.592 -858.136M292.643 -743L303.115 -719.897M292.643 -743L281.592 -767.378M292.643 -743L292.643 -654.679M303.115 -805.908L303.115 -719.897M303.115 -805.908L303.115 -891.919M303.115 -805.908L313.053 -781.792M303.115 -719.897L313.053 -697.973M303.115 -719.897L303.115 -633.888M331.483 -737.069L331.483 -657.315M331.483 -737.069L340.044 -716.294M331.483 -737.069L331.483 -816.821M331.483 -737.069L322.497 -758.874M331.483 -657.315L340.044 -638.431M331.483 -657.315L322.497 -677.14M331.483 -657.315L331.483 -577.563M340.044 -716.294L340.044 -638.431M340.044 -716.294L340.044 -794.158M340.044 -716.294L348.208 -696.482M340.044 -638.431L348.208 -620.419M340.044 -638.431L340.044 -560.567M363.454 -659.485L363.454 -586.786M363.454 -659.485L370.582 -642.188M363.454 -659.485L363.454 -732.186M363.454 -659.485L356.003 -677.566M363.454 -586.786L370.582 -571.06M363.454 -586.786L356.003 -603.223M363.454 -586.786L363.454 -514.087M370.582 -642.188L370.582 -571.06M370.582 -642.188L370.582 -713.314M370.582 -642.188L377.408 -625.623M370.582 -571.06L377.408 -556.001M370.582 -571.06L370.582 -499.934M390.229 -594.511L390.229 -527.718M390.229 -594.511L396.257 -579.884M390.229 -594.511L390.229 -661.303M390.229 -594.511L383.952 -609.744M390.229 -527.718L390.996 -526.025L396.257 -514.421M390.229 -527.718L383.952 -541.566M390.229 -527.718L390.229 -460.925M396.257 -579.884L396.257 -514.421M396.257 -579.884L396.257 -645.346M396.257 -579.884L402.049 -565.827M396.257 -514.421L402.049 -501.642M396.257 -514.421L396.257 -448.957M412.98 -539.301L412.98 -477.526M412.98 -539.301L418.144 -526.77M412.98 -539.301L412.98 -601.074M412.98 -539.301L407.62 -552.31M412.98 -477.526L418.144 -466.135M412.98 -477.526L410.994 -481.909L407.62 -489.354M412.98 -477.526L412.98 -415.753M418.144 -526.77L418.144 -466.135M418.144 -526.77L418.144 -587.404M418.144 -526.77L423.12 -514.694M418.144 -466.135L423.12 -455.157M418.144 -466.135L418.144 -405.501M432.552 -491.808L432.552 -434.352M432.552 -491.808L437.024 -480.954M432.552 -491.808L432.552 -549.263M432.552 -491.808L427.92 -503.047M432.552 -434.352L435.92 -426.919L436.474 -425.699L437.024 -424.484M432.552 -434.352L427.92 -444.569M432.552 -434.352L432.552 -376.895M437.024 -480.954L437.024 -424.484M437.024 -480.954L441.346 -470.467M437.024 -480.954L437.024 -537.423M437.024 -424.484L437.024 -368.015M437.024 -424.484L441.346 -414.951M-9.07319 -943.962L-9.0732 -789.08M-9.07319 -943.962L22.5076 -895.193M-9.07319 -943.962L-43.7766 -997.552M-9.07319 -943.962L-9.07385 -1025.58M-9.0732 -789.08L22.5076 -747.278M-9.0732 -789.08L-43.7766 -835.014M-9.0732 -789.08L-9.07321 -634.199M22.5076 -895.193L22.5076 -747.278M22.5076 -895.193L51.3695 -850.623M22.5076 -895.193L22.5076 -1025.58M22.5076 -747.278L51.3695 -709.075M22.5076 -747.278L22.5076 -599.363M102.23 -772.081L102.23 -641.753M102.23 -772.081L124.752 -737.302M102.23 -772.081L102.23 -902.408M102.23 -772.081L77.8494 -809.731M102.23 -641.753L124.752 -611.943M102.23 -641.753L77.8494 -674.025M102.23 -641.753L102.23 -511.426M124.752 -737.302L124.752 -611.943M124.752 -737.302L124.752 -862.661M124.752 -737.302L145.62 -705.076M124.752 -611.943L145.62 -584.321M124.752 -611.943L124.752 -486.584M183.072 -647.241L183.072 -534.748M183.072 -647.241L199.94 -621.193M183.072 -647.241L183.072 -759.735M183.072 -647.241L165.01 -675.135M183.072 -534.748L199.94 -512.421M183.072 -534.748L165.01 -558.657M183.072 -534.748L183.072 -422.255M199.94 -621.193L199.94 -512.421M199.94 -621.193L199.94 -729.966M199.94 -621.193L215.727 -596.813M199.94 -512.421L215.727 -491.524M199.94 -512.421L199.94 -403.649M244.452 -552.456L244.452 -453.504M244.452 -552.456L257.555 -532.22M244.452 -552.456L244.452 -651.407M244.452 -552.456L230.535 -573.947M244.452 -453.504L257.555 -436.159M244.452 -453.504L230.535 -471.924M244.452 -453.504L244.452 -354.551M257.555 -532.22L257.555 -436.159M257.555 -532.22L257.555 -628.282M257.555 -532.22L269.916 -513.134M257.555 -436.159L269.916 -419.799M257.555 -436.159L257.555 -340.098M292.643 -478.037L292.643 -389.715M292.643 -478.037L303.115 -461.866M292.643 -478.037L292.643 -566.358M292.643 -478.037L281.592 -495.102M292.643 -389.715L303.115 -375.855M292.643 -389.715L281.592 -404.342M292.643 -389.715L292.643 -301.395M303.115 -461.866L303.115 -375.855M303.115 -461.866L303.115 -547.877M303.115 -461.866L313.053 -446.519M303.115 -375.855L313.053 -362.701M303.115 -375.855L303.115 -289.844M331.483 -418.057L331.483 -338.305M331.483 -418.057L340.044 -404.838M331.483 -418.057L331.483 -497.811M331.483 -418.057L322.497 -431.934M331.483 -338.305L340.044 -326.974M331.483 -338.305L322.497 -350.2M331.483 -338.305L331.483 -258.553M340.044 -404.838L340.044 -326.974M340.044 -404.838L340.044 -482.703M340.044 -404.838L348.208 -392.23M340.044 -326.974L348.208 -316.167M340.044 -326.974L340.044 -249.11M363.454 -368.687L363.454 -295.987M363.454 -368.687L370.582 -357.679M363.454 -368.687L363.454 -441.387M363.454 -368.687L356.003 -380.192M363.454 -295.987L370.582 -286.553M363.454 -295.987L356.003 -305.849M363.454 -295.987L363.454 -223.288M370.582 -357.679L370.582 -286.553M370.582 -357.679L370.582 -428.807M370.582 -357.679L377.408 -347.137M370.582 -286.553L377.408 -277.517M370.582 -286.553L370.582 -215.425M390.229 -327.339L390.229 -260.546M390.229 -327.339L396.256 -318.031M390.229 -327.339L390.229 -394.132M390.229 -327.339L383.952 -337.034M390.229 -260.546L389.459 -261.567L383.952 -268.856M390.229 -260.546L396.256 -252.569M390.229 -260.546L390.229 -193.753M396.256 -318.031L396.256 -252.569M396.256 -318.031L396.257 -383.494M396.256 -318.031L402.049 -309.086M396.256 -252.569L402.049 -244.901M396.256 -252.569L396.256 -187.105M412.98 -292.205L412.98 -230.432M412.98 -292.205L418.144 -284.232M412.98 -292.205L412.98 -353.979M412.98 -292.205L407.62 -300.484M412.98 -230.432L418.144 -223.598M412.98 -230.432L410.994 -233.061L409.653 -234.835L407.62 -237.527M412.98 -230.432L412.98 -168.658M418.144 -284.232L418.144 -223.598M418.144 -284.232L418.144 -344.866M418.144 -284.232L423.12 -276.547M418.144 -223.598L420.031 -221.098L421.275 -219.452L423.12 -217.01M418.144 -223.598L418.144 -162.963M432.552 -261.982L432.552 -204.527M432.552 -261.982L435.92 -256.78L437.024 -255.076M432.552 -261.982L432.552 -319.439M432.552 -261.982L428.508 -268.228L427.92 -269.135M432.552 -204.527L435.92 -200.067L436.474 -199.336L437.024 -198.606M432.552 -204.527L430.256 -207.566L427.92 -210.657M432.552 -204.527L432.552 -147.071M437.024 -255.076L437.024 -198.606M437.024 -255.076L441.346 -248.402M437.024 -255.076L437.024 -311.545M437.024 -198.606L437.024 -142.137M437.024 -198.606L441.346 -192.886M-9.07322 -324.435L-9.07322 -169.553M-9.07322 -324.435L22.5076 -303.534M-9.07322 -324.435L-9.07321 -479.316M-9.07322 -324.435L-43.7766 -347.402M-9.07322 -169.553L22.5076 -155.619M-9.07322 -169.553L-43.7766 -184.864M-9.07322 -169.553L-9.07323 -14.671M22.5076 -303.534L22.5076 -155.619M22.5076 -303.534L22.5076 -451.449M22.5076 -303.534L51.3695 -284.432M22.5076 -155.619L51.3695 -142.885M22.5076 -155.619L22.5076 -7.70421M102.23 -250.771L102.23 -120.445M102.23 -250.771L124.752 -235.866M102.23 -250.771L102.23 -381.099M102.23 -250.771L77.8494 -266.908M102.23 -120.445L124.752 -110.507M102.23 -120.445L77.8494 -131.201M102.23 -120.445L102.23 9.88348M124.752 -235.866L124.752 -110.507M124.752 -235.866L124.752 -361.225M124.752 -235.866L145.62 -222.055M124.752 -110.507L145.62 -101.3M124.752 -110.507L124.752 14.8514M183.072 -197.269L183.072 -84.7763M183.072 -197.269L199.94 -186.105M183.072 -197.269L183.072 -309.762M183.072 -197.269L165.01 -209.223M183.072 -84.7763L199.94 -77.3334M183.072 -84.7763L165.01 -92.7449M183.072 -84.7763L183.072 27.7176M199.94 -186.105L199.94 -77.3334M199.94 -186.105L199.94 -294.877M199.94 -186.105L215.727 -175.657M199.94 -77.3334L215.727 -70.3678M199.94 -77.3334L199.94 31.4385M244.452 -156.646L244.452 -57.6947M244.452 -156.646L257.555 -147.974M244.452 -156.646L244.452 -255.599M244.452 -156.646L230.535 -165.857M244.452 -57.6947L257.555 -51.9131M244.452 -57.6947L230.535 -63.8345M244.452 -57.6947L244.452 41.2578M257.555 -147.974L257.555 -51.9131M257.555 -147.974L257.555 -244.035M257.555 -147.974L269.916 -139.794M257.555 -51.9131L269.916 -46.4594M257.555 -51.9131L257.555 44.1492M292.643 -124.753L292.643 -36.4312M292.643 -124.753L303.115 -117.823M292.643 -124.753L292.643 -213.074M292.643 -124.753L281.592 -132.066M292.643 -36.4312L303.115 -31.8117M292.643 -36.4312L281.592 -41.3068M292.643 -36.4312L292.643 51.8896M303.115 -117.823L303.115 -31.8117M303.115 -117.823L303.115 -203.833M303.115 -117.823L313.053 -111.245M303.115 -31.8117L313.053 -27.4266M303.115 -31.8117L303.115 54.1993M331.483 -99.0475L331.483 -19.2953M331.483 -99.0475L340.044 -93.3824M331.483 -99.0475L331.483 -178.8M331.483 -99.0475L322.497 -104.994M331.483 -19.2953L340.044 -15.5174M331.483 -19.2953L322.497 -23.2602M331.483 -19.2953L331.483 60.4581M340.044 -93.3824L340.044 -15.5174M340.044 -93.3824L340.044 -171.246M340.044 -93.3824L343.15 -91.3253L348.208 -87.9786M340.044 -15.5174L348.208 -11.9156M340.044 -15.5174L340.044 62.3464M363.454 -77.8884L363.454 -5.18919M363.454 -77.8884L370.582 -73.1706M363.454 -77.8884L363.454 -150.589M363.454 -77.8884L357.897 -81.5655L356.003 -82.8199M363.454 -5.18919L366.164 -3.99306L370.582 -2.04403M363.454 -5.18919L356.003 -8.47651M363.454 -5.18919L363.454 67.5111M370.582 -73.1706L371.451 -72.5962L377.408 -68.6531M370.582 -73.1706L370.582 -2.04403M370.582 -73.1706L370.582 -144.298M370.582 -2.04403L373.176 -0.898888L374.032 -0.522438L374.882 -0.145988L377.408 0.967575M370.582 -2.04403L370.582 69.0838M390.229 -60.1684L390.229 6.62411M390.229 -60.1684L393.273 -58.1538L394.024 -57.6558L394.772 -57.1616L395.516 -56.6686L396.256 -56.1792M390.229 -60.1684L390.229 -126.961M390.229 -60.1684L383.952 -64.3227M390.229 6.62411L394.772 8.62903L395.516 8.95812L396.256 9.28357M390.229 6.62411L383.952 3.8554M390.229 6.62411L390.229 73.4178M396.256 -56.1792L396.256 9.28357M396.256 -56.1792L396.256 -121.642M396.256 -56.1792L399.903 -53.765L400.622 -53.2902L402.049 -52.3454M396.256 9.28357L399.903 10.8926L400.622 11.2107L401.337 11.5253L402.049 11.8398M396.256 9.28357L396.256 74.7476M412.98 -45.1102L412.98 16.6633M412.98 -45.1102L418.144 -41.6931M412.98 -45.1102L412.98 -106.885M412.98 -45.1102L411.659 -45.9858L409.653 -47.3131L407.62 -48.6586M412.98 16.6633L412.321 16.3718L408.301 14.5976L407.62 14.2977M412.98 16.6633L418.144 18.9414M412.98 16.6633L412.98 78.4368M418.144 -41.6931L418.144 18.9414M418.144 -41.6931L418.144 -102.327M418.144 -41.6931L423.12 -38.3997M418.144 18.9414L420.031 19.7744L420.655 20.0489L421.275 20.3234L423.12 21.137M418.144 18.9414L418.144 79.5758M432.552 -32.1578L432.552 25.2974M432.552 -32.1578L435.92 -29.9282L437.024 -29.1985M432.552 -32.1578L432.552 -89.6143M432.552 -32.1578L430.834 -33.2957L430.256 -33.677L429.676 -34.0619L427.92 -35.2241M432.552 25.2974L433.119 25.5488L434.247 26.0454L435.365 26.5397L437.024 27.2708M432.552 25.2974L430.256 24.2847L429.676 24.0296L428.508 23.5135L427.92 23.2548M432.552 25.2974L432.552 82.7538M437.024 -29.1985L437.024 27.2708M437.024 -29.1985L440.813 -26.6908L441.346 -26.3374M437.024 -29.1985L437.024 -85.6676M437.024 27.2708L437.573 27.5136L438.118 27.7541L438.662 27.9945L439.203 28.2325L440.813 28.943L441.346 29.1785M437.024 27.2708L437.024 83.7412M-9.07324 295.091L-9.07325 449.974M-9.07324 295.091L22.5075 288.125M-9.07324 295.091L-9.07323 140.21M-9.07324 295.091L-43.7766 302.748M-9.07325 449.974L22.5075 436.04M-9.07325 449.974L-43.7766 465.285M-9.07325 449.974L-9.07325 604.855M22.5075 288.125L22.5075 436.04M22.5075 288.125L22.5076 140.21M22.5075 288.125L51.3695 281.758M22.5075 436.04L51.3695 423.305M22.5075 436.04L22.5075 583.955M102.23 270.537L102.23 400.865M102.23 270.537L124.752 265.569M102.23 270.537L102.23 140.21M102.23 270.537L77.8493 275.917M102.23 400.865L124.752 390.928M102.23 400.865L77.8493 411.622M102.23 400.865L102.23 531.192M124.752 265.569L124.752 390.928M124.752 265.569L124.752 140.21M124.752 265.569L145.62 260.965M124.752 390.928L145.62 381.721M124.752 390.928L124.752 516.287M183.072 252.703L183.072 365.197M183.072 252.703L199.94 248.982M183.072 252.703L183.072 140.21M183.072 252.703L165.01 256.688M183.072 365.197L199.94 357.754M183.072 365.197L165.01 373.165M183.072 365.197L183.072 477.689M199.94 248.982L199.94 357.754M199.94 248.982L199.94 140.21M199.94 248.982L215.727 245.499M199.94 357.754L215.727 350.788M199.94 357.754L199.94 466.526M244.452 239.163L244.452 338.115M244.452 239.163L257.555 236.271M244.452 239.163L244.452 140.21M244.452 239.163L230.535 242.233M244.452 338.115L257.555 332.334M244.452 338.115L230.535 344.255M244.452 338.115L244.452 437.066M257.555 236.271L257.555 332.334M257.555 236.271L257.555 140.21M257.555 236.271L269.916 233.545M257.555 332.334L269.916 326.88M257.555 332.334L257.555 428.395M292.643 228.531L292.643 316.852M292.643 228.531L303.115 226.221M292.643 228.531L292.643 140.21M292.643 228.531L281.592 230.969M292.643 316.852L303.115 312.232M292.643 316.852L281.592 321.727M292.643 316.852L292.643 405.174M303.115 226.221L303.115 312.232M303.115 226.221L303.115 140.21M303.115 226.221L313.053 224.028M303.115 312.232L313.053 307.847M303.115 312.232L303.115 398.243M331.483 219.962L331.483 299.716M331.483 219.962L340.044 218.074M331.483 219.962L331.483 140.21M331.483 219.962L322.497 221.945M331.483 299.716L340.044 295.938M331.483 299.716L322.497 303.681M331.483 299.716L331.483 379.468M340.044 218.074L340.044 295.938M340.044 218.074L340.044 140.21M340.044 218.074L348.208 216.273M340.044 295.938L348.208 292.336M340.044 295.938L340.044 373.803M363.454 212.91L363.454 285.61M363.454 212.91L370.582 211.337M363.454 212.91L363.454 140.21M363.454 212.91L356.003 214.554M363.454 285.61L369.707 282.849L370.582 282.464M363.454 285.61L356.003 288.897M363.454 285.61L363.454 358.309M370.582 211.337L371.451 211.146L377.408 209.831M370.582 211.337L370.582 282.464M370.582 211.337L370.582 140.21M370.582 282.464L373.176 281.319L374.032 280.943L374.882 280.566L377.408 279.453M370.582 282.464L370.582 353.591M390.229 207.003L390.229 273.796M390.229 207.003L396.256 205.673M390.229 207.003L390.229 140.21M390.229 207.003L387.905 207.515L387.123 207.689L386.336 207.861L384.75 208.211L383.952 208.388M390.229 273.796L394.772 271.791L396.256 271.136M390.229 273.796L383.952 276.565M390.229 273.796L390.229 340.589M396.256 205.673L396.256 271.136M396.256 205.673L396.256 140.21M396.256 205.673L402.049 204.396M396.256 271.136L399.903 269.528L400.622 269.21L401.337 268.895L402.049 268.581M396.256 271.136L396.256 336.6M412.98 201.984L412.98 263.757M412.98 201.984L418.144 200.845M412.98 201.984L412.98 140.21M412.98 201.984L407.619 203.167M412.98 263.757L412.321 264.049L408.301 265.823L407.619 266.123M412.98 263.757L418.144 261.479M412.98 263.757L412.98 325.531M418.144 200.845L418.144 261.479M418.144 200.845L418.144 140.21M418.144 200.845L423.12 199.747M418.144 261.479L420.031 260.646L420.655 260.372L421.275 260.097L423.12 259.283M418.144 261.479L418.144 322.113M432.552 197.667L432.552 255.123M432.552 197.667L437.024 196.679M432.552 197.667L432.552 140.21M432.552 197.667L427.92 198.688M432.552 255.123L433.119 254.872L434.247 254.374L434.808 254.127L435.92 253.635L436.474 253.393L437.024 253.148M432.552 255.123L430.256 256.136L429.676 256.391L428.508 256.907L427.92 257.166M432.552 255.123L432.552 312.578M437.024 196.679L437.573 196.559L438.118 196.438L438.662 196.319L441.346 195.726M437.024 196.679L437.024 253.148M437.024 196.679L437.024 140.21M437.024 253.148L437.024 309.619M437.024 253.148L438.118 252.666L438.662 252.426L439.203 252.188L440.813 251.478L441.346 251.242M-9.07326 914.619L-9.07327 1069.5M-9.07326 914.619L22.5075 879.784M-9.07326 914.619L-9.07326 759.738M-9.07326 914.619L-43.7766 952.898M-9.07327 1069.5L22.5075 1027.7M-9.07327 1069.5L-43.7766 1115.43M-9.07327 1069.5L-9.07328 1224.38M22.5075 879.784L22.5075 1027.7M22.5075 879.784L22.5075 731.869M22.5075 879.784L51.3695 847.948M22.5075 1027.7L51.3695 989.495M22.5075 1027.7L22.5075 1175.61M102.23 791.847L102.23 922.175M102.23 791.847L124.752 767.004M102.23 791.847L102.23 661.52M102.23 791.847L77.8493 818.74M102.23 922.175L124.752 892.363M102.23 922.175L77.8493 954.445M102.23 922.175L102.23 1052.5M124.752 767.004L124.752 892.363M124.752 767.004L124.752 641.646M124.752 767.004L145.62 743.986M124.752 892.363L145.62 864.741M124.752 892.363L124.752 1017.72M183.072 702.676L183.072 815.169M183.072 702.676L199.94 684.069M183.072 702.676L183.072 590.182M183.072 702.676L165.01 722.6M183.072 815.169L199.94 792.842M183.072 815.169L165.01 839.077M183.072 815.169L183.072 927.661M199.94 684.069L199.94 792.842M199.94 684.069L199.94 575.298M199.94 684.069L215.727 666.655M199.94 792.842L215.727 771.945M199.94 792.842L199.94 901.613M244.452 634.971L244.452 733.924M244.452 634.971L257.555 620.518M244.452 634.971L244.452 536.019M244.452 634.971L230.535 650.322M244.452 733.924L257.555 716.579M244.452 733.924L230.535 752.345M244.452 733.924L244.452 832.876M257.555 620.518L257.555 716.579M257.555 620.518L257.555 524.456M257.555 620.518L269.915 606.884M257.555 716.579L269.915 700.219M257.555 716.579L257.555 812.64M292.643 581.815L292.643 670.136M292.643 581.815L303.115 570.264M292.643 581.815L292.643 493.494M292.643 581.815L281.592 594.004M292.643 670.136L303.115 656.275M292.643 670.136L281.592 684.763M292.643 670.136L292.643 758.458M303.115 570.264L303.115 656.275M303.115 570.264L303.115 484.253M303.115 570.264L313.053 559.302M303.115 656.275L313.053 643.121M303.115 656.275L303.115 742.286M331.483 538.973L331.483 618.726M331.483 538.973L340.044 529.531M331.483 538.973L331.483 459.22M331.483 538.973L322.497 548.885M331.483 618.726L340.044 607.394M331.483 618.726L322.497 630.62M331.483 618.726L331.483 698.478M340.044 529.531L340.044 607.394M340.044 529.531L340.044 451.667M340.044 529.531L348.208 520.525M340.044 607.394L348.208 596.588M340.044 607.394L340.044 685.258M363.454 503.708L362.54 504.715L361.622 505.729L356.003 511.926M363.454 503.708L363.454 576.408M363.454 503.708L370.582 495.845M363.454 503.708L363.454 431.009M363.454 576.408L370.582 566.973M363.454 576.408L356.003 586.269M363.454 576.408L363.454 649.108M370.582 495.845L370.582 566.973M370.582 495.845L370.582 424.719M370.582 495.845L377.408 488.316M370.582 566.973L377.408 557.937M370.582 566.973L370.582 638.1M390.229 474.174L390.229 540.968M390.229 474.174L396.256 467.525M390.229 474.174L390.229 407.381M390.229 474.174L383.952 481.098M390.229 540.968L394.024 535.942L396.256 532.989M390.229 540.968L383.952 549.276M390.229 540.968L390.229 607.76M396.256 467.525L396.256 532.989M396.256 467.525L396.256 402.062M396.256 467.525L401.337 461.922L402.049 461.136M396.256 532.989L402.049 525.322M396.256 532.989L396.256 598.452M412.98 449.079L412.98 510.852M412.98 449.079L414.29 447.635L418.144 443.384M412.98 449.079L412.98 387.306M412.98 449.079L411.659 450.536L408.979 453.493L407.619 454.992M412.98 510.852L418.144 504.018M412.98 510.852L410.993 513.482L409.653 515.256L407.619 517.948M412.98 510.852L412.98 572.626M418.144 443.384L418.144 504.018M418.144 443.384L418.144 382.748M418.144 443.384L421.894 439.247L423.12 437.893M418.144 504.018L420.031 501.519L421.275 499.872L423.12 497.43M418.144 504.018L418.144 564.652M432.552 427.491L432.552 484.948M432.552 427.491L435.365 424.387L437.024 422.557M432.552 427.491L432.552 370.035M432.552 427.491L427.92 432.6M432.552 484.948L435.92 480.487L436.474 479.756L437.024 479.026M432.552 484.948L430.256 487.986L427.92 491.078M432.552 484.948L432.551 542.403M437.024 422.557L437.024 479.026M437.024 422.557L439.203 420.154L440.279 418.968L440.813 418.377L441.346 417.791M437.024 422.557L437.024 366.088M437.024 479.026L437.024 535.497M437.024 479.026L441.346 473.307M124.752 1268.44L124.752 1143.08M124.752 1268.44L145.62 1227.01M124.752 1268.44L124.752 1306M124.752 1268.44L105.834 1306M183.072 1152.65L183.072 1265.14M183.072 1152.65L199.94 1119.16M183.072 1152.65L183.072 1040.16M183.072 1152.65L165.01 1188.51M183.072 1265.14L199.94 1227.93M183.072 1265.14L165.01 1304.99M183.072 1265.14L183.072 1306M199.94 1119.16L199.94 1227.93M199.94 1119.16L199.94 1010.39M199.94 1119.16L215.727 1087.81M199.94 1227.93L215.727 1193.1M199.94 1227.93L199.94 1306M244.452 1030.78L244.452 1129.73M244.452 1030.78L257.555 1004.76M244.452 1030.78L244.452 931.828M244.452 1030.78L230.535 1058.41M244.452 1129.73L257.555 1100.83M244.452 1129.73L230.535 1160.43M244.452 1129.73L244.452 1228.69M257.555 1004.76L257.555 1100.83M257.555 1004.76L257.555 908.703M257.555 1004.76L269.915 980.224M257.555 1100.83L269.915 1073.56M257.555 1100.83L257.555 1196.89M292.643 935.099L292.643 1023.42M292.643 935.099L303.115 914.308M292.643 935.099L292.643 846.779M292.643 935.099L281.592 957.039M292.643 1023.42L303.115 1000.32M292.643 1023.42L281.592 1047.8M292.643 1023.42L292.643 1111.74M303.115 914.308L303.115 1000.32M303.115 914.308L303.115 828.297M303.115 914.308L313.053 894.576M303.115 1000.32L313.053 978.394M303.115 1000.32L303.115 1086.33M331.483 857.983L331.483 937.736M331.483 857.983L340.044 840.987M331.483 857.983L331.483 778.231M331.483 857.983L322.497 875.825M331.483 937.736L340.044 918.851M331.483 937.736L322.497 957.56M331.483 937.736L331.483 1017.49M340.044 840.987L340.044 918.851M340.044 840.987L340.044 763.123M340.044 840.987L348.208 824.777M340.044 918.851L348.208 900.84M340.044 918.851L340.044 996.715M363.454 794.507L363.454 867.206M363.454 794.507L370.582 780.354M363.454 794.507L363.454 721.807M363.454 794.507L356.003 809.3M363.454 867.206L370.582 851.481M363.454 867.206L356.003 883.643M363.454 867.206L363.454 939.906M370.582 780.354L370.582 851.481M370.582 780.354L370.582 709.227M370.582 780.354L377.408 766.801M370.582 851.481L377.408 836.421M370.582 851.481L370.582 922.608M390.229 741.345L390.229 808.137M390.229 741.345L396.256 729.377M390.229 741.345L390.229 674.552M390.229 741.345L383.952 753.809M390.229 808.137L396.256 794.841M390.229 808.137L383.952 821.987M390.229 808.137L390.229 874.931M396.256 729.377L396.256 794.841M396.256 729.377L396.256 663.915M396.256 729.377L402.049 717.877M396.256 794.841L402.049 782.063M396.256 794.841L396.256 860.304M412.98 696.173L412.98 757.947M412.98 696.173L418.144 685.921M412.98 696.173L412.98 634.4M412.98 696.173L411.659 698.797L410.993 700.117L407.619 706.818M412.98 757.947L418.144 746.556M412.98 757.947L407.619 769.774M412.98 757.947L412.98 819.72M418.144 685.921L418.144 746.556M418.144 685.921L418.144 625.287M418.144 685.921L423.12 676.041M418.144 746.556L423.12 735.578M418.144 746.556L418.144 807.19M432.551 657.316L432.551 714.772M432.551 657.316L437.024 648.435M432.551 657.316L432.551 599.859M432.551 657.316L427.92 666.512M432.551 714.772L435.92 707.339L436.474 706.12L437.024 704.904M432.551 714.772L427.92 724.99M432.551 714.772L432.551 772.228M437.024 648.435L437.024 704.904M437.024 648.435L440.813 640.912L441.346 639.854M437.024 648.435L437.024 591.966M437.024 704.904L437.024 761.375M437.024 704.904L441.346 695.372M292.643 1288.38L303.115 1258.35M292.643 1288.38L292.643 1200.06M292.643 1288.38L286.5 1306M292.643 1288.38L292.643 1306M303.115 1258.35L303.115 1172.34M303.115 1258.35L313.053 1229.85M303.115 1258.35L303.115 1306M331.483 1176.99L331.483 1256.75M331.483 1176.99L340.044 1152.44M331.483 1176.99L331.483 1097.24M331.483 1176.99L322.497 1202.76M331.483 1256.75L340.043 1230.31M331.483 1256.75L322.497 1284.5M331.483 1256.75L331.483 1306M340.044 1152.44L340.043 1230.31M340.044 1152.44L340.044 1074.58M340.044 1152.44L348.208 1129.03M340.043 1230.31L348.208 1205.09M340.043 1230.31L340.043 1306M363.454 1085.31L363.454 1158.01M363.454 1085.31L370.582 1064.86M363.454 1085.31L363.454 1012.61M363.454 1085.31L356.003 1106.67M363.454 1158.01L370.582 1135.99M363.454 1158.01L356.003 1181.02M363.454 1158.01L363.454 1230.7M370.582 1064.86L370.582 1135.99M370.582 1064.86L370.582 993.735M370.582 1064.86L377.408 1045.28M370.582 1135.99L377.408 1114.91M370.582 1135.99L370.582 1207.12M390.229 1008.52L390.229 1075.31M390.229 1008.52L396.256 991.23M390.229 1008.52L390.229 941.724M390.229 1008.52L383.952 1026.52M390.229 1075.31L396.256 1056.69M390.229 1075.31L383.952 1094.7M390.229 1075.31L390.229 1142.1M396.256 991.23L396.256 1056.69M396.256 991.23L396.256 925.767M396.256 991.23L402.049 974.618M396.256 1056.69L402.049 1038.8M396.256 1056.69L396.256 1122.16M412.98 943.268L412.98 1005.04M412.98 943.268L418.144 928.46M412.98 943.268L412.98 881.495M412.98 943.268L407.619 958.643M412.98 1005.04L418.144 989.095M412.98 1005.04L407.619 1021.6M412.98 1005.04L412.98 1066.82M418.144 928.46L418.144 989.095M418.144 928.46L418.144 867.825M418.144 928.46L423.12 914.188M418.144 989.095L423.12 973.725M418.144 989.095L418.144 1049.73M432.551 887.14L432.551 944.597M432.551 887.14L437.024 874.313M432.551 887.14L432.551 829.684M432.551 887.14L427.92 900.423M432.551 944.597L437.024 930.782M432.551 944.597L427.92 958.902M432.551 944.597L432.551 1002.05M437.024 874.313L437.024 930.782M437.024 874.313L441.346 861.919M437.024 874.313L437.024 817.844M437.024 930.782L437.024 987.253M437.024 930.782L441.346 917.435M390.229 1275.69L396.256 1253.08M390.229 1275.69L390.229 1208.89M390.229 1275.69L383.952 1299.23M390.229 1275.69L390.229 1306M396.256 1253.08L396.256 1187.62M396.256 1253.08L402.049 1231.36M396.256 1253.08L396.256 1306M412.98 1190.36L412.98 1252.14M412.98 1190.36L418.144 1171M412.98 1190.36L412.98 1128.59M412.98 1190.36L407.619 1210.47M412.98 1252.14L418.144 1231.63M412.98 1252.14L407.619 1273.42M412.98 1252.14L412.98 1306M418.144 1171L418.144 1231.63M418.144 1171L418.144 1110.36M418.144 1171L423.12 1152.33M418.144 1231.63L423.12 1211.87M418.144 1231.63L418.144 1292.27M432.551 1116.96L432.551 1174.42M432.551 1116.96L437.024 1100.19M432.551 1116.96L432.551 1059.51M432.551 1116.96L427.92 1134.34M432.551 1174.42L437.024 1156.66M432.551 1174.42L427.92 1192.81M432.551 1174.42L432.551 1231.88M437.024 1100.19L437.024 1156.66M437.024 1100.19L441.346 1083.98M437.024 1100.19L437.024 1043.72M437.024 1156.66L437.024 1213.13M437.024 1156.66L441.346 1139.5M427.92 1192.81L423.12 1211.87M427.92 1192.81L427.92 1251.29M427.92 1192.81L427.92 1134.34M432.551 1231.88L437.024 1213.13M432.551 1231.88L427.92 1251.29M432.551 1231.88L432.551 1289.33M437.024 1213.13L437.024 1269.6M437.024 1213.13L441.346 1195.02M441.346 1139.5L441.346 1083.98M441.346 1139.5L441.346 1195.02M441.346 1139.5L445.524 1122.91M427.92 1251.29L423.12 1271.41M427.92 1251.29L427.92 1306M432.551 1289.33L437.024 1269.6M432.551 1289.33L428.774 1306M432.551 1289.33L432.551 1306M437.024 1269.6L441.346 1250.53M437.024 1269.6L437.024 1306M441.346 1195.02L441.346 1250.53M441.346 1195.02L445.524 1177.5M441.346 1250.53L445.524 1232.1M441.346 1250.53L441.346 1306M423.12 1211.87L423.12 1271.41M423.12 1211.87L423.12 1152.33M418.144 1292.27L423.12 1271.41M418.144 1292.27L414.868 1306M418.144 1292.27L418.144 1306M423.12 1271.41L423.12 1306M423.12 1152.33L423.12 1092.8M423.12 1152.33L427.92 1134.34M427.92 1134.34L427.92 1075.86M407.619 1273.42L402.049 1295.54M407.619 1273.42L407.619 1210.47M407.619 1273.42L407.619 1306M412.98 1306.19L412.98 1306M402.049 1295.54L402.049 1231.36M402.049 1295.54L399.416 1306M402.049 1295.54L402.049 1306M402.049 1231.36L402.049 1167.17M402.049 1231.36L407.619 1210.47M407.619 1210.47L407.619 1147.51M427.92 958.902L423.12 973.725M427.92 958.902L427.92 1017.38M427.92 958.902L427.92 900.423M432.551 1002.05L437.024 987.253M432.551 1002.05L427.92 1017.38M432.551 1002.05L432.551 1059.51M437.024 987.253L437.024 1043.72M437.024 987.253L441.346 972.951M441.346 917.435L441.346 972.951M441.346 917.435L445.524 904.531M441.346 917.435L441.346 861.919M427.92 1017.38L423.12 1033.26M427.92 1017.38L427.92 1075.86M432.551 1059.51L437.024 1043.72M432.551 1059.51L427.92 1075.86M437.024 1043.72L441.346 1028.47M441.346 972.951L441.346 1028.47M441.346 972.951L445.524 959.126M427.92 1075.86L423.12 1092.8M441.346 1083.98L441.346 1028.47M441.346 1083.98L445.524 1068.31M441.346 1028.47L445.524 1013.72M423.12 973.725L423.12 1033.26M423.12 973.725L423.12 914.188M418.144 1049.73L423.12 1033.26M418.144 1049.73L412.98 1066.82M418.144 1049.73L418.144 1110.36M423.12 1033.26L423.12 1092.8M423.12 914.188L423.12 854.651M423.12 914.188L427.92 900.423M423.12 1092.8L418.144 1110.36M427.92 900.423L427.92 841.945M412.98 1066.82L407.619 1084.56M412.98 1066.82L412.98 1128.59M418.144 1110.36L412.98 1128.59M412.98 1128.59L407.619 1147.51M407.619 1021.6L402.049 1038.8M407.619 1021.6L407.619 1084.56M407.619 1021.6L407.619 958.643M407.619 1084.56L402.049 1102.99M407.619 1084.56L407.619 1147.51M407.619 1147.51L402.049 1167.17M402.049 1038.8L402.049 1102.99M402.049 1038.8L402.049 974.618M396.256 1122.16L402.049 1102.99M396.256 1122.16L390.229 1142.1M396.256 1122.16L396.256 1187.62M402.049 1102.99L402.049 1167.17M402.049 974.618L402.049 910.433M402.049 974.618L407.619 958.643M402.049 1167.17L396.256 1187.62M407.619 958.643L407.619 895.687M390.229 1142.1L383.952 1162.88M390.229 1142.1L390.229 1208.89M396.256 1187.62L390.229 1208.89M390.229 1208.89L383.952 1231.05M383.952 1094.7L377.408 1114.91M383.952 1094.7L383.952 1162.88M383.952 1094.7L383.952 1026.52M383.952 1162.88L377.408 1184.53M383.952 1162.88L383.952 1231.05M383.952 1231.05L377.408 1254.15M383.952 1231.05L383.952 1299.23M383.952 1299.23L383.952 1306M383.952 1299.23L382.147 1306M377.408 1114.91L377.408 1184.53M377.408 1114.91L377.408 1045.28M370.582 1207.12L377.408 1184.53M370.582 1207.12L363.454 1230.7M370.582 1207.12L370.582 1278.24M377.408 1184.53L377.408 1254.15M377.408 1045.28L377.408 975.664M377.408 1045.28L383.952 1026.52M377.408 1254.15L370.582 1278.24M377.408 1254.15L377.408 1306M383.952 1026.52L383.952 958.342M363.454 1230.7L356.003 1255.36M363.454 1230.7L363.454 1303.4M370.582 1278.24L363.454 1303.4M370.582 1278.24L370.582 1306M377.408 1306.36L377.408 1306M363.454 1303.4L362.718 1306M363.454 1303.4L363.454 1306M356.003 1181.02L348.208 1205.09M356.003 1181.02L356.003 1255.36M356.003 1181.02L356.003 1106.67M356.003 1255.36L348.208 1281.15M356.003 1255.36L356.003 1306M362.54 1306.63L362.718 1306M348.208 1205.09L348.208 1281.15M348.208 1205.09L348.208 1129.03M348.208 1281.15L348.208 1306M348.208 1281.15L340.7 1306M348.208 1129.03L348.208 1052.97M348.208 1129.03L356.003 1106.67M356.003 1106.67L356.003 1032.33M322.497 1284.5L322.497 1202.76M322.497 1284.5L315.536 1306M322.497 1284.5L322.497 1306M331.483 1306.59L331.483 1306M322.497 1202.76L322.497 1121.03M322.497 1202.76L313.053 1229.85M315.459 1306.24L315.536 1306M427.92 724.99L423.12 735.578M427.92 724.99L427.92 783.468M427.92 724.99L427.92 666.512M432.551 772.228L437.024 761.375M432.551 772.228L427.92 783.468M432.551 772.228L432.551 829.684M437.024 761.375L437.024 817.844M437.024 761.375L441.346 750.887M441.346 695.372L441.346 750.887M441.346 695.372L442.929 691.878L445.524 686.153M441.346 695.372L441.346 639.854M427.92 783.468L423.12 795.115M427.92 783.468L427.92 841.945M432.551 829.684L437.024 817.844M432.551 829.684L427.92 841.945M437.024 817.844L441.346 806.403M441.346 750.887L441.346 806.403M441.346 750.887L445.524 740.749M427.92 841.945L423.12 854.651M441.346 861.919L445.524 849.937M441.346 861.919L441.346 806.403M441.346 806.403L441.876 805.001L442.929 802.211L445.524 795.343M423.12 735.578L423.12 795.115M423.12 735.578L423.12 676.041M418.144 807.19L423.12 795.115M418.144 807.19L412.98 819.72M418.144 807.19L418.144 867.825M423.12 795.115L423.12 854.651M423.12 676.041L423.12 616.505M423.12 676.041L427.92 666.512M423.12 854.651L418.144 867.825M427.92 666.512L427.92 608.033M412.98 819.72L407.619 832.731M412.98 819.72L412.98 881.495M418.144 867.825L417.509 869.507L412.98 881.495M412.98 881.495L407.619 895.687M407.619 769.774L406.934 771.284L402.049 782.063M407.619 769.774L407.619 832.731M407.619 769.774L407.619 706.818M407.619 832.731L402.049 846.248M407.619 832.731L407.619 895.687M407.619 895.687L402.049 910.433M402.049 782.063L402.049 846.248M402.049 782.063L402.049 717.877M396.256 860.304L402.049 846.248M396.256 860.304L390.229 874.931M396.256 860.304L396.256 925.767M402.049 846.248L402.049 910.433M402.049 717.877L402.049 653.692M402.049 717.877L407.619 706.818M402.049 910.433L396.256 925.767M407.619 706.818L407.619 643.862M390.229 874.931L383.952 890.164M390.229 874.931L390.229 941.724M396.256 925.767L390.229 941.724M390.229 941.724L383.952 958.342M383.952 821.987L377.408 836.421M383.952 821.987L383.952 890.164M383.952 821.987L383.952 753.809M383.952 890.164L377.408 906.043M383.952 890.164L383.952 958.342M383.952 958.342L377.408 975.664M377.408 836.421L377.408 906.043M377.408 836.421L377.408 766.801M370.582 922.608L377.408 906.043M370.582 922.608L363.454 939.906M370.582 922.608L370.582 993.735M377.408 906.043L377.408 975.664M377.408 766.801L377.408 697.18M377.408 766.801L383.952 753.809M377.408 975.664L370.582 993.735M383.952 753.809L383.952 685.631M363.454 939.906L356.003 957.986M363.454 939.906L363.454 1012.61M370.582 993.735L363.454 1012.61M363.454 1012.61L356.003 1032.33M356.003 883.643L348.208 900.84M356.003 883.643L356.003 957.986M356.003 883.643L356.003 809.3M356.003 957.986L348.208 976.902M356.003 957.986L356.003 1032.33M356.003 1032.33L348.208 1052.97M348.208 900.84L348.208 976.902M348.208 900.84L348.208 824.777M340.044 996.715L348.208 976.902M340.044 996.715L331.483 1017.49M340.044 996.715L340.044 1074.58M348.208 976.902L348.208 1052.97M348.208 824.777L348.208 748.714M348.208 824.777L356.003 809.3M348.208 1052.97L340.044 1074.58M356.003 809.3L356.003 734.956M331.483 1017.49L322.497 1039.29M331.483 1017.49L331.483 1097.24M340.044 1074.58L331.483 1097.24M331.483 1097.24L322.497 1121.03M322.497 957.56L313.053 978.394M322.497 957.56L322.497 1039.29M322.497 957.56L322.497 875.825M322.497 1039.29L313.053 1062.21M322.497 1039.29L322.497 1121.03M322.497 1121.03L313.053 1146.03M313.053 978.394L313.053 1062.21M313.053 978.394L313.053 894.576M303.115 1086.33L313.053 1062.21M303.115 1086.33L292.643 1111.74M303.115 1086.33L303.115 1172.34M313.053 1062.21L313.053 1146.03M313.053 894.576L313.053 810.757M313.053 894.576L322.497 875.825M313.053 1146.03L303.115 1172.34M313.053 1146.03L313.053 1229.85M322.497 875.825L322.497 794.09M292.643 1111.74L281.592 1138.56M292.643 1111.74L292.643 1200.06M303.115 1172.34L292.643 1200.06M313.053 1229.85L313.053 1306M292.643 1200.06L281.592 1229.32M281.592 1047.8L269.915 1073.56M281.592 1047.8L281.592 1138.56M281.592 1047.8L281.592 957.039M281.592 1138.56L269.915 1166.89M281.592 1138.56L281.592 1229.32M281.592 1229.32L269.915 1260.23M281.592 1229.32L281.592 1306M269.915 1073.56L269.915 1166.89M269.915 1073.56L269.915 980.224M257.555 1196.89L269.915 1166.89M257.555 1196.89L244.452 1228.69M257.555 1196.89L257.555 1292.95M269.915 1166.89L269.915 1260.23M269.915 980.224L269.915 886.889M269.915 980.224L281.592 957.039M269.915 1260.23L257.555 1292.95M269.915 1260.23L269.915 1306M281.592 957.039L281.592 866.28M244.452 1228.69L230.535 1262.46M244.452 1228.69L244.452 1306M257.555 1292.95L257.555 1306M257.555 1292.95L252.625 1306M230.535 1160.43L215.727 1193.1M230.535 1160.43L230.535 1262.46M230.535 1160.43L230.535 1058.41M230.535 1262.46L215.727 1298.39M230.535 1262.46L230.535 1306M215.727 1193.1L215.727 1298.39M215.727 1193.1L215.727 1087.81M215.727 1298.39L212.591 1306M215.727 1298.39L215.727 1306M215.727 1087.81L215.727 982.523M215.727 1087.81L230.535 1058.41M230.535 1058.41L230.535 956.389M165.01 1304.99L165.01 1188.51M165.01 1304.99L165.01 1306M165.01 1304.99L164.551 1306M165.01 1188.51L165.01 1072.03M165.01 1188.51L145.62 1227.01M427.92 491.078L426.14 493.434L425.541 494.225L423.12 497.43M427.92 491.078L427.92 549.556M427.92 491.078L427.92 432.6M432.551 542.403L435.92 537.201L437.024 535.497M432.551 542.403L428.508 548.648L427.92 549.556M432.551 542.403L432.551 599.859M437.024 535.497L437.024 591.966M437.024 535.497L441.346 528.823M441.346 473.307L441.346 528.823M441.346 473.307L442.929 471.211L445.524 467.777M441.346 473.307L441.346 417.791M427.92 549.556L426.736 551.384L423.12 556.968M427.92 549.556L427.92 608.033M432.551 599.859L437.024 591.966M432.551 599.859L427.92 608.033M437.024 591.966L440.279 586.221L441.346 584.339M441.346 528.823L441.346 584.339M441.346 528.823L445.524 522.371M427.92 608.033L423.12 616.505M441.346 639.854L441.876 638.803L445.524 631.559M441.346 639.854L441.346 584.339M441.346 584.339L442.929 581.544L445.524 576.965M423.12 497.43L423.12 556.968M423.12 497.43L423.12 437.893M418.144 564.652L423.12 556.968M418.144 564.652L412.98 572.626M418.144 564.652L418.144 625.287M423.12 556.968L423.12 616.505M423.12 437.893L423.12 378.357M423.12 437.893L427.92 432.6M423.12 616.505L418.144 625.287M427.92 432.6L427.92 374.122M412.98 572.626L409.653 577.763L408.979 578.806L407.619 580.904M412.98 572.626L412.98 634.4M418.144 625.287L412.98 634.4M412.98 634.4L407.619 643.862M407.619 517.948L402.049 525.322M407.619 517.948L407.619 580.904M407.619 517.948L407.619 454.992M407.619 580.904L402.049 589.507M407.619 580.904L407.619 643.862M407.619 643.862L402.049 653.692M402.049 525.322L402.049 589.507M402.049 525.322L402.049 461.136M396.256 598.452L399.903 592.82L400.622 591.711L402.049 589.507M396.256 598.452L390.229 607.76M396.256 598.452L396.256 663.915M402.049 589.507L402.049 653.692M402.049 461.136L402.049 396.951M402.049 461.136L407.619 454.992M402.049 653.692L396.256 663.915M407.619 454.992L407.619 392.035M390.229 607.76L383.952 617.454M390.229 607.76L390.229 674.552M396.256 663.915L390.229 674.552M390.229 674.552L383.952 685.631M383.952 549.276L380.714 553.562L379.894 554.646L377.408 557.937M383.952 549.276L383.952 617.454M383.952 549.276L383.952 481.098M383.952 617.454L377.408 627.558M383.952 617.454L383.952 685.631M383.952 685.631L377.408 697.18M377.408 557.937L377.408 627.558M377.408 557.937L377.408 488.316M370.582 638.1L377.408 627.558M370.582 638.1L363.454 649.108M370.582 638.1L370.582 709.227M377.408 627.558L377.408 697.18M377.408 488.316L377.408 418.694M377.408 488.316L379.07 486.483L383.952 481.098M377.408 697.18L370.582 709.227M383.952 481.098L383.952 412.921M363.454 649.108L356.003 660.613M363.454 649.108L363.454 721.807M370.582 709.227L363.454 721.807M363.454 721.807L356.003 734.956M356.003 586.269L348.208 596.588M356.003 586.269L356.003 660.613M356.003 586.269L356.003 511.926M356.003 660.613L348.208 672.651M356.003 660.613L356.003 734.956M356.003 734.956L348.208 748.714M348.208 596.588L348.208 672.651M348.208 596.588L348.208 520.525M340.044 685.258L348.208 672.651M340.044 685.258L331.483 698.478M340.044 685.258L340.044 763.123M348.208 672.651L348.208 748.714M348.208 520.525L348.208 444.462M348.208 520.525L356.003 511.926M348.208 748.714L340.044 763.123M356.003 511.926L356.003 437.584M331.483 698.478L322.497 712.354M331.483 698.478L331.483 778.231M340.044 763.123L331.483 778.231M331.483 778.231L322.497 794.09M322.497 630.62L313.053 643.121M322.497 630.62L322.497 712.354M322.497 630.62L322.497 548.885M322.497 712.354L313.053 726.939M322.497 712.354L322.497 794.09M322.497 794.09L313.053 810.757M313.053 643.121L313.053 726.939M313.053 643.121L313.053 559.302M303.115 742.286L313.053 726.939M303.115 742.286L292.643 758.458M303.115 742.286L303.115 828.297M313.053 726.939L313.053 810.757M313.053 559.302L313.053 475.484M313.053 559.302L322.497 548.885M313.053 810.757L303.115 828.297M322.497 548.885L322.497 467.15M292.643 758.458L281.592 775.522M292.643 758.458L292.643 846.779M303.115 828.297L292.643 846.779M292.643 846.779L281.592 866.28M281.592 684.763L269.915 700.219M281.592 684.763L281.592 775.522M281.592 684.763L281.592 594.004M281.592 775.522L269.915 793.554M281.592 775.522L281.592 866.28M281.592 866.28L269.915 886.889M269.915 700.219L269.915 793.554M269.915 700.219L269.915 606.884M257.555 812.64L269.915 793.554M257.555 812.64L244.452 832.876M257.555 812.64L257.555 908.703M269.915 793.554L269.915 886.889M269.915 606.884L269.915 513.55M269.915 606.884L281.592 594.004M269.915 886.889L257.555 908.703M281.592 594.004L281.592 503.246M244.452 832.876L230.535 854.367M244.452 832.876L244.452 931.828M257.555 908.703L244.452 931.828M244.452 931.828L230.535 956.389M230.535 752.345L215.727 771.945M230.535 752.345L230.535 854.367M230.535 752.345L230.535 650.322M230.535 854.367L215.727 877.234M230.535 854.367L230.535 956.389M230.535 956.389L215.727 982.523M215.727 771.945L215.727 877.234M215.727 771.945L215.727 666.655M199.94 901.613L215.727 877.234M199.94 901.613L183.072 927.661M199.94 901.613L199.94 1010.39M215.727 877.234L215.727 982.523M215.727 666.655L215.727 561.366M215.727 666.655L230.535 650.322M215.727 982.523L199.94 1010.39M230.535 650.322L230.535 548.3M183.072 927.661L165.01 955.555M183.072 927.661L183.072 1040.16M199.94 1010.39L183.072 1040.16M183.072 1040.16L165.01 1072.03M165.01 839.077L145.62 864.741M165.01 839.077L165.01 955.555M165.01 839.077L165.01 722.6M165.01 955.555L145.62 985.497M165.01 955.555L165.01 1072.03M165.01 1072.03L145.62 1106.25M145.62 864.741L145.62 985.497M145.62 864.741L145.62 743.986M124.752 1017.72L145.62 985.497M124.752 1017.72L102.23 1052.5M124.752 1017.72L124.752 1143.08M145.62 985.497L145.62 1106.25M145.62 743.986L145.62 623.231M145.62 743.986L165.01 722.6M145.62 1106.25L124.752 1143.08M145.62 1106.25L145.62 1227.01M165.01 722.6L165.01 606.122M102.23 1052.5L77.8493 1090.15M102.23 1052.5L102.23 1182.83M124.752 1143.08L102.23 1182.83M145.62 1227.01L145.62 1306M102.23 1182.83L77.8493 1225.86M102.23 1182.83L102.23 1306M77.8493 954.445L51.3695 989.495M77.8493 954.445L77.8493 1090.15M77.8493 954.445L77.8493 818.74M77.8493 1090.15L51.3695 1131.04M77.8493 1090.15L77.8493 1225.86M77.8493 1225.86L51.3695 1272.59M77.8493 1225.86L77.8493 1306M51.3695 989.495L51.3695 1131.04M51.3695 989.495L51.3695 847.948M22.5075 1175.61L51.3695 1131.04M22.5075 1175.61L-9.07328 1224.38M22.5075 1175.61L22.5075 1306M51.3695 1131.04L51.3695 1272.59M51.3695 847.948L51.3695 706.4M51.3695 847.948L77.8493 818.74M51.3695 1272.59L51.3695 1306M51.3695 1272.59L32.4388 1306M77.8493 818.74L77.8493 683.034M-9.07328 1224.38L-43.7767 1277.97M-9.07328 1224.38L-9.07328 1306M-43.7766 1115.43L-82.0893 1166.15M-43.7766 1115.43L-43.7767 1277.97M-43.7766 1115.43L-43.7766 952.898M-43.7767 1277.97L-61.9268 1306M-43.7767 1277.97L-43.7767 1306M-82.0893 1166.15L-82.0893 995.157M-82.0893 1166.15L-82.0886 1306M-82.0893 995.157L-82.0893 824.168M-82.0893 995.157L-43.7766 952.898M-43.7766 952.898L-43.7766 790.36M427.92 257.166L427.329 257.427L426.736 257.688L426.14 257.952L425.541 258.215L423.73 259.015L423.12 259.283M427.92 257.166L427.92 315.645M427.92 257.166L427.92 198.688M432.552 312.578L435.92 310.349L437.024 309.619M432.552 312.578L429.676 314.482L427.92 315.645M432.552 312.578L432.552 370.035M437.024 309.619L437.024 366.088M437.024 309.619L440.279 307.465L441.346 306.758M441.346 251.242L441.876 251.009L443.974 250.084L445.524 249.399M441.346 251.242L441.346 306.758M441.346 251.242L441.346 195.726M427.92 315.645L427.329 316.034L426.736 316.428L426.14 316.821L425.541 317.218L423.12 318.82M427.92 315.645L427.92 374.122M432.552 370.035L435.92 367.062L437.024 366.088M432.552 370.035L427.92 374.122M437.024 366.088L439.203 364.165L440.813 362.744L441.346 362.275M441.346 306.758L441.876 306.408L442.929 305.711L443.974 305.019L444.493 304.676L445.524 303.993M441.346 306.758L441.346 362.275M427.92 374.122L424.336 377.284L423.12 378.357M441.346 417.791L444.493 414.32L445.524 413.182M441.346 417.791L441.346 362.275M441.346 362.275L445.009 359.042L445.524 358.587M423.12 259.283L423.12 318.82M423.12 259.283L423.12 199.747M418.144 322.113L423.12 318.82M418.144 322.113L412.98 325.531M418.144 322.113L418.144 382.748M423.12 318.82L423.12 378.357M423.12 199.747L423.12 140.21M423.12 199.747L427.92 198.688M423.12 378.357L418.144 382.748M427.92 198.688L427.92 140.21M412.98 325.531L411.659 326.406L409.653 327.734L407.619 329.079M412.98 325.531L412.98 387.306M418.144 382.748L417.509 383.309L412.98 387.306M412.98 387.306L412.321 387.886L411.659 388.471L410.993 389.058L407.619 392.035M407.619 266.123L402.049 268.581M407.619 266.123L407.619 329.079M407.619 266.123L407.619 203.167M407.619 329.079L402.049 332.766M407.619 329.079L407.619 392.035M407.619 392.035L403.462 395.704L402.757 396.327L402.049 396.951M402.049 268.581L402.049 332.766M402.049 268.581L402.049 204.396M396.256 336.6L395.516 337.089L394.772 337.582L394.024 338.076L390.229 340.589M396.256 336.6L399.181 334.664L399.903 334.186L400.622 333.711L402.049 332.766M396.256 336.6L396.256 402.062M402.049 332.766L402.049 396.951M402.049 204.396L402.049 140.21M402.049 204.396L407.619 203.167M402.049 396.951L396.256 402.062M407.619 203.167L407.619 140.21M390.229 340.589L384.75 344.215L383.952 344.743M390.229 340.589L390.229 407.381M396.256 402.062L394.772 403.373L390.229 407.381M390.229 407.381L387.905 409.432L383.952 412.921M383.952 276.565L380.714 277.994L379.894 278.355L377.408 279.453M383.952 276.565L383.952 344.743M383.952 276.565L383.952 208.388M383.952 344.743L377.408 349.074M383.952 344.743L383.952 412.921M383.952 412.921L377.408 418.694M377.408 279.453L377.408 349.074M377.408 279.453L377.408 209.831M370.582 353.591L377.408 349.074M370.582 353.591L363.454 358.309M370.582 353.591L370.582 424.719M377.408 349.074L377.408 418.694M377.408 209.831L377.408 140.21M377.408 209.831L379.07 209.464L382.341 208.743L383.952 208.388M377.408 418.694L370.582 424.719M383.952 208.388L383.952 140.21M363.454 358.309L357.897 361.986L356.003 363.24M363.454 358.309L363.454 431.009M370.582 424.719L363.454 431.009M363.454 431.009L359.77 434.259L356.003 437.584M356.003 288.897L348.208 292.336M356.003 288.897L356.003 363.24M356.003 288.897L356.003 214.554M356.003 363.24L348.208 368.399M356.003 363.24L356.003 437.584M356.003 437.584L348.208 444.462M348.208 292.336L348.208 368.399M348.208 292.336L348.208 216.273M340.044 373.803L342.12 372.427L348.208 368.399M340.044 373.803L331.483 379.468M340.044 373.803L340.044 451.667M348.208 368.399L348.208 444.462M348.208 216.273L348.208 140.21M348.208 216.273L356.003 214.554M348.208 444.462L340.044 451.667M356.003 214.554L356.003 140.21M331.483 379.468L322.497 385.415M331.483 379.468L331.483 459.22M340.044 451.667L331.483 459.22M331.483 459.22L322.497 467.15M322.497 303.681L313.053 307.847M322.497 303.681L322.497 385.415M322.497 303.681L322.497 221.945M322.497 385.415L313.053 391.665M322.497 385.415L322.497 467.15M322.497 467.15L313.053 475.484M313.053 307.847L313.053 391.665M313.053 307.847L313.053 224.028M303.115 398.243L313.053 391.665M303.115 398.243L292.643 405.174M303.115 398.243L303.115 484.253M313.053 391.665L313.053 475.484M313.053 224.028L313.053 140.21M313.053 224.028L321.342 222.199L322.497 221.945M313.053 475.484L303.115 484.253M322.497 221.945L322.497 140.21M292.643 405.174L281.592 412.487M292.643 405.174L292.643 493.494M303.115 484.253L295.313 491.137L292.643 493.494M292.643 493.494L281.592 503.246M281.592 321.727L269.916 326.88M281.592 321.727L281.592 412.487M281.592 321.727L281.592 230.969M281.592 412.487L269.916 420.215M281.592 412.487L281.592 503.246M281.592 503.246L269.915 513.55M269.916 326.88L269.916 420.215M269.916 326.88L269.916 233.545M257.555 428.395L269.916 420.215M257.555 428.395L244.452 437.066M257.555 428.395L257.555 524.456M269.916 420.215L269.915 513.55M269.916 233.545L269.916 140.21M269.916 233.545L281.592 230.969M269.915 513.55L257.555 524.456M281.592 230.969L281.592 140.21M244.452 437.066L230.535 446.277M244.452 437.066L244.452 536.019M257.555 524.456L244.452 536.019M244.452 536.019L230.535 548.3M230.535 344.255L215.727 350.788M230.535 344.255L230.535 446.277M230.535 344.255L230.535 242.233M230.535 446.277L215.727 456.077M230.535 446.277L230.535 548.3M230.535 548.3L215.727 561.366M215.727 350.788L215.727 456.077M215.727 350.788L215.727 245.499M199.94 466.526L215.727 456.077M199.94 466.526L183.072 477.689M199.94 466.526L199.94 575.298M215.727 456.077L215.727 561.366M215.727 245.499L215.727 140.21M215.727 245.499L230.535 242.233M215.727 561.366L199.94 575.298M230.535 242.233L230.535 140.21M183.072 477.689L165.01 489.644M183.072 477.689L183.072 590.182M199.94 575.298L183.072 590.182M183.072 590.182L165.01 606.122M165.01 373.165L145.62 381.721M165.01 373.165L165.01 489.644M165.01 373.165L165.01 256.688M165.01 489.644L145.62 502.476M165.01 489.644L165.01 606.122M165.01 606.122L145.62 623.231M145.62 381.721L145.62 502.476M145.62 381.721L145.62 260.965M124.752 516.287L145.62 502.476M124.752 516.287L102.23 531.192M124.752 516.287L124.752 641.646M145.62 502.476L145.62 623.231M145.62 260.965L145.62 140.21M145.62 260.965L165.01 256.688M145.62 623.231L124.752 641.646M165.01 256.688L165.01 140.21M102.23 531.192L77.8493 547.328M102.23 531.192L102.23 661.52M124.752 641.646L102.23 661.52M102.23 661.52L77.8493 683.034M77.8493 411.622L51.3695 423.305M77.8493 411.622L77.8493 547.328M77.8493 411.622L77.8493 275.917M77.8493 547.328L51.3695 564.853M77.8493 547.328L77.8493 683.034M77.8493 683.034L51.3695 706.4M51.3695 423.305L51.3695 564.853M51.3695 423.305L51.3695 281.758M22.5075 583.955L51.3695 564.853M22.5075 583.955L-9.07325 604.855M22.5075 583.955L22.5075 731.869M51.3695 564.853L51.3695 706.4M51.3695 281.758L51.3695 140.21M51.3695 281.758L77.8493 275.917M51.3695 706.4L22.5075 731.869M77.8493 275.917L77.8493 140.21M-9.07325 604.855L-43.7766 627.822M-9.07325 604.855L-9.07326 759.738M22.5075 731.869L-9.07326 759.738M-9.07326 759.738L-43.7766 790.36M-43.7766 465.285L-82.0893 482.189M-43.7766 465.285L-43.7766 627.822M-43.7766 465.285L-43.7766 302.748M-43.7766 627.822L-82.0893 653.178M-43.7766 627.822L-43.7766 790.36M-43.7766 790.36L-82.0893 824.168M-82.0893 653.178L-82.0893 482.189M-82.0893 653.178L-82.0893 824.168M-82.0893 482.189L-82.0893 311.2M-82.0893 311.2L-82.0893 140.21M-82.0893 311.2L-43.7766 302.748M-43.7766 302.748L-43.7766 140.21M427.92 23.2548L427.329 22.9937L426.736 22.7327L426.14 22.4692L425.541 22.2056L424.336 21.6737L423.73 21.4054L423.12 21.137M427.92 23.2548L427.92 81.7325M427.92 23.2548L427.92 -35.2241M432.552 82.7538L437.024 83.7412M432.552 82.7538L427.92 81.7325M432.552 82.7538L432.552 140.21M437.024 83.7412L437.573 83.8614L438.118 83.9828L438.662 84.1018L441.346 84.6944M437.024 83.7412L437.024 140.21M441.346 29.1785L441.876 29.4117L443.974 30.337L445.524 31.0219M441.346 29.1785L441.346 84.6944M441.346 29.1785L441.346 -26.3374M427.92 81.7325L427.329 81.6014L426.736 81.4715L426.14 81.3391L423.12 80.6737M427.92 81.7325L427.92 140.21M432.552 140.21L437.024 140.21M432.552 140.21L427.92 140.21M437.024 140.21L441.346 140.21M441.346 84.6944L441.346 140.21M441.346 84.6944L442.929 85.0429L443.452 85.1595L445.524 85.6161M427.92 140.21L423.12 140.21M441.346 195.726L442.929 195.378L443.452 195.261L443.974 195.147L444.493 195.032L445.009 194.919L445.524 194.805M441.346 195.726L441.346 140.21M441.346 140.21L445.524 140.21M423.12 21.137L423.12 80.6737M423.12 21.137L423.12 -38.3997M418.144 79.5758L417.509 79.435L416.871 79.2953L412.98 78.4368M418.144 79.5758L423.12 80.6737M418.144 79.5758L418.144 140.21M423.12 80.6737L423.12 140.21M423.12 -38.3997L423.12 -97.9363M423.12 -38.3997L424.336 -37.5958L424.94 -37.195L425.541 -36.7979L426.14 -36.4008L426.736 -36.0074L427.329 -35.6139L427.92 -35.2241M423.12 140.21L418.144 140.21M427.92 -35.2241L427.92 -93.7018M412.98 78.4368L407.62 77.254M412.98 78.4368L412.98 140.21M418.144 140.21L412.98 140.21M412.98 140.21L407.619 140.21M407.62 14.2977L402.049 11.8398M407.62 14.2977L407.62 77.254M407.62 14.2977L407.62 -48.6586M407.62 77.254L402.049 76.0251M407.62 77.254L407.619 140.21M407.619 140.21L402.049 140.21M402.049 11.8398L402.049 76.0251M402.049 11.8398L402.049 -52.3454M396.256 74.7476L402.049 76.0251M396.256 74.7476L390.229 73.4178M396.256 74.7476L396.256 140.21M402.049 76.0251L402.049 140.21M402.049 -52.3454L402.049 -116.531M402.049 -52.3454L407.62 -48.6586M402.049 140.21L396.256 140.21M407.62 -48.6586L407.62 -111.615M390.229 73.4178L387.905 72.9053L385.546 72.3844L383.952 72.0322M390.229 73.4178L390.229 140.21M396.256 140.21L390.229 140.21M390.229 140.21L383.952 140.21M383.952 3.8554L380.714 2.42609L379.894 2.06543L377.408 0.967575M383.952 3.8554L383.952 72.0322M383.952 3.8554L383.952 -64.3227M383.952 72.0322L382.341 71.6776L379.07 70.9563L377.408 70.5896M383.952 72.0322L383.952 140.21M383.952 140.21L377.408 140.21M377.408 0.967575L377.408 70.5896M377.408 0.967575L377.408 -68.6531M370.582 69.0838L371.451 69.2744L377.408 70.5896M370.582 69.0838L363.454 67.5111M370.582 69.0838L370.582 140.21M377.408 70.5896L377.408 140.21M377.408 -68.6531L377.408 -138.274M377.408 -68.6531L383.952 -64.3227M377.408 140.21L370.582 140.21M383.952 -64.3227L383.952 -132.501M363.454 67.5111L356.003 65.8669M363.454 67.5111L363.454 140.21M370.582 140.21L363.454 140.21M363.454 140.21L356.003 140.21M356.003 -8.47651L348.208 -11.9156M356.003 -8.47651L356.003 65.8669M356.003 -8.47651L356.003 -82.8199M356.003 65.8669L348.208 64.1474M356.003 65.8669L356.003 140.21M356.003 140.21L348.208 140.21M348.208 -11.9156L348.208 64.1474M348.208 -11.9156L348.208 -87.9786M340.044 62.3464L348.208 64.1474M340.044 62.3464L331.483 60.4581M340.044 62.3464L340.044 140.21M348.208 64.1474L348.208 140.21M348.208 -87.9786L348.208 -164.041M348.208 -87.9786L356.003 -82.8199M348.208 140.21L340.044 140.21M356.003 -82.8199L356.003 -157.163M331.483 60.4581L322.497 58.475M331.483 60.4581L331.483 140.21M340.044 140.21L331.483 140.21M331.483 140.21L322.497 140.21M322.497 -23.2602L313.053 -27.4266M322.497 -23.2602L322.497 58.475M322.497 -23.2602L322.497 -104.994M322.497 58.475L313.053 56.3924M322.497 58.475L322.497 140.21M322.497 140.21L313.053 140.21M313.053 -27.4266L313.053 56.3924M313.053 -27.4266L313.053 -111.245M303.115 54.1993L313.053 56.3924M303.115 54.1993L292.643 51.8896M303.115 54.1993L303.115 140.21M313.053 56.3924L313.053 140.21M313.053 -111.245L313.053 -195.064M313.053 -111.245L322.497 -104.994M313.053 140.21L303.115 140.21M322.497 -104.994L322.497 -186.729M292.643 51.8896L281.592 49.4511M292.643 51.8896L292.643 140.21M303.115 140.21L292.643 140.21M292.643 140.21L281.592 140.21M281.592 -41.3068L269.916 -46.4594M281.592 -41.3068L281.592 49.4511M281.592 -41.3068L281.592 -132.066M281.592 49.4511L269.916 46.8754M281.592 49.4511L281.592 140.21M281.592 140.21L269.916 140.21M269.916 -46.4594L269.916 46.8754M269.916 -46.4594L269.916 -139.794M257.555 44.1492L269.916 46.8754M257.555 44.1492L244.452 41.2578M257.555 44.1492L257.555 140.21M269.916 46.8754L269.916 140.21M269.916 -139.794L269.916 -233.129M269.916 -139.794L281.592 -132.066M269.916 140.21L257.555 140.21M281.592 -132.066L281.592 -222.825M244.452 41.2578L230.535 38.1879M244.452 41.2578L244.452 140.21M257.555 140.21L244.452 140.21M244.452 140.21L230.535 140.21M230.535 -63.8345L215.727 -70.3678M230.535 -63.8345L230.535 38.1879M230.535 -63.8345L230.535 -165.857M230.535 38.1879L215.727 34.9212M230.535 38.1879L230.535 140.21M230.535 140.21L215.727 140.21M215.727 -70.3678L215.727 34.9212M215.727 -70.3678L215.727 -175.657M199.94 31.4385L215.727 34.9212M199.94 31.4385L183.072 27.7176M199.94 31.4385L199.94 140.21M215.727 34.9212L215.727 140.21M215.727 -175.657L215.727 -280.946M215.727 -175.657L230.535 -165.857M215.727 140.21L199.94 140.21M230.535 -165.857L230.535 -267.879M183.072 27.7176L165.01 23.7321M183.072 27.7176L183.072 140.21M199.94 140.21L183.072 140.21M183.072 140.21L165.01 140.21M165.01 -92.7449L145.62 -101.3M165.01 -92.7449L165.01 23.7321M165.01 -92.7449L165.01 -209.223M165.01 23.7321L145.62 19.455M165.01 23.7321L165.01 140.21M165.01 140.21L145.62 140.21M145.62 -101.3L145.62 19.455M145.62 -101.3L145.62 -222.055M124.752 14.8514L145.62 19.455M124.752 14.8514L102.23 9.88348M124.752 14.8514L124.752 140.21M145.62 19.455L145.62 140.21M145.62 -222.055L145.62 -342.811M145.62 -222.055L165.01 -209.223M145.62 140.21L124.752 140.21M165.01 -209.223L165.01 -325.701M102.23 9.88348L77.8493 4.50385M102.23 9.88348L102.23 140.21M124.752 140.21L102.23 140.21M102.23 140.21L77.8493 140.21M77.8494 -131.201L51.3695 -142.885M77.8494 -131.201L77.8493 4.50385M77.8494 -131.201L77.8494 -266.908M77.8493 4.50385L51.3695 -1.33724M77.8493 4.50385L77.8493 140.21M77.8493 140.21L51.3695 140.21M51.3695 -142.885L51.3695 -1.33724M51.3695 -142.885L51.3695 -284.432M22.5076 -7.70421L51.3695 -1.33724M22.5076 -7.70421L-9.07323 -14.671M22.5076 -7.70421L22.5076 140.21M51.3695 -1.33724L51.3695 140.21M51.3695 -284.432L51.3695 -425.98M51.3695 -284.432L77.8494 -266.908M51.3695 140.21L22.5076 140.21M77.8494 -266.908L77.8494 -402.613M-9.07323 -14.671L-43.7766 -22.3276M-9.07323 -14.671L-9.07323 140.21M22.5076 140.21L-9.07323 140.21M-9.07323 140.21L-43.7766 140.21M-43.7766 -184.864L-82.0893 -201.768M-43.7766 -184.864L-43.7766 -22.3276M-43.7766 -184.864L-43.7766 -347.402M-43.7766 -22.3276L-82.0893 -30.7796M-43.7766 -22.3276L-43.7766 140.21M-43.7766 140.21L-82.0893 140.21M-82.0893 -30.7796L-82.0893 -201.768M-82.0893 -30.7796L-82.0893 140.21M-82.0893 -201.768L-82.0893 -372.758M-82.0893 -372.758L-82.0893 -543.748M-82.0893 -372.758L-43.7766 -347.402M-43.7766 -347.402L-43.7766 -509.94M427.92 -210.657L425.541 -213.805L423.12 -217.01M427.92 -210.657L427.92 -152.18M427.92 -210.657L427.92 -269.135M432.552 -147.071L437.024 -142.137M432.552 -147.071L427.92 -152.18M432.552 -147.071L432.552 -89.6143M437.024 -142.137L437.024 -85.6676M437.024 -142.137L440.279 -138.547L441.346 -137.37M441.346 -192.886L441.346 -137.37M441.346 -192.886L442.929 -190.79L445.524 -187.356M441.346 -192.886L441.346 -248.402M427.92 -152.18L423.12 -157.473M427.92 -152.18L427.92 -93.7018M432.552 -89.6143L437.024 -85.6676M432.552 -89.6143L427.92 -93.7018M437.024 -85.6676L439.203 -83.7441L440.813 -82.3232L441.346 -81.8545M441.346 -137.37L441.346 -81.8545M441.346 -137.37L444.493 -133.9L445.524 -132.762M427.92 -93.7018L424.336 -96.864L423.12 -97.9363M441.346 -26.3374L441.876 -25.9876L442.929 -25.2906L444.493 -24.256L445.524 -23.5722M441.346 -26.3374L441.346 -81.8545M441.346 -81.8545L441.876 -81.3869L442.929 -80.4567L445.524 -78.1676M423.12 -217.01L423.12 -157.473M423.12 -217.01L423.12 -276.547M418.144 -162.963L418.776 -162.265L419.405 -161.571L421.894 -158.827L423.12 -157.473M418.144 -162.963L414.29 -167.215L412.98 -168.658M418.144 -162.963L418.144 -102.327M423.12 -157.473L423.12 -97.9363M423.12 -276.547L423.12 -336.084M423.12 -276.547L426.736 -270.964L427.92 -269.135M423.12 -97.9363L418.144 -102.327M427.92 -269.135L427.92 -327.614M412.98 -168.658L412.321 -169.385L411.659 -170.116L409.653 -172.327L408.979 -173.073L407.62 -174.571M412.98 -168.658L412.98 -106.885M418.144 -102.327L417.509 -102.888L412.98 -106.885M412.98 -106.885L412.321 -107.465L411.659 -108.051L410.994 -108.637L407.62 -111.615M407.62 -237.527L402.049 -244.901M407.62 -237.527L407.62 -174.571M407.62 -237.527L407.62 -300.484M407.62 -174.571L402.049 -180.716M407.62 -174.571L407.62 -111.615M407.62 -111.615L402.049 -116.531M402.049 -244.901L402.049 -180.716M402.049 -244.901L402.049 -309.086M396.256 -187.105L402.049 -180.716M396.256 -187.105L390.229 -193.753M396.256 -187.105L396.256 -121.642M402.049 -180.716L402.049 -116.531M402.049 -309.086L402.049 -373.272M402.049 -309.086L407.62 -300.484M402.049 -116.531L396.256 -121.642M407.62 -300.484L407.62 -363.441M390.229 -193.753L383.952 -200.678M390.229 -193.753L390.229 -126.961M396.256 -121.642L394.772 -122.952L390.229 -126.961M390.229 -126.961L387.905 -129.012L385.546 -131.095L383.952 -132.501M383.952 -268.856L380.714 -273.141L377.408 -277.517M383.952 -268.856L383.952 -200.678M383.952 -268.856L383.952 -337.034M383.952 -200.678L377.408 -207.896M383.952 -200.678L383.952 -132.501M383.952 -132.501L377.408 -138.274M377.408 -277.517L377.408 -207.896M377.408 -277.517L377.408 -347.137M370.582 -215.425L377.408 -207.896M370.582 -215.425L363.454 -223.288M370.582 -215.425L370.582 -144.298M377.408 -207.896L377.408 -138.274M377.408 -347.137L377.408 -416.759M377.408 -347.137L383.952 -337.034M377.408 -138.274L370.582 -144.298M383.952 -337.034L383.952 -405.211M363.454 -223.288L361.622 -225.309L356.003 -231.505M363.454 -223.288L363.454 -150.589M370.582 -144.298L363.454 -150.589M363.454 -150.589L362.54 -151.394L359.77 -153.838L356.003 -157.163M356.003 -305.849L348.208 -316.167M356.003 -305.849L356.003 -231.505M356.003 -305.849L356.003 -380.192M356.003 -231.505L348.208 -240.104M356.003 -231.505L356.003 -157.163M356.003 -157.163L348.208 -164.041M348.208 -316.167L348.208 -240.104M348.208 -316.167L348.208 -392.23M340.044 -249.11L345.191 -243.432L348.208 -240.104M340.044 -249.11L331.483 -258.553M340.044 -249.11L340.044 -171.246M348.208 -240.104L348.208 -164.041M348.208 -392.23L348.208 -468.293M348.208 -392.23L356.003 -380.192M348.208 -164.041L340.044 -171.246M356.003 -380.192L356.003 -454.536M331.483 -258.553L322.497 -268.465M331.483 -258.553L331.483 -178.8M340.044 -171.246L331.483 -178.8M331.483 -178.8L322.497 -186.729M322.497 -350.2L313.053 -362.701M322.497 -350.2L322.497 -268.465M322.497 -350.2L322.497 -431.934M322.497 -268.465L313.053 -278.881M322.497 -268.465L322.497 -186.729M322.497 -186.729L313.053 -195.064M313.053 -362.701L313.053 -278.881M313.053 -362.701L313.053 -446.519M303.115 -289.844L313.053 -278.881M303.115 -289.844L292.643 -301.395M303.115 -289.844L303.115 -203.833M313.053 -278.881L313.053 -195.064M313.053 -446.519L313.053 -530.336M313.053 -446.519L322.497 -431.934M313.053 -195.064L303.115 -203.833M322.497 -431.934L322.497 -513.669M292.643 -301.395L281.592 -313.583M292.643 -301.395L292.643 -213.074M303.115 -203.833L292.643 -213.074M292.643 -213.074L281.592 -222.825M281.592 -404.342L269.916 -419.799M281.592 -404.342L281.592 -313.583M281.592 -404.342L281.592 -495.102M281.592 -313.583L269.916 -326.464M281.592 -313.583L281.592 -222.825M281.592 -222.825L269.916 -233.129M269.916 -419.799L269.916 -326.464M269.916 -419.799L269.916 -513.134M257.555 -340.098L269.916 -326.464M257.555 -340.098L244.452 -354.551M257.555 -340.098L257.555 -244.035M269.916 -326.464L269.916 -233.129M269.916 -513.134L269.916 -606.469M269.916 -513.134L281.592 -495.102M269.916 -233.129L257.555 -244.035M281.592 -495.102L281.592 -585.86M244.452 -354.551L230.535 -369.902M244.452 -354.551L244.452 -255.599M257.555 -244.035L244.452 -255.599M244.452 -255.599L230.535 -267.879M230.535 -471.924L215.727 -491.524M230.535 -471.924L230.535 -369.902M230.535 -471.924L230.535 -573.947M230.535 -369.902L215.727 -386.235M230.535 -369.902L230.535 -267.879M230.535 -267.879L215.727 -280.946M215.727 -491.524L215.727 -386.235M215.727 -491.524L215.727 -596.813M199.94 -403.649L215.727 -386.235M199.94 -403.649L183.072 -422.255M199.94 -403.649L199.94 -294.877M215.727 -386.235L215.727 -280.946M215.727 -596.813L215.727 -702.102M215.727 -596.813L230.535 -573.947M215.727 -280.946L199.94 -294.877M230.535 -573.947L230.535 -675.969M183.072 -422.255L165.01 -442.178M183.072 -422.255L183.072 -309.762M199.94 -294.877L183.072 -309.762M183.072 -309.762L165.01 -325.701M165.01 -558.657L145.62 -584.321M165.01 -558.657L165.01 -442.178M165.01 -558.657L165.01 -675.135M165.01 -442.178L145.62 -463.566M165.01 -442.178L165.01 -325.701M165.01 -325.701L145.62 -342.811M145.62 -584.321L145.62 -463.566M145.62 -584.321L145.62 -705.076M124.752 -486.584L145.62 -463.566M124.752 -486.584L102.23 -511.426M124.752 -486.584L124.752 -361.225M145.62 -463.566L145.62 -342.811M145.62 -705.076L145.62 -825.831M145.62 -705.076L165.01 -675.135M145.62 -342.811L124.752 -361.225M165.01 -675.135L165.01 -791.613M102.23 -511.426L77.8494 -538.32M102.23 -511.426L102.23 -381.099M124.752 -361.225L102.23 -381.099M102.23 -381.099L77.8494 -402.613M77.8494 -674.025L51.3695 -709.075M77.8494 -674.025L77.8494 -538.32M77.8494 -674.025L77.8494 -809.731M77.8494 -538.32L51.3695 -567.527M77.8494 -538.32L77.8494 -402.613M77.8494 -402.613L51.3695 -425.98M51.3695 -709.075L51.3695 -567.527M51.3695 -709.075L51.3695 -850.623M22.5076 -599.363L51.3695 -567.527M22.5076 -599.363L-9.07321 -634.199M22.5076 -599.363L22.5076 -451.449M51.3695 -567.527L51.3695 -425.98M51.3695 -850.623L51.3695 -992.17M51.3695 -850.623L77.8494 -809.731M51.3695 -425.98L22.5076 -451.449M77.8494 -809.731L77.8494 -945.437M-9.07321 -634.199L-43.7766 -672.477M-9.07321 -634.199L-9.07321 -479.316M22.5076 -451.449L-9.07321 -479.316M-9.07321 -479.316L-43.7766 -509.94M-43.7766 -835.014L-82.0893 -885.726M-43.7766 -835.014L-43.7766 -672.477M-43.7766 -835.014L-43.7766 -997.552M-43.7766 -672.477L-82.0893 -714.736M-43.7766 -672.477L-43.7766 -509.94M-43.7766 -509.94L-82.0893 -543.748M-82.0893 -714.736L-82.0893 -885.726M-82.0893 -714.736L-82.0893 -543.748M-82.0893 -885.726L-82.0885 -1025.58M-43.7766 -997.552L-61.9267 -1025.58M-43.7766 -997.552L-43.7766 -1025.58M427.92 -444.569L423.12 -455.157M427.92 -444.569L427.92 -386.092M427.92 -444.569L427.92 -503.047M432.552 -376.895L437.024 -368.015M432.552 -376.895L427.92 -386.092M432.552 -376.895L432.552 -319.439M437.024 -368.015L437.024 -311.545M437.024 -368.015L441.346 -359.434M441.346 -414.951L441.346 -359.434M441.346 -414.951L442.929 -411.457L445.524 -405.733M441.346 -414.951L441.346 -470.467M427.92 -386.092L423.12 -395.621M427.92 -386.092L427.92 -327.614M432.552 -319.439L437.024 -311.545M432.552 -319.439L427.92 -327.614M437.024 -311.545L440.279 -305.8L441.346 -303.918M441.346 -359.434L441.876 -358.382L445.524 -351.139M441.346 -359.434L441.346 -303.918M427.92 -327.614L423.12 -336.084M441.346 -248.402L445.524 -241.95M441.346 -248.402L441.346 -303.918M441.346 -303.918L442.929 -301.124L445.524 -296.544M423.12 -455.157L423.12 -395.621M423.12 -455.157L423.12 -514.694M418.144 -405.501L423.12 -395.621M418.144 -405.501L412.98 -415.753M418.144 -405.501L418.144 -344.866M423.12 -395.621L423.12 -336.084M423.12 -514.694L423.12 -574.231M423.12 -514.694L427.92 -503.047M423.12 -336.084L418.144 -344.866M427.92 -503.047L427.92 -561.525M412.98 -415.753L411.659 -418.377L407.62 -426.398M412.98 -415.753L412.98 -353.979M418.144 -344.866L412.98 -353.979M412.98 -353.979L407.62 -363.441M407.62 -489.354L406.934 -490.863L402.049 -501.642M407.62 -489.354L407.62 -426.398M407.62 -489.354L407.62 -552.31M407.62 -426.398L402.049 -437.457M407.62 -426.398L407.62 -363.441M407.62 -363.441L406.934 -364.648L402.049 -373.272M402.049 -501.642L402.049 -437.457M402.049 -501.642L402.049 -565.827M396.257 -448.957L402.049 -437.457M396.257 -448.957L390.229 -460.925M396.257 -448.957L396.257 -383.494M402.049 -437.457L402.049 -373.272M402.049 -565.827L402.049 -630.013M402.049 -565.827L407.62 -552.31M402.049 -373.272L396.257 -383.494M407.62 -552.31L407.62 -615.267M390.229 -460.925L383.952 -473.389M390.229 -460.925L390.229 -394.132M396.257 -383.494L390.229 -394.132M390.229 -394.132L383.952 -405.211M383.952 -541.566L377.408 -556.001M383.952 -541.566L383.952 -473.389M383.952 -541.566L383.952 -609.744M383.952 -473.389L377.408 -486.38M383.952 -473.389L383.952 -405.211M383.952 -405.211L377.408 -416.759M377.408 -556.001L377.408 -486.38M377.408 -556.001L377.408 -625.623M370.582 -499.934L377.408 -486.38M370.582 -499.934L363.454 -514.087M370.582 -499.934L370.582 -428.807M377.408 -486.38L377.408 -416.759M377.408 -625.623L377.408 -695.243M377.408 -625.623L383.952 -609.744M377.408 -416.759L370.582 -428.807M383.952 -609.744L383.952 -677.922M363.454 -514.087L356.003 -528.879M363.454 -514.087L363.454 -441.387M370.582 -428.807L363.454 -441.387M363.454 -441.387L356.003 -454.536M356.003 -603.223L348.208 -620.419M356.003 -603.223L356.003 -528.879M356.003 -603.223L356.003 -677.566M356.003 -528.879L348.208 -544.356M356.003 -528.879L356.003 -454.536M356.003 -454.536L348.208 -468.293M348.208 -620.419L348.208 -544.356M348.208 -620.419L348.208 -696.482M340.044 -560.567L348.208 -544.356M340.044 -560.567L331.483 -577.563M340.044 -560.567L340.044 -482.703M348.208 -544.356L348.208 -468.293M348.208 -696.482L348.208 -772.545M348.208 -696.482L356.003 -677.566M348.208 -468.293L340.044 -482.703M356.003 -677.566L356.003 -751.909M331.483 -577.563L322.497 -595.404M331.483 -577.563L331.483 -497.811M340.044 -482.703L331.483 -497.811M331.483 -497.811L322.497 -513.669M322.497 -677.14L313.053 -697.973M322.497 -677.14L322.497 -595.404M322.497 -677.14L322.497 -758.874M322.497 -595.404L313.053 -614.155M322.497 -595.404L322.497 -513.669M322.497 -513.669L313.053 -530.336M313.053 -697.973L313.053 -614.155M313.053 -697.973L313.053 -781.792M303.115 -633.888L313.053 -614.155M303.115 -633.888L292.643 -654.679M303.115 -633.888L303.115 -547.877M313.053 -614.155L313.053 -530.336M313.053 -781.792L313.053 -865.61M313.053 -781.792L322.497 -758.874M313.053 -530.336L303.115 -547.877M322.497 -758.874L322.497 -840.609M292.643 -654.679L281.592 -676.619M292.643 -654.679L292.643 -566.358M303.115 -547.877L292.643 -566.358M292.643 -566.358L281.592 -585.86M281.592 -767.378L269.916 -793.138M281.592 -767.378L281.592 -676.619M281.592 -767.378L281.592 -858.136M281.592 -676.619L269.916 -699.803M281.592 -676.619L281.592 -585.86M281.592 -585.86L269.916 -606.469M269.916 -793.138L269.916 -699.803M269.916 -793.138L269.916 -886.473M257.555 -724.343L269.916 -699.803M257.555 -724.343L244.452 -750.36M257.555 -724.343L257.555 -628.282M269.916 -699.803L269.916 -606.469M269.916 -886.473L269.916 -979.808M269.916 -886.473L281.592 -858.136M269.916 -606.469L257.555 -628.282M281.592 -858.136L281.592 -948.895M244.452 -750.36L230.535 -777.991M244.452 -750.36L244.452 -651.407M257.555 -628.282L244.452 -651.407M244.452 -651.407L230.535 -675.969M230.535 -880.014L215.727 -912.68M230.535 -880.014L230.535 -777.991M230.535 -880.014L230.535 -982.036M230.535 -777.991L215.727 -807.391M230.535 -777.991L230.535 -675.969M230.535 -675.969L215.727 -702.102M215.727 -912.68L215.727 -807.391M215.727 -912.68L215.727 -1017.97M199.94 -838.738L215.727 -807.391M199.94 -838.738L183.072 -872.227M199.94 -838.738L199.94 -729.966M215.727 -807.391L215.727 -702.102M215.727 -1017.97L230.535 -982.036M215.727 -1017.97L215.727 -1025.58M215.727 -1017.97L212.591 -1025.58M215.727 -702.102L199.94 -729.966M230.535 -982.036L230.535 -1025.58M183.072 -872.227L165.01 -908.09M183.072 -872.227L183.072 -759.735M199.94 -729.966L183.072 -759.735M183.072 -759.735L165.01 -791.613M165.01 -1024.57L165.01 -908.09M165.01 -1024.57L165.01 -1025.58M165.01 -1024.57L164.551 -1025.58M165.01 -908.09L145.62 -946.588M165.01 -908.09L165.01 -791.613M165.01 -791.613L145.62 -825.831M124.752 -988.019L145.62 -946.588M124.752 -988.019L124.752 -862.661M124.752 -988.019L124.752 -1025.58M124.752 -988.019L105.835 -1025.58M145.62 -946.588L145.62 -825.831M145.62 -946.588L145.62 -1025.58M145.62 -825.831L124.752 -862.661M124.752 -862.661L102.23 -902.408M102.23 -902.408L77.8494 -945.437M102.23 -902.408L102.23 -1025.58M77.8494 -945.437L51.3695 -992.17M77.8494 -945.437L77.8494 -1025.58M51.3695 -992.17L51.3695 -1025.58M51.3695 -992.17L32.4389 -1025.58M427.92 -678.482L423.12 -693.304M427.92 -678.482L427.92 -620.003M427.92 -678.482L427.92 -736.959M432.552 -606.72L437.024 -593.893M432.552 -606.72L427.92 -620.003M432.552 -606.72L432.552 -549.263M437.024 -593.893L437.024 -537.423M437.024 -593.893L441.346 -581.499M441.346 -637.015L441.346 -581.499M441.346 -637.015L445.524 -624.111M441.346 -637.015L441.346 -692.53M427.92 -620.003L423.12 -633.767M427.92 -620.003L427.92 -561.525M432.552 -549.263L437.024 -537.423M432.552 -549.263L427.92 -561.525M437.024 -537.423L441.346 -525.983M441.346 -581.499L441.876 -579.98L445.524 -569.517M441.346 -581.499L441.346 -525.983M427.92 -561.525L423.12 -574.231M441.346 -470.467L445.524 -460.328M441.346 -470.467L441.346 -525.983M441.346 -525.983L441.876 -524.58L445.524 -514.922M423.12 -693.304L423.12 -633.767M423.12 -693.304L423.12 -752.841M418.144 -648.04L423.12 -633.767M418.144 -648.04L412.98 -662.848M418.144 -648.04L418.144 -587.404M423.12 -633.767L423.12 -574.231M423.12 -752.841L423.12 -812.377M423.12 -752.841L427.92 -736.959M423.12 -574.231L418.144 -587.404M427.92 -736.959L427.92 -795.437M412.98 -662.848L407.62 -678.223M412.98 -662.848L412.98 -601.074M418.144 -587.404L417.509 -589.086L412.98 -601.074M412.98 -601.074L407.62 -615.267M407.62 -741.179L402.049 -758.383M407.62 -741.179L407.62 -678.223M407.62 -741.179L407.62 -804.135M407.62 -678.223L402.049 -694.198M407.62 -678.223L407.62 -615.267M407.62 -615.267L402.049 -630.013M402.049 -758.383L402.049 -694.198M402.049 -758.383L402.049 -822.568M396.257 -710.809L402.049 -694.198M396.257 -710.809L390.229 -728.096M396.257 -710.809L396.257 -645.346M402.049 -694.198L402.049 -630.013M402.049 -822.568L402.049 -886.754M402.049 -822.568L407.62 -804.135M402.049 -630.013L396.257 -645.346M407.62 -804.135L407.62 -867.092M390.229 -728.096L383.952 -746.099M390.229 -728.096L390.229 -661.303M396.257 -645.346L390.229 -661.303M390.229 -661.303L383.952 -677.922M383.952 -814.277L377.408 -834.486M383.952 -814.277L383.952 -746.099M383.952 -814.277L383.952 -882.455M383.952 -746.099L377.408 -764.864M383.952 -746.099L383.952 -677.922M383.952 -677.922L377.408 -695.243M377.408 -834.486L377.408 -764.864M377.408 -834.486L377.408 -904.107M370.582 -784.442L377.408 -764.864M370.582 -784.442L363.454 -804.885M370.582 -784.442L370.582 -713.314M377.408 -764.864L377.408 -695.243M377.408 -904.107L377.408 -973.728M377.408 -904.107L383.952 -882.455M377.408 -695.243L370.582 -713.314M383.952 -882.455L383.952 -950.632M363.454 -804.885L356.003 -826.253M363.454 -804.885L363.454 -732.186M370.582 -713.314L363.454 -732.186M363.454 -732.186L356.003 -751.909M356.003 -900.596L348.208 -924.671M356.003 -900.596L356.003 -826.253M356.003 -900.596L356.003 -974.938M356.003 -826.253L348.208 -848.608M356.003 -826.253L356.003 -751.909M356.003 -751.909L348.208 -772.545M348.208 -924.671L348.208 -848.608M340.044 -872.023L348.208 -848.608M340.044 -872.023L331.483 -896.573M340.044 -872.023L340.044 -794.158M348.208 -848.608L348.208 -772.545M348.208 -772.545L340.044 -794.158M356.003 -974.938L356.003 -1025.58M331.483 -896.573L322.497 -922.344M331.483 -896.573L331.483 -816.821M340.044 -794.158L331.483 -816.821M331.483 -816.821L322.497 -840.609M322.497 -1004.08L322.497 -922.344M322.497 -1004.08L322.497 -1025.58M322.497 -1004.08L315.536 -1025.58M322.497 -922.344L313.053 -949.429M322.497 -922.344L322.497 -840.609M322.497 -840.609L313.053 -865.61M303.115 -977.93L313.053 -949.429M303.115 -977.93L292.643 -1007.96M303.115 -977.93L303.115 -891.919M303.115 -977.93L303.115 -1025.58M313.053 -949.429L313.053 -865.61M313.053 -949.429L313.053 -1025.58M313.053 -865.61L303.115 -891.919M315.459 -1025.82L315.536 -1025.58M292.643 -1007.96L292.643 -919.642M292.643 -1007.96L292.643 -1025.58M292.643 -1007.96L286.5 -1025.58M303.115 -891.919L292.643 -919.642M292.643 -919.642L281.592 -948.895M281.592 -948.895L269.916 -979.808M281.592 -948.895L281.592 -1025.58M257.555 -1012.53L269.916 -979.808M257.555 -1012.53L257.555 -1025.58M257.555 -1012.53L252.625 -1025.58M269.916 -979.808L269.916 -1025.58M427.92 -912.392L423.12 -931.451M427.92 -912.392L427.92 -853.915M427.92 -912.392L427.92 -970.871M432.552 -836.544L437.024 -819.77M432.552 -836.544L427.92 -853.915M432.552 -836.544L432.552 -779.088M437.024 -819.77L437.024 -763.301M437.024 -819.77L441.346 -803.563M441.346 -859.079L441.346 -803.563M441.346 -859.079L445.524 -842.489M441.346 -859.079L441.346 -914.595M427.92 -853.915L423.12 -871.914M427.92 -853.915L427.92 -795.437M432.552 -779.088L437.024 -763.301M432.552 -779.088L427.92 -795.437M437.024 -763.301L441.346 -748.048M441.346 -803.563L441.346 -748.048M441.346 -803.563L445.524 -787.893M427.92 -795.437L423.12 -812.377M441.346 -692.53L445.524 -678.705M441.346 -692.53L441.346 -748.048M441.346 -748.048L445.524 -733.299M423.12 -931.451L423.12 -871.914M423.12 -931.451L423.12 -990.987M418.144 -890.578L423.12 -871.914M418.144 -890.578L412.98 -909.942M418.144 -890.578L418.144 -829.943M423.12 -871.914L423.12 -812.377M423.12 -990.987L427.92 -970.871M423.12 -990.987L423.12 -1025.58M423.12 -812.377L418.144 -829.943M427.92 -970.871L427.92 -1025.58M412.98 -909.942L407.62 -930.048M412.98 -909.942L412.98 -848.168M418.144 -829.943L412.98 -848.168M412.98 -848.168L407.62 -867.092M407.62 -993.004L402.049 -1015.12M407.62 -993.004L407.62 -930.048M407.62 -993.004L407.62 -1025.58M407.62 -930.048L402.049 -950.939M407.62 -930.048L407.62 -867.092M407.62 -867.092L402.049 -886.754M396.257 -972.661L402.049 -950.939M396.257 -972.661L390.229 -995.267M396.257 -972.661L396.257 -907.199M396.257 -972.661L396.257 -1025.58M402.049 -950.939L402.049 -1015.12M402.049 -950.939L402.049 -886.754M402.049 -1015.12L399.416 -1025.58M402.049 -1015.12L402.049 -1025.58M402.049 -886.754L396.257 -907.199M390.229 -995.267L383.952 -1018.81M390.229 -995.267L390.229 -928.474M390.229 -995.267L390.229 -1025.58M396.257 -907.199L390.229 -928.474M390.229 -928.474L383.952 -950.632M383.952 -1018.81L383.952 -950.632M383.952 -1018.81L382.147 -1025.58M383.952 -1018.81L383.952 -1025.58M383.952 -950.632L377.408 -973.728M370.582 -997.823L377.408 -973.728M370.582 -997.823L363.454 -1022.98M370.582 -997.823L370.582 -1025.58M377.408 -973.728L377.408 -1025.58M377.408 -1025.94L377.408 -1025.58M363.454 -1022.98L363.454 -1025.58M363.454 -1022.98L362.718 -1025.58M362.54 -1026.21L362.718 -1025.58M432.552 -1008.91L437.024 -989.179M432.552 -1008.91L432.552 -1025.58M432.552 -1008.91L428.774 -1025.58M437.024 -989.179L441.346 -970.111M437.024 -989.179L437.024 -1025.58M441.346 -914.595L445.524 -897.083M441.346 -914.595L441.346 -970.111M441.346 -970.111L445.524 -951.677M441.346 -970.111L441.346 -1025.58M445.524 904.531L445.524 959.126M445.524 904.531L445.524 849.937M449.565 945.752L448.567 949.053L445.524 959.126M449.565 945.752L449.565 999.455M445.524 959.126L445.524 1013.72M449.565 999.455L448.567 1002.98L448.066 1004.75L445.524 1013.72M445.524 1013.72L445.524 1068.31M445.524 1068.31L445.524 1122.91M445.524 849.937L445.524 795.343M445.524 1122.91L445.524 1177.5M445.524 1177.5L449.565 1160.56M445.524 1177.5L445.524 1232.1M449.565 1160.56L449.565 1214.26M445.524 686.153L445.524 740.749M445.524 686.153L445.524 631.559M449.565 730.94L448.567 733.362L448.066 734.581L445.524 740.749M449.565 730.94L449.565 784.643M445.524 740.749L445.524 795.343M449.565 784.643L445.524 795.343M445.524 631.559L445.524 576.965M445.524 467.777L445.524 522.371M445.524 467.777L445.524 413.182M449.565 516.129L449.068 516.899L448.567 517.67L448.066 518.446L445.524 522.371M449.565 516.129L449.565 569.832M445.524 522.371L445.524 576.965M449.565 569.832L445.524 576.965M445.524 413.182L445.524 358.587M445.524 249.399L445.524 303.993M445.524 249.399L445.524 194.805M449.565 301.319L445.524 303.993M449.565 301.319L449.565 355.022M445.524 303.993L445.524 358.587M449.565 355.022L449.068 355.461L448.567 355.902L448.066 356.345L445.524 358.587M445.524 194.805L445.524 140.21M445.524 31.0219L445.524 85.6161M445.524 31.0219L445.524 -23.5722M449.565 86.5074L445.524 85.6161M449.565 86.5074L449.565 140.21M445.524 85.6161L445.524 140.21M449.565 140.21L445.524 140.21M445.524 -23.5722L445.524 -78.1676M445.524 -187.356L445.524 -132.762M445.524 -187.356L445.524 -241.95M449.565 -128.304L448.567 -129.404L446.547 -131.634L445.524 -132.762M449.565 -128.304L449.565 -74.6011M445.524 -132.762L445.524 -78.1676M449.565 -74.6011L449.068 -75.0407L448.567 -75.4815L448.066 -75.9247L445.524 -78.1676M445.524 -241.95L445.524 -296.544M445.524 -405.733L445.524 -351.139M445.524 -405.733L445.524 -460.328M449.565 -343.114L448.567 -345.096L448.066 -346.093L445.524 -351.139M449.565 -343.114L449.565 -289.411M445.524 -351.139L445.524 -296.544M449.565 -289.411L449.068 -290.29L445.524 -296.544M445.524 -460.328L445.524 -514.922M445.524 -624.111L445.524 -569.517M445.524 -624.111L445.524 -678.705M449.565 -557.925L448.567 -560.788L448.066 -562.228L445.524 -569.517M449.565 -557.925L449.565 -504.223M445.524 -569.517L445.524 -514.922M449.565 -504.223L449.068 -505.541L445.524 -514.922M445.524 -678.705L445.524 -733.299M445.524 -842.489L445.524 -787.893M445.524 -842.489L445.524 -897.083M449.565 -772.737L445.524 -787.893M449.565 -772.737L449.565 -719.034M445.524 -787.893L445.524 -733.299M449.565 -719.034L448.567 -722.556L448.066 -724.329L445.524 -733.299M445.524 -897.083L445.524 -951.677M449.565 -987.547L445.524 -1006.27M449.565 -987.547L449.565 -933.844M449.565 -987.547L449.565 -1025.58M445.524 -1006.27L445.524 -951.677M445.524 -1006.27L441.356 -1025.58M445.524 -1006.27L445.524 -1025.58M449.565 -933.844L448.567 -938.247L445.524 -951.677M449.565 1214.26L448.567 1218.67L445.524 1232.1M445.524 1232.1L445.524 1286.69M445.524 1286.69L441.356 1306M445.524 1286.69L445.524 1306M252.625 1306L257.555 1306M252.625 1306L244.452 1306M257.555 1306L269.915 1306M244.452 1306L242.01 1306L230.535 1306M230.535 1306L215.727 1306M348.208 1306L356.003 1306M348.208 1306L340.7 1306M449.565 1306L445.524 1306M445.524 1306L441.356 1306M441.356 1306L441.346 1306.05L441.346 1306M441.356 1306L441.346 1306M441.346 1306L437.024 1306M437.024 1306L432.551 1306M432.551 1306L428.774 1306M428.774 1306L427.92 1306M427.92 1306L423.12 1306M423.12 1306L418.144 1306M418.144 1306L414.868 1306M414.868 1306L412.98 1306M412.98 1306L407.619 1306M407.619 1306L402.049 1306M402.049 1306L399.416 1306M399.416 1306L396.256 1306M396.256 1306L390.229 1306M390.229 1306L383.952 1306M383.952 1306L382.147 1306M382.147 1306L377.408 1306M377.408 1306L370.582 1306M370.582 1306L363.454 1306M363.454 1306L362.718 1306M362.718 1306L356.003 1306M340.043 1306L331.483 1306M340.043 1306L340.7 1306M331.483 1306L322.497 1306M322.497 1306L315.536 1306M315.536 1306L313.053 1306M313.053 1306L303.115 1306M303.115 1306L292.643 1306M292.643 1306L286.5 1306M286.5 1306L281.592 1306M281.592 1306L269.915 1306M215.727 1306L212.591 1306M212.591 1306L199.94 1306M199.94 1306L183.072 1306M183.072 1306L165.01 1306M165.01 1306L164.551 1306M164.551 1306L145.62 1306M145.62 1306L124.752 1306M124.752 1306L105.834 1306M105.834 1306L102.23 1306M102.23 1306L77.8493 1306M77.8493 1306L51.3695 1306M51.3695 1306L32.4388 1306M32.4388 1306L22.5075 1306M22.5075 1306L-9.07328 1306M-9.07328 1306L-43.7767 1306M-43.7767 1306L-61.9268 1306M-61.9268 1306L-82.0886 1306M-82.0886 1306L-82.2254 1306L-82.2253 -1025.58L-82.0885 -1025.58M340.044 -1025.58L331.483 -1025.58M340.044 -1025.58L340.7 -1025.58M340.7 -1025.58L348.208 -1025.58M348.208 -1025.58L356.003 -1025.58M356.003 -1025.58L362.718 -1025.58M362.718 -1025.58L363.454 -1025.58M363.454 -1025.58L370.582 -1025.58M370.582 -1025.58L377.408 -1025.58M377.408 -1025.58L382.147 -1025.58M382.147 -1025.58L383.952 -1025.58M383.952 -1025.58L390.229 -1025.58M390.229 -1025.58L396.257 -1025.58M396.257 -1025.58L399.416 -1025.58M399.416 -1025.58L402.049 -1025.58M402.049 -1025.58L407.62 -1025.58M407.62 -1025.58L412.98 -1025.58M412.98 -1025.58L414.868 -1025.58M414.868 -1025.58L418.144 -1025.58M418.144 -1025.58L423.12 -1025.58M423.12 -1025.58L427.92 -1025.58M427.92 -1025.58L428.774 -1025.58M428.774 -1025.58L432.552 -1025.58M432.552 -1025.58L437.024 -1025.58M437.024 -1025.58L441.346 -1025.58M441.346 -1025.58L441.346 -1025.63L441.356 -1025.58M441.346 -1025.58L441.356 -1025.58M441.356 -1025.58L445.524 -1025.58M445.524 -1025.58L449.565 -1025.58M-82.0885 -1025.58L-61.9267 -1025.58M-61.9267 -1025.58L-43.7766 -1025.58M-43.7766 -1025.58L-9.07385 -1025.58M-9.07385 -1025.58L22.5076 -1025.58M22.5076 -1025.58L32.4389 -1025.58M32.4389 -1025.58L51.3695 -1025.58M51.3695 -1025.58L77.8494 -1025.58M77.8494 -1025.58L102.23 -1025.58M102.23 -1025.58L105.835 -1025.58M105.835 -1025.58L124.752 -1025.58M124.752 -1025.58L145.62 -1025.58M145.62 -1025.58L164.551 -1025.58M164.551 -1025.58L165.01 -1025.58M165.01 -1025.58L183.072 -1025.58M183.072 -1025.58L199.94 -1025.58M199.94 -1025.58L212.591 -1025.58M212.591 -1025.58L215.727 -1025.58M215.727 -1025.58L230.535 -1025.58M230.535 -1025.58L244.452 -1025.58M244.452 -1025.58L252.625 -1025.58M252.625 -1025.58L257.555 -1025.58M257.555 -1025.58L269.916 -1025.58M269.916 -1025.58L281.592 -1025.58M281.592 -1025.58L286.5 -1025.58M286.5 -1025.58L292.643 -1025.58M292.643 -1025.58L303.115 -1025.58M303.115 -1025.58L313.053 -1025.58M313.053 -1025.58L315.536 -1025.58M315.536 -1025.58L322.497 -1025.58M322.497 -1025.58L331.483 -1025.58" stroke="url(#paint0_linear_12_2956)" stroke-opacity="0.34" stroke-width="1.41008" stroke-miterlimit="10" stroke-linecap="round" stroke-linejoin="round"/>
<defs>
<linearGradient id="paint0_linear_12_2956" x1="453.477" y1="140.21" x2="77.8841" y2="140.21" gradientUnits="userSpaceOnUse">
<stop stop-color="#CED2DF" stop-opacity="0"/>
<stop offset="1" stop-color="white"/>
</linearGradient>
</defs>
</svg>
