<svg width="455" height="281" viewBox="0 0 455 281" fill="none" xmlns="http://www.w3.org/2000/svg">
<path d="M5.43373 -987.549L1.52151 -969.427M5.43373 -987.549L5.43373 -933.846M5.43373 -987.549L9.47515 -1006.27M5.43373 -987.549L5.43372 -1025.58M1.52151 -969.427L1.52303 -976.021L1.5315 -982.547L1.55532 -988.937L1.60223 -995.127L1.67835 -1001.05L1.79293 -1006.64L1.9521 -1011.83L2.15507 -1016.65L2.43574 -1020.78L2.76099 -1024.55L2.87492 -1025.58L5.43372 -1025.58M1.52151 -969.427L1.52151 -916.588M1.52151 -916.588L1.52151 -863.748M1.52151 -916.588L5.43373 -933.846M1.52151 -863.748L1.52151 -810.908M1.52151 -863.748L5.43373 -880.143M1.52151 -810.908L1.52152 -758.068M1.52151 -810.908L5.43373 -826.442M1.52152 -758.068L1.52152 -705.229M1.52152 -758.068L5.43374 -772.739M1.52152 -705.229L1.52152 -652.388M1.52152 -705.229L5.43374 -719.036M1.52152 -652.388L1.52152 -599.549M1.52152 -652.388L5.43374 -665.333M1.52152 -599.549L1.52153 -546.709M1.52152 -599.549L5.43374 -611.63M1.52153 -546.709L1.52153 -493.869M1.52153 -546.709L5.43375 -557.927M1.52153 -493.869L1.52153 -441.029M1.52153 -493.869L5.43375 -504.225M1.52153 -441.029L1.52153 -388.19M1.52153 -441.029L5.43375 -450.522M1.52153 -388.19L1.52153 -335.35M1.52153 -388.19L5.43375 -396.819M1.52153 -335.35L1.52154 -282.51M1.52153 -335.35L2.48805 -337.268L3.95131 -340.175L5.43375 -343.116M1.52154 -282.51L1.52154 -229.67M1.52154 -282.51L2.48805 -284.215L5.43376 -289.413M1.52154 -229.67L1.52154 -176.831M1.52154 -229.67L5.43376 -235.711M1.52154 -176.831L1.52154 -123.99M1.52154 -176.831L2.974 -178.752L4.4434 -180.699L4.93782 -181.352L5.43376 -182.009M1.52154 -123.99L1.52155 -71.1508M1.52154 -123.99L2.974 -125.592L3.4615 -126.131L3.95131 -126.671L5.43376 -128.306M1.52155 -71.1508L1.52155 -18.3114M1.52155 -71.1508L5.43377 -74.6031M1.52155 -18.3114L2.00365 -18.6307L2.48806 -18.95L4.93783 -20.5711L5.43377 -20.9002M1.52155 -18.3114L1.52155 34.528M1.52155 34.528L1.52155 87.3688M1.52155 34.528L5.43377 32.8024M1.52155 87.3688L1.52156 140.208M1.52155 87.3688L2.97401 87.0481L5.43377 86.5053M1.52156 140.208L1.52156 193.048M1.52156 140.208L5.43378 140.208M1.52156 193.048L1.52156 245.888M1.52156 193.048L2.97402 193.368L5.43378 193.911M1.52156 245.888L1.52156 298.728M1.52156 245.888L5.43378 247.614M1.52156 298.728L2.00366 299.047L2.48808 299.366L4.93784 300.988L5.43378 301.317M1.52156 298.728L1.52156 351.567M1.52156 351.567L1.52157 404.408M1.52156 351.567L4.93784 354.581L5.43378 355.02M1.52157 404.408L1.52157 457.247M1.52157 404.408L2.97403 406.008L3.46152 406.547L4.44343 407.631L4.93785 408.175L5.43379 408.722M1.52157 457.247L1.52157 510.087M1.52157 457.247L2.97403 459.168L4.44343 461.115L4.93785 461.768L5.43379 462.425M1.52157 510.087L1.52157 562.926M1.52157 510.087L5.43379 516.127M1.52157 562.926L1.52158 615.767M1.52157 562.926L2.48809 564.631L5.43379 569.83M1.52158 615.767L1.52158 668.606M1.52158 615.767L5.4338 623.533M1.52158 668.606L1.52158 721.446M1.52158 668.606L5.4338 677.235M1.52158 721.446L1.52158 774.286M1.52158 721.446L5.4338 730.938M1.52158 774.286L1.52159 827.126M1.52158 774.286L5.4338 784.641M1.52159 827.126L1.52159 879.965M1.52159 827.126L5.43381 838.344M1.52159 879.965L1.52159 932.804M1.52159 879.965L5.43381 892.047M1.52159 932.804L1.52159 985.645M1.52159 932.804L5.43381 945.75M1.52159 985.645L1.52159 1038.48M1.52159 985.645L5.43381 999.452M1.52159 1038.48L1.5216 1091.32M1.52159 1038.48L5.43382 1053.16M1.5216 1091.32L1.5216 1144.16M1.5216 1091.32L5.43382 1106.86M1.5216 1144.16L1.5216 1197M1.5216 1144.16L5.43382 1160.56M1.5216 1197L1.5216 1249.84M1.5216 1197L5.43382 1214.26M1.5216 1249.84L1.52313 1256.44L1.5316 1262.96L1.55542 1269.35L1.60233 1275.54L1.67845 1281.46L1.79303 1287.05L1.9522 1292.25L2.15517 1297.06L2.43584 1301.2L2.7611 1304.96L2.87504 1306L5.43383 1306M1.5216 1249.84L5.43382 1267.97M5.43382 1160.56L5.43382 1106.86M5.43382 1160.56L5.43382 1214.26M5.43382 1160.56L9.47524 1177.5M5.43382 1106.86L9.47524 1122.91M5.43382 1106.86L5.43382 1053.16M5.43381 945.75L5.43381 892.047M5.43381 945.75L5.43381 999.452M5.43381 945.75L6.43186 949.051L9.47523 959.123M5.43381 892.047L9.47523 904.529M5.43381 892.047L5.43381 838.344M5.4338 730.938L5.4338 677.235M5.4338 730.938L5.4338 784.641M5.4338 730.938L6.43185 733.36L6.93319 734.579L9.47522 740.747M5.4338 677.235L5.93129 678.334L6.43185 679.437L9.47522 686.151M5.4338 677.235L5.4338 623.533M5.43379 516.127L5.93128 516.897L9.47521 522.369M5.43379 516.127L5.43379 462.425M5.43379 516.127L5.43379 569.83M5.43379 462.425L6.43184 463.745L6.93318 464.411L7.43759 465.077L9.47521 467.774M5.43379 462.425L5.43379 408.722M5.43378 301.317L5.43378 247.614M5.43378 301.317L5.43378 355.02M5.43378 301.317L9.4752 303.991M5.43378 247.614L5.93127 247.834L6.43183 248.053L6.93317 248.276L8.45178 248.946L9.4752 249.397M5.43378 247.614L5.43378 193.911M5.43377 86.5053L5.43377 32.8024M5.43377 86.5053L5.43378 140.208M5.43377 86.5053L9.47519 85.6139M5.43377 32.8024L5.93126 32.5828L6.43182 32.363L6.93316 32.1408L9.47519 31.0199M5.43377 32.8024L5.43377 -20.9002M5.43376 -128.306L5.43376 -182.009M5.43376 -128.306L5.43377 -74.6031M5.43376 -128.306L6.43182 -129.406L8.45176 -131.636L8.96232 -132.198L9.47518 -132.764M5.43376 -182.009L6.43181 -183.329L6.93315 -183.994L7.43756 -184.661L9.47518 -187.358M5.43376 -182.009L5.43376 -235.711M5.43375 -343.116L5.43375 -396.819M5.43375 -343.116L5.43376 -289.413M5.43375 -343.116L6.43181 -345.098L6.93315 -346.095L9.47517 -351.141M5.43375 -396.819L5.93124 -397.918L6.43181 -399.021L9.47517 -405.735M5.43375 -396.819L5.43375 -450.522M5.43375 -557.927L5.43374 -611.63M5.43375 -557.927L5.43375 -504.225M5.43375 -557.927L6.4318 -560.79L6.93314 -562.23L9.47517 -569.519M5.43374 -611.63L9.47516 -624.113M5.43374 -611.63L5.43374 -665.333M5.43374 -772.739L5.43373 -826.442M5.43374 -772.739L5.43374 -719.036M5.43374 -772.739L9.47516 -787.895M5.43373 -826.442L9.47515 -842.491M5.43373 -826.442L5.43373 -880.143M42.0188 1306.19L42.0188 1306M42.0188 1252.13L36.8555 1231.63M42.0188 1252.13L47.3796 1273.42M42.0188 1252.13L42.0188 1190.36M42.0188 1252.13L42.0188 1306M36.8555 1231.63L36.8555 1292.26M36.8555 1231.63L31.8791 1211.87M36.8555 1231.63L36.8555 1171M36.8555 1292.26L31.8791 1271.41M36.8555 1292.26L36.8555 1306M36.8555 1292.26L40.1312 1306M22.4476 1231.88L22.4476 1174.42M22.4476 1231.88L17.9748 1213.13M22.4476 1231.88L22.4476 1289.33M22.4476 1231.88L27.0795 1251.29M22.4476 1174.42L17.9748 1156.66M22.4476 1174.42L27.0795 1192.81M22.4476 1174.42L22.4476 1116.96M17.9748 1213.13L17.9748 1156.66M17.9748 1213.13L13.6535 1195.01M17.9748 1213.13L17.9748 1269.6M17.9748 1156.66L17.9748 1100.19M17.9748 1156.66L13.6535 1139.5M123.516 1306.59L123.516 1306M123.516 1256.74L114.956 1230.31M123.516 1256.74L132.502 1284.5M123.516 1256.74L123.516 1176.99M123.516 1256.74L123.516 1306M114.956 1230.31L106.791 1205.09M114.956 1230.31L114.956 1152.44M114.956 1230.31L114.956 1306M106.791 1281.15L106.791 1205.09M106.791 1281.15L98.996 1255.36M106.791 1281.15L106.791 1306M106.791 1281.15L114.299 1306M91.5453 1230.7L91.5453 1158M91.5453 1230.7L84.4174 1207.11M91.5453 1230.7L91.5453 1303.4M91.5453 1230.7L98.996 1255.36M91.5453 1158L84.4174 1135.99M91.5453 1158L98.996 1181.01M91.5453 1158L91.5452 1085.3M84.4174 1207.11L84.4174 1135.99M84.4174 1207.11L84.4174 1278.24M84.4174 1207.11L77.591 1184.53M84.4174 1135.99L77.591 1114.9M84.4174 1135.99L84.4174 1064.86M64.7701 1142.1L64.7701 1075.31M64.7701 1142.1L58.7426 1122.15M64.7701 1142.1L64.7701 1208.89M64.7701 1142.1L71.0476 1162.87M64.7701 1075.31L58.7426 1056.69M64.7701 1075.31L71.0476 1094.7M64.7701 1075.31L64.7701 1008.51M58.7426 1122.15L58.7426 1056.69M58.7426 1122.15L58.7426 1187.62M58.7426 1122.15L52.9504 1102.99M58.7426 1056.69L52.9504 1038.8M58.7426 1056.69L58.7426 991.228M42.0188 1066.81L42.0187 1005.04M42.0188 1066.81L36.8555 1049.73M42.0188 1066.81L42.0188 1128.59M42.0188 1066.81L47.3796 1084.55M42.0187 1005.04L36.8555 989.093M42.0187 1005.04L47.3796 1021.6M42.0187 1005.04L42.0187 943.266M36.8555 1049.73L36.8555 989.093M36.8555 1049.73L36.8555 1110.36M36.8555 1049.73L31.8791 1033.26M36.8555 989.093L31.8791 973.723M36.8555 989.093L36.8555 928.458M22.4476 1002.05L22.4476 944.595M22.4476 1002.05L17.9748 987.251M22.4476 1002.05L22.4476 1059.51M22.4476 1002.05L27.0795 1017.38M22.4476 944.595L17.9748 930.781M22.4476 944.595L27.0795 958.9M22.4476 944.595L22.4476 887.138M17.9748 987.251L17.9748 930.781M17.9748 987.251L13.6535 972.949M17.9748 987.251L17.9748 1043.72M17.9748 930.781L17.9748 874.311M17.9748 930.781L13.6535 917.433M271.927 1265.14L255.059 1227.93M271.927 1265.14L289.99 1304.99M271.927 1265.14L271.927 1152.65M271.927 1265.14L271.927 1306M255.059 1227.93L239.272 1193.1M255.059 1227.93L255.059 1119.16M255.059 1227.93L255.059 1306M210.547 1228.68L210.547 1129.73M210.547 1228.68L197.444 1196.89M210.547 1228.68L224.464 1262.45M210.547 1228.68L210.547 1306M210.547 1129.73L197.444 1100.82M210.547 1129.73L224.464 1160.43M210.547 1129.73L210.547 1030.78M197.444 1196.89L197.444 1100.82M197.444 1196.89L197.444 1292.95M197.444 1196.89L185.084 1166.89M197.444 1100.82L185.084 1073.56M197.444 1100.82L197.444 1004.76M162.356 1111.74L162.356 1023.42M162.356 1111.74L151.884 1086.33M162.356 1111.74L162.356 1200.06M162.356 1111.74L173.407 1138.55M162.356 1023.42L151.884 1000.32M162.356 1023.42L173.407 1047.8M162.356 1023.42L162.356 935.097M151.884 1086.33L151.884 1000.32M151.884 1086.33L151.884 1172.34M151.884 1086.33L141.946 1062.21M151.884 1000.32L141.946 978.392M151.884 1000.32L151.884 914.306M123.516 1017.49L123.516 937.734M123.516 1017.49L114.956 996.713M123.516 1017.49L123.516 1097.24M123.516 1017.49L132.502 1039.29M123.516 937.734L114.956 918.849M123.516 937.734L132.502 957.558M123.516 937.734L123.516 857.981M114.956 996.713L114.956 918.849M114.956 996.713L114.956 1074.58M114.956 996.713L106.791 976.901M114.956 918.849L106.791 900.838M114.956 918.849L114.956 840.985M91.5452 939.904L91.5452 867.205M91.5452 939.904L84.4174 922.606M91.5452 939.904L91.5452 1012.6M91.5452 939.904L98.996 957.984M91.5452 867.205L84.4174 851.478M91.5452 867.205L98.996 883.641M91.5452 867.205L91.5452 794.505M84.4174 922.606L84.4174 851.478M84.4174 922.606L84.4174 993.733M84.4174 922.606L77.591 906.041M84.4174 851.478L77.591 836.419M84.4174 851.478L84.4174 780.352M64.7701 874.929L64.7701 808.137M64.7701 874.929L58.7426 860.302M64.7701 874.929L64.7701 941.722M64.7701 874.929L71.0475 890.162M64.7701 808.137L64.0035 806.444L58.7426 794.839M64.7701 808.137L71.0475 821.984M64.7701 808.137L64.7701 741.343M58.7426 860.302L58.7426 794.839M58.7426 860.302L58.7426 925.765M58.7426 860.302L52.9504 846.246M58.7426 794.839L52.9504 782.061M58.7426 794.839L58.7426 729.375M42.0187 819.719L42.0187 757.945M42.0187 819.719L36.8555 807.188M42.0187 819.719L42.0187 881.493M42.0187 819.719L47.3796 832.729M42.0187 757.945L36.8555 746.554M42.0187 757.945L44.0056 762.327L47.3796 769.772M42.0187 757.945L42.0187 696.171M36.8555 807.188L36.8555 746.554M36.8555 807.188L36.8555 867.823M36.8555 807.188L31.8791 795.113M36.8555 746.554L31.8791 735.576M36.8555 746.554L36.8555 685.919M22.4476 772.227L22.4476 714.77M22.4476 772.227L17.9748 761.373M22.4476 772.227L22.4476 829.682M22.4476 772.227L27.0795 783.466M22.4476 714.77L19.0789 707.337L18.5253 706.118L17.9748 704.902M22.4476 714.77L27.0795 724.988M22.4476 714.77L22.4476 657.314M17.9748 761.373L17.9748 704.902M17.9748 761.373L13.6535 750.885M17.9748 761.373L17.9748 817.842M17.9748 704.902L17.9748 648.433M17.9748 704.902L13.6535 695.37M464.072 1224.38L464.072 1069.5M464.072 1224.38L432.492 1175.61M464.072 1224.38L498.776 1277.97M464.072 1224.38L464.073 1306M464.072 1069.5L432.492 1027.7M464.072 1069.5L498.776 1115.43M464.072 1069.5L464.072 914.617M432.492 1175.61L432.492 1027.7M432.492 1175.61L403.63 1131.04M432.492 1175.61L432.492 1306M432.492 1027.7L403.63 989.493M432.492 1027.7L432.492 879.782M352.769 1052.5L352.769 922.172M352.769 1052.5L330.247 1017.72M352.769 1052.5L352.769 1182.83M352.769 1052.5L377.15 1090.15M352.769 922.172L330.247 892.361M352.769 922.172L377.15 954.443M352.769 922.172L352.769 791.845M330.247 1017.72L330.247 892.361M330.247 1017.72L330.247 1143.08M330.247 1017.72L309.379 985.495M330.247 892.361L309.379 864.739M330.247 892.361L330.247 767.002M271.927 927.659L271.927 815.167M271.927 927.659L255.059 901.611M271.927 927.659L271.927 1040.15M271.927 927.659L289.99 955.553M271.927 815.167L255.059 792.839M271.927 815.167L289.99 839.075M271.927 815.167L271.927 702.674M255.059 901.611L255.059 792.839M255.059 901.611L255.059 1010.38M255.059 901.611L239.272 877.232M255.059 792.839L239.272 771.943M255.059 792.839L255.059 684.067M210.547 832.874L210.547 733.922M210.547 832.874L197.444 812.638M210.547 832.874L210.547 931.826M210.547 832.874L224.464 854.365M210.547 733.922L197.444 716.577M210.547 733.922L224.464 752.343M210.547 733.922L210.547 634.969M197.444 812.638L197.444 716.577M197.444 812.638L197.444 908.701M197.444 812.638L185.084 793.552M197.444 716.577L185.084 700.217M197.444 716.577L197.444 620.516M162.356 758.456L162.356 670.134M162.356 758.456L151.884 742.284M162.356 758.456L162.356 846.776M162.356 758.456L173.407 775.52M162.356 670.134L151.884 656.273M162.356 670.134L173.407 684.761M162.356 670.134L162.356 581.813M151.884 742.284L151.884 656.273M151.884 742.284L151.884 828.295M151.884 742.284L141.946 726.937M151.884 656.273L141.946 643.119M151.884 656.273L151.884 570.262M123.516 698.476L123.516 618.724M123.516 698.476L114.956 685.256M123.516 698.476L123.516 778.229M123.516 698.476L132.502 712.352M123.516 618.724L114.956 607.392M123.516 618.724L132.502 630.618M123.516 618.724L123.516 538.971M114.956 685.256L114.956 607.392M114.956 685.256L114.956 763.121M114.956 685.256L106.791 672.649M114.956 607.392L106.791 596.586M114.956 607.392L114.956 529.529M91.5452 649.106L91.5452 576.405M91.5452 649.106L84.4174 638.098M91.5452 649.106L91.5452 721.805M91.5452 649.106L98.996 660.611M91.5452 576.405L84.4174 566.971M91.5452 576.405L98.996 586.267M91.5452 576.405L91.5452 503.706M84.4174 638.098L84.4174 566.971M84.4174 638.098L84.4174 709.225M84.4174 638.098L77.591 627.556M84.4174 566.971L77.591 557.935M84.4174 566.971L84.4174 495.843M64.7701 607.758L64.7701 540.964M64.7701 607.758L58.7426 598.45M64.7701 607.758L64.7701 674.55M64.7701 607.758L71.0475 617.452M64.7701 540.964L65.5406 541.986L71.0475 549.274M64.7701 540.964L58.7426 532.987M64.7701 540.964L64.7701 474.172M58.7426 598.45L58.7426 532.987M58.7426 598.45L58.7426 663.913M58.7426 598.45L52.9504 589.505M58.7426 532.987L52.9504 525.32M58.7426 532.987L58.7426 467.523M42.0187 572.624L42.0187 510.85M42.0187 572.624L36.8555 564.65M42.0187 572.624L42.0187 634.397M42.0187 572.624L47.3796 580.902M42.0187 510.85L36.8555 504.016M42.0187 510.85L44.0056 513.48L45.3458 515.254L47.3796 517.946M42.0187 510.85L42.0187 449.077M36.8555 564.65L36.8555 504.016M36.8555 564.65L36.8555 625.285M36.8555 564.65L31.8791 556.966M36.8555 504.016L34.9678 501.517L33.7237 499.87L31.879 497.428M36.8555 504.016L36.8555 443.382M22.4476 542.401L22.4476 484.946M22.4476 542.401L19.0789 537.198L17.9748 535.495M22.4476 542.401L22.4476 599.857M22.4476 542.401L26.4913 548.646L27.0795 549.553M22.4476 484.946L19.0789 480.485L18.5253 479.754L17.9748 479.024M22.4476 484.946L24.7428 487.984L27.0795 491.076M22.4476 484.946L22.4476 427.489M17.9748 535.495L17.9748 479.024M17.9748 535.495L13.6535 528.821M17.9748 535.495L17.9748 591.964M17.9748 479.024L17.9748 422.555M17.9748 479.024L13.6535 473.305M464.072 604.853L464.072 449.972M464.072 604.853L432.492 583.953M464.072 604.853L464.072 759.735M464.072 604.853L498.776 627.82M464.072 449.972L432.492 436.037M464.072 449.972L498.776 465.283M464.072 449.972L464.072 295.089M432.492 583.953L432.492 436.037M432.492 583.953L432.492 731.867M432.492 583.953L403.63 564.851M432.492 436.037L403.63 423.303M432.492 436.037L432.492 288.123M352.769 531.19L352.769 400.863M352.769 531.19L330.247 516.285M352.769 531.19L352.769 661.518M352.769 531.19L377.15 547.326M352.769 400.863L330.247 390.926M352.769 400.863L377.15 411.62M352.769 400.863L352.769 270.535M330.247 516.285L330.247 390.926M330.247 516.285L330.247 641.644M330.247 516.285L309.379 502.474M330.247 390.926L309.379 381.719M330.247 390.926L330.247 265.567M271.927 477.687L271.927 365.195M271.927 477.687L255.059 466.524M271.927 477.687L271.927 590.18M271.927 477.687L289.99 489.642M271.927 365.195L255.059 357.752M271.927 365.195L289.99 373.163M271.927 365.195L271.927 252.701M255.059 466.524L255.059 357.752M255.059 466.524L255.059 575.296M255.059 466.524L239.272 456.075M255.059 357.752L239.272 350.786M255.059 357.752L255.059 248.98M210.547 437.064L210.547 338.113M210.547 437.064L197.444 428.393M210.547 437.064L210.547 536.017M210.547 437.064L224.464 446.275M210.547 338.113L197.444 332.332M210.547 338.113L224.464 344.253M210.547 338.113L210.547 239.161M197.444 428.393L197.444 332.332M197.444 428.393L197.444 524.454M197.444 428.393L185.084 420.213M197.444 332.332L185.084 326.878M197.444 332.332L197.444 236.269M162.356 405.172L162.356 316.85M162.356 405.172L151.884 398.241M162.356 405.172L162.356 493.492M162.356 405.172L173.407 412.484M162.356 316.85L151.884 312.23M162.356 316.85L173.407 321.725M162.356 316.85L162.356 228.529M151.884 398.241L151.884 312.23M151.884 398.241L151.884 484.251M151.884 398.241L141.946 391.663M151.884 312.23L141.946 307.845M151.884 312.23L151.884 226.219M123.516 379.466L123.516 299.714M123.516 379.466L114.956 373.801M123.516 379.466L123.516 459.218M123.516 379.466L132.502 385.413M123.516 299.714L114.956 295.936M123.516 299.714L132.502 303.679M123.516 299.714L123.516 219.96M114.956 373.801L114.956 295.936M114.956 373.801L114.956 451.665M114.956 373.801L111.849 371.744L106.791 368.397M114.956 295.936L106.791 292.334M114.956 295.936L114.956 218.072M91.5452 358.307L91.5452 285.608M91.5452 358.307L84.4174 353.589M91.5452 358.307L91.5452 431.007M91.5452 358.307L97.1022 361.984L98.996 363.238M91.5452 285.608L88.8356 284.412L84.4174 282.462M91.5452 285.608L98.996 288.895M91.5452 285.608L91.5452 212.907M84.4174 353.589L83.5477 353.015L77.591 349.072M84.4174 353.589L84.4174 282.462M84.4174 353.589L84.4174 424.717M84.4174 282.462L81.8231 281.317L80.9673 280.941L80.1169 280.564L77.591 279.451M84.4174 282.462L84.4174 211.335M64.7701 340.587L64.7701 273.794M64.7701 340.587L61.726 338.572L60.9747 338.074L60.2266 337.58L59.483 337.087L58.7426 336.598M64.7701 340.587L64.7701 407.379M64.7701 340.587L71.0475 344.741M64.7701 273.794L60.2266 271.789L59.483 271.46L58.7426 271.135M64.7701 273.794L71.0475 276.563M64.7701 273.794L64.7701 207.001M58.7426 336.598L58.7426 271.135M58.7426 336.598L58.7426 402.06M58.7426 336.598L55.0956 334.183L54.3767 333.709L52.9504 332.764M58.7426 271.135L55.0956 269.526L54.3767 269.208L53.6616 268.893L52.9503 268.579M58.7426 271.135L58.7426 205.671M42.0187 325.529L42.0187 263.755M42.0187 325.529L36.8555 322.112M42.0187 325.529L42.0187 387.303M42.0187 325.529L43.3397 326.404L45.3458 327.732L47.3796 329.077M42.0187 263.755L42.6777 264.047L46.6983 265.821L47.3796 266.121M42.0187 263.755L36.8555 261.477M42.0187 263.755L42.0187 201.982M36.8555 322.112L36.8555 261.477M36.8555 322.112L36.8555 382.746M36.8555 322.112L31.879 318.818M36.8555 261.477L34.9678 260.644L34.3442 260.37L33.7237 260.095L31.879 259.281M36.8555 261.477L36.8555 200.843M22.4476 312.576L22.4475 255.121M22.4476 312.576L19.0789 310.347L17.9748 309.617M22.4476 312.576L22.4476 370.033M22.4476 312.576L24.1653 313.714L24.7427 314.095L25.3233 314.48L27.0795 315.643M22.4475 255.121L21.8801 254.87L20.7521 254.373L19.6341 253.879L17.9748 253.148M22.4475 255.121L24.7427 256.134L25.3233 256.389L26.4913 256.905L27.0795 257.164M22.4475 255.121L22.4475 197.665M17.9748 309.617L17.9748 253.148M17.9748 309.617L14.1856 307.109L13.6535 306.756M17.9748 309.617L17.9748 366.086M17.9748 253.148L17.4265 252.905L16.8806 252.664L16.337 252.424L15.7957 252.186L14.1856 251.476L13.6535 251.24M17.9748 253.148L17.9748 196.677M464.072 -14.6731L464.072 -169.556M464.072 -14.6731L432.492 -7.70618M464.072 -14.6731L464.072 140.208M464.072 -14.6731L498.776 -22.3296M464.072 -169.556L432.492 -155.622M464.072 -169.556L498.776 -184.866M464.072 -169.556L464.072 -324.437M432.492 -7.70618L432.492 -155.622M432.492 -7.70618L432.492 140.208M432.492 -7.70618L403.63 -1.33936M432.492 -155.622L403.63 -142.887M432.492 -155.622L432.492 -303.536M352.769 9.88136L352.769 -120.447M352.769 9.88136L330.247 14.8494M352.769 9.88136L352.769 140.208M352.769 9.88136L377.15 4.5018M352.769 -120.447L330.247 -110.509M352.769 -120.447L377.15 -131.203M352.769 -120.447L352.769 -250.773M330.247 14.8494L330.247 -110.509M330.247 14.8494L330.247 140.208M330.247 14.8494L309.379 19.4531M330.247 -110.509L309.379 -101.302M330.247 -110.509L330.247 -235.868M271.927 27.7156L271.927 -84.7783M271.927 27.7156L255.059 31.4363M271.927 27.7156L271.927 140.208M271.927 27.7156L289.99 23.73M271.927 -84.7783L255.059 -77.3354M271.927 -84.7783L289.99 -92.747M271.927 -84.7783L271.927 -197.271M255.059 31.4363L255.059 -77.3354M255.059 31.4363L255.059 140.208M255.059 31.4363L239.272 34.9192M255.059 -77.3354L239.272 -70.3699M255.059 -77.3354L255.059 -186.107M210.547 41.2558L210.547 -57.6967M210.547 41.2558L197.444 44.1471M210.547 41.2558L210.547 140.208M210.547 41.2558L224.464 38.1859M210.547 -57.6967L197.444 -51.9151M210.547 -57.6967L224.464 -63.8366M210.547 -57.6967L210.547 -156.648M197.444 44.1471L197.444 -51.9151M197.444 44.1471L197.444 140.208M197.444 44.1471L185.084 46.8734M197.444 -51.9151L185.084 -46.4615M197.444 -51.9151L197.444 -147.976M162.356 51.8875L162.356 -36.4332M162.356 51.8875L151.884 54.1972M162.356 51.8875L162.356 140.208M162.356 51.8875L173.407 49.449M162.356 -36.4332L151.884 -31.8138M162.356 -36.4332L173.407 -41.3089M162.356 -36.4332L162.356 -124.755M151.884 54.1972L151.884 -31.8138M151.884 54.1972L151.884 140.208M151.884 54.1972L141.946 56.3904M151.884 -31.8138L141.946 -27.4288M151.884 -31.8138L151.884 -117.825M123.516 60.4561L123.516 -19.2973M123.516 60.4561L114.956 62.3444M123.516 60.4561L123.516 140.208M123.516 60.4561L132.502 58.473M123.516 -19.2973L114.956 -15.5195M123.516 -19.2973L132.502 -23.2622M123.516 -19.2973L123.516 -99.0494M114.956 62.3444L114.956 -15.5195M114.956 62.3444L114.956 140.208M114.956 62.3444L106.791 64.1452M114.956 -15.5195L106.791 -11.9176M114.956 -15.5195L114.956 -93.3845M91.5452 67.5089L91.5452 -5.19131M91.5452 67.5089L84.4174 69.0816M91.5452 67.5089L91.5452 140.208M91.5452 67.5089L98.996 65.8648M91.5452 -5.19131L85.2916 -2.43097L84.4174 -2.046M91.5452 -5.19131L98.996 -8.47848M91.5452 -5.19131L91.5452 -77.8904M84.4174 69.0816L83.5477 69.2722L77.591 70.5874M84.4174 69.0816L84.4174 -2.046M84.4174 69.0816L84.4174 140.208M84.4174 -2.046L81.8231 -0.900861L80.9673 -0.524485L80.1169 -0.147961L77.591 0.965602M84.4174 -2.046L84.4174 -73.1726M64.7701 73.4156L64.7701 6.62206M64.7701 73.4156L58.7426 74.7454M64.7701 73.4156L64.7701 140.208M64.7701 73.4156L67.0938 72.9031L67.8765 72.7296L68.6631 72.557L70.2486 72.2073L71.0475 72.03M64.7701 6.62206L60.2266 8.62698L58.7426 9.28278M64.7701 6.62206L71.0475 3.85328M64.7701 6.62206L64.7701 -60.1704M58.7426 74.7454L58.7426 9.28278M58.7426 74.7454L58.7426 140.208M58.7426 74.7454L52.9503 76.023M58.7426 9.28278L55.0956 10.8906L54.3767 11.2087L53.6616 11.5233L52.9503 11.8378M58.7426 9.28278L58.7426 -56.1813M42.0187 78.4346L42.0187 16.6612M42.0187 78.4346L36.8555 79.5737M42.0187 78.4346L42.0187 140.208M42.0187 78.4346L47.3796 77.2518M42.0187 16.6612L42.6777 16.3697L46.6983 14.5956L47.3796 14.2956M42.0187 16.6612L36.8555 18.9393M42.0187 16.6612L42.0187 -45.1124M36.8555 79.5737L36.8555 18.9393M36.8555 79.5737L36.8555 140.208M36.8555 79.5737L31.879 80.6715M36.8555 18.9393L34.9678 19.7724L34.3442 20.0469L33.7236 20.3213L31.879 21.135M36.8555 18.9393L36.8554 -41.695M22.4475 82.7516L22.4475 25.2953M22.4475 82.7516L17.9748 83.739M22.4475 82.7516L22.4475 140.208M22.4475 82.7516L27.0795 81.7304M22.4475 25.2953L21.8801 25.5467L20.7521 26.0446L20.1915 26.2912L19.0789 26.783L18.5253 27.0258L17.9748 27.27M22.4475 25.2953L24.7427 24.2825L25.3233 24.0276L26.4913 23.5114L27.0795 23.2527M22.4475 25.2953L22.4475 -32.1599M17.9748 83.739L17.4265 83.8593L16.8806 83.9807L16.337 84.0997L13.6535 84.6922M17.9748 83.739L17.9748 27.27M17.9748 83.739L17.9748 140.208M17.9748 27.27L17.9748 -29.2005M17.9748 27.27L16.8806 27.752L16.337 27.9925L15.7957 28.2304L14.1856 28.9409L13.6535 29.1765M464.072 -634.201L464.072 -789.082M464.072 -634.201L432.492 -599.365M464.072 -634.201L464.072 -479.319M464.072 -634.201L498.776 -672.48M464.072 -789.082L432.492 -747.28M464.072 -789.082L498.776 -835.016M464.072 -789.082L464.072 -943.964M432.492 -599.365L432.492 -747.28M432.492 -599.365L432.492 -451.451M432.492 -599.365L403.63 -567.53M432.492 -747.28L403.63 -709.077M432.492 -747.28L432.492 -895.195M352.769 -511.428L352.769 -641.756M352.769 -511.428L330.247 -486.586M352.769 -511.428L352.769 -381.101M352.769 -511.428L377.15 -538.322M352.769 -641.756L330.247 -611.945M352.769 -641.756L377.15 -674.027M352.769 -641.756L352.769 -772.083M330.247 -486.586L330.247 -611.945M330.247 -486.586L330.247 -361.227M330.247 -486.586L309.379 -463.568M330.247 -611.945L309.379 -584.323M330.247 -611.945L330.247 -737.304M271.927 -422.257L271.927 -534.75M271.927 -422.257L255.059 -403.651M271.927 -422.257L271.927 -309.764M271.927 -422.257L289.99 -442.182M271.927 -534.75L255.059 -512.424M271.927 -534.75L289.99 -558.659M271.927 -534.75L271.927 -647.243M255.059 -403.651L255.059 -512.424M255.059 -403.651L255.059 -294.879M255.059 -403.651L239.272 -386.237M255.059 -512.424L239.272 -491.526M255.059 -512.424L255.059 -621.195M210.547 -354.553L210.547 -453.506M210.547 -354.553L197.444 -340.1M210.547 -354.553L210.547 -255.6M210.547 -354.553L224.464 -369.904M210.547 -453.506L197.444 -436.161M210.547 -453.506L224.464 -471.926M210.547 -453.506L210.547 -552.458M197.444 -340.1L197.444 -436.161M197.444 -340.1L197.444 -244.037M197.444 -340.1L185.084 -326.466M197.444 -436.161L185.084 -419.801M197.444 -436.161L197.444 -532.222M162.356 -301.397L162.356 -389.717M162.356 -301.397L151.884 -289.846M162.356 -301.397L162.356 -213.076M162.356 -301.397L173.407 -313.585M162.356 -389.717L151.884 -375.857M162.356 -389.717L173.407 -404.344M162.356 -389.717L162.356 -478.039M151.884 -289.846L151.884 -375.857M151.884 -289.846L151.884 -203.835M151.884 -289.846L141.946 -278.884M151.884 -375.857L141.946 -362.703M151.884 -375.857L151.884 -461.868M123.516 -258.555L123.516 -338.307M123.516 -258.555L114.956 -249.112M123.516 -258.555L123.516 -178.802M123.516 -258.555L132.502 -268.467M123.516 -338.307L114.956 -326.976M123.516 -338.307L132.502 -350.202M123.516 -338.307L123.516 -418.059M114.956 -249.112L114.956 -326.976M114.956 -249.112L114.956 -171.248M114.956 -249.112L106.791 -240.107M114.956 -326.976L106.791 -316.169M114.956 -326.976L114.956 -404.84M91.5452 -223.29L92.4587 -224.297L93.3768 -225.311L98.996 -231.508M91.5452 -223.29L91.5452 -295.989M91.5452 -223.29L84.4174 -215.427M91.5452 -223.29L91.5452 -150.591M91.5452 -295.989L84.4174 -286.555M91.5452 -295.989L98.996 -305.851M91.5452 -295.989L91.5452 -368.689M84.4174 -215.427L84.4174 -286.555M84.4174 -215.427L84.4174 -144.3M84.4174 -215.427L77.591 -207.898M84.4174 -286.555L77.591 -277.519M84.4174 -286.555L84.4174 -357.681M64.7701 -193.755L64.7701 -260.549M64.7701 -193.755L58.7426 -187.107M64.7701 -193.755L64.7701 -126.963M64.7701 -193.755L71.0475 -200.68M64.7701 -260.549L60.9747 -255.524L58.7426 -252.571M64.7701 -260.549L71.0475 -268.858M64.7701 -260.549L64.7701 -327.342M58.7426 -187.107L58.7426 -252.571M58.7426 -187.107L58.7426 -121.644M58.7426 -187.107L53.6616 -181.504L52.9503 -180.718M58.7426 -252.571L52.9503 -244.903M58.7426 -252.571L58.7426 -318.033M42.0187 -168.66L42.0187 -230.434M42.0187 -168.66L40.7092 -167.217L36.8554 -162.965M42.0187 -168.66L42.0187 -106.887M42.0187 -168.66L43.3397 -170.118L46.0201 -173.075L47.3796 -174.573M42.0187 -230.434L36.8554 -223.6M42.0187 -230.434L44.0056 -233.063L45.3458 -234.837L47.3795 -237.53M42.0187 -230.434L42.0187 -292.208M36.8554 -162.965L36.8554 -223.6M36.8554 -162.965L36.8554 -102.329M36.8554 -162.965L33.1054 -158.829L31.879 -157.475M36.8554 -223.6L34.9677 -221.1L33.7236 -219.454L31.879 -217.012M36.8554 -223.6L36.8554 -284.234M22.4475 -147.073L22.4475 -204.529M22.4475 -147.073L19.6341 -143.969L17.9747 -142.139M22.4475 -147.073L22.4475 -89.6163M22.4475 -147.073L27.0795 -152.182M22.4475 -204.529L19.0789 -200.069L18.5253 -199.338L17.9747 -198.608M22.4475 -204.529L24.7427 -207.568L27.0795 -210.659M22.4475 -204.529L22.4475 -261.984M17.9747 -142.139L17.9747 -198.608M17.9747 -142.139L15.7957 -139.736L14.7199 -138.549L14.1856 -137.959L13.6535 -137.372M17.9747 -142.139L17.9747 -85.6696M17.9747 -198.608L17.9747 -255.078M17.9747 -198.608L13.6535 -192.888M330.247 -988.021L330.247 -862.663M330.247 -988.021L309.379 -946.59M330.247 -988.021L330.247 -1025.58M330.247 -988.021L349.165 -1025.58M271.927 -872.229L271.927 -984.722M271.927 -872.229L255.059 -838.74M271.927 -872.229L271.927 -759.737M271.927 -872.229L289.99 -908.092M271.927 -984.722L255.059 -947.512M271.927 -984.722L289.99 -1024.57M271.927 -984.722L271.927 -1025.58M255.059 -838.74L255.059 -947.512M255.059 -838.74L255.059 -729.968M255.059 -838.74L239.272 -807.393M255.059 -947.512L239.272 -912.682M255.059 -947.512L255.059 -1025.58M210.547 -750.362L210.547 -849.314M210.547 -750.362L197.444 -724.345M210.547 -750.362L210.547 -651.409M210.547 -750.362L224.464 -777.993M210.547 -849.314L197.444 -820.407M210.547 -849.314L224.464 -880.016M210.547 -849.314L210.547 -948.267M197.444 -724.345L197.444 -820.407M197.444 -724.345L197.444 -628.284M197.444 -724.345L185.084 -699.805M197.444 -820.407L185.084 -793.14M197.444 -820.407L197.444 -916.469M162.356 -654.681L162.356 -743.002M162.356 -654.681L151.884 -633.89M162.356 -654.681L162.356 -566.36M162.356 -654.681L173.407 -676.621M162.356 -743.002L151.884 -719.899M162.356 -743.002L173.407 -767.38M162.356 -743.002L162.356 -831.323M151.884 -633.89L151.884 -719.899M151.884 -633.89L151.884 -547.879M151.884 -633.89L141.946 -614.157M151.884 -719.899L141.946 -697.975M151.884 -719.899L151.884 -805.91M123.516 -577.565L123.516 -657.317M123.516 -577.565L114.956 -560.569M123.516 -577.565L123.516 -497.813M123.516 -577.565L132.502 -595.406M123.516 -657.317L114.956 -638.433M123.516 -657.317L132.502 -677.142M123.516 -657.317L123.516 -737.069M114.956 -560.569L114.956 -638.433M114.956 -560.569L114.956 -482.705M114.956 -560.569L106.791 -544.358M114.956 -638.433L106.791 -620.421M114.956 -638.433L114.956 -716.296M91.5452 -514.089L91.5452 -586.788M91.5452 -514.089L84.4174 -499.935M91.5452 -514.089L91.5452 -441.389M91.5452 -514.089L98.996 -528.881M91.5452 -586.788L84.4174 -571.062M91.5452 -586.788L98.996 -603.224M91.5452 -586.788L91.5452 -659.487M84.4174 -499.935L84.4174 -571.062M84.4174 -499.935L84.4174 -428.809M84.4174 -499.935L77.5909 -486.382M84.4174 -571.062L77.5909 -556.003M84.4174 -571.062L84.4173 -642.19M64.7701 -460.927L64.7701 -527.719M64.7701 -460.927L58.7426 -448.959M64.7701 -460.927L64.7701 -394.134M64.7701 -460.927L71.0475 -473.391M64.7701 -527.719L58.7426 -514.423M64.7701 -527.719L71.0475 -541.569M64.7701 -527.719L64.7701 -594.513M58.7426 -448.959L58.7426 -514.423M58.7426 -448.959L58.7426 -383.496M58.7426 -448.959L52.9503 -437.459M58.7426 -514.423L52.9503 -501.644M58.7426 -514.423L58.7426 -579.886M42.0187 -415.755L42.0187 -477.528M42.0187 -415.755L36.8554 -405.503M42.0187 -415.755L42.0187 -353.981M42.0187 -415.755L43.3397 -418.379L44.0055 -419.699L47.3795 -426.4M42.0187 -477.528L36.8554 -466.137M42.0187 -477.528L47.3795 -489.356M42.0187 -477.528L42.0187 -539.302M36.8554 -405.503L36.8554 -466.137M36.8554 -405.503L36.8554 -344.868M36.8554 -405.503L31.879 -395.623M36.8554 -466.137L31.879 -455.159M36.8554 -466.137L36.8554 -526.772M22.4475 -376.897L22.4475 -434.354M22.4475 -376.897L17.9747 -368.017M22.4475 -376.897L22.4475 -319.441M22.4475 -376.897L27.0794 -386.094M22.4475 -434.354L19.0789 -426.921L18.5253 -425.701L17.9747 -424.486M22.4475 -434.354L27.0794 -444.571M22.4475 -434.354L22.4475 -491.809M17.9747 -368.017L17.9747 -424.486M17.9747 -368.017L14.1855 -360.494L13.6534 -359.436M17.9747 -368.017L17.9747 -311.548M17.9747 -424.486L17.9747 -480.956M17.9747 -424.486L13.6534 -414.953M162.356 -1007.96L151.884 -977.932M162.356 -1007.96L162.356 -919.644M162.356 -1007.96L168.499 -1025.58M162.356 -1007.96L162.356 -1025.58M151.884 -977.932L151.884 -891.921M151.884 -977.932L141.946 -949.431M151.884 -977.932L151.884 -1025.58M123.516 -896.575L123.516 -976.328M123.516 -896.575L114.956 -872.024M123.516 -896.575L123.516 -816.823M123.516 -896.575L132.502 -922.346M123.516 -976.328L114.955 -949.889M123.516 -976.328L132.502 -1004.08M123.516 -976.328L123.516 -1025.58M114.956 -872.024L114.955 -949.889M114.956 -872.024L114.956 -794.16M114.956 -872.024L106.791 -848.61M114.955 -949.889L106.791 -924.673M114.955 -949.889L114.955 -1025.58M91.5452 -804.887L91.5452 -877.587M91.5452 -804.887L84.4173 -784.444M91.5452 -804.887L91.5452 -732.188M91.5452 -804.887L98.9959 -826.255M91.5452 -877.587L84.4173 -855.571M91.5452 -877.587L98.9959 -900.597M91.5452 -877.587L91.5452 -950.286M84.4173 -784.444L84.4173 -855.571M84.4173 -784.444L84.4173 -713.316M84.4173 -784.444L77.5909 -764.866M84.4173 -855.571L77.5909 -834.488M84.4173 -855.571L84.4173 -926.698M64.7701 -728.098L64.7701 -794.89M64.7701 -728.098L58.7425 -710.811M64.7701 -728.098L64.7701 -661.305M64.7701 -728.098L71.0475 -746.101M64.7701 -794.89L58.7425 -776.275M64.7701 -794.89L71.0475 -814.279M64.7701 -794.89L64.7701 -861.684M58.7425 -710.811L58.7425 -776.275M58.7425 -710.811L58.7426 -645.348M58.7425 -710.811L52.9503 -694.2M58.7425 -776.275L52.9503 -758.385M58.7425 -776.275L58.7425 -841.738M42.0187 -662.85L42.0187 -724.623M42.0187 -662.85L36.8554 -648.042M42.0187 -662.85L42.0187 -601.076M42.0187 -662.85L47.3795 -678.225M42.0187 -724.623L36.8554 -708.676M42.0187 -724.623L47.3795 -741.181M42.0187 -724.623L42.0187 -786.397M36.8554 -648.042L36.8554 -708.676M36.8554 -648.042L36.8554 -587.406M36.8554 -648.042L31.879 -633.769M36.8554 -708.676L31.879 -693.306M36.8554 -708.676L36.8554 -769.311M22.4475 -606.722L22.4475 -664.178M22.4475 -606.722L17.9747 -593.895M22.4475 -606.722L22.4475 -549.265M22.4475 -606.722L27.0794 -620.005M22.4475 -664.178L17.9747 -650.364M22.4475 -664.178L27.0794 -678.484M22.4475 -664.178L22.4475 -721.635M17.9747 -593.895L17.9747 -650.364M17.9747 -593.895L13.6534 -581.501M17.9747 -593.895L17.9747 -537.425M17.9747 -650.364L17.9747 -706.834M17.9747 -650.364L13.6534 -637.017M64.77 -995.269L58.7425 -972.663M64.77 -995.269L64.77 -928.476M64.77 -995.269L71.0475 -1018.81M64.77 -995.269L64.77 -1025.58M58.7425 -972.663L58.7425 -907.201M58.7425 -972.663L52.9503 -950.941M58.7425 -972.663L58.7425 -1025.58M42.0187 -909.944L42.0187 -971.717M42.0187 -909.944L36.8554 -890.58M42.0187 -909.944L42.0187 -848.17M42.0187 -909.944L47.3795 -930.05M42.0187 -971.717L36.8554 -951.214M42.0187 -971.717L47.3795 -993.006M42.0187 -971.717L42.0187 -1025.58M36.8554 -890.58L36.8554 -951.214M36.8554 -890.58L36.8554 -829.945M36.8554 -890.58L31.879 -871.916M36.8554 -951.214L31.879 -931.453M36.8554 -951.214L36.8554 -1011.85M22.4475 -836.546L22.4475 -894.003M22.4475 -836.546L17.9747 -819.772M22.4475 -836.546L22.4475 -779.09M22.4475 -836.546L27.0794 -853.917M22.4475 -894.003L17.9747 -876.242M22.4475 -894.003L27.0794 -912.394M22.4475 -894.003L22.4475 -951.459M17.9747 -819.772L17.9747 -876.242M17.9747 -819.772L13.6534 -803.566M17.9747 -819.772L17.9747 -763.303M17.9747 -876.242L17.9747 -932.712M17.9747 -876.242L13.6534 -859.081M27.0794 -912.394L31.879 -931.453M27.0794 -912.394L27.0794 -970.873M27.0794 -912.394L27.0794 -853.917M22.4475 -951.459L17.9747 -932.712M22.4475 -951.459L27.0794 -970.873M22.4475 -951.459L22.4475 -1008.91M17.9747 -932.712L17.9747 -989.181M17.9747 -932.712L13.6534 -914.597M13.6534 -859.081L13.6534 -803.566M13.6534 -859.081L13.6534 -914.597M13.6534 -859.081L9.47515 -842.491M27.0794 -970.873L31.879 -990.991M27.0794 -970.873L27.0794 -1025.58M22.4475 -1008.91L17.9747 -989.181M22.4475 -1008.91L26.2248 -1025.58M22.4475 -1008.91L22.4475 -1025.58M17.9747 -989.181L13.6534 -970.113M17.9747 -989.181L17.9747 -1025.58M13.6534 -914.597L13.6534 -970.113M13.6534 -914.597L9.47515 -897.085M13.6534 -970.113L9.47515 -951.679M13.6534 -970.113L13.6534 -1025.58M31.879 -931.453L31.879 -990.991M31.879 -931.453L31.879 -871.916M36.8554 -1011.85L31.879 -990.991M36.8554 -1011.85L40.1311 -1025.58M36.8554 -1011.85L36.8554 -1025.58M31.879 -990.991L31.879 -1025.58M31.879 -871.916L31.879 -812.379M31.879 -871.916L27.0794 -853.917M27.0794 -853.917L27.0794 -795.439M47.3795 -993.006L52.9503 -1015.13M47.3795 -993.006L47.3795 -930.05M47.3795 -993.006L47.3795 -1025.58M42.0187 -1025.77L42.0187 -1025.58M52.9503 -1015.13L52.9503 -950.941M52.9503 -1015.13L55.5831 -1025.58M52.9503 -1015.13L52.9503 -1025.58M52.9503 -950.941L52.9503 -886.756M52.9503 -950.941L47.3795 -930.05M47.3795 -930.05L47.3795 -867.094M27.0794 -678.484L31.879 -693.306M27.0794 -678.484L27.0794 -736.961M27.0794 -678.484L27.0794 -620.005M22.4475 -721.635L17.9747 -706.834M22.4475 -721.635L27.0794 -736.961M22.4475 -721.635L22.4475 -779.09M17.9747 -706.834L17.9747 -763.303M17.9747 -706.834L13.6534 -692.532M13.6534 -637.017L13.6534 -692.532M13.6534 -637.017L9.47516 -624.113M13.6534 -637.017L13.6534 -581.501M27.0794 -736.961L31.879 -752.843M27.0794 -736.961L27.0794 -795.439M22.4475 -779.09L17.9747 -763.303M22.4475 -779.09L27.0794 -795.439M17.9747 -763.303L13.6534 -748.05M13.6534 -692.532L13.6534 -748.05M13.6534 -692.532L9.47516 -678.707M27.0794 -795.439L31.879 -812.379M13.6534 -803.566L13.6534 -748.05M13.6534 -803.566L9.47516 -787.895M13.6534 -748.05L9.47516 -733.301M31.879 -693.306L31.879 -752.843M31.879 -693.306L31.879 -633.769M36.8554 -769.311L31.879 -752.843M36.8554 -769.311L42.0187 -786.397M36.8554 -769.311L36.8554 -829.945M31.879 -752.843L31.879 -812.379M31.879 -633.769L31.879 -574.233M31.879 -633.769L27.0794 -620.005M31.879 -812.379L36.8554 -829.945M27.0794 -620.005L27.0794 -561.527M42.0187 -786.397L47.3795 -804.137M42.0187 -786.397L42.0187 -848.17M36.8554 -829.945L42.0187 -848.17M42.0187 -848.17L47.3795 -867.094M47.3795 -741.181L52.9503 -758.385M47.3795 -741.181L47.3795 -804.137M47.3795 -741.181L47.3795 -678.225M47.3795 -804.137L52.9503 -822.57M47.3795 -804.137L47.3795 -867.094M47.3795 -867.094L52.9503 -886.756M52.9503 -758.385L52.9503 -822.57M52.9503 -758.385L52.9503 -694.2M58.7425 -841.738L52.9503 -822.57M58.7425 -841.738L64.7701 -861.684M58.7425 -841.738L58.7425 -907.201M52.9503 -822.57L52.9503 -886.756M52.9503 -694.2L52.9503 -630.015M52.9503 -694.2L47.3795 -678.225M52.9503 -886.756L58.7425 -907.201M47.3795 -678.225L47.3795 -615.269M64.7701 -861.684L71.0475 -882.457M64.7701 -861.684L64.77 -928.476M58.7425 -907.201L64.77 -928.476M64.77 -928.476L71.0475 -950.634M71.0475 -814.279L77.5909 -834.488M71.0475 -814.279L71.0475 -882.457M71.0475 -814.279L71.0475 -746.101M71.0475 -882.457L77.5909 -904.109M71.0475 -882.457L71.0475 -950.634M71.0475 -950.634L77.5909 -973.73M71.0475 -950.634L71.0475 -1018.81M71.0475 -1018.81L71.0475 -1025.58M71.0475 -1018.81L72.8523 -1025.58M77.5909 -834.488L77.5909 -904.109M77.5909 -834.488L77.5909 -764.866M84.4173 -926.698L77.5909 -904.109M84.4173 -926.698L91.5452 -950.286M84.4173 -926.698L84.4173 -997.825M77.5909 -904.109L77.5909 -973.73M77.5909 -764.866L77.5909 -695.245M77.5909 -764.866L71.0475 -746.101M77.5909 -973.73L84.4173 -997.825M77.5909 -973.73L77.5909 -1025.58M71.0475 -746.101L71.0475 -677.924M91.5452 -950.286L98.9959 -974.94M91.5452 -950.286L91.5452 -1022.99M84.4173 -997.825L91.5452 -1022.99M84.4173 -997.825L84.4173 -1025.58M77.5909 -1025.95L77.5909 -1025.58M91.5452 -1022.99L92.2808 -1025.58M91.5452 -1022.99L91.5452 -1025.58M98.9959 -900.597L106.791 -924.673M98.9959 -900.597L98.9959 -974.94M98.9959 -900.597L98.9959 -826.255M98.9959 -974.94L106.791 -1000.74M98.9959 -974.94L98.9959 -1025.58M92.4586 -1026.21L92.2808 -1025.58M106.791 -924.673L106.791 -1000.74M106.791 -924.673L106.791 -848.61M106.791 -1000.74L106.791 -1025.58M106.791 -1000.74L114.299 -1025.58M106.791 -848.61L106.791 -772.547M106.791 -848.61L98.9959 -826.255M98.9959 -826.255L98.9959 -751.911M132.502 -1004.08L132.502 -922.346M132.502 -1004.08L139.463 -1025.58M132.502 -1004.08L132.502 -1025.58M123.516 -1026.17L123.516 -1025.58M132.502 -922.346L132.502 -840.611M132.502 -922.346L141.946 -949.431M139.54 -1025.82L139.463 -1025.58M27.0794 -444.571L31.879 -455.159M27.0794 -444.571L27.0794 -503.049M27.0794 -444.571L27.0794 -386.094M22.4475 -491.809L17.9747 -480.956M22.4475 -491.809L27.0794 -503.049M22.4475 -491.809L22.4475 -549.265M17.9747 -480.956L17.9747 -537.425M17.9747 -480.956L13.6534 -470.469M13.6534 -414.953L13.6534 -470.469M13.6534 -414.953L12.0703 -411.459L9.47517 -405.735M13.6534 -414.953L13.6534 -359.436M27.0794 -503.049L31.879 -514.696M27.0794 -503.049L27.0794 -561.527M22.4475 -549.265L17.9747 -537.425M22.4475 -549.265L27.0794 -561.527M17.9747 -537.425L13.6534 -525.985M13.6534 -470.469L13.6534 -525.985M13.6534 -470.469L9.47517 -460.33M27.0794 -561.527L31.879 -574.233M13.6534 -581.501L9.47517 -569.519M13.6534 -581.501L13.6534 -525.985M13.6534 -525.985L13.1229 -524.582L12.0703 -521.793L9.47517 -514.924M31.879 -455.159L31.879 -514.696M31.879 -455.159L31.879 -395.623M36.8554 -526.772L31.879 -514.696M36.8554 -526.772L42.0187 -539.302M36.8554 -526.772L36.8554 -587.406M31.879 -514.696L31.879 -574.233M31.879 -395.623L31.879 -336.086M31.879 -395.623L27.0794 -386.094M31.879 -574.233L36.8554 -587.406M27.0794 -386.094L27.0795 -327.615M42.0187 -539.302L47.3795 -552.312M42.0187 -539.302L42.0187 -601.076M36.8554 -587.406L37.4898 -589.088L42.0187 -601.076M42.0187 -601.076L47.3795 -615.269M47.3795 -489.356L48.0646 -490.865L52.9503 -501.644M47.3795 -489.356L47.3795 -552.312M47.3795 -489.356L47.3795 -426.4M47.3795 -552.312L52.9503 -565.829M47.3795 -552.312L47.3795 -615.269M47.3795 -615.269L52.9503 -630.015M52.9503 -501.644L52.9503 -565.829M52.9503 -501.644L52.9503 -437.459M58.7426 -579.886L52.9503 -565.829M58.7426 -579.886L64.7701 -594.513M58.7426 -579.886L58.7426 -645.348M52.9503 -565.829L52.9503 -630.015M52.9503 -437.459L52.9503 -373.274M52.9503 -437.459L47.3795 -426.4M52.9503 -630.015L58.7426 -645.348M47.3795 -426.4L47.3795 -363.443M64.7701 -594.513L71.0475 -609.746M64.7701 -594.513L64.7701 -661.305M58.7426 -645.348L64.7701 -661.305M64.7701 -661.305L71.0475 -677.924M71.0475 -541.569L77.5909 -556.003M71.0475 -541.569L71.0475 -609.746M71.0475 -541.569L71.0475 -473.391M71.0475 -609.746L77.5909 -625.625M71.0475 -609.746L71.0475 -677.924M71.0475 -677.924L77.5909 -695.245M77.5909 -556.003L77.5909 -625.625M77.5909 -556.003L77.5909 -486.382M84.4173 -642.19L77.5909 -625.625M84.4173 -642.19L91.5452 -659.487M84.4173 -642.19L84.4173 -713.316M77.5909 -625.625L77.5909 -695.245M77.5909 -486.382L77.5909 -416.761M77.5909 -486.382L71.0475 -473.391M77.5909 -695.245L84.4173 -713.316M71.0475 -473.391L71.0475 -405.213M91.5452 -659.487L98.9959 -677.568M91.5452 -659.487L91.5452 -732.188M84.4173 -713.316L91.5452 -732.188M91.5452 -732.188L98.9959 -751.911M98.996 -603.224L106.791 -620.421M98.996 -603.224L98.9959 -677.568M98.996 -603.224L98.996 -528.881M98.9959 -677.568L106.791 -696.484M98.9959 -677.568L98.9959 -751.911M98.9959 -751.911L106.791 -772.547M106.791 -620.421L106.791 -696.484M106.791 -620.421L106.791 -544.358M114.956 -716.296L106.791 -696.484M114.956 -716.296L123.516 -737.069M114.956 -716.296L114.956 -794.16M106.791 -696.484L106.791 -772.547M106.791 -544.358L106.791 -468.295M106.791 -544.358L98.996 -528.881M106.791 -772.547L114.956 -794.16M98.996 -528.881L98.996 -454.538M123.516 -737.069L132.502 -758.876M123.516 -737.069L123.516 -816.823M114.956 -794.16L123.516 -816.823M123.516 -816.823L132.502 -840.611M132.502 -677.142L141.946 -697.975M132.502 -677.142L132.502 -758.876M132.502 -677.142L132.502 -595.406M132.502 -758.876L141.946 -781.794M132.502 -758.876L132.502 -840.611M132.502 -840.611L141.946 -865.612M141.946 -697.975L141.946 -781.794M141.946 -697.975L141.946 -614.157M151.884 -805.91L141.946 -781.794M151.884 -805.91L162.356 -831.323M151.884 -805.91L151.884 -891.921M141.946 -781.794L141.946 -865.612M141.946 -614.157L141.946 -530.338M141.946 -614.157L132.502 -595.406M141.946 -865.612L151.884 -891.921M141.946 -865.612L141.946 -949.431M132.502 -595.406L132.502 -513.671M162.356 -831.323L173.407 -858.138M162.356 -831.323L162.356 -919.644M151.884 -891.921L162.356 -919.644M141.946 -949.431L141.946 -1025.58M162.356 -919.644L173.407 -948.897M173.407 -767.38L185.084 -793.14M173.407 -767.38L173.407 -858.138M173.407 -767.38L173.407 -676.621M173.407 -858.138L185.084 -886.475M173.407 -858.138L173.407 -948.897M173.407 -948.897L185.084 -979.81M173.407 -948.897L173.407 -1025.58M185.084 -793.14L185.084 -886.475M185.084 -793.14L185.084 -699.805M197.444 -916.469L185.084 -886.475M197.444 -916.469L210.547 -948.267M197.444 -916.469L197.444 -1012.53M185.084 -886.475L185.084 -979.81M185.084 -699.805L185.084 -606.47M185.084 -699.805L173.407 -676.621M185.084 -979.81L197.444 -1012.53M185.084 -979.81L185.084 -1025.58M173.407 -676.621L173.407 -585.862M210.547 -948.267L224.464 -982.038M210.547 -948.267L210.547 -1025.58M197.444 -1012.53L197.444 -1025.58M197.444 -1012.53L202.374 -1025.58M224.464 -880.016L239.272 -912.682M224.464 -880.016L224.464 -982.038M224.464 -880.016L224.464 -777.993M224.464 -982.038L239.272 -1017.97M224.464 -982.038L224.464 -1025.58M239.272 -912.682L239.272 -1017.97M239.272 -912.682L239.272 -807.393M239.272 -1017.97L242.408 -1025.58M239.272 -1017.97L239.272 -1025.58M239.272 -807.393L239.272 -702.104M239.272 -807.393L224.464 -777.993M224.464 -777.993L224.464 -675.971M289.99 -1024.57L289.99 -908.092M289.99 -1024.57L289.99 -1025.58M289.99 -1024.57L290.448 -1025.58M289.99 -908.092L289.99 -791.615M289.99 -908.092L309.379 -946.59M27.0795 -210.659L28.8587 -213.015L29.4577 -213.807L31.879 -217.012M27.0795 -210.659L27.0795 -269.137M27.0795 -210.659L27.0795 -152.182M22.4475 -261.984L19.0789 -256.782L17.9747 -255.078M22.4475 -261.984L26.4912 -268.23L27.0795 -269.137M22.4475 -261.984L22.4475 -319.441M17.9747 -255.078L17.9747 -311.548M17.9747 -255.078L13.6534 -248.404M13.6535 -192.888L13.6534 -248.404M13.6535 -192.888L12.0703 -190.792L9.47518 -187.358M13.6535 -192.888L13.6535 -137.372M27.0795 -269.137L28.2628 -270.966L31.879 -276.549M27.0795 -269.137L27.0795 -327.615M22.4475 -319.441L17.9747 -311.548M22.4475 -319.441L27.0795 -327.615M17.9747 -311.548L14.7199 -305.802L13.6534 -303.92M13.6534 -248.404L13.6534 -303.92M13.6534 -248.404L9.47518 -241.952M27.0795 -327.615L31.879 -336.086M13.6534 -359.436L13.1229 -358.384L9.47517 -351.141M13.6534 -359.436L13.6534 -303.92M13.6534 -303.92L12.0703 -301.126L9.47518 -296.546M31.879 -217.012L31.879 -276.549M31.879 -217.012L31.879 -157.475M36.8554 -284.234L31.879 -276.549M36.8554 -284.234L42.0187 -292.208M36.8554 -284.234L36.8554 -344.868M31.879 -276.549L31.879 -336.086M31.879 -157.475L31.879 -97.9384M31.879 -157.475L27.0795 -152.182M31.879 -336.086L36.8554 -344.868M27.0795 -152.182L27.0795 -93.7038M42.0187 -292.208L45.3458 -297.344L46.0201 -298.387L47.3795 -300.486M42.0187 -292.208L42.0187 -353.981M36.8554 -344.868L42.0187 -353.981M42.0187 -353.981L47.3795 -363.443M47.3795 -237.53L52.9503 -244.903M47.3795 -237.53L47.3795 -300.486M47.3795 -237.53L47.3796 -174.573M47.3795 -300.486L52.9503 -309.088M47.3795 -300.486L47.3795 -363.443M47.3795 -363.443L52.9503 -373.274M52.9503 -244.903L52.9503 -309.088M52.9503 -244.903L52.9503 -180.718M58.7426 -318.033L55.0956 -312.401L54.3767 -311.293L52.9503 -309.088M58.7426 -318.033L64.7701 -327.342M58.7426 -318.033L58.7426 -383.496M52.9503 -309.088L52.9503 -373.274M52.9503 -180.718L52.9503 -116.533M52.9503 -180.718L47.3796 -174.573M52.9503 -373.274L58.7426 -383.496M47.3796 -174.573L47.3796 -111.617M64.7701 -327.342L71.0475 -337.036M64.7701 -327.342L64.7701 -394.134M58.7426 -383.496L64.7701 -394.134M64.7701 -394.134L71.0475 -405.213M71.0475 -268.858L74.2846 -273.143L75.1051 -274.228L77.591 -277.519M71.0475 -268.858L71.0475 -337.036M71.0475 -268.858L71.0475 -200.68M71.0475 -337.036L77.591 -347.139M71.0475 -337.036L71.0475 -405.213M71.0475 -405.213L77.5909 -416.761M77.591 -277.519L77.591 -347.139M77.591 -277.519L77.591 -207.898M84.4174 -357.681L77.591 -347.139M84.4174 -357.681L91.5452 -368.689M84.4174 -357.681L84.4174 -428.809M77.591 -347.139L77.5909 -416.761M77.591 -207.898L77.591 -138.276M77.591 -207.898L75.9293 -206.064L71.0475 -200.68M77.5909 -416.761L84.4174 -428.809M71.0475 -200.68L71.0475 -132.503M91.5452 -368.689L98.996 -380.194M91.5452 -368.689L91.5452 -441.389M84.4174 -428.809L91.5452 -441.389M91.5452 -441.389L98.996 -454.538M98.996 -305.851L106.791 -316.169M98.996 -305.851L98.996 -380.194M98.996 -305.851L98.996 -231.508M98.996 -380.194L106.791 -392.232M98.996 -380.194L98.996 -454.538M98.996 -454.538L106.791 -468.295M106.791 -316.169L106.791 -392.232M106.791 -316.169L106.791 -240.107M114.956 -404.84L106.791 -392.232M114.956 -404.84L123.516 -418.059M114.956 -404.84L114.956 -482.705M106.791 -392.232L106.791 -468.295M106.791 -240.107L106.791 -164.043M106.791 -240.107L98.996 -231.508M106.791 -468.295L114.956 -482.705M98.996 -231.508L98.996 -157.165M123.516 -418.059L132.502 -431.936M123.516 -418.059L123.516 -497.813M114.956 -482.705L123.516 -497.813M123.516 -497.813L132.502 -513.671M132.502 -350.202L141.946 -362.703M132.502 -350.202L132.502 -431.936M132.502 -350.202L132.502 -268.467M132.502 -431.936L141.946 -446.52M132.502 -431.936L132.502 -513.671M132.502 -513.671L141.946 -530.338M141.946 -362.703L141.946 -446.52M141.946 -362.703L141.946 -278.884M151.884 -461.868L141.946 -446.52M151.884 -461.868L162.356 -478.039M151.884 -461.868L151.884 -547.879M141.946 -446.52L141.946 -530.338M141.946 -278.884L141.946 -195.066M141.946 -278.884L132.502 -268.467M141.946 -530.338L151.884 -547.879M132.502 -268.467L132.502 -186.732M162.356 -478.039L173.407 -495.103M162.356 -478.039L162.356 -566.36M151.884 -547.879L162.356 -566.36M162.356 -566.36L173.407 -585.862M173.407 -404.344L185.084 -419.801M173.407 -404.344L173.407 -495.103M173.407 -404.344L173.407 -313.585M173.407 -495.103L185.084 -513.136M173.407 -495.103L173.407 -585.862M173.407 -585.862L185.084 -606.47M185.084 -419.801L185.084 -513.136M185.084 -419.801L185.084 -326.466M197.444 -532.222L185.084 -513.136M197.444 -532.222L210.547 -552.458M197.444 -532.222L197.444 -628.284M185.084 -513.136L185.084 -606.47M185.084 -326.466L185.084 -233.131M185.084 -326.466L173.407 -313.585M185.084 -606.47L197.444 -628.284M173.407 -313.585L173.407 -222.827M210.547 -552.458L224.464 -573.949M210.547 -552.458L210.547 -651.409M197.444 -628.284L210.547 -651.409M210.547 -651.409L224.464 -675.971M224.464 -471.926L239.272 -491.526M224.464 -471.926L224.464 -573.949M224.464 -471.926L224.464 -369.904M224.464 -573.949L239.272 -596.815M224.464 -573.949L224.464 -675.971M224.464 -675.971L239.272 -702.104M239.272 -491.526L239.272 -596.815M239.272 -491.526L239.272 -386.237M255.059 -621.195L239.272 -596.815M255.059 -621.195L271.927 -647.243M255.059 -621.195L255.059 -729.968M239.272 -596.815L239.272 -702.104M239.272 -386.237L239.272 -280.948M239.272 -386.237L224.464 -369.904M239.272 -702.104L255.059 -729.968M224.464 -369.904L224.464 -267.881M271.927 -647.243L289.99 -675.137M271.927 -647.243L271.927 -759.737M255.059 -729.968L271.927 -759.737M271.927 -759.737L289.99 -791.615M289.99 -558.659L309.379 -584.323M289.99 -558.659L289.99 -675.137M289.99 -558.659L289.99 -442.182M289.99 -675.137L309.379 -705.078M289.99 -675.137L289.99 -791.615M289.99 -791.615L309.379 -825.834M309.379 -584.323L309.379 -705.078M309.379 -584.323L309.379 -463.568M330.247 -737.304L309.379 -705.078M330.247 -737.304L352.769 -772.083M330.247 -737.304L330.247 -862.663M309.379 -705.078L309.379 -825.834M309.379 -463.568L309.379 -342.813M309.379 -463.568L289.99 -442.182M309.379 -825.834L330.247 -862.663M309.379 -825.834L309.379 -946.59M289.99 -442.182L289.99 -325.703M352.769 -772.083L377.15 -809.733M352.769 -772.083L352.769 -902.41M330.247 -862.663L352.769 -902.41M309.379 -946.59L309.379 -1025.58M352.769 -902.41L377.15 -945.44M352.769 -902.41L352.769 -1025.58M377.15 -674.027L403.63 -709.077M377.15 -674.027L377.15 -809.733M377.15 -674.027L377.15 -538.322M377.15 -809.733L403.63 -850.625M377.15 -809.733L377.15 -945.44M377.15 -945.44L403.63 -992.172M377.15 -945.44L377.15 -1025.58M403.63 -709.077L403.63 -850.625M403.63 -709.077L403.63 -567.53M432.492 -895.195L403.63 -850.625M432.492 -895.195L464.072 -943.964M432.492 -895.195L432.492 -1025.58M403.63 -850.625L403.63 -992.172M403.63 -567.53L403.63 -425.982M403.63 -567.53L377.15 -538.322M403.63 -992.172L403.63 -1025.58M403.63 -992.172L422.56 -1025.58M377.15 -538.322L377.15 -402.615M464.072 -943.964L498.776 -997.554M464.072 -943.964L464.072 -1025.58M498.776 -835.016L537.088 -885.728M498.776 -835.016L498.776 -997.554M498.776 -835.016L498.776 -672.48M498.776 -997.554L516.926 -1025.58M498.776 -997.554L498.776 -1025.58M537.088 -885.728L537.088 -714.738M537.088 -885.728L537.088 -1025.58M537.088 -714.738L537.088 -543.75M537.088 -714.738L498.776 -672.48M498.776 -672.48L498.776 -509.942M27.0795 23.2527L27.67 22.9917L28.2628 22.7305L28.8587 22.4669L29.4577 22.2036L31.2693 21.4032L31.879 21.135M27.0795 23.2527L27.0795 -35.2261M27.0795 23.2527L27.0795 81.7304M22.4475 -32.1599L19.0789 -29.9303L17.9748 -29.2005M22.4475 -32.1599L25.3233 -34.064L27.0795 -35.2261M22.4475 -32.1599L22.4475 -89.6163M17.9748 -29.2005L17.9747 -85.6696M17.9748 -29.2005L14.7199 -27.0462L13.6535 -26.3394M13.6535 29.1765L13.1229 29.4095L11.0253 30.3348L9.47519 31.0199M13.6535 29.1765L13.6535 -26.3394M13.6535 29.1765L13.6535 84.6922M27.0795 -35.2261L27.67 -35.6159L28.2628 -36.0094L28.8587 -36.4029L29.4577 -36.7999L31.879 -38.4018M27.0795 -35.2261L27.0795 -93.7038M22.4475 -89.6163L19.0789 -86.6436L17.9747 -85.6696M22.4475 -89.6163L27.0795 -93.7038M17.9747 -85.6696L15.7957 -83.7461L14.1856 -82.3252L13.6535 -81.8565M13.6535 -26.3394L13.1229 -25.9897L12.0703 -25.2927L11.0253 -24.6004L10.5063 -24.258L9.47519 -23.5743M13.6535 -26.3394L13.6535 -81.8565M27.0795 -93.7038L30.6626 -96.866L31.879 -97.9384M13.6535 -137.372L10.5063 -133.902L9.47518 -132.764M13.6535 -137.372L13.6535 -81.8565M13.6535 -81.8565L9.98959 -78.6239L9.47519 -78.1685M31.879 21.135L31.879 -38.4018M31.879 21.135L31.879 80.6715M36.8554 -41.695L31.879 -38.4018M36.8554 -41.695L42.0187 -45.1124M36.8554 -41.695L36.8554 -102.329M31.879 -38.4018L31.879 -97.9384M31.879 80.6715L31.879 140.208M31.879 80.6715L27.0795 81.7304M31.879 -97.9384L36.8554 -102.329M27.0795 81.7304L27.0795 140.208M42.0187 -45.1124L43.3397 -45.9878L45.3458 -47.3152L47.3796 -48.6607M42.0187 -45.1124L42.0187 -106.887M36.8554 -102.329L37.4898 -102.891L42.0187 -106.887M42.0187 -106.887L42.6777 -107.467L43.3397 -108.053L44.0056 -108.639L47.3796 -111.617M47.3796 14.2956L52.9503 11.8378M47.3796 14.2956L47.3796 -48.6607M47.3796 14.2956L47.3796 77.2518M47.3796 -48.6607L52.9503 -52.3474M47.3796 -48.6607L47.3796 -111.617M47.3796 -111.617L51.5371 -115.285L52.2422 -115.909L52.9503 -116.533M52.9503 11.8378L52.9503 -52.3474M52.9503 11.8378L52.9503 76.023M58.7426 -56.1813L59.483 -56.6706L60.2266 -57.1636L60.9747 -57.6579L64.7701 -60.1704M58.7426 -56.1813L55.8176 -54.2456L55.0956 -53.7671L54.3767 -53.2923L52.9503 -52.3474M58.7426 -56.1813L58.7426 -121.644M52.9503 -52.3474L52.9503 -116.533M52.9503 76.023L52.9503 140.208M52.9503 76.023L47.3796 77.2518M52.9503 -116.533L58.7426 -121.644M47.3796 77.2518L47.3796 140.208M64.7701 -60.1704L70.2486 -63.7966L71.0475 -64.3247M64.7701 -60.1704L64.7701 -126.963M58.7426 -121.644L60.2266 -122.954L64.7701 -126.963M64.7701 -126.963L67.0937 -129.014L71.0475 -132.503M71.0475 3.85328L74.2846 2.42397L75.1051 2.06316L77.591 0.965602M71.0475 3.85328L71.0475 -64.3247M71.0475 3.85328L71.0475 72.03M71.0475 -64.3247L77.591 -68.6552M71.0475 -64.3247L71.0475 -132.503M71.0475 -132.503L77.591 -138.276M77.591 0.965602L77.591 -68.6552M77.591 0.965602L77.591 70.5874M84.4174 -73.1726L77.591 -68.6552M84.4174 -73.1726L91.5452 -77.8904M84.4174 -73.1726L84.4174 -144.3M77.591 -68.6552L77.591 -138.276M77.591 70.5874L77.591 140.208M77.591 70.5874L75.9293 70.9541L72.6576 71.6754L71.0475 72.03M77.591 -138.276L84.4174 -144.3M71.0475 72.03L71.0475 140.208M91.5452 -77.8904L97.1022 -81.5675L98.996 -82.822M91.5452 -77.8904L91.5452 -150.591M84.4174 -144.3L91.5452 -150.591M91.5452 -150.591L95.2291 -153.84L98.996 -157.165M98.996 -8.47848L106.791 -11.9176M98.996 -8.47848L98.996 -82.822M98.996 -8.47848L98.996 65.8648M98.996 -82.822L106.791 -87.9805M98.996 -82.822L98.996 -157.165M98.996 -157.165L106.791 -164.043M106.791 -11.9176L106.791 -87.9805M106.791 -11.9176L106.791 64.1452M114.956 -93.3845L112.879 -92.0086L106.791 -87.9805M114.956 -93.3845L123.516 -99.0494M114.956 -93.3845L114.956 -171.248M106.791 -87.9805L106.791 -164.043M106.791 64.1452L106.791 140.208M106.791 64.1452L98.996 65.8648M106.791 -164.043L114.956 -171.248M98.996 65.8648L98.996 140.208M123.516 -99.0494L132.502 -104.996M123.516 -99.0494L123.516 -178.802M114.956 -171.248L123.516 -178.802M123.516 -178.802L132.502 -186.732M132.502 -23.2622L141.946 -27.4288M132.502 -23.2622L132.502 -104.996M132.502 -23.2622L132.502 58.473M132.502 -104.996L141.946 -111.247M132.502 -104.996L132.502 -186.732M132.502 -186.732L141.946 -195.066M141.946 -27.4288L141.946 -111.247M141.946 -27.4288L141.946 56.3904M151.884 -117.825L141.946 -111.247M151.884 -117.825L162.356 -124.755M151.884 -117.825L151.884 -203.835M141.946 -111.247L141.946 -195.066M141.946 56.3904L141.946 140.208M141.946 56.3904L133.657 58.2192L132.502 58.473M141.946 -195.066L151.884 -203.835M132.502 58.473L132.502 140.208M162.356 -124.755L173.407 -132.068M162.356 -124.755L162.356 -213.076M151.884 -203.835L159.686 -210.719L162.356 -213.076M162.356 -213.076L173.407 -222.827M173.407 -41.3089L185.084 -46.4615M173.407 -41.3089L173.407 -132.068M173.407 -41.3089L173.407 49.449M173.407 -132.068L185.084 -139.796M173.407 -132.068L173.407 -222.827M173.407 -222.827L185.084 -233.131M185.084 -46.4615L185.084 -139.796M185.084 -46.4615L185.084 46.8734M197.444 -147.976L185.084 -139.796M197.444 -147.976L210.547 -156.648M197.444 -147.976L197.444 -244.037M185.084 -139.796L185.084 -233.131M185.084 46.8734L185.084 140.208M185.084 46.8734L173.407 49.449M185.084 -233.131L197.444 -244.037M173.407 49.449L173.407 140.208M210.547 -156.648L224.464 -165.859M210.547 -156.648L210.547 -255.6M197.444 -244.037L210.547 -255.6M210.547 -255.6L224.464 -267.881M224.464 -63.8366L239.272 -70.3699M224.464 -63.8366L224.464 -165.859M224.464 -63.8366L224.464 38.1859M224.464 -165.859L239.272 -175.659M224.464 -165.859L224.464 -267.881M224.464 -267.881L239.272 -280.948M239.272 -70.3699L239.272 -175.659M239.272 -70.3699L239.272 34.9192M255.059 -186.107L239.272 -175.659M255.059 -186.107L271.927 -197.271M255.059 -186.107L255.059 -294.879M239.272 -175.659L239.272 -280.948M239.272 34.9192L239.272 140.208M239.272 34.9192L224.464 38.1859M239.272 -280.948L255.059 -294.879M224.464 38.1859L224.464 140.208M271.927 -197.271L289.99 -209.225M271.927 -197.271L271.927 -309.764M255.059 -294.879L271.927 -309.764M271.927 -309.764L289.99 -325.703M289.99 -92.747L309.379 -101.302M289.99 -92.747L289.99 -209.225M289.99 -92.747L289.99 23.73M289.99 -209.225L309.379 -222.057M289.99 -209.225L289.99 -325.703M289.99 -325.703L309.379 -342.813M309.379 -101.302L309.379 -222.057M309.379 -101.302L309.379 19.4531M330.247 -235.868L309.379 -222.057M330.247 -235.868L352.769 -250.773M330.247 -235.868L330.247 -361.227M309.379 -222.057L309.379 -342.813M309.379 19.4531L309.379 140.208M309.379 19.4531L289.99 23.73M309.379 -342.813L330.247 -361.227M289.99 23.73L289.99 140.208M352.769 -250.773L377.15 -266.91M352.769 -250.773L352.769 -381.101M330.247 -361.227L352.769 -381.101M352.769 -381.101L377.15 -402.615M377.15 -131.203L403.63 -142.887M377.15 -131.203L377.15 -266.91M377.15 -131.203L377.15 4.5018M377.15 -266.91L403.63 -284.434M377.15 -266.91L377.15 -402.615M377.15 -402.615L403.63 -425.982M403.63 -142.887L403.63 -284.434M403.63 -142.887L403.63 -1.33936M432.492 -303.536L403.63 -284.434M432.492 -303.536L464.072 -324.437M432.492 -303.536L432.492 -451.451M403.63 -284.434L403.63 -425.982M403.63 -1.33936L403.63 140.208M403.63 -1.33936L377.15 4.5018M403.63 -425.982L432.492 -451.451M377.15 4.5018L377.15 140.208M464.072 -324.437L498.776 -347.404M464.072 -324.437L464.072 -479.319M432.492 -451.451L464.072 -479.319M464.072 -479.319L498.776 -509.942M498.776 -184.866L537.088 -201.77M498.776 -184.866L498.776 -347.404M498.776 -184.866L498.776 -22.3296M498.776 -347.404L537.088 -372.76M498.776 -347.404L498.776 -509.942M498.776 -509.942L537.088 -543.75M537.088 -372.76L537.088 -201.77M537.088 -372.76L537.088 -543.75M537.088 -201.77L537.088 -30.7816M537.088 -30.7816L537.089 140.208M537.088 -30.7816L498.776 -22.3296M498.776 -22.3296L498.776 140.208M27.0795 257.164L27.67 257.425L28.2628 257.686L28.8587 257.949L29.4577 258.213L30.6626 258.745L31.2693 259.013L31.879 259.281M27.0795 257.164L27.0795 198.686M27.0795 257.164L27.0795 315.643M22.4475 197.665L17.9748 196.677M22.4475 197.665L27.0795 198.686M22.4475 197.665L22.4475 140.208M17.9748 196.677L17.4265 196.557L16.8806 196.436L16.337 196.317L13.6535 195.724M17.9748 196.677L17.9748 140.208M13.6535 251.24L13.1229 251.007L11.0253 250.081L9.4752 249.397M13.6535 251.24L13.6535 195.724M13.6535 251.24L13.6535 306.756M27.0795 198.686L27.67 198.817L28.2628 198.947L28.8587 199.079L31.879 199.745M27.0795 198.686L27.0795 140.208M22.4475 140.208L17.9748 140.208M22.4475 140.208L27.0795 140.208M17.9748 140.208L13.6535 140.208M13.6535 195.724L13.6535 140.208M13.6535 195.724L12.0703 195.376L11.5467 195.259L9.4752 194.802M27.0795 140.208L31.879 140.208M13.6535 84.6922L12.0703 85.0407L11.5466 85.1574L11.0253 85.2715L10.5063 85.3868L9.9896 85.4998L9.47519 85.6139M13.6535 84.6922L13.6535 140.208M13.6535 140.208L9.4752 140.208M31.879 259.281L31.879 199.745M31.879 259.281L31.879 318.818M36.8555 200.843L37.4898 200.983L38.128 201.123L42.0187 201.982M36.8555 200.843L31.879 199.745M36.8555 200.843L36.8555 140.208M31.879 199.745L31.879 140.208M31.879 318.818L31.879 378.355M31.879 318.818L30.6626 318.014L30.059 317.613L29.4577 317.216L28.8587 316.819L28.2628 316.426L27.67 316.032L27.0795 315.643M31.879 140.208L36.8555 140.208M27.0795 315.643L27.0795 374.12M42.0187 201.982L47.3796 203.164M42.0187 201.982L42.0187 140.208M36.8555 140.208L42.0187 140.208M42.0187 140.208L47.3796 140.208M47.3796 266.121L52.9503 268.579M47.3796 266.121L47.3796 203.164M47.3796 266.121L47.3796 329.077M47.3796 203.164L52.9503 204.393M47.3796 203.164L47.3796 140.208M47.3796 140.208L52.9503 140.208M52.9503 268.579L52.9503 204.393M52.9503 268.579L52.9504 332.764M58.7426 205.671L52.9503 204.393M58.7426 205.671L64.7701 207.001M58.7426 205.671L58.7426 140.208M52.9503 204.393L52.9503 140.208M52.9504 332.764L52.9504 396.949M52.9504 332.764L47.3796 329.077M52.9503 140.208L58.7426 140.208M47.3796 329.077L47.3796 392.033M64.7701 207.001L67.0938 207.513L69.4536 208.034L71.0475 208.386M64.7701 207.001L64.7701 140.208M58.7426 140.208L64.7701 140.208M64.7701 140.208L71.0475 140.208M71.0475 276.563L74.2846 277.992L75.1051 278.353L77.591 279.451M71.0475 276.563L71.0475 208.386M71.0475 276.563L71.0475 344.741M71.0475 208.386L72.6576 208.741L75.9293 209.462L77.591 209.829M71.0475 208.386L71.0475 140.208M71.0475 140.208L77.591 140.208M77.591 279.451L77.591 209.829M77.591 279.451L77.591 349.072M84.4174 211.335L83.5477 211.144L77.591 209.829M84.4174 211.335L91.5452 212.907M84.4174 211.335L84.4174 140.208M77.591 209.829L77.591 140.208M77.591 349.072L77.591 418.692M77.591 349.072L71.0475 344.741M77.591 140.208L84.4174 140.208M71.0475 344.741L71.0475 412.919M91.5452 212.907L98.996 214.552M91.5452 212.907L91.5452 140.208M84.4174 140.208L91.5452 140.208M91.5452 140.208L98.996 140.208M98.996 288.895L106.791 292.334M98.996 288.895L98.996 214.552M98.996 288.895L98.996 363.238M98.996 214.552L106.791 216.271M98.996 214.552L98.996 140.208M98.996 140.208L106.791 140.208M106.791 292.334L106.791 216.271M106.791 292.334L106.791 368.397M114.956 218.072L106.791 216.271M114.956 218.072L123.516 219.96M114.956 218.072L114.956 140.208M106.791 216.271L106.791 140.208M106.791 368.397L106.791 444.46M106.791 368.397L98.996 363.238M106.791 140.208L114.956 140.208M98.996 363.238L98.996 437.582M123.516 219.96L132.502 221.943M123.516 219.96L123.516 140.208M114.956 140.208L123.516 140.208M123.516 140.208L132.502 140.208M132.502 303.679L141.946 307.845M132.502 303.679L132.502 221.943M132.502 303.679L132.502 385.413M132.502 221.943L141.946 224.026M132.502 221.943L132.502 140.208M132.502 140.208L141.946 140.208M141.946 307.845L141.946 224.026M141.946 307.845L141.946 391.663M151.884 226.219L141.946 224.026M151.884 226.219L162.356 228.529M151.884 226.219L151.884 140.208M141.946 224.026L141.946 140.208M141.946 391.663L141.946 475.482M141.946 391.663L132.502 385.413M141.946 140.208L151.884 140.208M132.502 385.413L132.502 467.148M162.356 228.529L173.407 230.967M162.356 228.529L162.356 140.208M151.884 140.208L162.356 140.208M162.356 140.208L173.407 140.208M173.407 321.725L185.084 326.878M173.407 321.725L173.407 230.967M173.407 321.725L173.407 412.484M173.407 230.967L185.084 233.543M173.407 230.967L173.407 140.208M173.407 140.208L185.084 140.208M185.084 326.878L185.084 233.543M185.084 326.878L185.084 420.213M197.444 236.269L185.084 233.543M197.444 236.269L210.547 239.161M197.444 236.269L197.444 140.208M185.084 233.543L185.084 140.208M185.084 420.213L185.084 513.548M185.084 420.213L173.407 412.484M185.084 140.208L197.444 140.208M173.407 412.484L173.407 503.244M210.547 239.161L224.464 242.231M210.547 239.161L210.547 140.208M197.444 140.208L210.547 140.208M210.547 140.208L224.464 140.208M224.464 344.253L239.272 350.786M224.464 344.253L224.464 242.231M224.464 344.253L224.464 446.275M224.464 242.231L239.272 245.497M224.464 242.231L224.464 140.208M224.464 140.208L239.272 140.208M239.272 350.786L239.272 245.497M239.272 350.786L239.272 456.075M255.059 248.98L239.272 245.497M255.059 248.98L271.927 252.701M255.059 248.98L255.059 140.208M239.272 245.497L239.272 140.208M239.272 456.075L239.272 561.364M239.272 456.075L224.464 446.275M239.272 140.208L255.059 140.208M224.464 446.275L224.464 548.298M271.927 252.701L289.99 256.686M271.927 252.701L271.927 140.208M255.059 140.208L271.927 140.208M271.927 140.208L289.99 140.208M289.99 373.163L309.379 381.719M289.99 373.163L289.99 256.686M289.99 373.163L289.99 489.642M289.99 256.686L309.379 260.963M289.99 256.686L289.99 140.208M289.99 140.208L309.379 140.208M309.379 381.719L309.379 260.963M309.379 381.719L309.379 502.474M330.247 265.567L309.379 260.963M330.247 265.567L352.769 270.535M330.247 265.567L330.247 140.208M309.379 260.963L309.379 140.208M309.379 502.474L309.379 623.229M309.379 502.474L289.99 489.642M309.379 140.208L330.247 140.208M289.99 489.642L289.99 606.12M352.769 270.535L377.15 275.915M352.769 270.535L352.769 140.208M330.247 140.208L352.769 140.208M352.769 140.208L377.15 140.208M377.15 411.62L403.63 423.303M377.15 411.62L377.15 275.915M377.15 411.62L377.15 547.326M377.15 275.915L403.63 281.756M377.15 275.915L377.15 140.208M377.15 140.208L403.63 140.208M403.63 423.303L403.63 281.756M403.63 423.303L403.63 564.851M432.492 288.123L403.63 281.756M432.492 288.123L464.072 295.089M432.492 288.123L432.492 140.208M403.63 281.756L403.63 140.208M403.63 564.851L403.63 706.398M403.63 564.851L377.15 547.326M403.63 140.208L432.492 140.208M377.15 547.326L377.15 683.032M464.072 295.089L498.776 302.746M464.072 295.089L464.072 140.208M432.492 140.208L464.072 140.208M464.072 140.208L498.776 140.208M498.776 465.283L537.089 482.187M498.776 465.283L498.776 302.746M498.776 465.283L498.776 627.82M498.776 302.746L537.089 311.198M498.776 302.746L498.776 140.208M498.776 140.208L537.089 140.208M537.089 311.198L537.089 482.187M537.089 311.198L537.089 140.208M537.089 482.187L537.089 653.176M537.089 653.176L537.089 824.166M537.089 653.176L498.776 627.82M498.776 627.82L498.776 790.358M27.0795 491.076L29.4578 494.223L31.879 497.428M27.0795 491.076L27.0795 432.598M27.0795 491.076L27.0795 549.553M22.4476 427.489L17.9748 422.555M22.4476 427.489L27.0795 432.598M22.4476 427.489L22.4476 370.033M17.9748 422.555L17.9748 366.086M17.9748 422.555L14.72 418.966L13.6535 417.789M13.6535 473.305L13.6535 417.789M13.6535 473.305L12.0703 471.209L9.47521 467.774M13.6535 473.305L13.6535 528.821M27.0795 432.598L31.879 437.891M27.0795 432.598L27.0795 374.12M22.4476 370.033L17.9748 366.086M22.4476 370.033L27.0795 374.12M17.9748 366.086L15.7957 364.163L14.1856 362.742L13.6535 362.273M13.6535 417.789L13.6535 362.273M13.6535 417.789L10.5063 414.318L9.47521 413.18M27.0795 374.12L30.6626 377.282L31.879 378.355M13.6535 306.756L13.1229 306.406L12.0703 305.709L10.5063 304.674L9.4752 303.991M13.6535 306.756L13.6535 362.273M13.6535 362.273L13.1229 361.805L12.0703 360.875L9.47521 358.586M31.879 497.428L31.879 437.891M31.879 497.428L31.8791 556.966M36.8555 443.382L36.2234 442.683L35.5937 441.99L33.1055 439.245L31.879 437.891M36.8555 443.382L40.7093 447.633L42.0187 449.077M36.8555 443.382L36.8555 382.746M31.879 437.891L31.879 378.355M31.8791 556.966L31.8791 616.503M31.8791 556.966L28.2628 551.382L27.0795 549.553M31.879 378.355L36.8555 382.746M27.0795 549.553L27.0795 608.032M42.0187 449.077L42.6777 449.803L43.3397 450.534L45.3458 452.746L46.0201 453.491L47.3796 454.99M42.0187 449.077L42.0187 387.303M36.8555 382.746L37.4898 383.307L42.0187 387.303M42.0187 387.303L42.6777 387.884L43.3397 388.469L44.0056 389.056L47.3796 392.033M47.3796 517.946L52.9504 525.32M47.3796 517.946L47.3796 454.99M47.3796 517.946L47.3796 580.902M47.3796 454.99L52.9504 461.134M47.3796 454.99L47.3796 392.033M47.3796 392.033L52.9504 396.949M52.9504 525.32L52.9504 461.134M52.9504 525.32L52.9504 589.505M58.7426 467.523L52.9504 461.134M58.7426 467.523L64.7701 474.172M58.7426 467.523L58.7426 402.06M52.9504 461.134L52.9504 396.949M52.9504 589.505L52.9504 653.69M52.9504 589.505L47.3796 580.902M52.9504 396.949L58.7426 402.06M47.3796 580.902L47.3796 643.86M64.7701 474.172L71.0475 481.096M64.7701 474.172L64.7701 407.379M58.7426 402.06L60.2266 403.371L64.7701 407.379M64.7701 407.379L67.0938 409.43L69.4536 411.513L71.0475 412.919M71.0475 549.274L74.2846 553.56L77.591 557.935M71.0475 549.274L71.0475 481.096M71.0475 549.274L71.0475 617.452M71.0475 481.096L77.591 488.314M71.0475 481.096L71.0475 412.919M71.0475 412.919L77.591 418.692M77.591 557.935L77.591 488.314M77.591 557.935L77.591 627.556M84.4174 495.843L77.591 488.314M84.4174 495.843L91.5452 503.706M84.4174 495.843L84.4174 424.717M77.591 488.314L77.591 418.692M77.591 627.556L77.591 697.178M77.591 627.556L71.0475 617.452M77.591 418.692L84.4174 424.717M71.0475 617.452L71.0475 685.629M91.5452 503.706L93.3768 505.727L98.996 511.924M91.5452 503.706L91.5452 431.007M84.4174 424.717L91.5452 431.007M91.5452 431.007L92.4587 431.812L95.2291 434.257L98.996 437.582M98.996 586.267L106.791 596.586M98.996 586.267L98.996 511.924M98.996 586.267L98.996 660.611M98.996 511.924L106.791 520.523M98.996 511.924L98.996 437.582M98.996 437.582L106.791 444.46M106.791 596.586L106.791 520.523M106.791 596.586L106.791 672.649M114.956 529.529L109.808 523.85L106.791 520.523M114.956 529.529L123.516 538.971M114.956 529.529L114.956 451.665M106.791 520.523L106.791 444.46M106.791 672.649L106.791 748.712M106.791 672.649L98.996 660.611M106.791 444.46L114.956 451.665M98.996 660.611L98.996 734.954M123.516 538.971L132.502 548.883M123.516 538.971L123.516 459.218M114.956 451.665L123.516 459.218M123.516 459.218L132.502 467.148M132.502 630.618L141.946 643.119M132.502 630.618L132.502 548.883M132.502 630.618L132.502 712.352M132.502 548.883L141.946 559.3M132.502 548.883L132.502 467.148M132.502 467.148L141.946 475.482M141.946 643.119L141.946 559.3M141.946 643.119L141.946 726.937M151.884 570.262L141.946 559.3M151.884 570.262L162.356 581.813M151.884 570.262L151.884 484.251M141.946 559.3L141.946 475.482M141.946 726.937L141.946 810.755M141.946 726.937L132.502 712.352M141.946 475.482L151.884 484.251M132.502 712.352L132.502 794.088M162.356 581.813L173.407 594.002M162.356 581.813L162.356 493.492M151.884 484.251L162.356 493.492M162.356 493.492L173.407 503.244M173.407 684.761L185.084 700.217M173.407 684.761L173.407 594.002M173.407 684.761L173.407 775.52M173.407 594.002L185.084 606.882M173.407 594.002L173.407 503.244M173.407 503.244L185.084 513.548M185.084 700.217L185.084 606.882M185.084 700.217L185.084 793.552M197.444 620.516L185.084 606.882M197.444 620.516L210.547 634.969M197.444 620.516L197.444 524.454M185.084 606.882L185.084 513.548M185.084 793.552L185.084 886.887M185.084 793.552L173.407 775.52M185.084 513.548L197.444 524.454M173.407 775.52L173.407 866.278M210.547 634.969L224.464 650.32M210.547 634.969L210.547 536.017M197.444 524.454L210.547 536.017M210.547 536.017L224.464 548.298M224.464 752.343L239.272 771.943M224.464 752.343L224.464 650.32M224.464 752.343L224.464 854.365M224.464 650.32L239.272 666.653M224.464 650.32L224.464 548.298M224.464 548.298L239.272 561.364M239.272 771.943L239.272 666.653M239.272 771.943L239.272 877.232M255.059 684.067L239.272 666.653M255.059 684.067L271.927 702.674M255.059 684.067L255.059 575.296M239.272 666.653L239.272 561.364M239.272 877.232L239.272 982.521M239.272 877.232L224.464 854.365M239.272 561.364L255.059 575.296M224.464 854.365L224.464 956.387M271.927 702.674L289.99 722.597M271.927 702.674L271.927 590.18M255.059 575.296L271.927 590.18M271.927 590.18L289.99 606.12M289.99 839.075L309.379 864.739M289.99 839.075L289.99 722.597M289.99 839.075L289.99 955.553M289.99 722.597L309.379 743.984M289.99 722.597L289.99 606.12M289.99 606.12L309.379 623.229M309.379 864.739L309.379 743.984M309.379 864.739L309.379 985.495M330.247 767.002L309.379 743.984M330.247 767.002L352.769 791.845M330.247 767.002L330.247 641.644M309.379 743.984L309.379 623.229M309.379 985.495L309.379 1106.25M309.379 985.495L289.99 955.553M309.379 623.229L330.247 641.644M289.99 955.553L289.99 1072.03M352.769 791.845L377.15 818.738M352.769 791.845L352.769 661.518M330.247 641.644L352.769 661.518M352.769 661.518L377.15 683.032M377.15 954.443L403.63 989.493M377.15 954.443L377.15 818.738M377.15 954.443L377.15 1090.15M377.15 818.738L403.63 847.946M377.15 818.738L377.15 683.032M377.15 683.032L403.63 706.398M403.63 989.493L403.63 847.946M403.63 989.493L403.63 1131.04M432.492 879.782L403.63 847.946M432.492 879.782L464.072 914.617M432.492 879.782L432.492 731.867M403.63 847.946L403.63 706.398M403.63 1131.04L403.63 1272.59M403.63 1131.04L377.15 1090.15M403.63 706.398L432.492 731.867M377.15 1090.15L377.15 1225.85M464.072 914.617L498.776 952.895M464.072 914.617L464.072 759.735M432.492 731.867L464.072 759.735M464.072 759.735L498.776 790.358M498.776 1115.43L537.089 1166.14M498.776 1115.43L498.776 952.895M498.776 1115.43L498.776 1277.97M498.776 952.895L537.089 995.155M498.776 952.895L498.776 790.358M498.776 790.358L537.089 824.166M537.089 995.155L537.089 1166.14M537.089 995.155L537.089 824.166M537.089 1166.14L537.088 1306M498.776 1277.97L516.926 1306M498.776 1277.97L498.776 1306M27.0795 724.988L31.8791 735.576M27.0795 724.988L27.0795 666.51M27.0795 724.988L27.0795 783.466M22.4476 657.314L17.9748 648.433M22.4476 657.314L27.0795 666.51M22.4476 657.314L22.4476 599.857M17.9748 648.433L17.9748 591.964M17.9748 648.433L13.6535 639.852M13.6535 695.37L13.6535 639.852M13.6535 695.37L12.0703 691.876L9.47522 686.151M13.6535 695.37L13.6535 750.885M27.0795 666.51L31.8791 676.039M27.0795 666.51L27.0795 608.032M22.4476 599.857L17.9748 591.964M22.4476 599.857L27.0795 608.032M17.9748 591.964L14.72 586.219L13.6535 584.336M13.6535 639.852L13.1229 638.801L9.47522 631.557M13.6535 639.852L13.6535 584.336M27.0795 608.032L31.8791 616.503M13.6535 528.821L9.47521 522.369M13.6535 528.821L13.6535 584.336M13.6535 584.336L12.0703 581.542L9.47522 576.963M31.8791 735.576L31.8791 676.039M31.8791 735.576L31.8791 795.113M36.8555 685.919L31.8791 676.039M36.8555 685.919L42.0187 696.171M36.8555 685.919L36.8555 625.285M31.8791 676.039L31.8791 616.503M31.8791 795.113L31.8791 854.649M31.8791 795.113L27.0795 783.466M31.8791 616.503L36.8555 625.285M27.0795 783.466L27.0795 841.943M42.0187 696.171L43.3397 698.795L47.3796 706.816M42.0187 696.171L42.0187 634.397M36.8555 625.285L42.0187 634.397M42.0187 634.397L47.3796 643.86M47.3796 769.772L48.0647 771.282L52.9504 782.061M47.3796 769.772L47.3796 706.816M47.3796 769.772L47.3796 832.729M47.3796 706.816L52.9504 717.875M47.3796 706.816L47.3796 643.86M47.3796 643.86L48.0647 645.067L52.9504 653.69M52.9504 782.061L52.9504 717.875M52.9504 782.061L52.9504 846.246M58.7426 729.375L52.9504 717.875M58.7426 729.375L64.7701 741.343M58.7426 729.375L58.7426 663.913M52.9504 717.875L52.9504 653.69M52.9504 846.246L52.9504 910.431M52.9504 846.246L47.3796 832.729M52.9504 653.69L58.7426 663.913M47.3796 832.729L47.3796 895.685M64.7701 741.343L71.0475 753.807M64.7701 741.343L64.7701 674.55M58.7426 663.913L64.7701 674.55M64.7701 674.55L71.0475 685.629M71.0475 821.984L77.591 836.419M71.0475 821.984L71.0475 753.807M71.0475 821.984L71.0475 890.162M71.0475 753.807L77.591 766.798M71.0475 753.807L71.0475 685.629M71.0475 685.629L77.591 697.178M77.591 836.419L77.591 766.798M77.591 836.419L77.591 906.041M84.4174 780.352L77.591 766.798M84.4174 780.352L91.5452 794.505M84.4174 780.352L84.4174 709.225M77.591 766.798L77.591 697.178M77.591 906.041L77.591 975.662M77.591 906.041L71.0475 890.162M77.591 697.178L84.4174 709.225M71.0475 890.162L71.0475 958.34M91.5452 794.505L98.996 809.298M91.5452 794.505L91.5452 721.805M84.4174 709.225L91.5452 721.805M91.5452 721.805L98.996 734.954M98.996 883.641L106.791 900.838M98.996 883.641L98.996 809.298M98.996 883.641L98.996 957.984M98.996 809.298L106.791 824.775M98.996 809.298L98.996 734.954M98.996 734.954L106.791 748.712M106.791 900.838L106.791 824.775M106.791 900.838L106.791 976.901M114.956 840.985L106.791 824.775M114.956 840.985L123.516 857.981M114.956 840.985L114.956 763.121M106.791 824.775L106.791 748.712M106.791 976.901L106.791 1052.96M106.791 976.901L98.996 957.984M106.791 748.712L114.956 763.121M98.996 957.984L98.996 1032.33M123.516 857.981L132.502 875.823M123.516 857.981L123.516 778.229M114.956 763.121L123.516 778.229M123.516 778.229L132.502 794.088M132.502 957.558L141.946 978.392M132.502 957.558L132.502 875.823M132.502 957.558L132.502 1039.29M132.502 875.823L141.946 894.574M132.502 875.823L132.502 794.088M132.502 794.088L141.946 810.755M141.946 978.392L141.946 894.574M141.946 978.392L141.946 1062.21M151.884 914.306L141.946 894.574M151.884 914.306L162.356 935.097M151.884 914.306L151.884 828.295M141.946 894.574L141.946 810.755M141.946 1062.21L141.946 1146.03M141.946 1062.21L132.502 1039.29M141.946 810.755L151.884 828.295M132.502 1039.29L132.502 1121.03M162.356 935.097L173.407 957.037M162.356 935.097L162.356 846.776M151.884 828.295L162.356 846.776M162.356 846.776L173.407 866.278M173.407 1047.8L185.084 1073.56M173.407 1047.8L173.407 957.037M173.407 1047.8L173.407 1138.55M173.407 957.037L185.084 980.222M173.407 957.037L173.407 866.278M173.407 866.278L185.084 886.887M185.084 1073.56L185.084 980.222M185.084 1073.56L185.084 1166.89M197.444 1004.76L185.084 980.222M197.444 1004.76L210.547 1030.78M197.444 1004.76L197.444 908.701M185.084 980.222L185.084 886.887M185.084 1166.89L185.084 1260.23M185.084 1166.89L173.407 1138.55M185.084 886.887L197.444 908.701M173.407 1138.55L173.407 1229.31M210.547 1030.78L224.464 1058.41M210.547 1030.78L210.547 931.826M197.444 908.701L210.547 931.826M210.547 931.826L224.464 956.387M224.464 1160.43L239.272 1193.1M224.464 1160.43L224.464 1058.41M224.464 1160.43L224.464 1262.45M224.464 1058.41L239.272 1087.81M224.464 1058.41L224.464 956.387M224.464 956.387L239.272 982.521M239.272 1193.1L239.272 1087.81M239.272 1193.1L239.272 1298.39M255.059 1119.16L239.272 1087.81M255.059 1119.16L271.927 1152.65M255.059 1119.16L255.059 1010.38M239.272 1087.81L239.272 982.521M239.272 1298.39L224.464 1262.45M239.272 1298.39L239.272 1306M239.272 1298.39L242.408 1306M239.272 982.521L255.059 1010.38M224.464 1262.45L224.464 1306M271.927 1152.65L289.99 1188.51M271.927 1152.65L271.927 1040.15M255.059 1010.38L271.927 1040.15M271.927 1040.15L289.99 1072.03M289.99 1304.99L289.99 1188.51M289.99 1304.99L289.99 1306M289.99 1304.99L290.448 1306M289.99 1188.51L309.379 1227.01M289.99 1188.51L289.99 1072.03M289.99 1072.03L309.379 1106.25M330.247 1268.44L309.379 1227.01M330.247 1268.44L330.247 1143.08M330.247 1268.44L330.247 1306M330.247 1268.44L349.165 1306M309.379 1227.01L309.379 1106.25M309.379 1227.01L309.379 1306M309.379 1106.25L330.247 1143.08M330.247 1143.08L352.769 1182.83M352.769 1182.83L377.15 1225.85M352.769 1182.83L352.769 1306M377.15 1225.85L403.63 1272.59M377.15 1225.85L377.15 1306M403.63 1272.59L403.63 1306M403.63 1272.59L422.56 1306M27.0795 958.9L31.8791 973.723M27.0795 958.9L27.0795 900.421M27.0795 958.9L27.0795 1017.38M22.4476 887.138L17.9748 874.311M22.4476 887.138L27.0795 900.421M22.4476 887.138L22.4476 829.682M17.9748 874.311L17.9748 817.842M17.9748 874.311L13.6535 861.917M13.6535 917.433L13.6535 861.917M13.6535 917.433L9.47523 904.529M13.6535 917.433L13.6535 972.949M27.0795 900.421L31.8791 914.186M27.0795 900.421L27.0795 841.943M22.4476 829.682L17.9748 817.842M22.4476 829.682L27.0795 841.943M17.9748 817.842L13.6535 806.401M13.6535 861.917L13.1229 860.398L9.47523 849.935M13.6535 861.917L13.6535 806.401M27.0795 841.943L31.8791 854.649M13.6535 750.885L9.47522 740.747M13.6535 750.885L13.6535 806.401M13.6535 806.401L13.1229 804.999L9.47522 795.341M31.8791 973.723L31.8791 914.186M31.8791 973.723L31.8791 1033.26M36.8555 928.458L31.8791 914.186M36.8555 928.458L42.0187 943.266M36.8555 928.458L36.8555 867.823M31.8791 914.186L31.8791 854.649M31.8791 1033.26L31.8791 1092.8M31.8791 1033.26L27.0795 1017.38M31.8791 854.649L36.8555 867.823M27.0795 1017.38L27.0795 1075.86M42.0187 943.266L47.3796 958.641M42.0187 943.266L42.0187 881.493M36.8555 867.823L37.4898 869.505L42.0187 881.493M42.0187 881.493L47.3796 895.685M47.3796 1021.6L52.9504 1038.8M47.3796 1021.6L47.3796 958.641M47.3796 1021.6L47.3796 1084.55M47.3796 958.641L52.9504 974.616M47.3796 958.641L47.3796 895.685M47.3796 895.685L52.9504 910.431M52.9504 1038.8L52.9504 974.616M52.9504 1038.8L52.9504 1102.99M58.7426 991.228L52.9504 974.616M58.7426 991.228L64.7701 1008.51M58.7426 991.228L58.7426 925.765M52.9504 974.616L52.9504 910.431M52.9504 1102.99L52.9504 1167.17M52.9504 1102.99L47.3796 1084.55M52.9504 910.431L58.7426 925.765M47.3796 1084.55L47.3796 1147.51M64.7701 1008.51L71.0475 1026.52M64.7701 1008.51L64.7701 941.722M58.7426 925.765L64.7701 941.722M64.7701 941.722L71.0475 958.34M71.0476 1094.7L77.591 1114.9M71.0476 1094.7L71.0475 1026.52M71.0476 1094.7L71.0476 1162.87M71.0475 1026.52L77.591 1045.28M71.0475 1026.52L71.0475 958.34M71.0475 958.34L77.591 975.662M77.591 1114.9L77.591 1045.28M77.591 1114.9L77.591 1184.53M84.4174 1064.86L77.591 1045.28M84.4174 1064.86L91.5452 1085.3M84.4174 1064.86L84.4174 993.733M77.591 1045.28L77.591 975.662M77.591 1184.53L77.591 1254.15M77.591 1184.53L71.0476 1162.87M77.591 975.662L84.4174 993.733M71.0476 1162.87L71.0476 1231.05M91.5452 1085.3L98.996 1106.67M91.5452 1085.3L91.5452 1012.6M84.4174 993.733L91.5452 1012.6M91.5452 1012.6L98.996 1032.33M98.996 1181.01L106.791 1205.09M98.996 1181.01L98.996 1106.67M98.996 1181.01L98.996 1255.36M98.996 1106.67L106.791 1129.03M98.996 1106.67L98.996 1032.33M98.996 1032.33L106.791 1052.96M106.791 1205.09L106.791 1129.03M114.956 1152.44L106.791 1129.03M114.956 1152.44L123.516 1176.99M114.956 1152.44L114.956 1074.58M106.791 1129.03L106.791 1052.96M106.791 1052.96L114.956 1074.58M98.996 1255.36L98.996 1306M123.516 1176.99L132.502 1202.76M123.516 1176.99L123.516 1097.24M114.956 1074.58L123.516 1097.24M123.516 1097.24L132.502 1121.03M132.502 1284.5L132.502 1202.76M132.502 1284.5L132.502 1306M132.502 1284.5L139.463 1306M132.502 1202.76L141.946 1229.85M132.502 1202.76L132.502 1121.03M132.502 1121.03L141.946 1146.03M151.884 1258.35L141.946 1229.85M151.884 1258.35L162.356 1288.38M151.884 1258.35L151.884 1172.34M151.884 1258.35L151.884 1306M141.946 1229.85L141.946 1146.03M141.946 1229.85L141.946 1306M141.946 1146.03L151.884 1172.34M139.54 1306.23L139.463 1306M162.356 1288.38L162.356 1200.06M162.356 1288.38L162.356 1306M162.356 1288.38L168.499 1306M151.884 1172.34L162.356 1200.06M162.356 1200.06L173.407 1229.31M173.407 1229.31L185.084 1260.23M173.407 1229.31L173.407 1306M197.444 1292.95L185.084 1260.23M197.444 1292.95L197.444 1306M197.444 1292.95L202.374 1306M185.084 1260.23L185.084 1306M27.0795 1192.81L31.8791 1211.87M27.0795 1192.81L27.0795 1134.33M27.0795 1192.81L27.0795 1251.29M22.4476 1116.96L17.9748 1100.19M22.4476 1116.96L27.0795 1134.33M22.4476 1116.96L22.4476 1059.51M17.9748 1100.19L17.9748 1043.72M17.9748 1100.19L13.6535 1083.98M13.6535 1139.5L13.6535 1083.98M13.6535 1139.5L9.47524 1122.91M13.6535 1139.5L13.6535 1195.01M27.0795 1134.33L31.8791 1152.33M27.0795 1134.33L27.0795 1075.86M22.4476 1059.51L17.9748 1043.72M22.4476 1059.51L27.0795 1075.86M17.9748 1043.72L13.6535 1028.47M13.6535 1083.98L13.6535 1028.47M13.6535 1083.98L9.47524 1068.31M27.0795 1075.86L31.8791 1092.8M13.6535 972.949L9.47523 959.123M13.6535 972.949L13.6535 1028.47M13.6535 1028.47L9.47523 1013.72M31.8791 1211.87L31.8791 1152.33M31.8791 1211.87L31.8791 1271.41M36.8555 1171L31.8791 1152.33M36.8555 1171L42.0188 1190.36M36.8555 1171L36.8555 1110.36M31.8791 1152.33L31.8791 1092.8M31.8791 1271.41L27.0795 1251.29M31.8791 1271.41L31.8791 1306M31.8791 1092.8L36.8555 1110.36M27.0795 1251.29L27.0795 1306M42.0188 1190.36L47.3796 1210.47M42.0188 1190.36L42.0188 1128.59M36.8555 1110.36L42.0188 1128.59M42.0188 1128.59L47.3796 1147.51M47.3796 1273.42L52.9504 1295.54M47.3796 1273.42L47.3796 1210.47M47.3796 1273.42L47.3796 1306M47.3796 1210.47L52.9504 1231.36M47.3796 1210.47L47.3796 1147.51M47.3796 1147.51L52.9504 1167.17M58.7426 1253.08L52.9504 1231.36M58.7426 1253.08L64.7701 1275.69M58.7426 1253.08L58.7426 1187.62M58.7426 1253.08L58.7426 1306M52.9504 1231.36L52.9504 1295.54M52.9504 1231.36L52.9504 1167.17M52.9504 1295.54L55.5831 1306M52.9504 1295.54L52.9504 1306M52.9504 1167.17L58.7426 1187.62M64.7701 1275.69L71.0476 1299.23M64.7701 1275.69L64.7701 1208.89M64.7701 1275.69L64.7701 1306M58.7426 1187.62L64.7701 1208.89M64.7701 1208.89L71.0476 1231.05M71.0476 1299.23L71.0476 1231.05M71.0476 1299.23L72.8524 1306M71.0476 1299.23L71.0476 1306M71.0476 1231.05L77.591 1254.15M84.4174 1278.24L77.591 1254.15M84.4174 1278.24L91.5453 1303.4M84.4174 1278.24L84.4174 1306M77.591 1254.15L77.591 1306M77.591 1306.36L77.591 1306M91.5453 1303.4L91.5453 1306M91.5453 1303.4L92.2809 1306M92.4587 1306.63L92.2809 1306M22.4476 1289.33L17.9748 1269.6M22.4476 1289.33L22.4476 1306M22.4476 1289.33L26.2249 1306M17.9748 1269.6L13.6535 1250.53M17.9748 1269.6L17.9748 1306M13.6535 1195.01L9.47524 1177.5M13.6535 1195.01L13.6535 1250.53M13.6535 1250.53L9.47524 1232.1M13.6535 1250.53L13.6535 1306M9.47516 -624.113L9.47516 -678.707M9.47516 -624.113L9.47517 -569.519M5.43374 -665.333L6.43179 -668.635L9.47516 -678.707M5.43374 -665.333L5.43374 -719.036M9.47516 -678.707L9.47516 -733.301M5.43374 -719.036L6.43179 -722.558L6.93313 -724.331L9.47516 -733.301M9.47516 -733.301L9.47516 -787.895M9.47516 -787.895L9.47515 -842.491M9.47517 -569.519L9.47517 -514.924M9.47515 -842.491L9.47515 -897.085M9.47515 -897.085L5.43373 -880.143M9.47515 -897.085L9.47515 -951.679M5.43373 -880.143L5.43373 -933.846M9.47517 -405.735L9.47517 -460.33M9.47517 -405.735L9.47517 -351.141M5.43375 -450.522L6.4318 -452.943L6.93314 -454.162L9.47517 -460.33M5.43375 -450.522L5.43375 -504.225M9.47517 -460.33L9.47517 -514.924M5.43375 -504.225L9.47517 -514.924M9.47517 -351.141L9.47518 -296.546M9.47518 -187.358L9.47518 -241.952M9.47518 -187.358L9.47518 -132.764M5.43376 -235.711L5.93125 -236.48L6.43181 -237.251L6.93315 -238.027L9.47518 -241.952M5.43376 -235.711L5.43376 -289.413M9.47518 -241.952L9.47518 -296.546M5.43376 -289.413L9.47518 -296.546M9.47518 -132.764L9.47519 -78.1685M9.47519 31.0199L9.47519 -23.5743M9.47519 31.0199L9.47519 85.6139M5.43377 -20.9002L9.47519 -23.5743M5.43377 -20.9002L5.43377 -74.6031M9.47519 -23.5743L9.47519 -78.1685M5.43377 -74.6031L5.93126 -75.0428L6.43182 -75.4835L6.93316 -75.9269L9.47519 -78.1685M9.47519 85.6139L9.4752 140.208M9.4752 249.397L9.4752 194.802M9.4752 249.397L9.4752 303.991M5.43378 193.911L9.4752 194.802M5.43378 193.911L5.43378 140.208M9.4752 194.802L9.4752 140.208M5.43378 140.208L9.4752 140.208M9.4752 303.991L9.47521 358.586M9.47521 467.774L9.47521 413.18M9.47521 467.774L9.47521 522.369M5.43379 408.722L6.43184 409.823L8.45179 412.052L9.47521 413.18M5.43379 408.722L5.43378 355.02M9.47521 413.18L9.47521 358.586M5.43378 355.02L5.93127 355.459L6.43184 355.9L6.93318 356.343L9.47521 358.586M9.47521 522.369L9.47522 576.963M9.47522 686.151L9.47522 631.557M9.47522 686.151L9.47522 740.747M5.4338 623.533L6.43185 625.514L6.93319 626.511L9.47522 631.557M5.4338 623.533L5.43379 569.83M9.47522 631.557L9.47522 576.963M5.43379 569.83L5.93128 570.709L9.47522 576.963M9.47522 740.747L9.47522 795.341M9.47523 904.529L9.47523 849.935M9.47523 904.529L9.47523 959.123M5.43381 838.344L6.43186 841.206L6.9332 842.646L9.47523 849.935M5.43381 838.344L5.4338 784.641M9.47523 849.935L9.47522 795.341M5.4338 784.641L5.93129 785.96L9.47522 795.341M9.47523 959.123L9.47523 1013.72M9.47524 1122.91L9.47524 1068.31M9.47524 1122.91L9.47524 1177.5M5.43382 1053.16L9.47524 1068.31M5.43382 1053.16L5.43381 999.452M9.47524 1068.31L9.47523 1013.72M5.43381 999.452L6.43187 1002.97L6.9332 1004.75L9.47523 1013.72M9.47524 1177.5L9.47524 1232.1M5.43382 1267.97L9.47525 1286.69M5.43382 1267.97L5.43382 1214.26M5.43382 1267.97L5.43383 1306M9.47525 1286.69L9.47524 1232.1M9.47525 1286.69L13.6433 1306M9.47525 1286.69L9.47525 1306M5.43382 1214.26L6.43188 1218.67L9.47524 1232.1M5.43373 -933.846L6.43178 -938.249L9.47515 -951.679M9.47515 -951.679L9.47515 -1006.27M9.47515 -1006.27L13.6432 -1025.58M9.47515 -1006.27L9.47515 -1025.58M202.374 -1025.58L197.444 -1025.58M202.374 -1025.58L210.547 -1025.58M197.444 -1025.58L185.084 -1025.58M210.547 -1025.58L212.989 -1025.58L224.464 -1025.58M224.464 -1025.58L239.272 -1025.58M106.791 -1025.58L98.9959 -1025.58M106.791 -1025.58L114.299 -1025.58M5.43372 -1025.58L9.47515 -1025.58M9.47515 -1025.58L13.6432 -1025.58M13.6432 -1025.58L13.6534 -1025.63L13.6534 -1025.58M13.6432 -1025.58L13.6534 -1025.58M13.6534 -1025.58L17.9747 -1025.58M17.9747 -1025.58L22.4475 -1025.58M22.4475 -1025.58L26.2248 -1025.58M26.2248 -1025.58L27.0794 -1025.58M27.0794 -1025.58L31.879 -1025.58M31.879 -1025.58L36.8554 -1025.58M36.8554 -1025.58L40.1311 -1025.58M40.1311 -1025.58L42.0187 -1025.58M42.0187 -1025.58L47.3795 -1025.58M47.3795 -1025.58L52.9503 -1025.58M52.9503 -1025.58L55.5831 -1025.58M55.5831 -1025.58L58.7425 -1025.58M58.7425 -1025.58L64.77 -1025.58M64.77 -1025.58L71.0475 -1025.58M71.0475 -1025.58L72.8523 -1025.58M72.8523 -1025.58L77.5909 -1025.58M77.5909 -1025.58L84.4173 -1025.58M84.4173 -1025.58L91.5452 -1025.58M91.5452 -1025.58L92.2808 -1025.58M92.2808 -1025.58L98.9959 -1025.58M114.955 -1025.58L123.516 -1025.58M114.955 -1025.58L114.299 -1025.58M123.516 -1025.58L132.502 -1025.58M132.502 -1025.58L139.463 -1025.58M139.463 -1025.58L141.946 -1025.58M141.946 -1025.58L151.884 -1025.58M151.884 -1025.58L162.356 -1025.58M162.356 -1025.58L168.499 -1025.58M168.499 -1025.58L173.407 -1025.58M173.407 -1025.58L185.084 -1025.58M239.272 -1025.58L242.408 -1025.58M242.408 -1025.58L255.059 -1025.58M255.059 -1025.58L271.927 -1025.58M271.927 -1025.58L289.99 -1025.58M289.99 -1025.58L290.448 -1025.58M290.448 -1025.58L309.379 -1025.58M309.379 -1025.58L330.247 -1025.58M330.247 -1025.58L349.165 -1025.58M349.165 -1025.58L352.769 -1025.58M352.769 -1025.58L377.15 -1025.58M377.15 -1025.58L403.63 -1025.58M403.63 -1025.58L422.56 -1025.58M422.56 -1025.58L432.492 -1025.58M432.492 -1025.58L464.072 -1025.58M464.072 -1025.58L498.776 -1025.58M498.776 -1025.58L516.926 -1025.58M516.926 -1025.58L537.088 -1025.58M537.088 -1025.58L537.225 -1025.58L537.225 1306L537.088 1306M114.956 1306L123.516 1306M114.956 1306L114.299 1306M114.299 1306L106.791 1306M106.791 1306L98.996 1306M98.996 1306L92.2809 1306M92.2809 1306L91.5453 1306M91.5453 1306L84.4174 1306M84.4174 1306L77.591 1306M77.591 1306L72.8524 1306M72.8524 1306L71.0476 1306M71.0476 1306L64.7701 1306M64.7701 1306L58.7426 1306M58.7426 1306L55.5831 1306M55.5831 1306L52.9504 1306M52.9504 1306L47.3796 1306M47.3796 1306L42.0188 1306M42.0188 1306L40.1312 1306M40.1312 1306L36.8555 1306M36.8555 1306L31.8791 1306M31.8791 1306L27.0795 1306M27.0795 1306L26.2249 1306M26.2249 1306L22.4476 1306M22.4476 1306L17.9748 1306M17.9748 1306L13.6535 1306M13.6535 1306L13.6535 1306.05L13.6433 1306M13.6535 1306L13.6433 1306M13.6433 1306L9.47525 1306M9.47525 1306L5.43383 1306M537.088 1306L516.926 1306M516.926 1306L498.776 1306M498.776 1306L464.073 1306M464.073 1306L432.492 1306M432.492 1306L422.56 1306M422.56 1306L403.63 1306M403.63 1306L377.15 1306M377.15 1306L352.769 1306M352.769 1306L349.165 1306M349.165 1306L330.247 1306M330.247 1306L309.379 1306M309.379 1306L290.448 1306M290.448 1306L289.99 1306M289.99 1306L271.927 1306M271.927 1306L255.059 1306M255.059 1306L242.408 1306M242.408 1306L239.272 1306M239.272 1306L224.464 1306M224.464 1306L210.547 1306M210.547 1306L202.374 1306M202.374 1306L197.444 1306M197.444 1306L185.084 1306M185.084 1306L173.407 1306M173.407 1306L168.499 1306M168.499 1306L162.356 1306M162.356 1306L151.884 1306M151.884 1306L141.946 1306M141.946 1306L139.463 1306M139.463 1306L132.502 1306M132.502 1306L123.516 1306" stroke="url(#paint0_linear_12_2955)" stroke-opacity="0.34" stroke-width="1.41008" stroke-miterlimit="10" stroke-linecap="round" stroke-linejoin="round"/>
<defs>
<linearGradient id="paint0_linear_12_2955" x1="1.52156" y1="140.208" x2="377.115" y2="140.208" gradientUnits="userSpaceOnUse">
<stop stop-color="#CED2DF" stop-opacity="0"/>
<stop offset="1" stop-color="white"/>
</linearGradient>
</defs>
</svg>
