<svg width="15" height="14" viewBox="0 0 15 14" fill="none" xmlns="http://www.w3.org/2000/svg">
<path d="M5.23827 13.4454C4.95127 13.6498 4.62675 13.8049 4.27707 13.8984C4.02923 13.9647 3.76874 14 3.5 14C1.84315 14 0.5 12.6569 0.5 11C0.5 10.7313 0.535336 10.4708 0.601615 10.2229C0.695131 9.87325 0.850248 9.54873 1.05463 9.26173L5.23827 13.4454ZM11.1399 8.08725L8.90971 9.23904C8.65766 9.36922 8.5 9.62471 8.5 9.903V12.097C8.5 12.3753 8.65766 12.6308 8.90971 12.761L11.1399 13.9127C11.3652 14.0291 11.6348 14.0291 11.8601 13.9127L14.0903 12.761C14.3423 12.6308 14.5 12.3753 14.5 12.097V9.903C14.5 9.62471 14.3423 9.36922 14.0903 9.23904L11.8601 8.08725C11.6348 7.97092 11.3652 7.97092 11.1399 8.08725ZM5.94537 12.7383C6.14975 12.4513 6.30487 12.1268 6.39839 11.7771C6.46466 11.5292 6.5 11.2687 6.5 11C6.5 9.34315 5.15685 8 3.5 8C3.23126 8 2.97077 8.03534 2.72293 8.10161C2.37325 8.19513 2.04873 8.35025 1.76173 8.55463L5.94537 12.7383ZM10.5 0C9.39543 0 8.5 0.89543 8.5 2V4C8.5 5.10457 9.39543 6 10.5 6H12.5C13.6046 6 14.5 5.10457 14.5 4V2C14.5 0.895431 13.6046 0 12.5 0H10.5ZM2.41273 0.673825C2.86461 -0.224607 4.13539 -0.224609 4.58727 0.673824L6.36618 4.21072C6.77825 5.03001 6.18883 6 5.27891 6L1.72109 6C0.811167 6 0.221748 5.03001 0.633818 4.21072L2.41273 0.673825Z" fill="#111111"/>
</svg>
