<svg width="56" height="57" viewBox="0 0 56 57" fill="none" xmlns="http://www.w3.org/2000/svg">
<rect x="-0.000976562" y="0.321289" width="56.0016" height="56.0016" rx="28.0008" fill="#FF559E"/>
<rect x="-0.000976562" y="0.321289" width="56.0016" height="56.0016" rx="28.0008" fill="white" fill-opacity="0.8"/>
<g clip-path="url(#clip0_5_32207)">
<path d="M19.0292 17.7709C19.2388 17.9808 19.3566 18.2653 19.3566 18.562C19.3566 18.8587 19.2388 19.1432 19.0292 19.3531C17.851 20.5313 16.9163 21.93 16.2787 23.4694C15.641 25.0088 15.3129 26.6587 15.3129 28.3249C15.3129 29.9911 15.641 31.641 16.2787 33.1804C16.9163 34.7198 17.851 36.1185 19.0292 37.2967C19.233 37.5079 19.3457 37.7908 19.343 38.0843C19.3403 38.3778 19.2225 38.6586 19.0148 38.866C18.8071 39.0735 18.5263 39.1911 18.2328 39.1935C17.9392 39.1959 17.6565 39.083 17.4454 38.8789C11.6165 33.05 11.6165 23.5998 17.4454 17.7709C17.6553 17.5612 17.9399 17.4435 18.2366 17.4435C18.5332 17.4435 18.8193 17.5612 19.0292 17.7709ZM38.5535 17.7709C44.3824 23.5998 44.3824 33.0515 38.5535 38.8804C38.3413 39.0782 38.0606 39.1858 37.7705 39.1807C37.4805 39.1756 37.2038 39.0581 36.9987 38.853C36.7936 38.6479 36.6761 38.3711 36.671 38.0811C36.6658 37.7911 36.7735 37.5104 36.9712 37.2982C38.1497 36.12 39.0845 34.7212 39.7223 33.1816C40.36 31.6421 40.6883 29.992 40.6883 28.3256C40.6883 26.6592 40.36 25.0092 39.7223 23.4696C39.0845 21.9301 38.1497 20.5313 36.9712 19.3531C36.8613 19.2506 36.773 19.127 36.7118 18.9897C36.6507 18.8524 36.6178 18.7041 36.6151 18.5538C36.6124 18.4035 36.6401 18.2542 36.6964 18.1148C36.7527 17.9754 36.8365 17.8488 36.9428 17.7424C37.0491 17.6361 37.1758 17.5523 37.3152 17.496C37.4546 17.4397 37.6039 17.4121 37.7542 17.4147C37.9045 17.4174 38.0528 17.4503 38.1901 17.5115C38.3274 17.5727 38.451 17.6609 38.5535 17.7709ZM23.2505 21.9922C23.4601 22.2021 23.5779 22.4866 23.5779 22.7833C23.5779 23.08 23.4601 23.3645 23.2505 23.5744C22.6265 24.1982 22.1315 24.9388 21.7938 25.7539C21.4561 26.569 21.2823 27.4426 21.2823 28.3249C21.2823 29.2072 21.4561 30.0808 21.7938 30.8959C22.1315 31.711 22.6265 32.4516 23.2505 33.0754C23.4482 33.2876 23.5559 33.5683 23.5508 33.8583C23.5457 34.1483 23.4282 34.4251 23.2231 34.6302C23.0179 34.8353 22.7412 34.9528 22.4512 34.9579C22.1612 34.963 21.8805 34.8554 21.6682 34.6576C19.9888 32.978 19.0453 30.7001 19.0453 28.3249C19.0453 25.9497 19.9888 23.6718 21.6682 21.9922C21.8781 21.7825 22.1627 21.6648 22.4594 21.6648C22.756 21.6648 23.0406 21.7825 23.2505 21.9922ZM34.3337 21.9922C36.0131 23.6718 36.9566 25.9497 36.9566 28.3249C36.9566 30.7001 36.0131 32.978 34.3337 34.6576C34.2304 34.7646 34.107 34.8499 33.9704 34.9087C33.8338 34.9674 33.687 34.9984 33.5383 34.9997C33.3897 35.0011 33.2422 34.9728 33.1046 34.9166C32.967 34.8604 32.842 34.7773 32.7368 34.6722C32.6316 34.5672 32.5485 34.4422 32.4921 34.3047C32.4358 34.1671 32.4074 34.0197 32.4086 33.8711C32.4098 33.7224 32.4406 33.5755 32.4992 33.4389C32.5578 33.3023 32.6431 33.1787 32.7499 33.0754C33.3737 32.4516 33.8685 31.7111 34.206 30.8962C34.5436 30.0812 34.7173 29.2077 34.7173 28.3256C34.7173 27.4435 34.5436 26.5701 34.206 25.7551C33.8685 24.9401 33.3737 24.1997 32.7499 23.5759C32.5522 23.3637 32.4445 23.083 32.4496 22.793C32.4548 22.5029 32.5723 22.2262 32.7774 22.0211C32.9825 21.816 33.2592 21.6985 33.5492 21.6934C33.8393 21.6883 34.12 21.7959 34.3322 21.9937M28.0002 26.0866C28.594 26.0866 29.1635 26.3225 29.5834 26.7424C30.0033 27.1623 30.2392 27.7318 30.2392 28.3256C30.2392 28.9195 30.0033 29.489 29.5834 29.9089C29.1635 30.3288 28.594 30.5647 28.0002 30.5647C27.4064 30.5647 26.8369 30.3288 26.417 29.9089C25.9971 29.489 25.7612 28.9195 25.7612 28.3256C25.7612 27.7318 25.9971 27.1623 26.417 26.7424C26.8369 26.3225 27.4064 26.0866 28.0002 26.0866Z" fill="#FF559E"/>
</g>
<defs>
<clipPath id="clip0_5_32207">
<rect width="29.8515" height="29.8515" fill="white" transform="translate(13.0742 13.3965)"/>
</clipPath>
</defs>
</svg>
