<svg width="21" height="20" viewBox="0 0 21 20" fill="none" xmlns="http://www.w3.org/2000/svg">
<path d="M10.5 2V6.49981C10.5 7.3282 11.1716 7.99974 12 7.99974H16.5V16.4994C16.5 17.3278 15.8284 17.9993 15 17.9993H8.5V15.6452C9.12236 14.9401 9.5 14.0139 9.5 12.9995C9.5 10.7905 7.70914 8.9997 5.5 8.9997C5.1547 8.9997 4.81962 9.04345 4.5 9.12571V3.49994C4.5 2.67154 5.17157 2 6 2H10.5ZM11.5 2.24999V6.49981C11.5 6.77594 11.7239 6.99979 12 6.99979H16.25L11.5 2.24999ZM8.5 12.9995C8.5 14.6563 7.15685 15.9994 5.5 15.9994C3.84315 15.9994 2.5 14.6563 2.5 12.9995C2.5 11.3427 3.84315 9.99966 5.5 9.99966C7.15685 9.99966 8.5 11.3427 8.5 12.9995ZM7.5 16.4643C6.91165 16.8046 6.22857 16.9994 5.5 16.9994C4.77143 16.9994 4.08835 16.8046 3.5 16.4643V18.7496C3.5 18.9435 3.71119 19.0636 3.87783 18.9645L5.5 17.9993L7.12217 18.9645C7.28881 19.0636 7.5 18.9435 7.5 18.7496V16.4643Z" fill="#111111"/>
</svg>
