<svg width="16" height="16" viewBox="0 0 16 16" fill="none" xmlns="http://www.w3.org/2000/svg">
<path d="M7 2.5C7 3.88071 5.88071 5 4.5 5C3.11929 5 2 3.88071 2 2.5C2 1.11929 3.11929 0 4.5 0C5.88071 0 7 1.11929 7 2.5ZM8.73244 7C8.38663 6.4022 7.74028 6 7 6H2C0.895431 6 0 6.89543 0 8V10.5C0 11.0523 0.447715 11.5 1 11.5C1.55228 11.5 2 11.0523 2 10.5V14.75C2 15.4404 2.55964 16 3.25 16C3.94036 16 4.5 15.4404 4.5 14.75C4.5 15.4404 5.05964 16 5.75 16C6.44036 16 7 15.4404 7 14.75V10.5C7 11.0523 7.44772 11.5 8 11.5C8.55228 11.5 9 11.0523 9 10.5V8C9 7.63571 8.90261 7.29417 8.73244 7ZM12 6C13.1046 6 14 5.10457 14 4C14 2.89543 13.1046 2 12 2C10.8954 2 10 2.89543 10 4C10 5.10457 10.8954 6 12 6ZM9 12.2324C9.5978 11.8866 10 11.2403 10 10.5V8C10 7.64936 9.93985 7.31278 9.82929 7H14C15.1046 7 16 7.89543 16 9V11C16 11.5523 15.5523 12 15 12C14.4477 12 14 11.5523 14 11V14.75C14 15.4404 13.4404 16 12.75 16C12.0596 16 11.5 15.4404 11.5 14.75C11.5 15.4404 10.9404 16 10.25 16C9.55964 16 9 15.4404 9 14.75V12.2324Z" fill="#111111"/>
</svg>
