<svg width="56" height="57" viewBox="0 0 56 57" fill="none" xmlns="http://www.w3.org/2000/svg">
<rect x="-0.000976562" y="0.321289" width="56.0016" height="56.0016" rx="28.0008" fill="#FEC923"/>
<rect x="-0.000976562" y="0.321289" width="56.0016" height="56.0016" rx="28.0008" fill="white" fill-opacity="0.8"/>
<g clip-path="url(#clip0_5_32223)">
<path d="M27.9999 13.3965C36.2434 13.3965 42.9257 20.0787 42.9257 28.3222C42.9257 36.5657 36.2434 43.2479 27.9999 43.2479C19.7565 43.2479 13.0742 36.5657 13.0742 28.3222C13.0742 20.0787 19.7565 13.3965 27.9999 13.3965ZM27.9999 15.4786C24.5936 15.4786 21.3268 16.8318 18.9182 19.2404C16.5095 21.6491 15.1564 24.9159 15.1564 28.3222C15.1564 31.7285 16.5095 34.9954 18.9182 37.404C21.3268 39.8126 24.5936 41.1658 27.9999 41.1658C31.4063 41.1658 34.6731 39.8126 37.0817 37.404C39.4904 34.9954 40.8435 31.7285 40.8435 28.3222C40.8435 24.9159 39.4904 21.6491 37.0817 19.2404C34.6731 16.8318 31.4063 15.4786 27.9999 15.4786ZM26.6119 21.7265C27.1865 21.7265 27.6522 22.1937 27.6522 22.7683V30.0581H34.9419C35.2112 30.0683 35.4661 30.1824 35.653 30.3765C35.8399 30.5707 35.9443 30.8297 35.9443 31.0991C35.9443 31.3686 35.8399 31.6276 35.653 31.8217C35.4661 32.0159 35.2112 32.13 34.9419 32.1402H26.6119C26.3358 32.1394 26.0713 32.0294 25.876 31.8342C25.6808 31.639 25.5708 31.3745 25.57 31.0984V22.7698C25.57 22.1937 26.0357 21.7265 26.6119 21.7265Z" fill="#FEC923"/>
</g>
<defs>
<clipPath id="clip0_5_32223">
<rect width="29.8515" height="29.8515" fill="white" transform="translate(13.0742 13.3965)"/>
</clipPath>
</defs>
</svg>
