<svg width="21" height="20" viewBox="0 0 21 20" fill="none" xmlns="http://www.w3.org/2000/svg">
<path d="M11.9966 3.40817C11.9361 2.4004 10.9024 1.72845 9.94703 2.10686L4.07942 4.43081C3.1261 4.80838 2.5 5.72978 2.5 6.75514V12.4978C2.5 13.5381 3.53035 14.2566 4.5 13.9121V7.90621C4.5 6.98338 5.06349 6.15412 5.92147 5.81431L11.9966 3.40817ZM14.9994 5.50195C14.9994 4.44293 13.9316 3.71738 12.947 4.10735L6.76353 6.55641C6.00088 6.85847 5.5 7.59559 5.5 8.41588V14.4983C5.5 15.5575 6.56819 16.2831 7.55288 15.8927L8.5 15.5171V9.53757C8.5 8.71728 9.00088 7.98016 9.76353 7.6781L14.9994 5.60437V5.50195ZM16.4476 6.10637C17.4323 5.7164 18.5 6.44195 18.5 7.50097V10.3416C17.9625 9.53324 17.0435 9.00049 16 9.00049C14.3431 9.00049 13 10.3436 13 12.0005C13 12.7738 13.2926 13.4787 13.773 14.0107C12.4987 14.1253 11.5 15.1963 11.5 16.5005C11.5 16.9437 11.5886 17.3893 11.7738 17.8074L11.5524 17.8951C10.5677 18.2851 9.5 17.5596 9.5 16.5005V9.87736C9.5 9.26214 9.87566 8.7093 10.4476 8.48275L16.4476 6.10637ZM18 12.0005C18 13.1051 17.1046 14.0005 16 14.0005C14.8954 14.0005 14 13.1051 14 12.0005C14 10.8959 14.8954 10.0005 16 10.0005C17.1046 10.0005 18 10.8959 18 12.0005ZM19.5 16.5005C19.5 17.7457 18.5 19.0005 16 19.0005C13.5 19.0005 12.5 17.7504 12.5 16.5005C12.5 15.6721 13.1716 15.0005 14 15.0005H18C18.8284 15.0005 19.5 15.6721 19.5 16.5005Z" fill="#111111"/>
</svg>
