<svg width="56" height="57" viewBox="0 0 56 57" fill="none" xmlns="http://www.w3.org/2000/svg">
<rect x="0.000976562" y="0.321289" width="55.998" height="56" rx="27.999" fill="#21C1F3"/>
<rect x="0.000976562" y="0.321289" width="55.998" height="56" rx="27.999" fill="white" fill-opacity="0.8"/>
<path d="M28.0001 43.247L25.0153 34.2915H13.0762L16.061 43.247H28.0001ZM28.0001 43.247H33.9696M28.0001 29.8138V29.0675C28.0001 26.2525 28.0001 24.8465 27.1255 23.9719C26.251 23.0972 24.8452 23.0972 22.0305 23.0972C19.2159 23.0972 17.81 23.0972 16.9355 23.9719C16.061 24.8465 16.061 26.2525 16.061 29.0675V29.8138M30.9849 36.5304H39.9392C40.7308 36.5304 41.49 36.8449 42.0498 37.4047C42.6095 37.9645 42.924 38.7238 42.924 39.5155V40.2618C42.924 41.0535 42.6095 41.8128 42.0498 42.3726C41.49 42.9325 40.7308 43.247 39.9392 43.247H38.4468M38.4468 29.8138C38.4468 30.6055 38.1323 31.3648 37.5726 31.9246C37.0128 32.4844 36.2536 32.799 35.462 32.799C34.6704 32.799 33.9112 32.4844 33.3515 31.9246C32.7917 31.3648 32.4772 30.6055 32.4772 29.8138C32.4772 29.0221 32.7917 28.2628 33.3515 27.703C33.9112 27.1432 34.6704 26.8287 35.462 26.8287C36.2536 26.8287 37.0128 27.1432 37.5726 27.703C38.1323 28.2628 38.4468 29.0221 38.4468 29.8138ZM25.0153 16.3807C25.0153 17.1724 24.7008 17.9316 24.1411 18.4915C23.5813 19.0513 22.8221 19.3658 22.0305 19.3658C21.2389 19.3658 20.4797 19.0513 19.92 18.4915C19.3602 17.9316 19.0457 17.1724 19.0457 16.3807C19.0457 15.5889 19.3602 14.8297 19.92 14.2698C20.4797 13.71 21.2389 13.3955 22.0305 13.3955C22.8221 13.3955 23.5813 13.71 24.1411 14.2698C24.7008 14.8297 25.0153 15.5889 25.0153 16.3807Z" stroke="#21C1F3" stroke-width="2.45158" stroke-linecap="round" stroke-linejoin="round"/>
</svg>
