<svg width="56" height="57" viewBox="0 0 56 57" fill="none" xmlns="http://www.w3.org/2000/svg">
<rect x="-0.000976562" y="0.321289" width="56.0016" height="56.0016" rx="28.0008" fill="#FEC923"/>
<rect x="-0.000976562" y="0.321289" width="56.0016" height="56.0016" rx="28.0008" fill="#FFAD66"/>
<rect x="-0.000976562" y="0.321289" width="56.0016" height="56.0016" rx="28.0008" fill="white" fill-opacity="0.8"/>
<path d="M26.7645 39.5164H25.0207C20.5616 39.5164 18.3327 39.5164 16.9471 38.1046C15.5615 36.6929 15.5615 34.4205 15.5615 29.8768C15.5615 25.3332 15.5615 23.0608 16.9471 21.649C18.3327 20.2373 20.5616 20.2373 25.0207 20.2373H29.7509C34.21 20.2373 36.4401 20.2373 37.8257 21.649C38.8917 22.7349 39.1367 24.3307 39.1939 27.0783" stroke="#FFAD66" stroke-width="1.86572" stroke-linecap="round" stroke-linejoin="round"/>
<path d="M37.9714 38.301L40.4379 40.76M32.9751 20.2371L32.8507 19.8515C32.235 17.9361 31.9278 16.9783 31.1952 16.4311C30.4613 15.8838 29.4887 15.8838 27.5396 15.8838H27.2125C25.2659 15.8838 24.292 15.8838 23.5594 16.4311C22.8256 16.9783 22.5183 17.9361 21.9027 19.8515L21.7808 20.2371M39.26 35.1952C39.2698 34.613 39.1636 34.0346 38.9476 33.4938C38.7316 32.9531 38.41 32.4607 38.0018 32.0455C37.5935 31.6303 37.1066 31.3006 36.5696 31.0754C36.0325 30.8503 35.4561 30.7344 34.8737 30.7344C34.2914 30.7344 33.7149 30.8503 33.1779 31.0754C32.6408 31.3006 32.154 31.6303 31.7457 32.0455C31.3374 32.4607 31.0159 32.9531 30.7999 33.4938C30.5838 34.0346 30.4776 34.613 30.4874 35.1952C30.5068 36.3457 30.9775 37.4426 31.7979 38.2494C32.6184 39.0561 33.723 39.5083 34.8737 39.5083C36.0244 39.5083 37.129 39.0561 37.9495 38.2494C38.77 37.4426 39.2407 36.3457 39.26 35.1952Z" stroke="#FFAD66" stroke-width="1.86572" stroke-linecap="round" stroke-linejoin="round"/>
</svg>
