<svg width="96" height="96" viewBox="0 0 96 96" fill="none" xmlns="http://www.w3.org/2000/svg">
<g clip-path="url(#clip0_629_68826)">
<path d="M54.1137 0.390991C44.6973 -0.818241 35.1337 0.792055 26.6326 5.01823C18.1314 9.24442 11.0743 15.8967 6.35389 24.1336C1.63345 32.3707 -0.538326 41.8227 0.113183 51.294C0.764692 60.7654 4.21023 69.8308 10.0141 77.344C15.8179 84.8571 23.7193 90.4804 32.7192 93.5026C41.719 96.5249 51.4129 96.8107 60.5751 94.3234C69.7372 91.8363 77.956 86.688 84.1921 79.5295C90.4282 72.3712 94.4016 63.5244 95.6097 54.1077C97.2294 41.4819 93.7677 28.7296 85.9858 18.6561C78.204 8.5824 66.7393 2.01234 54.1137 0.390991Z" fill="#FF6C37"/>
<path d="M34.7023 51.0367C34.7209 51.0747 34.7522 51.1051 34.7906 51.1227C34.8292 51.1401 34.8727 51.1437 34.9135 51.1327L42.5935 49.4767L39.3631 46.2031L34.7599 50.8063C34.7236 50.8308 34.6976 50.868 34.687 50.9104C34.6763 50.953 34.6817 50.998 34.7023 51.0367Z" fill="white"/>
<path d="M70.6652 18.0547C69.5948 18.0558 68.5385 18.297 67.5737 18.7603C66.6089 19.2238 65.7603 19.8976 65.0906 20.7325C64.4207 21.5673 63.9467 22.5415 63.7032 23.5839C63.4598 24.6261 63.4532 25.7095 63.684 26.7547C63.9147 27.7998 64.377 28.7799 65.0367 29.6227C65.6963 30.4654 66.5366 31.1496 67.4957 31.6246C68.4548 32.0997 69.5082 32.3536 70.5783 32.3677C71.6486 32.3818 72.7083 32.1556 73.6796 31.7059L68.8124 26.8387C68.7564 26.7831 68.712 26.7168 68.6819 26.6439C68.6516 26.571 68.636 26.4928 68.636 26.4139C68.636 26.335 68.6516 26.2569 68.6819 26.184C68.712 26.1111 68.7564 26.0449 68.8124 25.9891L75.1724 19.6339C73.895 18.607 72.3041 18.0495 70.6652 18.0547Z" fill="white"/>
<path d="M76.0456 20.4609L70.084 26.3985L74.7592 31.0737C75.1036 30.8318 75.4249 30.5586 75.7192 30.2577C77.0005 28.9677 77.7463 27.2406 77.8069 25.4234C77.8675 23.6063 77.2382 21.8334 76.0456 20.4609Z" fill="white"/>
<path d="M64.1164 31.4219H64.0108C63.8868 31.421 63.763 31.4323 63.6412 31.4555H63.598C63.4642 31.4843 63.3327 31.5229 63.2044 31.5707L63.1036 31.6187C63.007 31.6591 62.9139 31.7072 62.8252 31.7627L62.7196 31.8299C62.6034 31.91 62.4942 32 62.3932 32.0987L44.7148 49.7819L46.9036 51.9707L65.6236 35.5403C65.7294 35.4475 65.8258 35.3446 65.9116 35.2331L65.9932 35.1275C66.0571 35.0338 66.1149 34.936 66.166 34.8347C66.1948 34.7771 66.2188 34.7195 66.2428 34.6619C66.2751 34.5853 66.3024 34.5068 66.3244 34.4267C66.3244 34.3691 66.358 34.3115 66.3724 34.2539C66.3961 34.135 66.4122 34.0148 66.4204 33.8939V33.7355C66.4204 33.6491 66.4204 33.5627 66.4204 33.4763C66.4204 33.3899 66.4204 33.3611 66.3964 33.3035C66.3076 32.8505 66.0865 32.434 65.761 32.1068C65.4354 31.7795 65.0202 31.5562 64.5676 31.4651H64.4764C64.3576 31.4422 64.2373 31.4278 64.1164 31.4219Z" fill="white"/>
<path d="M40.1895 45.355L43.8183 48.9646L61.5446 31.2382C62.1214 30.6744 62.8732 30.3238 63.6758 30.2446C60.5414 27.8446 57.1238 28.4734 40.1895 45.355Z" fill="white"/>
<path d="M66.6215 36.2344L66.4055 36.4456L47.6855 52.8712L50.8679 56.0488C58.7591 48.5848 65.7623 41.476 66.6215 36.2344Z" fill="white"/>
<path d="M19.9282 74.7161C19.938 74.7502 19.9579 74.7803 19.9854 74.8027C20.013 74.825 20.0466 74.8384 20.0818 74.8409L28.2418 75.4025L23.6674 70.8281L19.9666 74.5241C19.9426 74.5492 19.9263 74.5805 19.9195 74.6144C19.9128 74.6485 19.9158 74.6837 19.9282 74.7161Z" fill="white"/>
<path d="M24.5215 69.9736L29.3455 74.7976C29.4028 74.8588 29.4793 74.8984 29.5624 74.9098C29.6455 74.921 29.7299 74.9035 29.8015 74.86C29.8762 74.8228 29.9359 74.7608 29.9699 74.6848C30.0041 74.6086 30.0107 74.5228 29.9887 74.4424L29.1775 70.9768C29.125 70.7521 29.1488 70.5164 29.2453 70.3069C29.3419 70.0973 29.5054 69.926 29.7103 69.82C38.1679 65.5816 44.9887 61.2184 49.9951 56.86L46.6351 53.5L39.4351 55.0504L24.5215 69.9736Z" fill="white"/>
<path d="M45.6039 52.4845L43.7991 50.6797L41.3031 53.1709C41.2851 53.1925 41.2754 53.2196 41.2754 53.2477C41.2754 53.2757 41.2851 53.3029 41.3031 53.3245C41.3147 53.3501 41.3352 53.3705 41.3609 53.3821C41.3865 53.3935 41.4155 53.3953 41.4423 53.3869L45.6039 52.4845Z" fill="white"/>
<path d="M76.2128 24.3296C76.1882 24.2542 76.1477 24.1847 76.094 24.1261C76.0403 24.0676 75.9748 24.0211 75.9017 23.9899C75.8287 23.9588 75.7496 23.9437 75.6703 23.9455C75.5908 23.9474 75.5128 23.9662 75.4412 24.0008C75.3697 24.0353 75.3064 24.0848 75.2555 24.1459C75.2047 24.2069 75.1675 24.2782 75.1465 24.3548C75.1255 24.4315 75.121 24.5116 75.1336 24.59C75.1462 24.6686 75.1753 24.7435 75.2192 24.8096C75.3626 25.0984 75.4195 25.4224 75.3827 25.7426C75.3461 26.0627 75.2177 26.3656 75.0128 26.6144C74.9455 26.6957 74.9026 26.7944 74.8892 26.8991C74.8759 27.004 74.8925 27.1102 74.9374 27.2059C74.9821 27.3014 75.0532 27.3823 75.1421 27.4391C75.2311 27.4958 75.3344 27.5261 75.44 27.5264C75.5215 27.5255 75.6019 27.5071 75.6757 27.4723C75.7493 27.4375 75.8147 27.3872 75.8672 27.3248C76.2068 26.9117 76.4201 26.4095 76.4815 25.8782C76.5428 25.3469 76.4495 24.8092 76.2128 24.3296Z" fill="#FF6C37"/>
</g>
<defs>
<clipPath id="clip0_629_68826">
<rect width="96" height="96" fill="white"/>
</clipPath>
</defs>
</svg>
