<svg width="65" height="65" viewBox="0 0 65 65" fill="none" xmlns="http://www.w3.org/2000/svg">
<path d="M11.3339 48.2123C7.98506 43.755 6.00058 38.2139 6.00058 32.2096C6.00058 17.482 17.9396 5.54297 32.6672 5.54297C47.3947 5.54297 59.3339 17.482 59.3339 32.2096C59.3339 38.2139 57.3494 43.755 54.0006 48.2123" stroke="#21C1F3" stroke-width="2.8" stroke-linejoin="round"/>
<path d="M20.7407 42.8766C18.2072 40.046 16.6666 36.3078 16.6666 32.21C16.6666 23.3734 23.83 16.21 32.6666 16.21C41.5031 16.21 48.6666 23.3734 48.6666 32.21C48.6666 36.3078 47.1261 40.046 44.5925 42.8766" stroke="#21C1F3" stroke-width="2.8" stroke-linejoin="round"/>
<path d="M32.6666 32.21V58.8766M24.6666 58.8766H40.6666" stroke="#21C1F3" stroke-width="2.8" stroke-linejoin="round"/>
</svg>
