<svg width="24" height="34" viewBox="0 0 24 34" fill="none" xmlns="http://www.w3.org/2000/svg">
<path d="M16.4644 8.29493H22.3279C22.9823 8.29493 23.5071 8.82621 23.5071 9.47412C23.5071 10.122 22.9758 10.6533 22.3279 10.6533H16.4903C15.946 14.9165 12.2983 18.2208 7.89259 18.2208H4.84744L17.514 30.8874C17.974 31.3474 17.974 32.0989 17.514 32.559C17.2807 32.7922 16.9827 32.9023 16.6782 32.9023C16.3737 32.9023 16.0756 32.7857 15.8424 32.559L1.16086 17.8774C0.823952 17.5405 0.720287 17.0287 0.9017 16.5881C1.08311 16.1475 1.51721 15.856 1.99666 15.856H7.89259C10.9961 15.856 13.5747 13.6077 14.0995 10.6533H1.69862C1.04424 10.6533 0.519436 10.122 0.519436 9.47412C0.519436 8.82621 1.05072 8.29493 1.69862 8.29493H14.0671C13.4775 5.42472 10.9313 3.26072 7.89259 3.26072H1.67919C1.0248 3.26072 0.5 2.72943 0.5 2.08153C0.5 1.43363 1.03128 0.902344 1.67919 0.902344H22.3279C22.9823 0.902344 23.5071 1.43363 23.5071 2.08153C23.5071 2.72943 22.9758 3.26072 22.3279 3.26072H13.8339C15.2204 4.56948 16.1728 6.3253 16.4644 8.29493Z" fill="#21C1F3" stroke="#21C1F3" stroke-width="0.647904"/>
</svg>
