<svg width="24" height="25" viewBox="0 0 24 25" fill="none" xmlns="http://www.w3.org/2000/svg">
<path d="M15.9645 17.6398L16.0593 17.6949L16.1406 17.6214C16.6359 17.1738 17.2809 16.8902 18 16.8902C19.5272 16.8902 20.77 18.133 20.77 19.6602C20.77 21.1873 19.5272 22.4302 18 22.4302C16.4728 22.4302 15.23 21.1873 15.23 19.6602C15.23 19.4536 15.2582 19.2453 15.3059 19.0449L15.3317 18.9367L15.2357 18.8806L8.11567 14.7206L8.01967 14.6646L7.93809 14.7401C7.42369 15.2164 6.74941 15.5102 6 15.5102C4.42284 15.5102 3.15 14.2373 3.15 12.6602C3.15 11.083 4.42284 9.81016 6 9.81016C6.74941 9.81016 7.42369 10.1039 7.93809 10.5802L8.01959 10.6557L8.11555 10.5997L15.1655 6.48974L15.2597 6.43483L15.2366 6.32829C15.1873 6.10157 15.15 5.88399 15.15 5.66016C15.15 4.083 16.4228 2.81016 18 2.81016C19.5772 2.81016 20.85 4.083 20.85 5.66016C20.85 7.23731 19.5772 8.51016 18 8.51016C17.2506 8.51016 16.5763 8.21639 16.0619 7.74009L15.9804 7.66463L15.8845 7.72057L8.83445 11.8306L8.74026 11.8855L8.76342 11.992C8.81271 12.2187 8.85 12.4363 8.85 12.6602C8.85 12.884 8.81271 13.1016 8.76342 13.3283L8.74025 13.4349L8.83454 13.4898L15.9645 17.6398ZM19.15 5.66016C19.15 5.02731 18.6328 4.51016 18 4.51016C17.3672 4.51016 16.85 5.02731 16.85 5.66016C16.85 6.293 17.3672 6.81016 18 6.81016C18.6328 6.81016 19.15 6.293 19.15 5.66016ZM4.85 12.6602C4.85 13.293 5.36716 13.8102 6 13.8102C6.63284 13.8102 7.15 13.293 7.15 12.6602C7.15 12.0273 6.63284 11.5102 6 11.5102C5.36716 11.5102 4.85 12.0273 4.85 12.6602ZM16.85 19.6802C16.85 20.313 17.3672 20.8302 18 20.8302C18.6328 20.8302 19.15 20.313 19.15 19.6802C19.15 19.0473 18.6328 18.5302 18 18.5302C17.3672 18.5302 16.85 19.0473 16.85 19.6802Z" fill="black" stroke="white" stroke-width="0.3"/>
</svg>
