<svg width="49" height="49" viewBox="0 0 49 49" fill="none" xmlns="http://www.w3.org/2000/svg">
<g clip-path="url(#clip0_305_5865)">
<path d="M10.502 30.9197C10.502 33.6684 8.2602 35.9135 5.51108 35.9135C2.76195 35.9135 0.517578 33.6684 0.517578 30.9197C0.517578 28.1709 2.7627 25.9258 5.51145 25.9258H10.5023L10.502 30.9197ZM13.0178 30.9197C13.0178 28.1709 15.263 25.9258 18.0117 25.9258C20.7605 25.9258 23.0056 28.1705 23.0056 30.9197V43.4203C23.0056 46.169 20.7608 48.4142 18.0117 48.4142C15.263 48.4142 13.0178 46.169 13.0178 43.4203V30.9197Z" fill="#DE1C59"/>
<path d="M18.0117 10.8711C15.263 10.8711 13.0178 8.62934 13.0178 5.88022C13.0178 3.13109 15.263 0.886719 18.0117 0.886719C20.7605 0.886719 23.0056 3.13184 23.0056 5.88059V10.8715L18.0117 10.8711ZM18.0117 13.387C20.7605 13.387 23.0056 15.6321 23.0056 18.3808C23.0056 21.1296 20.7608 23.3747 18.0117 23.3747H5.51108C2.76233 23.3747 0.517578 21.13 0.517578 18.3808C0.517578 15.6321 2.7627 13.387 5.51145 13.387H18.0117Z" fill="#35C5F0"/>
<path d="M38.0564 18.3808C38.0564 15.6321 40.2981 13.387 43.0472 13.387C45.7964 13.387 48.0411 15.6321 48.0411 18.3808C48.0411 21.1296 45.796 23.3747 43.0472 23.3747H38.0564V18.3808ZM35.5405 18.3808C35.5405 21.1296 33.2954 23.3747 30.5466 23.3747C27.7979 23.3747 25.5527 21.13 25.5527 18.3808V5.88022C25.5527 3.13147 27.7975 0.886719 30.5466 0.886719C33.2954 0.886719 35.5405 3.13184 35.5405 5.88059V18.3808Z" fill="#2EB57D"/>
<path d="M30.5466 38.4294C33.2954 38.4294 35.5405 40.6712 35.5405 43.4203C35.5405 46.1694 33.2954 48.4142 30.5466 48.4142C27.7979 48.4142 25.5527 46.169 25.5527 43.4203V38.4294H30.5466ZM30.5466 35.9135C27.7979 35.9135 25.5527 33.6684 25.5527 30.9197C25.5527 28.1709 27.7975 25.9258 30.5466 25.9258H43.0472C45.796 25.9258 48.0411 28.1705 48.0411 30.9197C48.0411 33.6684 45.796 35.9135 43.0472 35.9135H30.5466Z" fill="#EBB02E"/>
</g>
<defs>
<clipPath id="clip0_305_5865">
<rect width="48" height="48" fill="white" transform="translate(0.28418 0.65625)"/>
</clipPath>
</defs>
</svg>
