<svg width="195" height="108" viewBox="0 0 195 108" fill="none" xmlns="http://www.w3.org/2000/svg">
<rect x="0.453125" y="37.2891" width="183" height="72" rx="36" transform="rotate(-11.5065 0.453125 37.2891)" fill="#008133" fill-opacity="0.1"/>
<rect x="0.453125" y="37.2891" width="183" height="72" rx="36" transform="rotate(-11.5065 0.453125 37.2891)" stroke="#008133" stroke-width="2" stroke-dasharray="9 9"/>
<path d="M39.4295 52.1828C39.0303 52.2641 38.7576 52.271 38.6112 52.2035C38.4648 52.136 38.3769 52.0301 38.3475 51.8857C38.325 51.7753 38.3671 51.6562 38.4737 51.5283C38.5871 51.3903 38.7457 51.2784 38.9493 51.1927C39.1937 51.0899 39.4848 50.9776 39.8227 50.8557C40.1672 50.7237 40.5263 50.5975 40.8998 50.4773C41.2801 50.3468 41.646 50.2325 41.9975 50.1344C42.3575 50.0346 42.6733 49.957 42.9451 49.9017C43.346 49.8289 43.646 49.8475 43.8453 49.9572C44.053 50.0653 44.169 50.1788 44.1932 50.2977C44.2105 50.3826 44.1895 50.4753 44.1304 50.5758C44.0695 50.6678 43.9414 50.7337 43.7461 50.7734C43.6187 50.7994 43.443 50.8484 43.2188 50.9206C43.0032 50.991 42.7596 51.076 42.488 51.1755C42.5348 51.449 42.5787 51.838 42.6195 52.3427C42.6671 52.8372 42.6996 53.4098 42.7172 54.0608C42.733 54.7032 42.7217 55.3865 42.6834 56.1107C42.6519 56.8247 42.5812 57.5422 42.4715 58.2632C42.3686 58.974 42.2145 59.651 42.0094 60.2942C41.811 60.9272 41.5486 61.4847 41.2222 61.9669C40.9043 62.4473 40.5138 62.8098 40.0506 63.0544C39.9217 63.1161 39.8164 63.164 39.735 63.1983C39.6535 63.2326 39.5576 63.2609 39.4472 63.2834C39.3622 63.3007 39.2474 63.2577 39.1025 63.1546C38.9577 63.0514 38.8568 62.8597 38.7997 62.5794C38.7582 62.3756 38.8172 62.2309 38.9767 62.1454C39.5248 61.8834 39.9748 61.5088 40.3266 61.0215C40.687 60.5325 40.9584 59.8891 41.141 59.0913C41.3303 58.2833 41.4331 57.2895 41.4494 56.1098C41.4743 54.9285 41.421 53.5154 41.2896 51.8705C41.2808 51.7839 41.2805 51.6955 41.2887 51.6054C40.9254 51.7324 40.5782 51.8517 40.2471 51.9633C39.9143 52.0664 39.6418 52.1396 39.4295 52.1828ZM50.5511 59.0462C50.4067 59.0756 50.2706 59.037 50.1428 58.9304C50.015 58.8237 49.926 58.6473 49.8758 58.401C49.817 58.1122 49.7757 57.6917 49.7517 57.1394C49.7362 56.5854 49.7277 55.8486 49.7262 54.929C49.6076 55.5192 49.4574 56.0849 49.2757 56.626C49.1025 57.1654 48.8941 57.6191 48.6506 57.9871C48.4071 58.355 48.124 58.5719 47.8013 58.6376C47.4871 58.7015 47.1818 58.6354 46.8854 58.4393C46.5974 58.2414 46.3904 57.8325 46.2642 57.2125C46.1933 56.8644 46.1435 56.4676 46.1148 56.0224C46.0843 55.5687 46.0717 55.1158 46.077 54.6637C46.0822 54.2115 46.097 53.8061 46.1212 53.4474C46.1438 53.0802 46.1768 52.8081 46.2204 52.6312C46.2522 52.4832 46.2935 52.3819 46.3443 52.3274C46.3934 52.2643 46.4689 52.2224 46.5708 52.2017C46.6897 52.1775 46.8274 52.2025 46.9841 52.2767C47.1407 52.351 47.2432 52.507 47.2916 52.7448C47.3037 52.8043 47.3025 52.9504 47.288 53.1833C47.2803 53.406 47.2659 53.6831 47.245 54.0146C47.2308 54.3359 47.2175 54.6835 47.2052 55.0575C47.1929 55.4315 47.1933 55.8029 47.2065 56.1717C47.2281 56.5387 47.2692 56.8709 47.3297 57.1681C47.3626 57.3295 47.4064 57.4576 47.4611 57.5526C47.5158 57.6476 47.6111 57.6813 47.747 57.6536C47.8659 57.6294 47.9903 57.4803 48.1202 57.2062C48.2586 56.9304 48.3942 56.5755 48.527 56.1416C48.6666 55.6975 48.8017 55.2101 48.9325 54.6794C49.0717 54.1469 49.1999 53.6034 49.317 53.0489C49.4425 52.4927 49.5521 51.9662 49.6455 51.4696C49.6824 51.3029 49.7355 51.1948 49.805 51.1453C49.8728 51.0873 49.9534 51.0487 50.0469 51.0297C50.1997 50.9986 50.3486 51.0346 50.4934 51.1378C50.645 51.2308 50.7407 51.3749 50.7804 51.5703C50.8064 51.6976 50.8258 51.9236 50.8388 52.2482C50.8603 52.5711 50.8719 52.9535 50.8734 53.3954C50.8816 53.8271 50.8824 54.2868 50.8755 54.7747C50.8772 55.2608 50.878 55.7426 50.878 56.2203C50.8762 56.6894 50.8708 57.1194 50.862 57.5104C50.8616 57.8996 50.8593 58.214 50.855 58.4537C50.8558 58.6747 50.824 58.8227 50.7597 58.8977C50.7056 58.9794 50.636 59.029 50.5511 59.0462ZM55.4353 58.0254C55.2485 58.0635 55.0929 58.0377 54.9685 57.948C54.8543 57.8651 54.7834 57.7557 54.7558 57.6198C54.7316 57.5009 54.76 57.3802 54.8412 57.2575C54.9291 57.1246 55.0579 56.9967 55.2274 56.8738C55.5308 56.6263 55.813 56.3831 56.0739 56.1442C56.3433 55.9037 56.5507 55.6625 56.696 55.4206C56.8414 55.1787 56.8907 54.9432 56.844 54.7139C56.8043 54.5185 56.7103 54.3829 56.5622 54.3069C56.4123 54.2224 56.227 54.2027 56.0062 54.2476C55.8788 54.2736 55.7057 54.3353 55.4867 54.433C55.2661 54.5221 55.0259 54.6241 54.7663 54.7388C54.5134 54.8434 54.2647 54.9471 54.0203 55.0499C53.7742 55.1442 53.562 55.2095 53.3836 55.2458C53.0609 55.3115 52.8033 55.2844 52.6108 55.1644C52.4166 55.0359 52.2919 54.8357 52.2365 54.564C52.2089 54.4281 52.2481 54.2078 52.3541 53.9032C52.4601 53.5986 52.6111 53.2539 52.8069 52.8691C53.0095 52.4741 53.2376 52.0739 53.4912 51.6685C53.7447 51.2631 54.0077 50.8823 54.2802 50.5261C54.5611 50.1683 54.8278 49.8707 55.0802 49.6336C55.3411 49.3948 55.5693 49.2555 55.7646 49.2157C55.9599 49.1759 56.1215 49.2094 56.2493 49.316C56.3772 49.4227 56.461 49.5736 56.5007 49.769C56.5319 49.9218 56.5332 50.0587 56.5047 50.1794C56.4745 50.2917 56.3848 50.394 56.2355 50.4863C56.0947 50.5769 55.8639 50.6592 55.5429 50.7334C55.2653 51.0641 54.9742 51.4373 54.6697 51.8531C54.3719 52.2587 54.1065 52.6709 53.8734 53.0898C53.647 53.4985 53.4988 53.8781 53.4286 54.2284C53.6898 54.078 54.0131 53.9281 54.3984 53.7789C54.7905 53.6195 55.1946 53.4975 55.6107 53.4127C56.2646 53.2796 56.779 53.3297 57.1537 53.563C57.5352 53.786 57.7743 54.1353 57.8712 54.6109C57.9334 54.9166 57.9006 55.255 57.7727 55.626C57.6515 55.9867 57.4666 56.3383 57.2179 56.6808C56.9692 57.0233 56.6881 57.3149 56.3745 57.5557C56.0626 57.8049 55.7495 57.9615 55.4353 58.0254ZM57.781 53.0107C57.5482 53.0404 57.4118 52.9134 57.3718 52.6297C57.3664 52.56 57.3967 52.4699 57.4626 52.3592C57.5268 52.24 57.6132 52.1649 57.7219 52.1339C57.98 52.0548 58.2949 51.9509 58.6667 51.8222C59.0453 51.6832 59.4603 51.528 59.9118 51.3564C59.912 50.923 59.9249 50.4649 59.9505 49.9821C59.976 49.4993 60.0169 49.0267 60.0731 48.5642C60.1275 48.0932 60.1991 47.6629 60.2879 47.2734C60.3766 46.8838 60.4894 46.569 60.6263 46.3289C60.7007 46.2164 60.7727 46.1355 60.8422 46.0859C60.91 46.0279 60.9736 45.9928 61.033 45.9807C61.1519 45.9565 61.2557 45.9885 61.3444 46.0766C61.4416 46.1629 61.5031 46.2698 61.5291 46.3972C61.5429 46.4651 61.544 46.5356 61.5323 46.6088C61.4593 47.1189 61.396 47.7421 61.3424 48.4782C61.2889 49.2144 61.2355 50.0168 61.1824 50.8855C61.9378 50.5991 62.6914 50.3041 63.4434 50.0007C64.1953 49.6973 64.8394 49.4291 65.3757 49.1961C65.5232 49.0953 65.649 49.083 65.7529 49.1591C65.8653 49.2335 65.9311 49.3174 65.9501 49.4108C65.9743 49.5297 65.9585 49.6258 65.9026 49.6991C65.8553 49.7706 65.802 49.8346 65.7427 49.8909L65.7325 49.9062C65.5765 50.0087 65.3381 50.1412 65.0175 50.3038C64.695 50.4579 64.3234 50.6308 63.9025 50.8226C63.48 51.006 63.0276 51.1953 62.5456 51.3907C62.0721 51.5844 61.601 51.7688 61.1325 51.9437C61.0893 52.7308 61.0462 53.54 61.0032 54.3713C60.9669 55.1924 60.928 56.0007 60.8866 56.7963C60.8639 57.1193 60.8051 57.3303 60.7103 57.4292C60.6256 57.5349 60.5239 57.5998 60.405 57.624C60.2691 57.6517 60.1398 57.6249 60.0172 57.5438C59.903 57.4609 59.8479 57.2554 59.8519 56.9274L59.8975 52.3941C59.4035 52.5743 58.9647 52.7211 58.5809 52.8346C58.2057 52.9464 57.939 53.0051 57.781 53.0107ZM72.3333 54.6386C72.0106 54.7043 71.7128 54.6101 71.44 54.3561C71.1739 54.0919 70.9916 53.7177 70.8931 53.2336C70.8015 52.7835 70.8211 52.3152 70.952 51.8286C71.0914 51.3404 71.3064 50.8544 71.5971 50.3707C71.8878 49.887 72.2194 49.4303 72.5918 49.0007C72.9626 48.5626 73.3428 48.1712 73.7326 47.8266C74.1308 47.4802 74.5021 47.1967 74.8463 46.9763C75.1906 46.7559 75.4732 46.6232 75.694 46.5782C75.8129 46.554 75.9157 46.5596 76.0025 46.595C76.0876 46.6219 76.1422 46.6948 76.1664 46.8137C76.182 46.8901 76.167 46.9684 76.1213 47.0484C76.1298 47.0467 76.1383 47.0449 76.1468 47.0432C76.3337 47.0052 76.4495 47.0966 76.4945 47.3174C76.5101 47.3938 76.5123 47.557 76.5013 47.8069C76.4885 48.0483 76.4793 48.3508 76.4738 48.7146C76.4682 49.0783 76.479 49.4786 76.506 49.9153C76.5312 50.3435 76.5879 50.7742 76.6761 51.2073C76.7504 51.5725 76.9277 51.7266 77.208 51.6695C77.5222 51.6055 77.826 51.4685 78.1193 51.2585C78.4126 51.0484 78.6914 50.8103 78.9557 50.5443C79.2182 50.2697 79.4561 50.0046 79.6693 49.7489C79.8809 49.4848 80.0612 49.2623 80.2101 49.0816C80.3591 48.901 80.4717 48.8029 80.5482 48.7873C80.6161 48.7735 80.6799 48.7826 80.7395 48.8147C80.7991 48.8468 80.8384 48.9095 80.8574 49.0029C80.8747 49.0879 80.8209 49.258 80.696 49.5134C80.5711 49.7688 80.397 50.0651 80.1738 50.4024C79.9506 50.7397 79.6917 51.0755 79.3971 51.4096C79.1025 51.7438 78.7899 52.0329 78.4593 52.2771C78.1287 52.5213 77.7978 52.6771 77.4666 52.7445C77.2119 52.7964 76.9628 52.7675 76.7193 52.6579C76.4827 52.538 76.2617 52.2999 76.0565 51.9437C75.8599 51.5858 75.6932 51.0713 75.5566 50.4004L75.4918 50.0819C75.2157 50.8546 74.9063 51.572 74.5635 52.2344C74.2293 52.895 73.8716 53.441 73.4907 53.8723C73.1182 54.3019 72.7324 54.5573 72.3333 54.6386ZM75.6386 47.5447C75.5996 47.5703 75.5454 47.6079 75.4758 47.6574C75.1215 47.9153 74.7588 48.2191 74.3878 48.5688C74.0252 48.9167 73.6772 49.2927 73.3438 49.6967C73.0188 50.0989 72.7347 50.5061 72.4913 50.9183C72.248 51.3304 72.0692 51.7339 71.955 52.1286C71.8408 52.5233 71.8182 52.8905 71.8874 53.2302C71.9099 53.3406 71.9484 53.4212 72.0029 53.472C72.066 53.5211 72.157 53.5335 72.2759 53.5093C72.4457 53.4748 72.6449 53.3237 72.8735 53.056C73.1003 52.7799 73.3387 52.4306 73.5888 52.0083C73.8474 51.5842 74.0982 51.1218 74.3413 50.6213C74.5843 50.1208 74.8095 49.6194 75.0168 49.1173C75.2327 48.6135 75.413 48.1522 75.5577 47.7336C75.5796 47.6672 75.6065 47.6043 75.6386 47.5447ZM88.0749 51.381C87.888 51.419 87.7324 51.3932 87.608 51.3036C87.4939 51.2207 87.423 51.1113 87.3953 50.9754C87.3711 50.8565 87.3996 50.7357 87.4807 50.6131C87.5687 50.4802 87.6974 50.3523 87.867 50.2293C88.1703 49.9818 88.4525 49.7387 88.7134 49.4998C88.9829 49.2592 89.1903 49.018 89.3356 48.7762C89.4809 48.5343 89.5303 48.2987 89.4836 48.0694C89.4438 47.8741 89.3499 47.7385 89.2017 47.6625C89.0519 47.578 88.8666 47.5583 88.6457 47.6032C88.5184 47.6291 88.3452 47.6909 88.1263 47.7886C87.9056 47.8777 87.6655 47.9796 87.4058 48.0944C87.1529 48.199 86.9043 48.3026 86.6599 48.4055C86.4137 48.4998 86.2015 48.5651 86.0232 48.6014C85.7004 48.6671 85.4429 48.6399 85.2504 48.5199C85.0562 48.3914 84.9314 48.1913 84.8761 47.9195C84.8484 47.7836 84.8876 47.5634 84.9936 47.2588C85.0997 46.9542 85.2506 46.6095 85.4465 46.2247C85.6491 45.8297 85.8772 45.4295 86.1307 45.0241C86.3843 44.6187 86.6473 44.2379 86.9197 43.8817C87.2006 43.5238 87.4673 43.2263 87.7197 42.9892C87.9807 42.7503 88.2088 42.611 88.4041 42.5713C88.5995 42.5315 88.761 42.5649 88.8889 42.6716C89.0167 42.7782 89.1005 42.9292 89.1403 43.1245C89.1714 43.2774 89.1727 43.4142 89.1442 43.535C89.114 43.6473 89.0243 43.7496 88.8751 43.8419C88.7343 43.9324 88.5034 44.0148 88.1824 44.089C87.9048 44.4197 87.6137 44.7929 87.3092 45.2087C87.0115 45.6142 86.746 46.0265 86.5129 46.4454C86.2866 46.8541 86.1383 47.2336 86.0681 47.584C86.3293 47.4335 86.6526 47.2837 87.0379 47.1345C87.43 46.9751 87.8341 46.853 88.2503 46.7683C88.9042 46.6352 89.4185 46.6853 89.7932 46.9185C90.1747 47.1416 90.4139 47.4909 90.5107 47.9665C90.5729 48.2722 90.5401 48.6106 90.4122 48.9815C90.2911 49.3423 90.1061 49.6939 89.8575 50.0364C89.6088 50.3789 89.3276 50.6705 89.014 50.9112C88.7021 51.1604 88.3891 51.317 88.0749 51.381ZM101.936 47.8694C101.955 48.007 101.923 48.1286 101.838 48.2343C101.754 48.34 101.643 48.4066 101.507 48.4343C101.355 48.4654 101.217 48.4404 101.094 48.3592C100.971 48.2781 100.888 48.1313 100.845 47.919C100.733 47.367 100.636 46.7631 100.556 46.1073C100.474 45.443 100.406 44.7846 100.353 44.1321C100.298 43.4711 100.253 42.8611 100.219 42.302C100.02 42.7582 99.8044 43.262 99.5717 43.8135C99.3476 44.3633 99.114 44.9106 98.8711 45.4553C98.6283 46 98.3861 46.5048 98.1446 46.9696C97.9014 47.426 97.6733 47.8041 97.4601 48.104C97.2453 48.3954 97.0529 48.5583 96.8831 48.5929C96.5689 48.6569 96.272 48.5891 95.9926 48.3895C95.7114 48.1814 95.532 47.8862 95.4542 47.5041C95.423 47.3512 95.3977 47.1397 95.378 46.8695C95.3567 46.5908 95.337 46.2986 95.3189 45.9927C95.3009 45.6868 95.2829 45.403 95.265 45.1413C95.2454 44.8711 95.2226 44.6724 95.1967 44.545C95.1725 44.4261 95.139 44.3268 95.0963 44.247C95.0602 44.1571 95.0083 44.119 94.9403 44.1328C94.8384 44.1536 94.7216 44.2967 94.59 44.5623C94.4566 44.8195 94.3149 45.1446 94.165 45.5377C94.0236 45.9291 93.878 46.3435 93.7282 46.7808C93.5869 47.2164 93.4541 47.6282 93.3296 48.0162C93.2034 48.3956 93.0923 48.6969 92.9962 48.9198C92.9238 49.1292 92.8496 49.2858 92.7734 49.3897C92.6973 49.4937 92.5913 49.5595 92.4554 49.5871C92.2941 49.62 92.1281 49.5653 91.9577 49.4231C91.7957 49.2792 91.6897 49.0841 91.6395 48.8378C91.6102 48.6934 91.5898 48.4632 91.5785 48.1471C91.5655 47.8225 91.5592 47.4656 91.5596 47.0764C91.5684 46.6854 91.5748 46.3038 91.5786 45.9316C91.5892 45.5491 91.5983 45.2244 91.6058 44.9576C91.615 44.655 91.6602 44.4424 91.7413 44.3197C91.8225 44.1971 91.9225 44.1236 92.0414 44.0994C92.2028 44.0666 92.3423 44.1001 92.4599 44.2C92.5843 44.2896 92.6707 44.4533 92.7191 44.6911C92.7277 44.7336 92.7256 44.8534 92.7127 45.0506C92.698 45.2394 92.6793 45.4731 92.6564 45.752C92.6403 46.0206 92.6184 46.3036 92.5905 46.6012C92.5711 46.897 92.5601 47.169 92.5576 47.4171C92.6805 47.0649 92.8066 46.6854 92.9361 46.2787C93.0741 45.8703 93.2129 45.4662 93.3526 45.0663C93.4906 44.6579 93.6355 44.2835 93.7873 43.943C93.9374 43.5941 94.0962 43.3097 94.2637 43.0898C94.4312 42.87 94.6084 42.7411 94.7952 42.703C95.016 42.6581 95.2337 42.6845 95.4482 42.7824C95.6711 42.8785 95.8654 43.0291 96.031 43.2342C96.1966 43.4393 96.3079 43.682 96.3649 43.9622C96.4047 44.1575 96.4269 44.4405 96.4316 44.811C96.4345 45.173 96.4393 45.5656 96.4458 45.9888C96.4609 46.4103 96.4971 46.8053 96.5544 47.174C96.5717 47.2589 96.6058 47.2962 96.6568 47.2858C96.6992 47.2772 96.7442 47.2371 96.7915 47.1655C96.9825 46.8436 97.1877 46.4613 97.4071 46.0187C97.6248 45.5675 97.8424 45.0942 98.06 44.5989C98.2861 44.1018 98.5096 43.6141 98.7306 43.1357C98.9499 42.6488 99.1566 42.2088 99.3507 41.8155C99.5516 41.412 99.7332 41.0875 99.8955 40.8422C100.066 40.5952 100.211 40.4596 100.33 40.4354C100.585 40.3835 100.795 40.4159 100.96 40.5326C101.125 40.6493 101.243 40.8776 101.312 41.2173C101.367 41.489 101.418 41.8458 101.463 42.2875C101.518 42.7276 101.567 43.2084 101.611 43.7301C101.664 44.25 101.709 44.7759 101.747 45.3078C101.791 45.8294 101.828 46.3171 101.859 46.7708C101.887 47.216 101.913 47.5822 101.936 47.8694ZM104.911 48.0067C104.589 48.0724 104.291 47.9782 104.018 47.7242C103.752 47.46 103.57 47.0858 103.471 46.6017C103.379 46.1516 103.399 45.6833 103.53 45.1967C103.669 44.7085 103.884 44.2225 104.175 43.7387C104.466 43.255 104.797 42.7984 105.17 42.3688C105.541 41.9307 105.921 41.5393 106.311 41.1946C106.709 40.8482 107.08 40.5648 107.424 40.3444C107.769 40.1239 108.051 39.9912 108.272 39.9463C108.391 39.9221 108.494 39.9277 108.581 39.9631C108.666 39.99 108.72 40.0629 108.744 40.1818C108.76 40.2582 108.745 40.3365 108.699 40.4165C108.708 40.4148 108.716 40.413 108.725 40.4113C108.912 40.3733 109.028 40.4647 109.073 40.6855C109.088 40.7619 109.09 40.9251 109.079 41.175C109.067 41.4164 109.057 41.7189 109.052 42.0827C109.046 42.4464 109.057 42.8467 109.084 43.2834C109.109 43.7116 109.166 44.1423 109.254 44.5754C109.328 44.9406 109.506 45.0947 109.786 45.0376C110.1 44.9736 110.404 44.8366 110.697 44.6266C110.991 44.4165 111.269 44.1784 111.534 43.9124C111.796 43.6378 112.034 43.3727 112.247 43.117C112.459 42.8528 112.639 42.6304 112.788 42.4497C112.937 42.2691 113.05 42.1709 113.126 42.1554C113.194 42.1416 113.258 42.1507 113.318 42.1828C113.377 42.2149 113.416 42.2776 113.435 42.371C113.453 42.456 113.399 42.6261 113.274 42.8815C113.149 43.1369 112.975 43.4332 112.752 43.7705C112.529 44.1078 112.27 44.4435 111.975 44.7777C111.681 45.1118 111.368 45.401 111.037 45.6452C110.707 45.8894 110.376 46.0452 110.045 46.1126C109.79 46.1645 109.541 46.1356 109.297 46.0259C109.061 45.9061 108.84 45.668 108.635 45.3118C108.438 44.9538 108.271 44.4394 108.135 43.7685L108.07 43.45C107.794 44.2226 107.484 44.9401 107.142 45.6025C106.807 46.2631 106.45 46.8091 106.069 47.2404C105.696 47.67 105.31 47.9254 104.911 48.0067ZM108.217 40.9128C108.178 40.9384 108.123 40.976 108.054 41.0255C107.7 41.2834 107.337 41.5872 106.966 41.9369C106.603 42.2848 106.255 42.6608 105.922 43.0648C105.597 43.467 105.313 43.8742 105.069 44.2864C104.826 44.6985 104.647 45.102 104.533 45.4967C104.419 45.8914 104.396 46.2586 104.465 46.5983C104.488 46.7087 104.526 46.7893 104.581 46.8401C104.644 46.8892 104.735 46.9016 104.854 46.8774C105.024 46.8429 105.223 46.6918 105.451 46.4241C105.678 46.148 105.917 45.7987 106.167 45.3764C106.425 44.9523 106.676 44.4899 106.919 43.9894C107.162 43.4888 107.388 42.9875 107.595 42.4854C107.811 41.9816 107.991 41.5203 108.136 41.1017C108.158 41.0353 108.185 40.9724 108.217 40.9128ZM115.494 46.0381C114.84 46.1713 114.283 46.0635 113.823 45.715C113.369 45.3562 113.064 44.7904 112.907 44.0176C112.81 43.542 112.76 42.9728 112.758 42.3099C112.763 41.6368 112.794 40.9229 112.853 40.168C112.918 39.4029 113.002 38.6429 113.105 37.8879C113.208 37.1328 113.312 36.4305 113.419 35.7809C113.532 35.121 113.637 34.5691 113.732 34.1252C113.787 33.8751 113.908 33.7311 114.095 33.693C114.35 33.6412 114.509 33.7724 114.573 34.0866C114.594 34.1885 114.59 34.4061 114.56 34.7393C114.531 35.0725 114.487 35.4883 114.429 35.9865C114.37 36.4762 114.308 37.0194 114.244 37.6162C114.179 38.2131 114.114 38.8277 114.049 39.4602C113.99 40.0825 113.942 40.698 113.907 41.3066C113.87 41.9067 113.856 42.4668 113.864 42.9868C113.873 43.5069 113.914 43.9453 113.986 44.302C114.033 44.5313 114.129 44.7018 114.276 44.8134C114.429 44.9149 114.612 44.944 114.824 44.9008C115.215 44.8213 115.59 44.6653 115.95 44.4329C116.316 44.1903 116.658 43.9172 116.977 43.6136C117.294 43.3014 117.577 43.0005 117.828 42.7106C118.085 42.4106 118.305 42.1626 118.486 41.9665C118.665 41.7619 118.797 41.651 118.882 41.6337C119.069 41.5956 119.183 41.6785 119.225 41.8824C119.239 41.9503 119.197 42.0915 119.099 42.306C118.999 42.512 118.86 42.7615 118.681 43.0545C118.502 43.3474 118.286 43.6567 118.034 43.9822C117.788 44.2974 117.523 44.6034 117.239 44.9002C116.961 45.1867 116.67 45.4316 116.367 45.6349C116.074 45.8449 115.783 45.9794 115.494 46.0381ZM121.116 44.8936C120.462 45.0267 119.905 44.919 119.445 44.5705C118.992 44.2117 118.686 43.6459 118.529 42.8731C118.432 42.3975 118.383 41.8283 118.38 41.1654C118.385 40.4923 118.416 39.7783 118.475 39.0235C118.54 38.2584 118.624 37.4983 118.727 36.7433C118.83 35.9883 118.935 35.286 119.041 34.6363C119.155 33.9765 119.259 33.4246 119.354 32.9806C119.41 32.7306 119.531 32.5865 119.717 32.5485C119.972 32.4966 120.132 32.6278 120.195 32.942C120.216 33.044 120.212 33.2615 120.182 33.5948C120.153 33.928 120.109 34.3437 120.052 34.8419C119.992 35.3317 119.93 35.8749 119.866 36.4717C119.802 37.0685 119.737 37.6832 119.671 38.3157C119.612 38.938 119.565 39.5534 119.529 40.162C119.492 40.7622 119.478 41.3222 119.487 41.8423C119.495 42.3624 119.536 42.8008 119.608 43.1575C119.655 43.3868 119.752 43.5572 119.898 43.6689C120.052 43.7704 120.234 43.7995 120.447 43.7563C120.837 43.6767 121.212 43.5208 121.572 43.2884C121.938 43.0458 122.281 42.7727 122.599 42.469C122.916 42.1569 123.2 41.8559 123.45 41.5661C123.708 41.2661 123.927 41.018 124.108 40.822C124.287 40.6174 124.42 40.5064 124.505 40.4892C124.691 40.4511 124.806 40.534 124.847 40.7378C124.861 40.8058 124.819 40.947 124.721 41.1615C124.621 41.3675 124.482 41.617 124.303 41.9099C124.124 42.2029 123.908 42.5121 123.656 42.8376C123.411 43.1529 123.146 43.4589 122.861 43.7556C122.583 44.0421 122.293 44.287 121.989 44.4903C121.696 44.7004 121.405 44.8348 121.116 44.8936ZM45.4066 80.3711C44.9904 80.4558 44.6105 80.4358 44.2667 80.3112C43.9297 80.1764 43.6494 79.9726 43.4258 79.6997C43.2022 79.4268 43.0576 79.129 42.9919 78.8063C42.8536 78.1269 42.8463 77.4827 42.97 76.8738C43.0919 76.2564 43.2872 75.6949 43.5557 75.1891C43.831 74.6732 44.1286 74.2234 44.4485 73.8399C44.7769 73.4547 45.0827 73.1536 45.3658 72.9368C45.6556 72.7097 45.8685 72.5824 46.0044 72.5547C46.2761 72.4994 46.4397 72.6076 46.495 72.8794C46.5209 73.0068 46.4663 73.1727 46.331 73.3771C46.194 73.573 46.0163 73.8082 45.798 74.0826C45.5797 74.357 45.3504 74.6646 45.1103 75.0053C44.8683 75.3376 44.6512 75.7046 44.4588 76.1064C44.2647 76.4997 44.1259 76.9259 44.0425 77.3851C43.9574 77.8359 43.9658 78.3117 44.0678 78.8128C44.1715 79.3223 44.4315 79.5348 44.8476 79.45C45.2298 79.3723 45.6057 79.2205 45.9755 78.9949C46.3537 78.7676 46.7148 78.4995 47.0588 78.1906C47.4096 77.8716 47.7416 77.5475 48.0549 77.2184C48.3682 76.8893 48.6501 76.5798 48.9007 76.29C49.1495 75.9917 49.3612 75.7497 49.5356 75.5638C49.71 75.3779 49.8397 75.2763 49.9246 75.2591C50.0945 75.2245 50.1984 75.3006 50.2365 75.4874C50.2658 75.6318 50.2071 75.8428 50.0602 76.1203C49.9132 76.3979 49.7027 76.7105 49.4285 77.0582C49.1544 77.4059 48.8429 77.7656 48.494 78.1373C48.1434 78.5005 47.7843 78.8434 47.4165 79.1659C47.0471 79.4799 46.686 79.748 46.3332 79.9702C45.9872 80.1821 45.6783 80.3157 45.4066 80.3711ZM51.7952 79.0175C51.2942 79.1195 50.8604 79.0088 50.4938 78.6854C50.1273 78.362 49.8818 77.8946 49.7573 77.2831C49.7123 77.0623 49.6945 76.8227 49.7038 76.5643C49.7199 76.2957 49.7582 76.0491 49.8186 75.8246C49.747 75.7772 49.6839 75.7061 49.6292 75.6111C49.5727 75.5076 49.5281 75.3752 49.4952 75.2138C49.3932 74.7127 49.3848 74.2369 49.4699 73.7862C49.5551 73.3354 49.7067 72.9287 49.9247 72.5659C50.141 72.1947 50.4017 71.8895 50.7068 71.6505C51.0204 71.4098 51.3556 71.2531 51.7122 71.1805C52.2982 71.0612 52.817 71.1767 53.2686 71.527C53.7185 71.8688 54.0308 72.4686 54.2054 73.3263C54.297 73.7764 54.3224 74.2488 54.2816 74.7436C54.2493 75.2366 54.1626 75.723 54.0215 76.2028C53.8889 76.6809 53.7085 77.12 53.4804 77.5202C53.2608 77.9187 53.0062 78.2535 52.7165 78.5248C52.4335 78.7858 52.1264 78.95 51.7952 79.0175ZM50.5712 75.2203C50.6359 75.2779 50.6796 75.3619 50.7021 75.4723C50.728 75.5997 50.7284 75.7322 50.7034 75.87C50.6869 76.006 50.6756 76.1896 50.6696 76.4208C50.6636 76.652 50.7021 76.9714 50.7851 77.379C50.8681 77.7867 51.0709 77.9576 51.3936 77.8919C51.7503 77.8193 52.053 77.6118 52.3017 77.2693C52.5486 76.9183 52.7452 76.4936 52.8913 75.9951C53.0375 75.4965 53.1224 74.9796 53.1461 74.4441C53.1765 73.8984 53.145 73.3962 53.0517 72.9376C52.9912 72.6404 52.8936 72.4436 52.759 72.3471C52.6227 72.2422 52.4101 72.2192 52.1214 72.2779C51.8241 72.3384 51.5349 72.5035 51.2537 72.773C50.9792 73.0323 50.7704 73.3534 50.6273 73.7363C50.4841 74.1192 50.4557 74.523 50.5422 74.9476C50.5612 75.041 50.5709 75.1319 50.5712 75.2203ZM66.2583 75.5425C66.2775 75.6801 66.2448 75.8018 66.1601 75.9075C66.0755 76.0131 65.9653 76.0798 65.8294 76.1074C65.6765 76.1386 65.5388 76.1135 65.4161 76.0324C65.2935 75.9512 65.2105 75.8045 65.1673 75.5922C65.0549 75.0402 64.9585 74.4362 64.8781 73.7804C64.7959 73.1162 64.7282 72.4578 64.675 71.8053C64.62 71.1443 64.5755 70.5342 64.5412 69.9752C64.3422 70.4314 64.1264 70.9352 63.8938 71.4867C63.6696 72.0365 63.4361 72.5837 63.1932 73.1284C62.9503 73.6732 62.7081 74.178 62.4666 74.6428C62.2235 75.0992 61.9953 75.4773 61.7822 75.7771C61.5673 76.0685 61.375 76.2315 61.2051 76.2661C60.8909 76.3301 60.5941 76.2622 60.3146 76.0626C60.0335 75.8545 59.854 75.5594 59.7762 75.1772C59.7451 75.0244 59.7197 74.8129 59.7001 74.5427C59.6787 74.264 59.659 73.9717 59.641 73.6658C59.6229 73.36 59.605 73.0762 59.5871 72.8145C59.5674 72.5443 59.5447 72.3455 59.5187 72.2181C59.4945 72.0992 59.461 71.9999 59.4183 71.9202C59.3823 71.8302 59.3303 71.7922 59.2624 71.806C59.1605 71.8267 59.0437 71.9699 58.912 72.2355C58.7786 72.4926 58.6369 72.8177 58.487 73.2109C58.3456 73.6023 58.2 74.0167 58.0502 74.454C57.9089 74.8896 57.7761 75.3014 57.6516 75.6893C57.5255 76.0688 57.4143 76.37 57.3182 76.593C57.2458 76.8023 57.1716 76.9589 57.0955 77.0629C57.0193 77.1668 56.9133 77.2326 56.7774 77.2603C56.6161 77.2931 56.4502 77.2385 56.2797 77.0963C56.1178 76.9524 56.0117 76.7573 55.9616 76.511C55.9322 76.3666 55.9118 76.1364 55.9006 75.8203C55.8875 75.4957 55.8812 75.1388 55.8816 74.7495C55.8904 74.3586 55.8968 73.977 55.9006 73.6047C55.9112 73.2223 55.9203 72.8976 55.9279 72.6307C55.937 72.3281 55.9822 72.1155 56.0633 71.9929C56.1445 71.8702 56.2445 71.7968 56.3634 71.7726C56.5248 71.7397 56.6643 71.7733 56.7819 71.8731C56.9063 71.9628 56.9927 72.1265 57.0411 72.3643C57.0497 72.4068 57.0476 72.5266 57.0347 72.7238C57.02 72.9125 57.0013 73.1463 56.9784 73.4251C56.9624 73.6937 56.9404 73.9768 56.9125 74.2743C56.8931 74.5701 56.8822 74.8421 56.8796 75.0903C57.0025 74.738 57.1287 74.3586 57.2581 73.9519C57.3961 73.5435 57.535 73.1394 57.6747 72.7395C57.8126 72.3311 57.9575 71.9566 58.1093 71.6162C58.2594 71.2672 58.4182 70.9828 58.5857 70.763C58.7532 70.5432 58.9304 70.4142 59.1172 70.3762C59.338 70.3312 59.5557 70.3577 59.7702 70.4555C59.9932 70.5517 60.1875 70.7023 60.353 70.9074C60.5186 71.1125 60.6299 71.3551 60.687 71.6354C60.7267 71.8307 60.7489 72.1136 60.7536 72.4841C60.7566 72.8462 60.7613 73.2388 60.7678 73.662C60.7829 74.0834 60.8191 74.4785 60.8764 74.8471C60.8937 74.9321 60.9279 74.9693 60.9788 74.959C61.0213 74.9503 61.0662 74.9102 61.1135 74.8387C61.3045 74.5168 61.5097 74.1345 61.7291 73.6918C61.9468 73.2407 62.1645 72.7674 62.382 72.272C62.6081 71.775 62.8316 71.2872 63.0526 70.8089C63.2719 70.322 63.4786 69.8819 63.6727 69.4886C63.8736 69.0851 64.0552 68.7607 64.2175 68.5154C64.3884 68.2684 64.5332 68.1327 64.6521 68.1085C64.9069 68.0567 65.1169 68.0891 65.2822 68.2058C65.4475 68.3225 65.5647 68.5507 65.6338 68.8904C65.6891 69.1622 65.7397 69.5189 65.7854 69.9607C65.8396 70.4007 65.8888 70.8816 65.9331 71.4032C65.9859 71.9231 66.031 72.449 66.0685 72.9809C66.1128 73.5026 66.1502 73.9902 66.1806 74.444C66.2093 74.8892 66.2352 75.2554 66.2583 75.5425ZM78.4241 73.0659C78.4433 73.2036 78.4106 73.3252 78.3259 73.4309C78.2413 73.5365 78.1311 73.6032 77.9952 73.6309C77.8423 73.662 77.7046 73.637 77.5819 73.5558C77.4593 73.4746 77.3763 73.3279 77.3331 73.1156C77.2207 72.5636 77.1243 71.9597 77.0439 71.3039C76.9617 70.6396 76.894 69.9812 76.8408 69.3287C76.7858 68.6677 76.7412 68.0577 76.707 67.4986C76.508 67.9548 76.2922 68.4586 76.0595 69.0101C75.8354 69.5599 75.6018 70.1071 75.359 70.6519C75.1161 71.1966 74.8739 71.7014 74.6324 72.1662C74.3892 72.6226 74.1611 73.0007 73.948 73.3006C73.7331 73.5919 73.5407 73.7549 73.3709 73.7895C73.0567 73.8535 72.7598 73.7856 72.4804 73.586C72.1992 73.3779 72.0198 73.0828 71.942 72.7007C71.9109 72.5478 71.8855 72.3363 71.8659 72.0661C71.8445 71.7874 71.8248 71.4951 71.8068 71.1892C71.7887 70.8834 71.7707 70.5996 71.7529 70.3379C71.7332 70.0677 71.7105 69.8689 71.6845 69.7415C71.6603 69.6226 71.6268 69.5233 71.5841 69.4436C71.5481 69.3536 71.4961 69.3156 71.4282 69.3294C71.3262 69.3501 71.2095 69.4933 71.0778 69.7589C70.9444 70.016 70.8027 70.3412 70.6528 70.7343C70.5114 71.1257 70.3658 71.5401 70.216 71.9774C70.0747 72.413 69.9419 72.8248 69.8174 73.2127C69.6913 73.5922 69.5801 73.8934 69.484 74.1164C69.4116 74.3257 69.3374 74.4824 69.2612 74.5863C69.1851 74.6902 69.0791 74.756 68.9432 74.7837C68.7819 74.8165 68.616 74.7619 68.4455 74.6197C68.2835 74.4758 68.1775 74.2807 68.1274 74.0344C68.098 73.89 68.0776 73.6598 68.0664 73.3437C68.0533 73.0191 68.047 72.6622 68.0474 72.2729C68.0562 71.882 68.0626 71.5004 68.0664 71.1281C68.077 70.7457 68.0861 70.421 68.0937 70.1541C68.1028 69.8516 68.148 69.6389 68.2291 69.5163C68.3103 69.3936 68.4103 69.3202 68.5292 69.296C68.6906 69.2631 68.8301 69.2967 68.9477 69.3965C69.0721 69.4862 69.1585 69.6499 69.2069 69.8877C69.2155 69.9302 69.2134 70.05 69.2005 70.2472C69.1858 70.4359 69.1671 70.6697 69.1442 70.9485C69.1282 71.2171 69.1062 71.5002 69.0783 71.7977C69.0589 72.0936 69.048 72.3655 69.0454 72.6137C69.1683 72.2615 69.2945 71.882 69.4239 71.4753C69.5619 71.0669 69.7007 70.6628 69.8405 70.2629C69.9784 69.8545 70.1233 69.48 70.2751 69.1396C70.4252 68.7906 70.584 68.5062 70.7515 68.2864C70.919 68.0666 71.0962 67.9376 71.283 67.8996C71.5038 67.8547 71.7215 67.8811 71.936 67.979C72.159 68.0751 72.3532 68.2257 72.5188 68.4308C72.6844 68.6359 72.7957 68.8785 72.8528 69.1588C72.8925 69.3541 72.9147 69.637 72.9194 70.0076C72.9223 70.3696 72.9271 70.7622 72.9336 71.1854C72.9487 71.6069 72.9849 72.0019 73.0422 72.3705C73.0595 72.4555 73.0936 72.4927 73.1446 72.4824C73.1871 72.4737 73.232 72.4336 73.2793 72.3621C73.4703 72.0402 73.6755 71.6579 73.8949 71.2152C74.1126 70.7641 74.3303 70.2908 74.5478 69.7955C74.7739 69.2984 74.9974 68.8106 75.2184 68.3323C75.4377 67.8454 75.6444 67.4053 75.8385 67.012C76.0394 66.6085 76.221 66.2841 76.3833 66.0388C76.5542 65.7918 76.699 65.6561 76.8179 65.6319C77.0727 65.5801 77.2827 65.6125 77.448 65.7292C77.6132 65.8459 77.7305 66.0741 77.7996 66.4138C77.8549 66.6856 77.9054 67.0423 77.9512 67.4841C78.0054 67.9241 78.0546 68.405 78.0989 68.9266C78.1517 69.4466 78.1968 69.9725 78.2343 70.5043C78.2786 71.026 78.316 71.5137 78.3464 71.9674C78.3751 72.4126 78.401 72.7788 78.4241 73.0659ZM83.0786 72.8481C82.6964 72.9259 82.3334 72.8804 81.9894 72.7116C81.6523 72.5326 81.3615 72.2557 81.1172 71.8809C80.8729 71.5061 80.6962 71.0512 80.5873 70.5162C80.4732 69.9557 80.4219 69.378 80.4335 68.783C80.4451 68.1881 80.5001 67.633 80.5986 67.1176C80.6971 66.6023 80.8198 66.1837 80.9665 65.862C81.1116 65.5318 81.2648 65.3502 81.4261 65.3174C81.545 65.2932 81.6505 65.3115 81.7425 65.3724C81.8344 65.4333 81.8951 65.5359 81.9245 65.6803C81.9314 65.7142 81.9217 65.84 81.8952 66.0577C81.867 66.2668 81.834 66.5389 81.796 66.8739C81.7564 67.2003 81.7236 67.5608 81.6978 67.9552C81.6719 68.3496 81.6648 68.7491 81.6764 69.1536C81.688 69.558 81.7292 69.9344 81.8001 70.2826C81.9211 70.877 82.0619 71.2862 82.2224 71.51C82.3897 71.7236 82.6008 71.8044 82.8555 71.7526C83.4755 71.6264 84.0201 71.3475 84.4895 70.9158C84.9656 70.474 85.3784 69.9389 85.7281 69.3105C86.0846 68.6719 86.3916 67.9858 86.6491 67.2524C86.3605 67.3554 86.0787 67.4481 85.8036 67.5306C85.5268 67.6047 85.2619 67.6719 85.0088 67.7322C84.7643 67.7909 84.5969 67.794 84.5066 67.7416C84.4164 67.6892 84.3565 67.5909 84.3271 67.4465C84.2927 67.3208 84.3203 67.1958 84.41 67.0714C84.5081 66.9453 84.62 66.865 84.7457 66.8306C85.1209 66.7188 85.503 66.5969 85.8917 66.4646C86.2805 66.3324 86.6633 66.1926 87.0401 66.0451C87.1644 65.613 87.2794 65.1783 87.3849 64.7411C87.4905 64.304 87.5826 63.8872 87.6611 63.4909C87.7271 62.9026 87.8093 62.3508 87.9078 61.8354C88.0046 61.3116 88.1204 60.8812 88.2552 60.5442C88.3883 60.1987 88.5398 60.0087 88.7096 59.9741C88.9984 59.9153 89.1721 60.0303 89.2309 60.319C89.243 60.3785 89.2385 60.5519 89.2174 60.8392C89.1963 61.1265 89.1619 61.5006 89.1142 61.9613C89.075 62.4204 89.0266 62.9432 88.9691 63.5298C88.9099 64.1079 88.8525 64.7166 88.7969 65.3558C89.5301 65.0474 90.1963 64.757 90.7953 64.4847C91.4011 64.2022 91.8984 63.9727 92.287 63.7963C92.6739 63.6114 92.9055 63.5112 92.982 63.4956C93.0924 63.4731 93.1928 63.5102 93.2832 63.6068C93.3719 63.6948 93.4257 63.7856 93.4447 63.879C93.4603 63.9554 93.3409 64.0859 93.0866 64.2703C92.8408 64.453 92.4914 64.6701 92.0384 64.9215C91.5922 65.1627 91.079 65.4219 90.4986 65.6993C89.9251 65.9664 89.3243 66.2302 88.6963 66.4907C88.6309 67.2558 88.5723 68.0107 88.5205 68.7553C88.4687 69.4999 88.4344 70.1791 88.4179 70.7927C88.4175 71.1819 88.2687 71.4068 87.9715 71.4673C87.8186 71.4984 87.6962 71.4836 87.6042 71.4227C87.5207 71.3601 87.4599 71.2354 87.4219 71.0485C87.4167 71.0231 87.412 70.8914 87.4078 70.6534C87.4103 70.4053 87.4144 70.0993 87.4199 69.7355C87.4237 69.3633 87.4292 68.9775 87.4363 68.578C87.4417 68.1701 87.4489 67.7927 87.458 67.4459C87.1704 68.3359 86.8214 69.1631 86.411 69.9277C86.0006 70.6922 85.5167 71.3347 84.9592 71.855C84.4103 72.3736 83.7834 72.7046 83.0786 72.8481ZM81.4395 64.0145C81.2357 64.056 81.0529 64.0269 80.8911 63.9272C80.7377 63.8257 80.6421 63.6816 80.604 63.4947C80.5573 63.2654 80.5991 63.0579 80.7294 62.8722C80.8664 62.6763 81.0453 62.5559 81.2661 62.5109C81.5124 62.4608 81.7139 62.4949 81.8707 62.6134C82.0257 62.7233 82.1257 62.8887 82.1707 63.1095C82.207 63.2878 82.1558 63.4707 82.017 63.6582C81.8783 63.8456 81.6858 63.9644 81.4395 64.0145ZM102.594 67.1253C102.613 67.2629 102.58 67.3845 102.495 67.4902C102.411 67.5959 102.3 67.6625 102.165 67.6902C102.012 67.7213 101.874 67.6963 101.751 67.6151C101.629 67.534 101.546 67.3872 101.503 67.1749C101.39 66.6229 101.294 66.019 101.213 65.3632C101.131 64.6989 101.063 64.0405 101.01 63.388C100.955 62.727 100.911 62.117 100.876 61.5579C100.677 62.0141 100.462 62.5179 100.229 63.0694C100.005 63.6192 99.7713 64.1665 99.5284 64.7112C99.2855 65.2559 99.0433 65.7607 98.8019 66.2255C98.5587 66.6819 98.3305 67.06 98.1174 67.3599C97.9025 67.6513 97.7102 67.8142 97.5403 67.8488C97.2261 67.9128 96.9293 67.845 96.6498 67.6454C96.3687 67.4373 96.1892 67.1421 96.1114 66.76C96.0803 66.6071 96.0549 66.3956 96.0353 66.1254C96.0139 65.8467 95.9942 65.5545 95.9762 65.2486C95.9581 64.9427 95.9402 64.6589 95.9223 64.3972C95.9027 64.127 95.8799 63.9282 95.8539 63.8009C95.8297 63.682 95.7963 63.5826 95.7535 63.5029C95.7175 63.413 95.6655 63.3749 95.5976 63.3887C95.4957 63.4095 95.3789 63.5526 95.2472 63.8182C95.1138 64.0753 94.9722 64.4005 94.8222 64.7936C94.6808 65.185 94.5352 65.5994 94.3854 66.0367C94.2442 66.4723 94.1113 66.8841 93.9868 67.2721C93.8607 67.6515 93.7495 67.9528 93.6534 68.1757C93.581 68.3851 93.5068 68.5417 93.4307 68.6456C93.3545 68.7496 93.2485 68.8154 93.1127 68.843C92.9513 68.8759 92.7854 68.8212 92.6149 68.679C92.453 68.5351 92.3469 68.34 92.2968 68.0937C92.2674 67.9493 92.2471 67.7191 92.2358 67.403C92.2228 67.0784 92.2164 66.7215 92.2168 66.3323C92.2257 65.9413 92.232 65.5597 92.2358 65.1875C92.2464 64.805 92.2555 64.4803 92.2631 64.2135C92.2722 63.9109 92.3174 63.6983 92.3986 63.5756C92.4797 63.453 92.5798 63.3795 92.6987 63.3553C92.86 63.3225 92.9995 63.356 93.1171 63.4559C93.2415 63.5455 93.3279 63.7092 93.3763 63.947C93.385 63.9895 93.3828 64.1093 93.3699 64.3065C93.3552 64.4953 93.3365 64.729 93.3137 65.0079C93.2976 65.2765 93.2756 65.5595 93.2477 65.8571C93.2284 66.1529 93.2174 66.4249 93.2148 66.673C93.3377 66.3208 93.4639 65.9413 93.5934 65.5346C93.7313 65.1262 93.8702 64.7221 94.0099 64.3222C94.1478 63.9138 94.2927 63.5394 94.4445 63.1989C94.5946 62.85 94.7534 62.5656 94.9209 62.3457C95.0884 62.1259 95.2656 61.997 95.4524 61.9589C95.6733 61.914 95.8909 61.9404 96.1054 62.0383C96.3284 62.1344 96.5227 62.285 96.6882 62.4901C96.8538 62.6952 96.9651 62.9379 97.0222 63.2181C97.0619 63.4134 97.0842 63.6964 97.0888 64.0669C97.0918 64.4289 97.0965 64.8215 97.1031 65.2447C97.1181 65.6662 97.1543 66.0612 97.2117 66.4299C97.2289 66.5148 97.2631 66.5521 97.314 66.5417C97.3565 66.533 97.4014 66.4929 97.4487 66.4214C97.6397 66.0995 97.8449 65.7172 98.0643 65.2746C98.282 64.8234 98.4997 64.3501 98.7172 63.8548C98.9433 63.3577 99.1668 62.87 99.3878 62.3916C99.6071 61.9047 99.8138 61.4647 100.008 61.0714C100.209 60.6679 100.39 60.3434 100.553 60.0981C100.724 59.8511 100.868 59.7155 100.987 59.6913C101.242 59.6394 101.452 59.6718 101.617 59.7885C101.783 59.9052 101.9 60.1335 101.969 60.4732C102.024 60.7449 102.075 61.1017 102.121 61.5434C102.175 61.9835 102.224 62.4643 102.268 62.986C102.321 63.5059 102.366 64.0318 102.404 64.5636C102.448 65.0853 102.485 65.573 102.516 66.0267C102.545 66.4719 102.57 66.8381 102.594 67.1253ZM109.131 61.4951C109.186 61.7669 109.156 62.0517 109.039 62.3495C108.921 62.6389 108.746 62.9309 108.515 63.2258C108.281 63.5121 108.015 63.7918 107.717 64.0648C107.419 64.3377 107.115 64.5852 106.807 64.8073C106.498 65.0293 106.213 65.2155 105.952 65.366C105.951 65.711 105.977 66.0109 106.029 66.2657C106.062 66.4271 106.123 66.5339 106.214 66.5863C106.304 66.6387 106.43 66.6485 106.591 66.6156C106.948 66.543 107.313 66.4024 107.686 66.1937C108.059 65.9851 108.433 65.7365 108.808 65.448C109.182 65.1594 109.537 64.8616 109.873 64.5545C110.208 64.2474 110.512 63.96 110.785 63.6922C111.066 63.4227 111.3 63.2026 111.487 63.032C111.673 62.8614 111.8 62.7692 111.868 62.7554C111.97 62.7346 112.053 62.753 112.118 62.8106C112.19 62.8579 112.234 62.9241 112.251 63.009C112.265 63.0769 112.186 63.2302 112.013 63.4687C111.849 63.7056 111.62 63.991 111.325 64.3252C111.029 64.6508 110.692 64.9936 110.314 65.3536C109.936 65.7135 109.538 66.0599 109.119 66.3928C108.709 66.7239 108.302 67.0058 107.899 67.2383C107.503 67.4691 107.136 67.6191 106.796 67.6883C106.355 67.7782 105.977 67.6826 105.663 67.4015C105.349 67.1204 105.122 66.6317 104.98 65.9353C104.885 65.4682 104.848 64.9848 104.87 64.485C104.901 63.9835 104.978 63.4946 105.103 63.0182C105.233 62.5317 105.396 62.0917 105.59 61.6985C105.791 61.2949 106.02 60.9653 106.278 60.7094C106.533 60.4451 106.801 60.2844 107.082 60.2274C107.617 60.1184 108.067 60.1815 108.433 60.4165C108.8 60.6515 109.032 61.011 109.131 61.4951ZM106.02 64.3306C106.25 64.1157 106.487 63.8905 106.731 63.6551C106.975 63.4197 107.197 63.1844 107.397 62.9492C107.597 62.7139 107.748 62.4797 107.851 62.2465C107.96 62.0031 107.993 61.771 107.948 61.5501C107.884 61.2359 107.682 61.1134 107.342 61.1825C107.13 61.2258 106.933 61.4075 106.75 61.7276C106.574 62.0376 106.424 62.4265 106.298 62.8943C106.172 63.3622 106.079 63.8409 106.02 64.3306ZM112.796 66.1617C112.55 66.2119 112.3 66.1167 112.048 65.8762C111.796 65.6357 111.625 65.2946 111.535 64.853C111.436 64.369 111.394 63.838 111.409 63.26C111.433 62.6803 111.484 62.0861 111.564 61.4774C111.642 60.8601 111.719 60.265 111.797 59.6919C111.817 59.5729 111.86 59.4801 111.926 59.4136C111.999 59.3368 112.121 59.2812 112.29 59.2466C112.596 59.1844 112.779 59.3019 112.84 59.5991C112.854 59.667 112.851 59.8268 112.831 60.0784C112.812 60.3301 112.782 60.6412 112.743 61.0119C112.712 61.3808 112.682 61.7803 112.655 62.2104C112.626 62.6321 112.61 63.0553 112.608 63.4803C112.606 63.9052 112.624 64.2952 112.661 64.6503C112.767 64.4783 112.875 64.2264 112.985 63.8945C113.102 63.561 113.225 63.1866 113.353 62.7715C113.479 62.3478 113.614 61.9225 113.757 61.4953C113.898 61.0597 114.046 60.6581 114.201 60.2904C114.363 59.9126 114.53 59.6043 114.703 59.3658C114.882 59.117 115.065 58.9736 115.252 58.9356C115.524 58.8803 115.77 58.9185 115.992 59.0503C116.22 59.1719 116.427 59.4304 116.614 59.8258C116.807 60.211 116.98 60.7772 117.132 61.5246C117.213 61.9237 117.328 62.2896 117.475 62.6222C117.631 62.9531 117.82 63.2066 118.041 63.3826C118.269 63.5484 118.528 63.6019 118.817 63.5431C119.25 63.4549 119.621 63.2998 119.929 63.0778C120.236 62.8473 120.493 62.6093 120.699 62.3639C120.913 62.1082 121.089 61.8866 121.227 61.6992C121.364 61.5032 121.48 61.3958 121.573 61.3767C121.768 61.337 121.887 61.419 121.928 61.6228C121.945 61.7078 121.909 61.8566 121.82 62.0694C121.738 62.2719 121.609 62.5103 121.435 62.7846C121.268 63.0486 121.065 63.3153 120.828 63.5846C120.598 63.8438 120.34 64.0733 120.053 64.2731C119.775 64.4712 119.479 64.6023 119.165 64.6662C118.579 64.7855 118.076 64.7686 117.655 64.6153C117.243 64.4604 116.895 64.1378 116.609 63.6476C116.332 63.1556 116.104 62.468 115.924 61.5848C115.825 61.1007 115.724 60.7543 115.62 60.5456C115.522 60.3267 115.393 60.1937 115.233 60.1467C115.168 60.3458 115.088 60.6273 114.994 60.9914C114.898 61.347 114.785 61.7459 114.654 62.1883C114.531 62.6289 114.397 63.0764 114.25 63.5307C114.111 63.9748 113.961 64.3901 113.801 64.7764C113.641 65.1628 113.476 65.4838 113.307 65.7393C113.136 65.9863 112.966 66.1271 112.796 66.1617ZM119.713 60.8134C119.481 60.8431 119.344 60.716 119.304 60.4323C119.299 60.3627 119.329 60.2725 119.395 60.1618C119.459 60.0426 119.546 59.9675 119.654 59.9365C119.912 59.8575 120.227 59.7535 120.599 59.6248C120.978 59.4858 121.393 59.3306 121.844 59.1591C121.844 58.7256 121.857 58.2675 121.883 57.7847C121.908 57.3019 121.949 56.8293 122.005 56.3668C122.06 55.8958 122.132 55.4655 122.22 55.076C122.309 54.6865 122.422 54.3716 122.559 54.1315C122.633 54.0191 122.705 53.9381 122.775 53.8886C122.842 53.8305 122.906 53.7955 122.965 53.7834C123.084 53.7592 123.188 53.7911 123.277 53.8792C123.374 53.9655 123.436 54.0724 123.461 54.1998C123.475 54.2677 123.476 54.3383 123.465 54.4114C123.392 54.9215 123.328 55.5447 123.275 56.2808C123.221 57.017 123.168 57.8194 123.115 58.6881C123.87 58.4017 124.624 58.1068 125.376 57.8033C126.128 57.4999 126.772 57.2317 127.308 56.9987C127.456 56.8979 127.581 56.8856 127.685 56.9617C127.798 57.0361 127.863 57.12 127.882 57.2135C127.907 57.3324 127.891 57.4284 127.835 57.5017C127.788 57.5733 127.734 57.6372 127.675 57.6935L127.665 57.7088C127.509 57.8113 127.271 57.9439 126.95 58.1064C126.627 58.2605 126.256 58.4335 125.835 58.6253C125.412 58.8086 124.96 58.998 124.478 59.1934C124.004 59.3871 123.533 59.5714 123.065 59.7464C123.022 60.5335 122.979 61.3427 122.936 62.174C122.899 62.995 122.86 63.8034 122.819 64.599C122.796 64.922 122.738 65.1329 122.643 65.2318C122.558 65.3375 122.456 65.4024 122.337 65.4267C122.202 65.4543 122.072 65.4276 121.95 65.3464C121.835 65.2635 121.78 65.058 121.784 64.73L121.83 60.1968C121.336 60.3769 120.897 60.5238 120.513 60.6373C120.138 60.749 119.871 60.8077 119.713 60.8134Z" fill="#008133"/>
</svg>
