<svg width="17" height="17" viewBox="0 0 17 17" fill="none" xmlns="http://www.w3.org/2000/svg">
<path d="M6.3398 5.34937L7.86089 2.26732C8.02579 1.93319 8.34631 1.76596 8.66699 1.76563C8.98831 1.76529 9.30978 1.93252 9.47501 2.26732L10.9961 5.34937L14.3973 5.8436C15.1355 5.95087 15.4303 6.85804 14.8961 7.37872L12.435 9.77777L13.016 13.1653C13.1421 13.9005 12.3704 14.4612 11.7101 14.114L8.66795 12.5147L5.62578 14.114C4.96552 14.4612 4.19383 13.9005 4.31993 13.1653L4.90093 9.77777L2.43977 7.37872C1.9056 6.85804 2.20036 5.95087 2.93856 5.8436L6.3398 5.34937ZM8.66699 11.5017C8.81117 11.5015 8.95537 11.536 9.08676 11.6051L11.9961 13.1346L11.4405 9.895C11.3904 9.60304 11.4872 9.30514 11.6993 9.09838L14.053 6.80407L10.8003 6.33142C10.5071 6.28882 10.2537 6.10471 10.1226 5.83908L8.66795 2.89158L8.66699 2.89352V11.5017Z" fill="#FFA600"/>
</svg>
