<svg width="17" height="17" viewBox="0 0 17 17" fill="none" xmlns="http://www.w3.org/2000/svg">
<g clip-path="url(#clip0_619_67978)">
<rect x="0.199219" y="0.5" width="16" height="16" rx="8" fill="#008133"/>
<path d="M6.86553 10.8859L5.14153 9.16186C5.01579 9.04042 4.84739 8.97322 4.67259 8.97474C4.49779 8.97626 4.33059 9.04637 4.20698 9.16998C4.08338 9.29359 4.01326 9.46079 4.01174 9.63559C4.01023 9.81039 4.07742 9.97879 4.19886 10.1045L6.39419 12.2999C6.51921 12.4248 6.68875 12.495 6.86553 12.495C7.0423 12.495 7.21184 12.4248 7.33686 12.2999L12.8655 6.77119C12.9292 6.70969 12.98 6.63613 13.0149 6.5548C13.0499 6.47346 13.0683 6.38598 13.069 6.29746C13.0698 6.20894 13.0529 6.12115 13.0194 6.03922C12.9859 5.95729 12.9364 5.88286 12.8738 5.82026C12.8112 5.75767 12.7368 5.70817 12.6548 5.67464C12.5729 5.64112 12.4851 5.62426 12.3966 5.62503C12.3081 5.62579 12.2206 5.64419 12.1393 5.67912C12.0579 5.71406 11.9844 5.76485 11.9229 5.82853L6.86553 10.8859Z" fill="white"/>
</g>
<defs>
<clipPath id="clip0_619_67978">
<rect x="0.199219" y="0.5" width="16" height="16" rx="8" fill="white"/>
</clipPath>
</defs>
</svg>
