<svg width="51" height="42" viewBox="0 0 51 42" fill="none" xmlns="http://www.w3.org/2000/svg">
<path d="M50.6582 8.92344C50.6582 4.50084 45.8934 0.902344 40.0369 0.902344C34.1804 0.902344 29.4156 4.50084 29.4156 8.92344C29.4204 9.79097 29.6042 10.6481 29.9556 11.4412H5.30563C4.75281 11.4616 4.23058 11.7001 3.85318 12.1045C3.47571 12.5089 3.27381 13.0463 3.29158 13.5992V34.9711H2.59798C2.09724 34.9586 1.61196 35.1451 1.24839 35.4897C0.884831 35.8343 0.672611 36.3089 0.658203 36.8096C0.719816 38.1895 1.32503 39.489 2.34164 40.4241C3.35826 41.3593 4.70361 41.8541 6.08391 41.8005H40.9422C42.3224 41.854 43.6677 41.3591 44.6842 40.424C45.7007 39.4889 46.3058 38.1894 46.3674 36.8096C46.353 36.3087 46.1407 35.834 45.7769 35.4894C45.4132 35.1448 44.9277 34.9584 44.4268 34.9711L43.7344 34.9723V16.433C47.7706 15.2955 50.6582 12.3631 50.6582 8.92344ZM40.0369 2.69027C44.9078 2.69027 48.8703 5.48649 48.8703 8.92344C48.8703 12.3605 44.9078 15.1567 40.0369 15.1567C39.0167 15.159 38.0005 15.0317 37.0124 14.7778C36.8099 14.7439 36.6023 14.7575 36.406 14.8175C36.2097 14.8775 36.03 14.9822 35.881 15.1235C34.9597 15.7705 33.9279 16.2436 32.8364 16.5194C33.5575 15.1139 33.9111 13.4779 33.1612 12.8214C32.5708 12.3533 32.0898 11.762 31.7516 11.0888C31.4135 10.4155 31.2264 9.67652 31.2035 8.92344C31.2035 5.48649 35.166 2.69027 40.0369 2.69027ZM44.428 36.7589C44.4829 36.7575 44.5366 36.7754 44.5795 36.8096C44.5174 37.715 44.1004 38.5592 43.4194 39.1589C42.7384 39.7586 41.8481 40.0655 40.9422 40.0126H6.08391C5.17948 40.0655 4.29066 39.7604 3.60951 39.1631C2.92836 38.5658 2.50963 37.7245 2.44392 36.821C2.46303 36.7994 2.48691 36.7826 2.51368 36.7718C2.54038 36.761 2.56926 36.7566 2.59798 36.7589L16.4782 36.752C17.1862 37.2412 18.0114 37.5334 18.8694 37.5988H28.1602C29.0551 37.6346 29.9326 37.3449 30.6304 36.7834L44.428 36.7589ZM41.9466 34.9753L30.6334 34.9946C30.2146 34.991 29.809 35.1417 29.4942 35.418C29.1075 35.6977 28.6367 35.8363 28.1602 35.8109H18.8693C18.352 35.7398 17.8597 35.5442 17.4346 35.2408C17.1585 35.0651 16.8382 34.9715 16.5109 34.9711H5.07951V13.5992C5.07951 13.3731 5.21353 13.2291 5.30563 13.2291H31.074C31.2998 13.502 31.5426 13.7603 31.801 14.0026C31.6391 15.044 31.1926 16.0204 30.5107 16.8241C30.3674 16.988 30.2776 17.1919 30.2536 17.4083C30.2294 17.6248 30.2722 17.8434 30.3759 18.0349C30.4684 18.2085 30.6066 18.3536 30.7755 18.4545C30.9445 18.5555 31.1377 18.6083 31.3345 18.6076C31.3828 18.6077 31.4313 18.6048 31.4794 18.5989C33.419 18.3958 35.2768 17.71 36.8832 16.604L36.9016 16.5918C38.5557 16.9727 40.2659 17.0459 41.9466 16.8077V34.9753Z" fill="#9747FF"/>
</svg>
