<svg width="51" height="48" viewBox="0 0 51 48" fill="none" xmlns="http://www.w3.org/2000/svg">
<path d="M33.1275 31.7857C33.462 31.7857 33.7383 31.5135 33.7383 31.1749C33.7383 30.8341 33.4661 30.564 33.1275 30.564L18.3094 30.562C17.9749 30.562 17.6986 30.8341 17.6986 31.1728C17.6986 31.5135 17.9708 31.7836 18.3094 31.7836H20.5907V44.1023C20.5907 44.4368 20.8629 44.7131 21.2016 44.7131C21.5361 44.7131 21.8124 44.4409 21.8124 44.1023V40.8465H29.6207V44.1023C29.6207 44.4368 29.8928 44.7131 30.2315 44.7131C30.5722 44.7131 30.8423 44.4409 30.8423 44.1023L30.8465 31.7857L33.1275 31.7857ZM29.6224 39.6268H21.8141V31.7857H29.6224V39.6268ZM15.4256 32.7808H13.0902C12.8991 32.7808 12.7453 32.6271 12.7453 32.4359V29.5687H19.2238C20.4788 29.5687 21.5009 28.5464 21.5009 27.2915C21.5009 26.0366 20.4787 25.0144 19.2238 25.0144H14.256L11.7295 22.4775C11.0168 21.7649 10.1442 21.4033 9.1386 21.4033H9.13238H7.42448C5.50883 21.4033 3.95678 22.9616 3.95678 24.871V34.8169C3.95678 35.4756 4.17495 36.0927 4.54275 36.5872L3.36255 36.5893C2.5813 36.5893 1.94138 35.9514 1.94138 35.1681L1.94346 24.3493C1.94346 24.0148 1.67127 23.7385 1.33263 23.7385C0.996042 23.7385 0.719727 24.0086 0.719727 24.3493V35.1681C0.719727 36.5767 1.83756 37.7257 3.22965 37.7964L0.740524 47.0838C0.655332 47.4079 0.846484 47.7424 1.1706 47.8276C1.22463 47.8442 1.27657 47.8484 1.33059 47.8484C1.60277 47.8484 1.84587 47.6677 1.92068 47.3955L4.48875 37.8049H11.68V47.2354C11.68 47.5699 11.9522 47.8462 12.2908 47.8462C12.6315 47.8462 12.9016 47.574 12.9016 47.2354L12.9058 37.8128H13.9322V43.8817C13.9322 45.2697 15.0604 46.3979 16.4483 46.3979C17.8362 46.3979 18.9644 45.2697 18.9644 43.8817V36.3129C18.9582 34.2954 17.4368 32.7808 15.4256 32.7808ZM17.7401 43.8757C17.7401 44.5883 17.1605 45.1742 16.4416 45.1742C15.7289 45.1742 15.143 44.5945 15.143 43.8757L15.1451 37.1998C15.1451 36.8653 14.8729 36.589 14.5343 36.589H6.93825H6.93203C5.96378 36.5786 5.18258 35.7808 5.18258 34.8188V24.8729C5.18258 23.6346 6.1923 22.6227 7.43273 22.6227H9.14063C9.82208 22.6227 10.3852 22.8575 10.8693 23.3416L13.5765 26.0593C13.6929 26.1756 13.8487 26.24 14.0066 26.24H19.2238C19.8097 26.24 20.2814 26.7137 20.2814 27.2976C20.2814 27.8836 19.8076 28.3552 19.2238 28.3552H12.3899L10.9958 26.9569C10.7569 26.7179 10.3725 26.7179 10.1336 26.9569C9.8946 27.1958 9.8946 27.5802 10.1336 27.8191L11.5277 29.2174V32.44C11.5277 33.3022 12.23 34.0045 13.0922 34.0045H15.4276C16.7469 34.0045 17.7422 34.9997 17.7422 36.3191L17.7401 43.8757ZM8.56493 20.7653C10.6613 20.7653 12.363 19.0636 12.363 16.9672C12.363 14.8708 10.6613 13.1692 8.56493 13.1692C6.46853 13.1692 4.76693 14.8708 4.76693 16.9672C4.76693 19.0636 6.46853 20.7653 8.56493 20.7653ZM8.56493 14.3868C9.9861 14.3868 11.1455 15.542 11.1455 16.9674C11.1455 18.3886 9.9903 19.5479 8.56493 19.5479C7.14375 19.5479 5.9844 18.3927 5.9844 16.9674C5.9844 15.5462 7.14375 14.3868 8.56493 14.3868ZM16.2939 12.8182C16.4684 12.8971 16.6513 12.9345 16.832 12.9345C17.1521 12.9345 17.4658 12.8182 17.7213 12.5833L19.1051 11.318C19.5414 10.9191 19.8759 10.755 20.2541 10.755H22.0949C22.1635 12.1595 23.3187 13.2877 24.7441 13.2877H31.1848C31.5671 13.2877 31.8974 13.4518 32.3338 13.8508L33.7176 15.1161C33.9669 15.3446 34.2806 15.4672 34.6069 15.4672C34.7876 15.4672 34.9684 15.4298 35.1449 15.3509C35.6291 15.139 35.9324 14.6756 35.9324 14.1437L35.9262 6.09456C35.9262 4.62561 34.7357 3.43506 33.2667 3.43506H29.3419C29.2733 2.03053 28.1181 0.902344 26.6928 0.902344L18.1703 0.904422C16.7013 0.904422 15.5108 2.09496 15.5108 3.56391V11.6067C15.5066 12.1365 15.8098 12.6 16.2939 12.8182ZM29.3568 8.09548V4.65478H33.2671C34.0587 4.65478 34.709 5.30301 34.709 6.09666V14.1395C34.709 14.1873 34.6924 14.2143 34.6508 14.2309C34.6092 14.2475 34.576 14.2413 34.5386 14.2143L33.1548 12.949C32.7081 12.5396 32.0744 12.0659 31.181 12.0659L24.7403 12.0638C23.9902 12.0638 23.3794 11.4841 23.3087 10.7507H26.6912C28.1664 10.7548 29.3568 9.56233 29.3568 8.09548ZM16.7243 3.56398C16.7243 2.77236 17.3725 2.12211 18.1661 2.12211H26.693C27.4846 2.12211 28.1349 2.77033 28.1349 3.56398V8.09548C28.1349 8.88711 27.4866 9.53743 26.693 9.53743H20.256C19.3625 9.53743 18.7289 10.0049 18.2822 10.4205L16.8984 11.6858C16.8672 11.7169 16.8298 11.7232 16.7862 11.7024C16.7447 11.6816 16.728 11.6546 16.728 11.611L16.7301 3.56391L16.7243 3.56398ZM18.5651 4.38883C18.5651 4.05433 18.8372 3.77803 19.1759 3.77803H25.6853C26.0198 3.77803 26.2961 4.05021 26.2961 4.38883C26.2961 4.72963 26.0239 4.99971 25.6853 4.99971H19.1759C18.8414 4.99971 18.5651 4.72753 18.5651 4.38883ZM18.5651 7.26441C18.5651 6.92991 18.8372 6.65361 19.1759 6.65361H23.6555C23.99 6.65361 24.2663 6.92578 24.2663 7.26441C24.2663 7.60513 23.9942 7.87521 23.6555 7.87521L19.1759 7.87731C18.8414 7.87731 18.5651 7.60513 18.5651 7.26441ZM50.7176 35.1682V24.3494C50.7176 24.0149 50.4455 23.7386 50.1068 23.7386C49.7723 23.7386 49.496 24.0108 49.496 24.3494V35.1682C49.496 35.9494 48.8582 36.5894 48.0749 36.5894H46.8947C47.2624 36.0886 47.4806 35.4778 47.4806 34.8192V24.8733C47.4806 22.9576 45.9223 21.4056 44.0129 21.4056H42.305H42.2988C41.2891 21.4056 40.4206 21.7671 39.7079 22.4797L37.1814 25.0166H32.2136C30.9586 25.0166 29.9364 26.0389 29.9364 27.2938C29.9364 28.5487 30.9587 29.5709 32.2136 29.5709H38.6921V32.4382C38.6921 32.6293 38.5383 32.783 38.3471 32.783H36.0119C33.9964 32.783 32.4797 34.2998 32.4797 36.3151V43.8841C32.4797 45.2719 33.6079 46.4002 34.9958 46.4002C36.3838 46.4002 37.512 45.2719 37.512 43.8841V37.813H38.5384V47.2435C38.5384 47.578 38.8106 47.8543 39.1492 47.8543C39.49 47.8543 39.7601 47.5822 39.7601 47.2435V37.813H46.9513L49.5194 47.4036C49.5941 47.6758 49.8393 47.8565 50.1094 47.8565C50.1635 47.8565 50.2154 47.8503 50.2694 47.8357C50.5935 47.7505 50.7847 47.416 50.6995 47.092L48.2104 37.8045C49.6004 37.7276 50.7176 36.579 50.7176 35.1682ZM46.261 34.8171C46.261 35.7853 45.4735 36.5769 44.5115 36.5872H44.5052L36.905 36.5893C36.5705 36.5893 36.2942 36.8615 36.2942 37.2002V43.876C36.2942 44.5886 35.7145 45.1746 34.9956 45.1746C34.2767 45.1746 33.6971 44.5949 33.6971 43.876V36.313C33.6971 34.9936 34.6922 33.9984 36.0116 33.9984H38.347C39.2093 33.9984 39.9115 33.2961 39.9115 32.4339V29.2113L41.3057 27.813C41.5446 27.574 41.5446 27.1897 41.3057 26.9508C41.0667 26.7118 40.6823 26.7118 40.4434 26.9508L39.0492 28.3491H32.2133C31.6274 28.3491 31.1558 27.8753 31.1558 27.2915C31.1558 26.7055 31.6295 26.2339 32.2133 26.2339H37.4305C37.5905 26.2339 37.7504 26.1695 37.8605 26.0532L40.5678 23.3355C41.0457 22.8514 41.615 22.6166 42.2965 22.6166H44.0043C45.2426 22.6166 46.2545 23.6263 46.2545 24.8668V34.8169L46.261 34.8171ZM42.8722 20.7655C44.9686 20.7655 46.6703 19.0638 46.6703 16.9674C46.6703 14.871 44.9686 13.1693 42.8722 13.1693C40.7758 13.1693 39.0741 14.871 39.0741 16.9674C39.0741 19.0638 40.782 20.7655 42.8722 20.7655ZM42.8722 14.3869C44.2934 14.3869 45.4527 15.5422 45.4527 16.9675C45.4527 18.3886 44.2975 19.5481 42.8722 19.5481C41.451 19.5481 40.2917 18.3928 40.2917 16.9675C40.2979 15.5463 41.451 14.3869 42.8722 14.3869Z" fill="#9747FF"/>
</svg>
