<svg width="49" height="51" viewBox="0 0 49 51" fill="none" xmlns="http://www.w3.org/2000/svg">
<path fill-rule="evenodd" clip-rule="evenodd" d="M28.0793 0.402344C26.1763 0.402344 24.6179 1.96148 24.6179 3.86371V13.1721L20.7423 17.7161C20.634 17.8413 20.5641 17.9951 20.5409 18.159C20.5176 18.323 20.5421 18.4901 20.6114 18.6405C20.6806 18.791 20.7917 18.9182 20.9314 19.0071C21.0711 19.0961 21.2334 19.1429 21.399 19.142H28.0793H29.6131H44.617C46.52 19.142 48.0783 17.5829 48.0783 15.6806V3.86371C48.0783 1.96148 46.52 0.402344 44.617 0.402344H28.0793ZM28.0793 2.1263H44.617C45.5963 2.1263 46.3543 2.88826 46.3543 3.86371V15.6806C46.3543 16.6561 45.5963 17.4164 44.617 17.4164H29.6131H28.0793H23.2626L26.1331 14.051C26.2674 13.895 26.3415 13.6961 26.3419 13.4903V3.86371C26.3419 2.88826 27.1 2.1263 28.0793 2.1263ZM32.1771 6.17356C32.0639 6.17311 31.9517 6.19501 31.847 6.23791C31.7422 6.28081 31.647 6.34396 31.5666 6.42368C31.4862 6.50341 31.4223 6.59821 31.3786 6.70261C31.3349 6.80701 31.3122 6.91898 31.3117 7.03223C31.3113 7.14593 31.3334 7.25866 31.3767 7.36388C31.42 7.46903 31.4838 7.56466 31.5642 7.64506C31.6446 7.72553 31.7403 7.78928 31.8454 7.83256C31.9506 7.87591 32.0634 7.89796 32.1771 7.89751H40.7868C40.9 7.89713 41.012 7.87433 41.1164 7.83061C41.2209 7.78688 41.3156 7.72306 41.3953 7.64273C41.475 7.56233 41.5382 7.46708 41.5811 7.36231C41.624 7.25761 41.6459 7.14541 41.6455 7.03223C41.6446 6.80476 41.5538 6.58688 41.393 6.42601C41.2321 6.26521 41.0143 6.17446 40.7868 6.17356H32.1771ZM9.4676 7.07768C5.69217 7.07768 2.62055 10.1908 2.62055 13.9937C2.62055 16.4749 3.9293 18.6617 5.88665 19.8828C2.45015 21.2937 0.0312563 24.6746 0.0312563 28.6221V33.0196C0.0303863 33.2482 0.120349 33.4678 0.281367 33.6301C0.442384 33.7924 0.661264 33.884 0.889864 33.8849H18.0453C18.2739 33.884 18.4928 33.7924 18.6538 33.6301C18.8148 33.4678 18.9048 33.2482 18.9039 33.0196V28.6221C18.9039 24.6746 16.485 21.2937 13.0485 19.8828C15.0058 18.6617 16.3146 16.4749 16.3146 13.9937C16.3146 10.1908 13.2429 7.07768 9.4676 7.07768ZM9.4676 8.80163C12.3005 8.80163 14.589 11.1119 14.589 13.9937C14.589 16.8092 12.4052 19.0793 9.6629 19.1825C9.59802 19.1807 9.53277 19.1789 9.4676 19.1789C9.40242 19.1789 9.33717 19.1806 9.2723 19.1825C6.53 19.0793 4.3445 16.8092 4.3445 13.9937C4.3445 11.1119 6.6347 8.80163 9.4676 8.80163ZM32.1771 11.6451C32.0634 11.6447 31.9506 11.6668 31.8454 11.7101C31.7402 11.7534 31.6446 11.8172 31.5642 11.8976C31.4838 11.978 31.42 12.0737 31.3767 12.1788C31.3334 12.284 31.3113 12.3968 31.3117 12.5105C31.3119 12.6239 31.3345 12.736 31.3782 12.8406C31.4218 12.9452 31.4856 13.0402 31.566 13.1201C31.6464 13.2 31.7417 13.2633 31.8466 13.3063C31.9515 13.3493 32.0638 13.3712 32.1771 13.3708H40.7868C41.0145 13.3699 41.2327 13.2789 41.3936 13.1177C41.5545 12.9566 41.645 12.7382 41.6455 12.5105C41.6459 12.3973 41.624 12.2852 41.5811 12.1804C41.5382 12.0756 41.475 11.9804 41.3953 11.9C41.3156 11.8196 41.2209 11.7558 41.1164 11.712C41.012 11.6683 40.9 11.6456 40.7868 11.6451H32.1771ZM9.25715 20.9064C9.32697 20.9081 9.39725 20.91 9.4676 20.91C9.53795 20.91 9.60822 20.9091 9.67805 20.9064C13.8668 21.0164 17.18 24.4014 17.18 28.6221V32.161H1.7552V28.6221C1.7552 24.4014 5.0684 21.0164 9.25715 20.9064ZM32.2529 23.595C28.4775 23.595 25.4075 26.7099 25.4075 30.5128C25.4075 32.9962 26.7168 35.1816 28.677 36.4002C25.2361 37.8098 22.8114 41.1917 22.8114 45.1412V49.537C22.8111 49.6508 22.8331 49.7635 22.8765 49.8686C22.9198 49.9739 22.9835 50.0694 23.064 50.1499C23.1444 50.2303 23.24 50.294 23.3451 50.3374C23.4504 50.3807 23.5631 50.4028 23.6768 50.4023H40.8238C40.9377 50.403 41.0507 50.381 41.1561 50.3378C41.2614 50.2946 41.3572 50.2309 41.4378 50.1505C41.5184 50.07 41.5823 49.9743 41.6257 49.8691C41.6692 49.7638 41.6913 49.6509 41.6909 49.537V45.1412C41.6909 41.1914 39.2683 37.8097 35.8288 36.4002C37.7871 35.1816 39.0932 32.9962 39.0932 30.5128C39.0932 26.7099 36.0283 23.595 32.2529 23.595ZM32.2529 25.3207C35.0858 25.3207 37.3692 27.6309 37.3692 30.5128C37.3692 33.3283 35.1902 35.5985 32.4482 35.7015C32.3832 35.6998 32.3181 35.6979 32.2528 35.6979C32.1877 35.6979 32.124 35.6996 32.0592 35.7015C29.3169 35.5985 27.1314 33.3283 27.1314 30.5128C27.1314 27.6309 29.4199 25.3207 32.2529 25.3207ZM32.2529 37.4221C36.5406 37.4221 39.9652 40.85 39.9652 45.1412V48.6784H24.5355V45.1412C24.5355 40.85 27.9652 37.4221 32.2529 37.4221Z" fill="#9747FF"/>
</svg>
