<svg width="94" height="11" viewBox="0 0 94 11" fill="none" xmlns="http://www.w3.org/2000/svg">
<path d="M2.21369 3.25477C0.904296 2.52937 2.8445 2.59211 3.70211 2.54035C9.21288 2.20781 14.7756 2.23172 20.2691 2.20517C38.8251 2.11551 57.3461 2.46661 75.7673 3.6487C79.921 3.91524 84.1505 4.15979 88.2462 4.75258C88.4271 4.77876 88.9569 4.87192 88.7715 4.88513C87.2609 4.99277 85.7671 4.76661 84.2668 4.69307C67.1617 3.85475 49.8483 3.94544 32.6247 5.0531C25.6294 5.50298 18.5948 6.25188 11.6506 7.41126C9.76443 7.72618 5.31609 8.52186 10.8613 8.49412C19.7771 8.44951 28.719 7.91456 37.6391 7.85484C48.9449 7.77914 60.2026 8.07576 71.4542 8.55015C76.2065 8.75051 80.9515 9.04107 85.7215 9.08799C87.6303 9.10676 90.0308 9.35504 91.9539 8.98934C93.3748 8.71914 89.1429 8.58839 87.7137 8.53184C84.9283 8.42163 82.3022 8.67499 79.5283 8.937" stroke="#FFC303" stroke-width="2.64974" stroke-linecap="round" stroke-linejoin="round"/>
</svg>
