<svg width="142" height="50" viewBox="0 0 142 50" fill="none" xmlns="http://www.w3.org/2000/svg">
<path d="M34.3274 18.1521L34.2299 21.2824L26.0659 30.1564C29.4762 30.1564 31.6384 30.1232 32.8854 30.0539C32.5242 31.7382 32.23 33.1148 31.9342 35.1789C30.2944 35.0403 27.7378 35.0059 25.1795 35.0059C22.3282 35.0059 19.8358 35.0403 17.8359 35.1789L17.9024 32.0132L26.0659 23.1746C22.4922 23.1746 21.1803 23.2085 19.7056 23.2428C20.0325 21.6605 20.2624 19.9069 20.4917 18.1521C23.0816 18.2553 24.0981 18.2891 27.4752 18.2891C30.5902 18.2891 32.3596 18.2553 34.3274 18.1521ZM43.6066 17.2224C38.2939 17.2224 34.2299 21.9693 34.2299 27.6466C34.2299 31.9112 36.6885 35.1789 41.4749 35.1789C46.8191 35.1789 50.8521 30.4314 50.8521 24.7209C50.8521 20.4918 48.4578 17.2224 43.6066 17.2224ZM41.9995 30.6163C40.8189 30.6163 40.1309 29.5484 40.1309 27.4505C40.1309 24.3202 41.4095 21.8098 42.9839 21.8098C44.1306 21.8098 44.8192 22.8427 44.8192 24.9739C44.8187 28.0698 43.5739 30.6163 41.9995 30.6163ZM118.699 16.9868C113.319 16.9868 109.2 21.7963 109.2 27.5452C109.2 31.8678 111.691 35.1789 116.541 35.1789C121.955 35.1789 126.041 30.3689 126.041 24.5845C126.041 20.2985 123.617 16.9868 118.699 16.9868ZM116.97 30.5982C115.789 30.5982 115.101 29.5304 115.101 27.4325C115.101 24.3022 116.381 21.7924 117.954 21.7924C119.101 21.7924 119.79 22.8241 119.79 24.9559C119.79 28.0529 118.544 30.5982 116.97 30.5982ZM78.4242 23.4147C78.8508 20.4918 78.6215 17.8428 75.3763 17.8428C73.0152 17.8428 70.458 19.8381 68.6548 23.1746C69.0487 20.4219 68.8182 17.8428 65.6057 17.8428C63.1798 17.8428 60.5567 19.9407 58.753 23.4147C59.2122 21.1443 59.1142 18.5641 58.9829 18.0141C57.1143 18.324 55.4756 18.4953 53.1799 18.5641C53.2458 20.1469 53.1472 22.2094 52.852 24.1715L52.098 29.3303C51.8027 31.3606 51.4748 33.6997 51.1468 35.1789H57.245C57.2783 34.2835 57.5082 32.8736 57.6716 31.6356L58.1962 28.0935C58.6222 25.7876 60.4576 23.0715 61.8674 23.0715C62.6873 23.0715 62.6552 23.8621 62.4253 25.3413L61.8347 29.3303C61.5389 31.3606 61.2121 33.6997 60.8836 35.1789H67.0471C67.0804 34.2835 67.2771 32.8736 67.4405 31.6356L67.9645 28.0935C68.3911 25.7876 70.2281 23.0715 71.6369 23.0715C72.4573 23.0715 72.4252 23.8272 72.2928 24.8601L70.8204 35.1789H76.4458L78.4242 23.4147ZM107.878 29.7783L107.222 33.8378C106.205 34.3878 104.304 35.1795 102.107 35.1795C98.3694 35.1795 97.616 33.1841 98.2054 28.9534L99.1566 22.1423H97.3173L97.8369 17.7335L99.8452 17.6365L100.6 14.4375L106.27 12.3047L105.55 17.6365H109.451C109.321 18.1865 108.86 21.2148 108.731 22.1423H104.926L104.073 28.4372C103.844 30.0539 103.976 30.6388 105.089 30.6388C105.911 30.6382 107.123 30.1564 107.878 29.7783ZM86.3651 31.9709C88.4292 31.7151 89.8498 29.7254 90.1913 27.7401L90.2488 27.2082C89.3618 27.0098 88.0799 26.8588 86.8368 27.011C85.6529 27.1552 84.6679 27.6472 84.1382 28.3594C83.7386 28.8711 83.538 29.483 83.6271 30.2128C83.7617 31.306 84.9705 32.1411 86.3651 31.9709ZM84.6081 35.1153C81.6948 35.4731 79.7761 34.3168 79.2002 31.6863C78.839 30.0313 79.3405 28.1459 80.2179 27.0211C81.3928 25.5498 83.3076 24.6054 85.6444 24.3202C87.5248 24.087 89.1094 24.2019 90.5914 24.4825L90.6528 24.2284C90.6951 23.8221 90.7379 23.4164 90.6787 22.9306C90.5249 21.6836 89.5416 20.9409 87.1135 21.2396C85.4754 21.4407 83.9167 22.0324 82.7063 22.7058L81.5291 19.1484C83.1695 18.2068 85.237 17.49 87.6031 17.1993C92.123 16.6448 95.2989 18.0862 95.7057 21.3996C95.8134 22.2809 95.8263 23.2147 95.7153 24.0622C95.1349 28.1594 94.763 31.2423 94.6001 33.3087C94.5737 33.6287 94.5759 34.1782 94.6046 34.9575L88.9955 34.9524C89.115 34.6295 89.2221 34.1917 89.3173 33.6423C89.3804 33.2811 89.4255 32.8252 89.4537 32.2729C88.2686 33.8998 86.639 34.8656 84.6081 35.1153Z" fill="#E92D2D"/>
</svg>
